<svg width="160" height="72" viewBox="0 0 160 72" fill="none" xmlns="http://www.w3.org/2000/svg">
<g filter="url(#filter0_d)">
<rect width="160" height="68.152" rx="5" fill="#C00000"/>
<path d="M44.6357 36.0059H43.3711C43.3301 36.3066 43.2594 36.5869 43.1592 36.8467C43.0589 37.1019 42.9245 37.3229 42.7559 37.5098C42.5872 37.7012 42.3799 37.8493 42.1338 37.9541C41.8923 38.0589 41.6051 38.1113 41.2725 38.1113C40.9671 38.1113 40.7005 38.0635 40.4727 37.9678C40.2448 37.8675 40.0465 37.7308 39.8779 37.5576C39.7093 37.389 39.5703 37.193 39.4609 36.9697C39.3516 36.7464 39.2627 36.5072 39.1943 36.252C39.126 36.0013 39.0758 35.7461 39.0439 35.4863C39.0166 35.222 39.0029 34.9668 39.0029 34.7207V33.3193C39.0029 33.0732 39.0166 32.8203 39.0439 32.5605C39.0758 32.2962 39.126 32.0387 39.1943 31.7881C39.2627 31.5374 39.3516 31.3005 39.4609 31.0771C39.5749 30.8538 39.7161 30.6579 39.8848 30.4893C40.0488 30.3206 40.2448 30.1885 40.4727 30.0928C40.7051 29.9925 40.9717 29.9424 41.2725 29.9424C41.6051 29.9424 41.8923 29.9993 42.1338 30.1133C42.3799 30.2227 42.5872 30.3753 42.7559 30.5713C42.9245 30.7673 43.0589 30.9951 43.1592 31.2549C43.2594 31.5146 43.3301 31.7949 43.3711 32.0957H44.6357C44.5811 31.6217 44.4671 31.1888 44.2939 30.7969C44.1253 30.4049 43.8997 30.0677 43.6172 29.7852C43.3346 29.5072 42.9974 29.293 42.6055 29.1426C42.2135 28.9876 41.7692 28.9102 41.2725 28.9102C40.8577 28.9102 40.484 28.9694 40.1514 29.0879C39.8187 29.2018 39.5225 29.3613 39.2627 29.5664C38.9984 29.7715 38.7705 30.0153 38.5791 30.2979C38.3923 30.5758 38.2373 30.8789 38.1143 31.207C37.9867 31.5352 37.891 31.8792 37.8271 32.2393C37.7679 32.5993 37.736 32.9639 37.7314 33.333V34.7207C37.736 35.0898 37.7679 35.4544 37.8271 35.8145C37.891 36.1745 37.9867 36.5186 38.1143 36.8467C38.2373 37.1748 38.3923 37.4779 38.5791 37.7559C38.7705 38.0339 38.9984 38.2754 39.2627 38.4805C39.5225 38.6855 39.8187 38.8473 40.1514 38.9658C40.4886 39.0798 40.8623 39.1367 41.2725 39.1367C41.751 39.1367 42.1839 39.0615 42.5713 38.9111C42.9632 38.7562 43.3027 38.5397 43.5898 38.2617C43.8724 37.9883 44.1025 37.6602 44.2803 37.2773C44.458 36.89 44.5765 36.4661 44.6357 36.0059ZM46.2422 35.2334V35.3838C46.2422 35.917 46.3197 36.4115 46.4746 36.8672C46.6296 37.3229 46.8529 37.7194 47.1445 38.0566C47.4316 38.3939 47.7826 38.6582 48.1973 38.8496C48.6165 39.041 49.0882 39.1367 49.6123 39.1367C50.1318 39.1367 50.599 39.041 51.0137 38.8496C51.4284 38.6582 51.7816 38.3939 52.0732 38.0566C52.3604 37.7194 52.5814 37.3229 52.7363 36.8672C52.8913 36.4115 52.9688 35.917 52.9688 35.3838V35.2334C52.9688 34.7002 52.8913 34.2057 52.7363 33.75C52.5814 33.2897 52.3604 32.891 52.0732 32.5537C51.7816 32.2165 51.4261 31.9521 51.0068 31.7607C50.5921 31.5648 50.1227 31.4668 49.5986 31.4668C49.0791 31.4668 48.612 31.5648 48.1973 31.7607C47.7826 31.9521 47.4316 32.2165 47.1445 32.5537C46.8529 32.891 46.6296 33.2897 46.4746 33.75C46.3197 34.2057 46.2422 34.7002 46.2422 35.2334ZM47.5068 35.3838V35.2334C47.5068 34.8734 47.5501 34.5293 47.6367 34.2012C47.7233 33.8685 47.8555 33.5768 48.0332 33.3262C48.2064 33.0755 48.4229 32.8773 48.6826 32.7314C48.9424 32.5811 49.2477 32.5059 49.5986 32.5059C49.9495 32.5059 50.2549 32.5811 50.5146 32.7314C50.779 32.8773 51 33.0755 51.1777 33.3262C51.3509 33.5768 51.4808 33.8685 51.5674 34.2012C51.6585 34.5293 51.7041 34.8734 51.7041 35.2334V35.3838C51.7041 35.7484 51.6608 36.097 51.5742 36.4297C51.4876 36.7578 51.3577 37.0472 51.1846 37.2979C51.0068 37.5485 50.7858 37.7467 50.5215 37.8926C50.2617 38.0384 49.9587 38.1113 49.6123 38.1113C49.2614 38.1113 48.9538 38.0384 48.6895 37.8926C48.4251 37.7467 48.2064 37.5485 48.0332 37.2979C47.8555 37.0472 47.7233 36.7578 47.6367 36.4297C47.5501 36.097 47.5068 35.7484 47.5068 35.3838ZM55.0059 39H56.2705V33.6953C56.3571 33.5358 56.4574 33.39 56.5713 33.2578C56.6898 33.1257 56.8174 33.0094 56.9541 32.9092C57.1227 32.7952 57.3073 32.7064 57.5078 32.6426C57.7083 32.5742 57.9248 32.54 58.1572 32.54C58.4261 32.54 58.6631 32.5719 58.8682 32.6357C59.0778 32.6995 59.2555 32.8021 59.4014 32.9434C59.5426 33.0846 59.6497 33.2692 59.7227 33.4971C59.7956 33.7249 59.832 34.0029 59.832 34.3311V39H61.0967V34.3037C61.0967 33.8115 61.0352 33.3877 60.9121 33.0322C60.7936 32.6722 60.6227 32.376 60.3994 32.1436C60.1761 31.9111 59.9049 31.7402 59.5859 31.6309C59.2715 31.5215 58.9206 31.4668 58.5332 31.4668C58.2461 31.4714 57.9727 31.5146 57.7129 31.5967C57.4577 31.6742 57.2207 31.7858 57.002 31.9316C56.8561 32.0273 56.7171 32.1413 56.585 32.2734C56.4574 32.401 56.3389 32.5423 56.2295 32.6973L56.1406 31.6035H55.0059V39ZM66.4082 29.8125H65.1367V31.6035H63.1953V32.5811H65.1367V36.6006C65.1367 37.0563 65.196 37.446 65.3145 37.7695C65.4375 38.0885 65.6038 38.3483 65.8135 38.5488C66.0231 38.7539 66.2692 38.9043 66.5518 39C66.8389 39.0911 67.1465 39.1367 67.4746 39.1367C67.6706 39.1367 67.8665 39.1276 68.0625 39.1094C68.263 39.0911 68.4521 39.0638 68.6299 39.0273C68.8076 38.9954 68.9717 38.9567 69.1221 38.9111C69.2725 38.861 69.4001 38.804 69.5049 38.7402L69.3271 37.8447C69.2497 37.863 69.1494 37.8857 69.0264 37.9131C68.9079 37.9359 68.7803 37.9587 68.6436 37.9814C68.5023 38.0042 68.3587 38.0247 68.2129 38.043C68.0671 38.0566 67.9258 38.0635 67.7891 38.0635C67.6022 38.0635 67.4245 38.0407 67.2559 37.9951C67.0918 37.9495 66.946 37.8698 66.8184 37.7559C66.6908 37.6465 66.5905 37.4984 66.5176 37.3115C66.4447 37.1247 66.4082 36.8877 66.4082 36.6006V32.5811H69.2246V31.6035H66.4082V29.8125ZM76.6689 31.4668C76.1312 31.4668 75.6504 31.5853 75.2266 31.8223C74.8073 32.0547 74.4473 32.3737 74.1465 32.7793L74.1396 32.5947L74.085 31.6035H72.8818V39H74.1533V34.2559C74.2354 34.028 74.3379 33.8229 74.4609 33.6406C74.5885 33.4538 74.7367 33.2965 74.9053 33.1689C75.0921 33.0231 75.3109 32.9137 75.5615 32.8408C75.8122 32.7633 76.0924 32.7246 76.4023 32.7246C76.6439 32.7246 76.874 32.7383 77.0928 32.7656C77.3161 32.7884 77.5508 32.8271 77.7969 32.8818L77.9678 31.6445C77.8402 31.5898 77.6488 31.5465 77.3936 31.5146C77.1429 31.4827 76.9014 31.4668 76.6689 31.4668ZM80.4287 31.6035V32.7041H82.9443V37.9062H80.4287V39H86.6221V37.9062H84.209V31.6035H80.4287ZM82.7803 29.6621C82.7803 29.8672 82.8418 30.0381 82.9648 30.1748C83.0924 30.3115 83.2839 30.3799 83.5391 30.3799C83.7897 30.3799 83.9788 30.3115 84.1064 30.1748C84.234 30.0381 84.2979 29.8672 84.2979 29.6621C84.2979 29.5482 84.2796 29.4434 84.2432 29.3477C84.2067 29.252 84.152 29.1722 84.0791 29.1084C84.0199 29.0492 83.9447 29.0036 83.8535 28.9717C83.7624 28.9352 83.6576 28.917 83.5391 28.917C83.4206 28.917 83.3135 28.9352 83.2178 28.9717C83.1266 29.0036 83.0514 29.0492 82.9922 29.1084C82.9193 29.1768 82.8646 29.2588 82.8281 29.3545C82.7962 29.4502 82.7803 29.5527 82.7803 29.6621ZM94.9072 35.3838V35.2402C94.9072 34.8529 94.8753 34.486 94.8115 34.1396C94.7477 33.7887 94.6543 33.4697 94.5312 33.1826C94.4128 32.9274 94.276 32.6973 94.1211 32.4922C93.9661 32.2826 93.7907 32.1048 93.5947 31.959C93.376 31.804 93.1322 31.6833 92.8633 31.5967C92.5944 31.5101 92.3005 31.4668 91.9814 31.4668C91.7262 31.4668 91.4893 31.4919 91.2705 31.542C91.0518 31.5921 90.8512 31.665 90.6689 31.7607C90.5231 31.8382 90.3864 31.9316 90.2588 32.041C90.1312 32.1458 90.015 32.2643 89.9102 32.3965V28.5H88.6455V39H89.8076L89.8691 38.1592C89.9512 38.264 90.0378 38.3597 90.1289 38.4463C90.2201 38.5329 90.3158 38.6126 90.416 38.6855C90.6257 38.8314 90.8604 38.943 91.1201 39.0205C91.3844 39.098 91.6761 39.1367 91.9951 39.1367C92.2731 39.1367 92.5306 39.1025 92.7676 39.0342C93.0091 38.9658 93.2301 38.8701 93.4307 38.7471C93.7087 38.5693 93.9456 38.346 94.1416 38.0771C94.3421 37.8037 94.5039 37.4961 94.627 37.1543C94.7181 36.8945 94.7865 36.6165 94.832 36.3203C94.8822 36.0195 94.9072 35.7074 94.9072 35.3838ZM93.6426 35.2402V35.3838C93.6426 35.6025 93.6289 35.8167 93.6016 36.0264C93.5742 36.236 93.5309 36.432 93.4717 36.6143C93.3988 36.8558 93.3008 37.0745 93.1777 37.2705C93.0547 37.4665 92.902 37.6283 92.7197 37.7559C92.583 37.8561 92.4281 37.9336 92.2549 37.9883C92.0817 38.0384 91.8903 38.0635 91.6807 38.0635C91.4619 38.0635 91.2614 38.0361 91.0791 37.9814C90.8968 37.9222 90.7327 37.8402 90.5869 37.7354C90.4411 37.6305 90.3112 37.5098 90.1973 37.373C90.0879 37.2318 89.9922 37.0791 89.9102 36.915V33.6816C89.9876 33.5176 90.0811 33.3672 90.1904 33.2305C90.3044 33.0892 90.4342 32.9661 90.5801 32.8613C90.7214 32.7611 90.8831 32.6836 91.0654 32.6289C91.2477 32.5697 91.4482 32.54 91.667 32.54C91.8675 32.54 92.0498 32.5628 92.2139 32.6084C92.3779 32.654 92.526 32.7178 92.6582 32.7998C92.8496 32.9137 93.0114 33.071 93.1436 33.2715C93.2757 33.472 93.3828 33.693 93.4648 33.9346C93.5241 34.1305 93.5674 34.3402 93.5947 34.5635C93.6266 34.7822 93.6426 35.0078 93.6426 35.2402ZM101.921 39H103.069V31.6035H101.798V36.9082C101.729 37.0677 101.643 37.2158 101.538 37.3525C101.438 37.4847 101.319 37.5986 101.183 37.6943C101.019 37.8128 100.825 37.9062 100.602 37.9746C100.378 38.0384 100.125 38.0703 99.8428 38.0703C99.6012 38.0703 99.387 38.0384 99.2002 37.9746C99.0179 37.9108 98.863 37.7992 98.7354 37.6396C98.6077 37.4847 98.512 37.2751 98.4482 37.0107C98.3844 36.7464 98.3525 36.4137 98.3525 36.0127V31.6035H97.0879V35.999C97.0879 36.5505 97.1471 37.0244 97.2656 37.4209C97.3887 37.8128 97.5618 38.1364 97.7852 38.3916C98.0085 38.6468 98.2773 38.8359 98.5918 38.959C98.9062 39.0775 99.2572 39.1367 99.6445 39.1367C100.128 39.1367 100.554 39.0365 100.923 38.8359C101.292 38.6309 101.6 38.346 101.846 37.9814L101.921 39ZM108.449 29.8125H107.178V31.6035H105.236V32.5811H107.178V36.6006C107.178 37.0563 107.237 37.446 107.355 37.7695C107.479 38.0885 107.645 38.3483 107.854 38.5488C108.064 38.7539 108.31 38.9043 108.593 39C108.88 39.0911 109.188 39.1367 109.516 39.1367C109.712 39.1367 109.908 39.1276 110.104 39.1094C110.304 39.0911 110.493 39.0638 110.671 39.0273C110.849 38.9954 111.013 38.9567 111.163 38.9111C111.313 38.861 111.441 38.804 111.546 38.7402L111.368 37.8447C111.291 37.863 111.19 37.8857 111.067 37.9131C110.949 37.9359 110.821 37.9587 110.685 37.9814C110.543 38.0042 110.4 38.0247 110.254 38.043C110.108 38.0566 109.967 38.0635 109.83 38.0635C109.643 38.0635 109.465 38.0407 109.297 37.9951C109.133 37.9495 108.987 37.8698 108.859 37.7559C108.732 37.6465 108.632 37.4984 108.559 37.3115C108.486 37.1247 108.449 36.8877 108.449 36.6006V32.5811H111.266V31.6035H108.449V29.8125ZM117.131 39.1367C117.851 39.1367 118.455 38.9932 118.942 38.7061C119.435 38.4144 119.804 38.0817 120.05 37.708L119.277 37.1064C119.045 37.4072 118.753 37.6488 118.402 37.8311C118.051 38.0133 117.65 38.1045 117.199 38.1045C116.857 38.1045 116.545 38.0407 116.263 37.9131C115.98 37.7855 115.739 37.61 115.538 37.3867C115.342 37.1771 115.187 36.9355 115.073 36.6621C114.964 36.3887 114.893 36.0719 114.861 35.7119V35.6641H120.146V35.0967C120.146 34.5817 120.079 34.1032 119.947 33.6611C119.82 33.2191 119.624 32.834 119.359 32.5059C119.095 32.1823 118.762 31.9294 118.361 31.7471C117.965 31.5602 117.5 31.4668 116.967 31.4668C116.543 31.4668 116.128 31.5534 115.723 31.7266C115.322 31.8997 114.964 32.1481 114.649 32.4717C114.33 32.7998 114.075 33.2008 113.884 33.6748C113.692 34.1442 113.597 34.6774 113.597 35.2744V35.5615C113.597 36.0765 113.683 36.5527 113.856 36.9902C114.03 37.4277 114.271 37.806 114.581 38.125C114.891 38.444 115.262 38.6924 115.695 38.8701C116.133 39.0479 116.611 39.1367 117.131 39.1367ZM116.967 32.5059C117.29 32.5059 117.568 32.5651 117.801 32.6836C118.038 32.8021 118.234 32.957 118.389 33.1484C118.544 33.3398 118.664 33.5677 118.751 33.832C118.838 34.0918 118.881 34.3356 118.881 34.5635V34.625H114.902C114.952 34.2832 115.039 33.9824 115.162 33.7227C115.29 33.4583 115.445 33.235 115.627 33.0527C115.809 32.875 116.014 32.7406 116.242 32.6494C116.47 32.5537 116.712 32.5059 116.967 32.5059Z" fill="#F2B8B8"/>
</g>
<defs>
<filter id="filter0_d" x="0" y="0" width="160" height="71.152" filterUnits="userSpaceOnUse" color-interpolation-filters="sRGB">
<feFlood flood-opacity="0" result="BackgroundImageFix"/>
<feColorMatrix in="SourceAlpha" type="matrix" values="0 0 0 0 0 0 0 0 0 0 0 0 0 0 0 0 0 0 127 0"/>
<feOffset dy="3"/>
<feColorMatrix type="matrix" values="0 0 0 0 0.920833 0 0 0 0 0.306944 0 0 0 0 0.306944 0 0 0 1 0"/>
<feBlend mode="normal" in2="BackgroundImageFix" result="effect1_dropShadow"/>
<feBlend mode="normal" in="SourceGraphic" in2="effect1_dropShadow" result="shape"/>
</filter>
</defs>
</svg>
