<svg width="150" height="67" viewBox="0 0 150 67" fill="none" xmlns="http://www.w3.org/2000/svg">
<g filter="url(#filter0_d)">
<rect width="150" height="63.8925" rx="5" fill="#FF5722"/>
<path d="M50.4766 33.8418C50.3535 34.8945 49.9639 35.708 49.3076 36.2822C48.6559 36.8519 47.7878 37.1367 46.7031 37.1367C45.5273 37.1367 44.584 36.7152 43.873 35.8721C43.1667 35.029 42.8135 33.901 42.8135 32.4883V31.5312C42.8135 30.6061 42.9775 29.7926 43.3057 29.0908C43.6383 28.389 44.1077 27.8512 44.7139 27.4775C45.32 27.0993 46.0218 26.9102 46.8193 26.9102C47.8766 26.9102 48.7243 27.2064 49.3623 27.7988C50.0003 28.3867 50.3717 29.2025 50.4766 30.2461H49.1572C49.0433 29.4531 48.7949 28.8789 48.4121 28.5234C48.0339 28.168 47.5029 27.9902 46.8193 27.9902C45.9808 27.9902 45.3223 28.3001 44.8438 28.9199C44.3698 29.5397 44.1328 30.4215 44.1328 31.5654V32.5293C44.1328 33.6094 44.3584 34.4684 44.8096 35.1064C45.2607 35.7445 45.8919 36.0635 46.7031 36.0635C47.4323 36.0635 47.9906 35.8994 48.3779 35.5713C48.7699 35.2386 49.0296 34.6621 49.1572 33.8418H50.4766ZM51.7412 33.2334C51.7412 32.5088 51.8825 31.8571 52.165 31.2783C52.4521 30.6995 52.8486 30.2529 53.3545 29.9385C53.8649 29.624 54.446 29.4668 55.0977 29.4668C56.1048 29.4668 56.9183 29.8154 57.5381 30.5127C58.1624 31.21 58.4746 32.1374 58.4746 33.2949V33.3838C58.4746 34.1038 58.3356 34.751 58.0576 35.3252C57.7842 35.8949 57.39 36.3392 56.875 36.6582C56.3646 36.9772 55.7767 37.1367 55.1113 37.1367C54.1087 37.1367 53.2952 36.7881 52.6709 36.0908C52.0511 35.3936 51.7412 34.4707 51.7412 33.3223V33.2334ZM53.0127 33.3838C53.0127 34.2041 53.2018 34.8626 53.5801 35.3594C53.9629 35.8561 54.4733 36.1045 55.1113 36.1045C55.7539 36.1045 56.2643 35.8538 56.6426 35.3525C57.0208 34.8467 57.21 34.1403 57.21 33.2334C57.21 32.4222 57.0163 31.766 56.6289 31.2646C56.2461 30.7588 55.7357 30.5059 55.0977 30.5059C54.4733 30.5059 53.9697 30.7542 53.5869 31.251C53.2041 31.7477 53.0127 32.4587 53.0127 33.3838ZM61.2568 29.6035L61.2979 30.5332C61.863 29.8223 62.6012 29.4668 63.5127 29.4668C65.0758 29.4668 65.8643 30.3486 65.8779 32.1123V37H64.6133V32.1055C64.6087 31.5723 64.4857 31.1781 64.2441 30.9229C64.0072 30.6676 63.6357 30.54 63.1299 30.54C62.7197 30.54 62.3597 30.6494 62.0498 30.8682C61.7399 31.0869 61.4984 31.374 61.3252 31.7295V37H60.0605V29.6035H61.2568ZM69.501 27.8125V29.6035H70.8818V30.5811H69.501V35.168C69.501 35.4642 69.5625 35.6875 69.6855 35.8379C69.8086 35.9837 70.0182 36.0566 70.3145 36.0566C70.4603 36.0566 70.6608 36.0293 70.916 35.9746V37C70.5833 37.0911 70.2598 37.1367 69.9453 37.1367C69.3802 37.1367 68.9541 36.9658 68.667 36.624C68.3799 36.2822 68.2363 35.7969 68.2363 35.168V30.5811H66.8896V29.6035H68.2363V27.8125H69.501ZM75.9404 30.7383C75.749 30.7064 75.5417 30.6904 75.3184 30.6904C74.4889 30.6904 73.9261 31.0436 73.6299 31.75V37H72.3652V29.6035H73.5957L73.6162 30.458C74.0309 29.7972 74.6188 29.4668 75.3799 29.4668C75.626 29.4668 75.8128 29.4987 75.9404 29.5625V30.7383ZM78.4834 37H77.2188V29.6035H78.4834V37ZM77.1162 27.6416C77.1162 27.4365 77.1777 27.2633 77.3008 27.1221C77.4284 26.9808 77.6152 26.9102 77.8613 26.9102C78.1074 26.9102 78.2943 26.9808 78.4219 27.1221C78.5495 27.2633 78.6133 27.4365 78.6133 27.6416C78.6133 27.8467 78.5495 28.0176 78.4219 28.1543C78.2943 28.291 78.1074 28.3594 77.8613 28.3594C77.6152 28.3594 77.4284 28.291 77.3008 28.1543C77.1777 28.0176 77.1162 27.8467 77.1162 27.6416ZM86.7754 33.3838C86.7754 34.514 86.5156 35.4232 85.9961 36.1113C85.4766 36.7949 84.7793 37.1367 83.9043 37.1367C82.9701 37.1367 82.2477 36.8063 81.7373 36.1455L81.6758 37H80.5137V26.5H81.7783V30.417C82.2887 29.7835 82.9928 29.4668 83.8906 29.4668C84.7884 29.4668 85.4925 29.8063 86.0029 30.4854C86.5179 31.1644 86.7754 32.0941 86.7754 33.2744V33.3838ZM85.5107 33.2402C85.5107 32.3789 85.3444 31.7135 85.0117 31.2441C84.679 30.7747 84.2005 30.54 83.5762 30.54C82.7422 30.54 82.1429 30.9274 81.7783 31.7021V34.9014C82.1657 35.6761 82.7695 36.0635 83.5898 36.0635C84.196 36.0635 84.6676 35.8288 85.0049 35.3594C85.3421 34.89 85.5107 34.1836 85.5107 33.2402ZM92.9414 36.2686C92.4492 36.8473 91.7269 37.1367 90.7744 37.1367C89.986 37.1367 89.3844 36.9089 88.9697 36.4531C88.5596 35.9928 88.3522 35.3138 88.3477 34.416V29.6035H89.6123V34.3818C89.6123 35.5029 90.068 36.0635 90.9795 36.0635C91.9456 36.0635 92.5882 35.7035 92.9072 34.9834V29.6035H94.1719V37H92.9688L92.9414 36.2686ZM97.8154 27.8125V29.6035H99.1963V30.5811H97.8154V35.168C97.8154 35.4642 97.877 35.6875 98 35.8379C98.123 35.9837 98.3327 36.0566 98.6289 36.0566C98.7747 36.0566 98.9753 36.0293 99.2305 35.9746V37C98.8978 37.0911 98.5742 37.1367 98.2598 37.1367C97.6947 37.1367 97.2686 36.9658 96.9814 36.624C96.6943 36.2822 96.5508 35.7969 96.5508 35.168V30.5811H95.2041V29.6035H96.5508V27.8125H97.8154ZM103.749 37.1367C102.746 37.1367 101.931 36.8086 101.302 36.1523C100.673 35.4915 100.358 34.6097 100.358 33.5068V33.2744C100.358 32.5407 100.497 31.8867 100.775 31.3125C101.058 30.7337 101.45 30.2826 101.951 29.959C102.457 29.6309 103.004 29.4668 103.592 29.4668C104.553 29.4668 105.301 29.7835 105.834 30.417C106.367 31.0505 106.634 31.9574 106.634 33.1377V33.6641H101.623C101.641 34.3932 101.853 34.9834 102.259 35.4346C102.669 35.8812 103.188 36.1045 103.817 36.1045C104.264 36.1045 104.642 36.0133 104.952 35.8311C105.262 35.6488 105.533 35.4072 105.766 35.1064L106.538 35.708C105.918 36.6605 104.989 37.1367 103.749 37.1367ZM103.592 30.5059C103.081 30.5059 102.653 30.6927 102.307 31.0664C101.96 31.4355 101.746 31.9551 101.664 32.625H105.369V32.5293C105.333 31.8867 105.16 31.39 104.85 31.0391C104.54 30.6836 104.12 30.5059 103.592 30.5059Z" fill="white"/>
<rect x="0.5" y="0.5" width="149" height="62.8925" rx="4.5" stroke="#FF5722"/>
</g>
<defs>
<filter id="filter0_d" x="0" y="0" width="150" height="66.8925" filterUnits="userSpaceOnUse" color-interpolation-filters="sRGB">
<feFlood flood-opacity="0" result="BackgroundImageFix"/>
<feColorMatrix in="SourceAlpha" type="matrix" values="0 0 0 0 0 0 0 0 0 0 0 0 0 0 0 0 0 0 127 0"/>
<feOffset dy="3"/>
<feColorMatrix type="matrix" values="0 0 0 0 0.752941 0 0 0 0 0 0 0 0 0 0 0 0 0 1 0"/>
<feBlend mode="normal" in2="BackgroundImageFix" result="effect1_dropShadow"/>
<feBlend mode="normal" in="SourceGraphic" in2="effect1_dropShadow" result="shape"/>
</filter>
</defs>
</svg>
