<svg width="150" height="96" viewBox="0 0 150 96" fill="none" xmlns="http://www.w3.org/2000/svg">
<rect x="0.5" y="0.5" width="149" height="95" rx="4.5" stroke="#DDD4D4"/>
<path d="M50.4766 33.8418C50.3535 34.8945 49.9639 35.708 49.3076 36.2822C48.6559 36.8519 47.7878 37.1367 46.7031 37.1367C45.5273 37.1367 44.584 36.7152 43.873 35.8721C43.1667 35.029 42.8135 33.901 42.8135 32.4883V31.5312C42.8135 30.6061 42.9775 29.7926 43.3057 29.0908C43.6383 28.389 44.1077 27.8512 44.7139 27.4775C45.32 27.0993 46.0218 26.9102 46.8193 26.9102C47.8766 26.9102 48.7243 27.2064 49.3623 27.7988C50.0003 28.3867 50.3717 29.2025 50.4766 30.2461H49.1572C49.0433 29.4531 48.7949 28.8789 48.4121 28.5234C48.0339 28.168 47.5029 27.9902 46.8193 27.9902C45.9808 27.9902 45.3223 28.3001 44.8438 28.9199C44.3698 29.5397 44.1328 30.4215 44.1328 31.5654V32.5293C44.1328 33.6094 44.3584 34.4684 44.8096 35.1064C45.2607 35.7445 45.8919 36.0635 46.7031 36.0635C47.4323 36.0635 47.9906 35.8994 48.3779 35.5713C48.7699 35.2386 49.0296 34.6621 49.1572 33.8418H50.4766ZM51.7412 33.2334C51.7412 32.5088 51.8825 31.8571 52.165 31.2783C52.4521 30.6995 52.8486 30.2529 53.3545 29.9385C53.8649 29.624 54.446 29.4668 55.0977 29.4668C56.1048 29.4668 56.9183 29.8154 57.5381 30.5127C58.1624 31.21 58.4746 32.1374 58.4746 33.2949V33.3838C58.4746 34.1038 58.3356 34.751 58.0576 35.3252C57.7842 35.8949 57.39 36.3392 56.875 36.6582C56.3646 36.9772 55.7767 37.1367 55.1113 37.1367C54.1087 37.1367 53.2952 36.7881 52.6709 36.0908C52.0511 35.3936 51.7412 34.4707 51.7412 33.3223V33.2334ZM53.0127 33.3838C53.0127 34.2041 53.2018 34.8626 53.5801 35.3594C53.9629 35.8561 54.4733 36.1045 55.1113 36.1045C55.7539 36.1045 56.2643 35.8538 56.6426 35.3525C57.0208 34.8467 57.21 34.1403 57.21 33.2334C57.21 32.4222 57.0163 31.766 56.6289 31.2646C56.2461 30.7588 55.7357 30.5059 55.0977 30.5059C54.4733 30.5059 53.9697 30.7542 53.5869 31.251C53.2041 31.7477 53.0127 32.4587 53.0127 33.3838ZM61.2568 29.6035L61.2979 30.5332C61.863 29.8223 62.6012 29.4668 63.5127 29.4668C65.0758 29.4668 65.8643 30.3486 65.8779 32.1123V37H64.6133V32.1055C64.6087 31.5723 64.4857 31.1781 64.2441 30.9229C64.0072 30.6676 63.6357 30.54 63.1299 30.54C62.7197 30.54 62.3597 30.6494 62.0498 30.8682C61.7399 31.0869 61.4984 31.374 61.3252 31.7295V37H60.0605V29.6035H61.2568ZM69.501 27.8125V29.6035H70.8818V30.5811H69.501V35.168C69.501 35.4642 69.5625 35.6875 69.6855 35.8379C69.8086 35.9837 70.0182 36.0566 70.3145 36.0566C70.4603 36.0566 70.6608 36.0293 70.916 35.9746V37C70.5833 37.0911 70.2598 37.1367 69.9453 37.1367C69.3802 37.1367 68.9541 36.9658 68.667 36.624C68.3799 36.2822 68.2363 35.7969 68.2363 35.168V30.5811H66.8896V29.6035H68.2363V27.8125H69.501ZM75.9404 30.7383C75.749 30.7064 75.5417 30.6904 75.3184 30.6904C74.4889 30.6904 73.9261 31.0436 73.6299 31.75V37H72.3652V29.6035H73.5957L73.6162 30.458C74.0309 29.7972 74.6188 29.4668 75.3799 29.4668C75.626 29.4668 75.8128 29.4987 75.9404 29.5625V30.7383ZM78.4834 37H77.2188V29.6035H78.4834V37ZM77.1162 27.6416C77.1162 27.4365 77.1777 27.2633 77.3008 27.1221C77.4284 26.9808 77.6152 26.9102 77.8613 26.9102C78.1074 26.9102 78.2943 26.9808 78.4219 27.1221C78.5495 27.2633 78.6133 27.4365 78.6133 27.6416C78.6133 27.8467 78.5495 28.0176 78.4219 28.1543C78.2943 28.291 78.1074 28.3594 77.8613 28.3594C77.6152 28.3594 77.4284 28.291 77.3008 28.1543C77.1777 28.0176 77.1162 27.8467 77.1162 27.6416ZM86.7754 33.3838C86.7754 34.514 86.5156 35.4232 85.9961 36.1113C85.4766 36.7949 84.7793 37.1367 83.9043 37.1367C82.9701 37.1367 82.2477 36.8063 81.7373 36.1455L81.6758 37H80.5137V26.5H81.7783V30.417C82.2887 29.7835 82.9928 29.4668 83.8906 29.4668C84.7884 29.4668 85.4925 29.8063 86.0029 30.4854C86.5179 31.1644 86.7754 32.0941 86.7754 33.2744V33.3838ZM85.5107 33.2402C85.5107 32.3789 85.3444 31.7135 85.0117 31.2441C84.679 30.7747 84.2005 30.54 83.5762 30.54C82.7422 30.54 82.1429 30.9274 81.7783 31.7021V34.9014C82.1657 35.6761 82.7695 36.0635 83.5898 36.0635C84.196 36.0635 84.6676 35.8288 85.0049 35.3594C85.3421 34.89 85.5107 34.1836 85.5107 33.2402ZM92.9414 36.2686C92.4492 36.8473 91.7269 37.1367 90.7744 37.1367C89.986 37.1367 89.3844 36.9089 88.9697 36.4531C88.5596 35.9928 88.3522 35.3138 88.3477 34.416V29.6035H89.6123V34.3818C89.6123 35.5029 90.068 36.0635 90.9795 36.0635C91.9456 36.0635 92.5882 35.7035 92.9072 34.9834V29.6035H94.1719V37H92.9688L92.9414 36.2686ZM97.8154 27.8125V29.6035H99.1963V30.5811H97.8154V35.168C97.8154 35.4642 97.877 35.6875 98 35.8379C98.123 35.9837 98.3327 36.0566 98.6289 36.0566C98.7747 36.0566 98.9753 36.0293 99.2305 35.9746V37C98.8978 37.0911 98.5742 37.1367 98.2598 37.1367C97.6947 37.1367 97.2686 36.9658 96.9814 36.624C96.6943 36.2822 96.5508 35.7969 96.5508 35.168V30.5811H95.2041V29.6035H96.5508V27.8125H97.8154ZM103.749 37.1367C102.746 37.1367 101.931 36.8086 101.302 36.1523C100.673 35.4915 100.358 34.6097 100.358 33.5068V33.2744C100.358 32.5407 100.497 31.8867 100.775 31.3125C101.058 30.7337 101.45 30.2826 101.951 29.959C102.457 29.6309 103.004 29.4668 103.592 29.4668C104.553 29.4668 105.301 29.7835 105.834 30.417C106.367 31.0505 106.634 31.9574 106.634 33.1377V33.6641H101.623C101.641 34.3932 101.853 34.9834 102.259 35.4346C102.669 35.8812 103.188 36.1045 103.817 36.1045C104.264 36.1045 104.642 36.0133 104.952 35.8311C105.262 35.6488 105.533 35.4072 105.766 35.1064L106.538 35.708C105.918 36.6605 104.989 37.1367 103.749 37.1367ZM103.592 30.5059C103.081 30.5059 102.653 30.6927 102.307 31.0664C101.96 31.4355 101.746 31.9551 101.664 32.625H105.369V32.5293C105.333 31.8867 105.16 31.39 104.85 31.0391C104.54 30.6836 104.12 30.5059 103.592 30.5059Z" fill="#FF5722"/>
<path d="M6.76758 56.2334H10.1367V57H5.8252V49.8906H6.76758V56.2334ZM13.2568 57.0977C12.5407 57.0977 11.958 56.8633 11.5088 56.3945C11.0596 55.9225 10.835 55.2926 10.835 54.5049V54.3389C10.835 53.8148 10.9342 53.3477 11.1328 52.9375C11.3346 52.5241 11.6146 52.2018 11.9727 51.9707C12.334 51.7363 12.7246 51.6191 13.1445 51.6191C13.8314 51.6191 14.3652 51.8454 14.7461 52.2979C15.127 52.7503 15.3174 53.3981 15.3174 54.2412V54.6172H11.7383C11.7513 55.138 11.9027 55.5596 12.1924 55.8818C12.4854 56.2008 12.8564 56.3604 13.3057 56.3604C13.6247 56.3604 13.8949 56.2952 14.1162 56.165C14.3376 56.0348 14.5312 55.8623 14.6973 55.6475L15.249 56.0771C14.8063 56.7575 14.1423 57.0977 13.2568 57.0977ZM13.1445 52.3613C12.7799 52.3613 12.474 52.4948 12.2266 52.7617C11.9792 53.0254 11.8262 53.3965 11.7676 53.875H14.4141V53.8066C14.388 53.3477 14.2643 52.9928 14.043 52.7422C13.8216 52.4883 13.5221 52.3613 13.1445 52.3613ZM19.6289 57C19.5768 56.8958 19.5345 56.7103 19.502 56.4434C19.082 56.8796 18.5807 57.0977 17.998 57.0977C17.4772 57.0977 17.0492 56.9512 16.7139 56.6582C16.3818 56.362 16.2158 55.9876 16.2158 55.5352C16.2158 54.985 16.4242 54.5586 16.8408 54.2559C17.2607 53.9499 17.8499 53.7969 18.6084 53.7969H19.4873V53.3818C19.4873 53.0661 19.3929 52.8154 19.2041 52.6299C19.0153 52.4411 18.737 52.3467 18.3691 52.3467C18.0469 52.3467 17.7767 52.4281 17.5586 52.5908C17.3405 52.7536 17.2314 52.9505 17.2314 53.1816H16.3232C16.3232 52.918 16.416 52.6641 16.6016 52.4199C16.7904 52.1725 17.0443 51.9772 17.3633 51.834C17.6855 51.6908 18.0387 51.6191 18.4229 51.6191C19.0316 51.6191 19.5085 51.7721 19.8535 52.0781C20.1986 52.3809 20.3776 52.7992 20.3906 53.333V55.7646C20.3906 56.2497 20.4525 56.6354 20.5762 56.9219V57H19.6289ZM18.1299 56.3115C18.4131 56.3115 18.6816 56.2383 18.9355 56.0918C19.1895 55.9453 19.3734 55.7549 19.4873 55.5205V54.4365H18.7793C17.6725 54.4365 17.1191 54.7604 17.1191 55.4082C17.1191 55.6914 17.2135 55.9128 17.4023 56.0723C17.5911 56.2318 17.8337 56.3115 18.1299 56.3115ZM24.3604 52.5273C24.2236 52.5046 24.0755 52.4932 23.916 52.4932C23.3236 52.4932 22.9215 52.7454 22.71 53.25V57H21.8066V51.7168H22.6855L22.7002 52.3271C22.9964 51.8551 23.4163 51.6191 23.96 51.6191C24.1357 51.6191 24.2692 51.6419 24.3604 51.6875V52.5273ZM26.0498 51.7168L26.0791 52.3809C26.4827 51.873 27.0101 51.6191 27.6611 51.6191C28.7777 51.6191 29.3408 52.249 29.3506 53.5088V57H28.4473V53.5039C28.444 53.123 28.3561 52.8415 28.1836 52.6592C28.0143 52.4769 27.749 52.3857 27.3877 52.3857C27.0947 52.3857 26.8376 52.4639 26.6162 52.6201C26.3949 52.7764 26.2223 52.9814 26.0986 53.2354V57H25.1953V51.7168H26.0498ZM34.0967 52.3564C34.4971 51.8649 35.0179 51.6191 35.6592 51.6191C36.7757 51.6191 37.3389 52.249 37.3486 53.5088V57H36.4453V53.5039C36.4421 53.123 36.3542 52.8415 36.1816 52.6592C36.0124 52.4769 35.7471 52.3857 35.3857 52.3857C35.0928 52.3857 34.8356 52.4639 34.6143 52.6201C34.3929 52.7764 34.2204 52.9814 34.0967 53.2354V57H33.1934V49.5H34.0967V52.3564ZM38.4619 54.3096C38.4619 53.792 38.5628 53.3265 38.7646 52.9131C38.9697 52.4997 39.2529 52.1807 39.6143 51.9561C39.9788 51.7314 40.3939 51.6191 40.8594 51.6191C41.5788 51.6191 42.1598 51.8682 42.6025 52.3662C43.0485 52.8643 43.2715 53.5267 43.2715 54.3535V54.417C43.2715 54.9313 43.1722 55.3936 42.9736 55.8037C42.7783 56.2106 42.4967 56.528 42.1289 56.7559C41.7643 56.9837 41.3444 57.0977 40.8691 57.0977C40.153 57.0977 39.5719 56.8486 39.126 56.3506C38.6833 55.8525 38.4619 55.1934 38.4619 54.373V54.3096ZM39.3701 54.417C39.3701 55.0029 39.5052 55.4733 39.7754 55.8281C40.0488 56.1829 40.4134 56.3604 40.8691 56.3604C41.3281 56.3604 41.6927 56.1813 41.9629 55.8232C42.2331 55.4619 42.3682 54.9574 42.3682 54.3096C42.3682 53.7301 42.2298 53.2614 41.9531 52.9033C41.6797 52.542 41.3151 52.3613 40.8594 52.3613C40.4134 52.3613 40.0537 52.5387 39.7803 52.8936C39.5068 53.2484 39.3701 53.7562 39.3701 54.417ZM49.082 55.7549L50.0977 51.7168H51.001L49.4629 57H48.7305L47.4463 52.9961L46.1963 57H45.4639L43.9307 51.7168H44.8291L45.8691 55.6719L47.0996 51.7168H47.8271L49.082 55.7549ZM55.6299 50.4375V51.7168H56.6162V52.415H55.6299V55.6914C55.6299 55.903 55.6738 56.0625 55.7617 56.1699C55.8496 56.2741 55.9993 56.3262 56.2109 56.3262C56.3151 56.3262 56.4583 56.3066 56.6406 56.2676V57C56.403 57.0651 56.1719 57.0977 55.9473 57.0977C55.5436 57.0977 55.2393 56.9756 55.0342 56.7314C54.8291 56.4873 54.7266 56.1406 54.7266 55.6914V52.415H53.7646V51.7168H54.7266V50.4375H55.6299ZM57.3389 54.3096C57.3389 53.792 57.4398 53.3265 57.6416 52.9131C57.8467 52.4997 58.1299 52.1807 58.4912 51.9561C58.8558 51.7314 59.2708 51.6191 59.7363 51.6191C60.4557 51.6191 61.0368 51.8682 61.4795 52.3662C61.9255 52.8643 62.1484 53.5267 62.1484 54.3535V54.417C62.1484 54.9313 62.0492 55.3936 61.8506 55.8037C61.6553 56.2106 61.3737 56.528 61.0059 56.7559C60.6413 56.9837 60.2214 57.0977 59.7461 57.0977C59.0299 57.0977 58.4489 56.8486 58.0029 56.3506C57.5602 55.8525 57.3389 55.1934 57.3389 54.373V54.3096ZM58.2471 54.417C58.2471 55.0029 58.3822 55.4733 58.6523 55.8281C58.9258 56.1829 59.2904 56.3604 59.7461 56.3604C60.2051 56.3604 60.5697 56.1813 60.8398 55.8232C61.11 55.4619 61.2451 54.9574 61.2451 54.3096C61.2451 53.7301 61.1068 53.2614 60.8301 52.9033C60.5566 52.542 60.1921 52.3613 59.7363 52.3613C59.2904 52.3613 58.9307 52.5387 58.6572 52.8936C58.3838 53.2484 58.2471 53.7562 58.2471 54.417ZM66.665 52.3564C67.0654 51.8649 67.5863 51.6191 68.2275 51.6191C69.3441 51.6191 69.9072 52.249 69.917 53.5088V57H69.0137V53.5039C69.0104 53.123 68.9225 52.8415 68.75 52.6592C68.5807 52.4769 68.3154 52.3857 67.9541 52.3857C67.6611 52.3857 67.404 52.4639 67.1826 52.6201C66.9613 52.7764 66.7887 52.9814 66.665 53.2354V57H65.7617V49.5H66.665V52.3564ZM73.4619 57.0977C72.7458 57.0977 72.1631 56.8633 71.7139 56.3945C71.2646 55.9225 71.04 55.2926 71.04 54.5049V54.3389C71.04 53.8148 71.1393 53.3477 71.3379 52.9375C71.5397 52.5241 71.8197 52.2018 72.1777 51.9707C72.5391 51.7363 72.9297 51.6191 73.3496 51.6191C74.0365 51.6191 74.5703 51.8454 74.9512 52.2979C75.332 52.7503 75.5225 53.3981 75.5225 54.2412V54.6172H71.9434C71.9564 55.138 72.1077 55.5596 72.3975 55.8818C72.6904 56.2008 73.0615 56.3604 73.5107 56.3604C73.8298 56.3604 74.0999 56.2952 74.3213 56.165C74.5426 56.0348 74.7363 55.8623 74.9023 55.6475L75.4541 56.0771C75.0114 56.7575 74.3473 57.0977 73.4619 57.0977ZM73.3496 52.3613C72.985 52.3613 72.679 52.4948 72.4316 52.7617C72.1842 53.0254 72.0312 53.3965 71.9727 53.875H74.6191V53.8066C74.5931 53.3477 74.4694 52.9928 74.248 52.7422C74.0267 52.4883 73.7272 52.3613 73.3496 52.3613ZM77.5537 57H76.6504V49.5H77.5537V57ZM83.4668 54.417C83.4668 55.221 83.2829 55.8688 82.915 56.3604C82.5472 56.8519 82.0492 57.0977 81.4209 57.0977C80.7796 57.0977 80.2751 56.8942 79.9072 56.4873V59.0312H79.0039V51.7168H79.8291L79.873 52.3027C80.2409 51.847 80.752 51.6191 81.4062 51.6191C82.041 51.6191 82.5423 51.8584 82.9102 52.3369C83.2812 52.8154 83.4668 53.4811 83.4668 54.334V54.417ZM82.5635 54.3145C82.5635 53.7188 82.4365 53.2484 82.1826 52.9033C81.9287 52.5583 81.5804 52.3857 81.1377 52.3857C80.5908 52.3857 80.1807 52.6283 79.9072 53.1133V55.6377C80.1774 56.1195 80.5908 56.3604 81.1475 56.3604C81.5804 56.3604 81.9238 56.1895 82.1777 55.8477C82.4349 55.5026 82.5635 54.9915 82.5635 54.3145ZM90.3613 56.4775C90.0098 56.891 89.4938 57.0977 88.8135 57.0977C88.2503 57.0977 87.8206 56.9349 87.5244 56.6094C87.2314 56.2806 87.0833 55.7956 87.0801 55.1543V51.7168H87.9834V55.1299C87.9834 55.9307 88.3089 56.3311 88.96 56.3311C89.6501 56.3311 90.109 56.0739 90.3369 55.5596V51.7168H91.2402V57H90.3809L90.3613 56.4775ZM95.6934 55.5986C95.6934 55.3545 95.6006 55.1657 95.415 55.0322C95.2327 54.8955 94.9121 54.7783 94.4531 54.6807C93.9974 54.583 93.6344 54.4658 93.3643 54.3291C93.0973 54.1924 92.8988 54.0296 92.7686 53.8408C92.6416 53.652 92.5781 53.4274 92.5781 53.167C92.5781 52.734 92.7604 52.3678 93.125 52.0684C93.4928 51.7689 93.9616 51.6191 94.5312 51.6191C95.1302 51.6191 95.6152 51.7738 95.9863 52.083C96.3607 52.3923 96.5479 52.7878 96.5479 53.2695H95.6396C95.6396 53.0221 95.5339 52.8089 95.3223 52.6299C95.1139 52.4508 94.8503 52.3613 94.5312 52.3613C94.2025 52.3613 93.9453 52.4329 93.7598 52.5762C93.5742 52.7194 93.4814 52.9066 93.4814 53.1377C93.4814 53.3558 93.5677 53.5202 93.7402 53.6309C93.9128 53.7415 94.2236 53.8473 94.6729 53.9482C95.1253 54.0492 95.4915 54.1696 95.7715 54.3096C96.0514 54.4495 96.2581 54.6188 96.3916 54.8174C96.5283 55.0127 96.5967 55.252 96.5967 55.5352C96.5967 56.0072 96.4079 56.3864 96.0303 56.6729C95.6527 56.9561 95.1628 57.0977 94.5605 57.0977C94.1374 57.0977 93.763 57.0228 93.4375 56.873C93.112 56.7233 92.8564 56.515 92.6709 56.248C92.4886 55.9779 92.3975 55.6865 92.3975 55.374H93.3008C93.3171 55.6768 93.4375 55.9176 93.6621 56.0967C93.89 56.2725 94.1895 56.3604 94.5605 56.3604C94.9023 56.3604 95.1758 56.292 95.3809 56.1553C95.5892 56.0153 95.6934 55.8298 95.6934 55.5986ZM101.235 57H100.332V51.7168H101.235V57ZM100.259 50.3154C100.259 50.1689 100.303 50.0452 100.391 49.9443C100.482 49.8434 100.615 49.793 100.791 49.793C100.967 49.793 101.1 49.8434 101.191 49.9443C101.283 50.0452 101.328 50.1689 101.328 50.3154C101.328 50.4619 101.283 50.584 101.191 50.6816C101.1 50.7793 100.967 50.8281 100.791 50.8281C100.615 50.8281 100.482 50.7793 100.391 50.6816C100.303 50.584 100.259 50.4619 100.259 50.3154ZM103.535 51.7168L103.56 52.3027C103.947 51.847 104.469 51.6191 105.127 51.6191C105.866 51.6191 106.369 51.9023 106.636 52.4688C106.812 52.2148 107.039 52.0098 107.319 51.8535C107.603 51.6973 107.936 51.6191 108.32 51.6191C109.479 51.6191 110.068 52.2327 110.088 53.46V57H109.185V53.5137C109.185 53.1361 109.098 52.8545 108.926 52.6689C108.753 52.4801 108.464 52.3857 108.057 52.3857C107.721 52.3857 107.443 52.4867 107.222 52.6885C107 52.887 106.872 53.1556 106.836 53.4941V57H105.928V53.5381C105.928 52.7699 105.552 52.3857 104.8 52.3857C104.207 52.3857 103.802 52.638 103.584 53.1426V57H102.681V51.7168H103.535ZM115.918 54.417C115.918 55.221 115.734 55.8688 115.366 56.3604C114.998 56.8519 114.5 57.0977 113.872 57.0977C113.231 57.0977 112.726 56.8942 112.358 56.4873V59.0312H111.455V51.7168H112.28L112.324 52.3027C112.692 51.847 113.203 51.6191 113.857 51.6191C114.492 51.6191 114.993 51.8584 115.361 52.3369C115.732 52.8154 115.918 53.4811 115.918 54.334V54.417ZM115.015 54.3145C115.015 53.7188 114.888 53.2484 114.634 52.9033C114.38 52.5583 114.032 52.3857 113.589 52.3857C113.042 52.3857 112.632 52.6283 112.358 53.1133V55.6377C112.629 56.1195 113.042 56.3604 113.599 56.3604C114.032 56.3604 114.375 56.1895 114.629 55.8477C114.886 55.5026 115.015 54.9915 115.015 54.3145ZM119.624 52.5273C119.487 52.5046 119.339 52.4932 119.18 52.4932C118.587 52.4932 118.185 52.7454 117.974 53.25V57H117.07V51.7168H117.949L117.964 52.3271C118.26 51.8551 118.68 51.6191 119.224 51.6191C119.399 51.6191 119.533 51.6419 119.624 51.6875V52.5273ZM120.122 54.3096C120.122 53.792 120.223 53.3265 120.425 52.9131C120.63 52.4997 120.913 52.1807 121.274 51.9561C121.639 51.7314 122.054 51.6191 122.52 51.6191C123.239 51.6191 123.82 51.8682 124.263 52.3662C124.709 52.8643 124.932 53.5267 124.932 54.3535V54.417C124.932 54.9313 124.832 55.3936 124.634 55.8037C124.438 56.2106 124.157 56.528 123.789 56.7559C123.424 56.9837 123.005 57.0977 122.529 57.0977C121.813 57.0977 121.232 56.8486 120.786 56.3506C120.343 55.8525 120.122 55.1934 120.122 54.373V54.3096ZM121.03 54.417C121.03 55.0029 121.165 55.4733 121.436 55.8281C121.709 56.1829 122.074 56.3604 122.529 56.3604C122.988 56.3604 123.353 56.1813 123.623 55.8232C123.893 55.4619 124.028 54.9574 124.028 54.3096C124.028 53.7301 123.89 53.2614 123.613 52.9033C123.34 52.542 122.975 52.3613 122.52 52.3613C122.074 52.3613 121.714 52.5387 121.44 52.8936C121.167 53.2484 121.03 53.7562 121.03 54.417ZM127.729 55.7744L129.038 51.7168H129.961L128.066 57H127.378L125.464 51.7168H126.387L127.729 55.7744ZM131.812 57H130.908V51.7168H131.812V57ZM130.835 50.3154C130.835 50.1689 130.879 50.0452 130.967 49.9443C131.058 49.8434 131.191 49.793 131.367 49.793C131.543 49.793 131.676 49.8434 131.768 49.9443C131.859 50.0452 131.904 50.1689 131.904 50.3154C131.904 50.4619 131.859 50.584 131.768 50.6816C131.676 50.7793 131.543 50.8281 131.367 50.8281C131.191 50.8281 131.058 50.7793 130.967 50.6816C130.879 50.584 130.835 50.4619 130.835 50.3154ZM134.116 51.7168L134.146 52.3809C134.549 51.873 135.076 51.6191 135.728 51.6191C136.844 51.6191 137.407 52.249 137.417 53.5088V57H136.514V53.5039C136.51 53.123 136.423 52.8415 136.25 52.6592C136.081 52.4769 135.815 52.3857 135.454 52.3857C135.161 52.3857 134.904 52.4639 134.683 52.6201C134.461 52.7764 134.289 52.9814 134.165 53.2354V57H133.262V51.7168H134.116ZM138.564 54.3145C138.564 53.4909 138.755 52.8366 139.136 52.3516C139.517 51.8633 140.021 51.6191 140.649 51.6191C141.294 51.6191 141.797 51.847 142.158 52.3027L142.202 51.7168H143.027V56.873C143.027 57.5566 142.824 58.0954 142.417 58.4893C142.013 58.8831 141.47 59.0801 140.786 59.0801C140.405 59.0801 140.033 58.9987 139.668 58.8359C139.303 58.6732 139.025 58.4502 138.833 58.167L139.302 57.625C139.689 58.1035 140.163 58.3428 140.723 58.3428C141.162 58.3428 141.504 58.2191 141.748 57.9717C141.995 57.7243 142.119 57.376 142.119 56.9268V56.4727C141.758 56.8893 141.265 57.0977 140.64 57.0977C140.021 57.0977 139.52 56.8486 139.136 56.3506C138.755 55.8525 138.564 55.1738 138.564 54.3145ZM139.473 54.417C139.473 55.0127 139.595 55.4814 139.839 55.8232C140.083 56.1618 140.425 56.3311 140.864 56.3311C141.434 56.3311 141.852 56.0723 142.119 55.5547V53.1426C141.842 52.638 141.427 52.3857 140.874 52.3857C140.435 52.3857 140.091 52.5566 139.844 52.8984C139.596 53.2402 139.473 53.7464 139.473 54.417ZM6.90918 62.4375V63.7168H7.89551V64.415H6.90918V67.6914C6.90918 67.903 6.95312 68.0625 7.04102 68.1699C7.12891 68.2741 7.27865 68.3262 7.49023 68.3262C7.5944 68.3262 7.73763 68.3066 7.91992 68.2676V69C7.68229 69.0651 7.45117 69.0977 7.22656 69.0977C6.82292 69.0977 6.51855 68.9756 6.31348 68.7314C6.1084 68.4873 6.00586 68.1406 6.00586 67.6914V64.415H5.04395V63.7168H6.00586V62.4375H6.90918ZM9.8584 64.3564C10.2588 63.8649 10.7796 63.6191 11.4209 63.6191C12.5374 63.6191 13.1006 64.249 13.1104 65.5088V69H12.207V65.5039C12.2038 65.123 12.1159 64.8415 11.9434 64.6592C11.7741 64.4769 11.5088 64.3857 11.1475 64.3857C10.8545 64.3857 10.5973 64.4639 10.376 64.6201C10.1546 64.7764 9.9821 64.9814 9.8584 65.2354V69H8.95508V61.5H9.8584V64.3564ZM16.6553 69.0977C15.9391 69.0977 15.3564 68.8633 14.9072 68.3945C14.458 67.9225 14.2334 67.2926 14.2334 66.5049V66.3389C14.2334 65.8148 14.3327 65.3477 14.5312 64.9375C14.7331 64.5241 15.013 64.2018 15.3711 63.9707C15.7324 63.7363 16.123 63.6191 16.543 63.6191C17.2298 63.6191 17.7637 63.8454 18.1445 64.2979C18.5254 64.7503 18.7158 65.3981 18.7158 66.2412V66.6172H15.1367C15.1497 67.138 15.3011 67.5596 15.5908 67.8818C15.8838 68.2008 16.2549 68.3604 16.7041 68.3604C17.0231 68.3604 17.2933 68.2952 17.5146 68.165C17.736 68.0348 17.9297 67.8623 18.0957 67.6475L18.6475 68.0771C18.2048 68.7575 17.5407 69.0977 16.6553 69.0977ZM16.543 64.3613C16.1784 64.3613 15.8724 64.4948 15.625 64.7617C15.3776 65.0254 15.2246 65.3965 15.166 65.875H17.8125V65.8066C17.7865 65.3477 17.6628 64.9928 17.4414 64.7422C17.2201 64.4883 16.9206 64.3613 16.543 64.3613ZM26.709 66.417C26.709 67.221 26.5251 67.8688 26.1572 68.3604C25.7894 68.8519 25.2913 69.0977 24.6631 69.0977C24.0218 69.0977 23.5173 68.8942 23.1494 68.4873V71.0312H22.2461V63.7168H23.0713L23.1152 64.3027C23.4831 63.847 23.9941 63.6191 24.6484 63.6191C25.2832 63.6191 25.7845 63.8584 26.1523 64.3369C26.5234 64.8154 26.709 65.4811 26.709 66.334V66.417ZM25.8057 66.3145C25.8057 65.7188 25.6787 65.2484 25.4248 64.9033C25.1709 64.5583 24.8226 64.3857 24.3799 64.3857C23.833 64.3857 23.4229 64.6283 23.1494 65.1133V67.6377C23.4196 68.1195 23.833 68.3604 24.3896 68.3604C24.8226 68.3604 25.166 68.1895 25.4199 67.8477C25.6771 67.5026 25.8057 66.9915 25.8057 66.3145ZM30.415 64.5273C30.2783 64.5046 30.1302 64.4932 29.9707 64.4932C29.3783 64.4932 28.9762 64.7454 28.7646 65.25V69H27.8613V63.7168H28.7402L28.7549 64.3271C29.0511 63.8551 29.471 63.6191 30.0146 63.6191C30.1904 63.6191 30.3239 63.6419 30.415 63.6875V64.5273ZM30.9131 66.3096C30.9131 65.792 31.014 65.3265 31.2158 64.9131C31.4209 64.4997 31.7041 64.1807 32.0654 63.9561C32.43 63.7314 32.8451 63.6191 33.3105 63.6191C34.0299 63.6191 34.611 63.8682 35.0537 64.3662C35.4997 64.8643 35.7227 65.5267 35.7227 66.3535V66.417C35.7227 66.9313 35.6234 67.3936 35.4248 67.8037C35.2295 68.2106 34.9479 68.528 34.5801 68.7559C34.2155 68.9837 33.7956 69.0977 33.3203 69.0977C32.6042 69.0977 32.0231 68.8486 31.5771 68.3506C31.1344 67.8525 30.9131 67.1934 30.9131 66.373V66.3096ZM31.8213 66.417C31.8213 67.0029 31.9564 67.4733 32.2266 67.8281C32.5 68.1829 32.8646 68.3604 33.3203 68.3604C33.7793 68.3604 34.1439 68.1813 34.4141 67.8232C34.6842 67.4619 34.8193 66.9574 34.8193 66.3096C34.8193 65.7301 34.681 65.2614 34.4043 64.9033C34.1309 64.542 33.7663 64.3613 33.3105 64.3613C32.8646 64.3613 32.5049 64.5387 32.2314 64.8936C31.958 65.2484 31.8213 65.7562 31.8213 66.417ZM37.7881 63.7168V69.6104C37.7881 70.626 37.3275 71.1338 36.4062 71.1338C36.2077 71.1338 36.0238 71.1045 35.8545 71.0459V70.3232C35.9587 70.3493 36.0954 70.3623 36.2646 70.3623C36.4665 70.3623 36.6195 70.307 36.7236 70.1963C36.8311 70.0889 36.8848 69.9001 36.8848 69.6299V63.7168H37.7881ZM36.792 62.3154C36.792 62.1722 36.8359 62.0501 36.9238 61.9492C37.015 61.8451 37.1468 61.793 37.3193 61.793C37.4951 61.793 37.6286 61.8434 37.7197 61.9443C37.8109 62.0452 37.8564 62.1689 37.8564 62.3154C37.8564 62.4619 37.8109 62.584 37.7197 62.6816C37.6286 62.7793 37.4951 62.8281 37.3193 62.8281C37.1436 62.8281 37.0117 62.7793 36.9238 62.6816C36.8359 62.584 36.792 62.4619 36.792 62.3154ZM41.4404 69.0977C40.7243 69.0977 40.1416 68.8633 39.6924 68.3945C39.2432 67.9225 39.0186 67.2926 39.0186 66.5049V66.3389C39.0186 65.8148 39.1178 65.3477 39.3164 64.9375C39.5182 64.5241 39.7982 64.2018 40.1562 63.9707C40.5176 63.7363 40.9082 63.6191 41.3281 63.6191C42.015 63.6191 42.5488 63.8454 42.9297 64.2979C43.3105 64.7503 43.501 65.3981 43.501 66.2412V66.6172H39.9219C39.9349 67.138 40.0863 67.5596 40.376 67.8818C40.6689 68.2008 41.04 68.3604 41.4893 68.3604C41.8083 68.3604 42.0785 68.2952 42.2998 68.165C42.5212 68.0348 42.7148 67.8623 42.8809 67.6475L43.4326 68.0771C42.9899 68.7575 42.3258 69.0977 41.4404 69.0977ZM41.3281 64.3613C40.9635 64.3613 40.6576 64.4948 40.4102 64.7617C40.1628 65.0254 40.0098 65.3965 39.9512 65.875H42.5977V65.8066C42.5716 65.3477 42.4479 64.9928 42.2266 64.7422C42.0052 64.4883 41.7057 64.3613 41.3281 64.3613ZM46.6699 68.3604C46.9922 68.3604 47.2738 68.2627 47.5146 68.0674C47.7555 67.8721 47.889 67.6279 47.915 67.335H48.7695C48.7533 67.6377 48.6491 67.9258 48.457 68.1992C48.265 68.4727 48.0078 68.6908 47.6855 68.8535C47.3665 69.0163 47.028 69.0977 46.6699 69.0977C45.9505 69.0977 45.3776 68.8584 44.9512 68.3799C44.528 67.8981 44.3164 67.2406 44.3164 66.4072V66.2559C44.3164 65.7415 44.4108 65.2842 44.5996 64.8838C44.7884 64.4834 45.0586 64.1725 45.4102 63.9512C45.765 63.7298 46.1833 63.6191 46.665 63.6191C47.2575 63.6191 47.749 63.7965 48.1396 64.1514C48.5335 64.5062 48.7435 64.9668 48.7695 65.5332H47.915C47.889 65.1914 47.7588 64.9115 47.5244 64.6934C47.2933 64.472 47.0068 64.3613 46.665 64.3613C46.2061 64.3613 45.8496 64.5273 45.5957 64.8594C45.3451 65.1882 45.2197 65.665 45.2197 66.29V66.4609C45.2197 67.0697 45.3451 67.5384 45.5957 67.8672C45.8464 68.196 46.2044 68.3604 46.6699 68.3604ZM51.0107 62.4375V63.7168H51.9971V64.415H51.0107V67.6914C51.0107 67.903 51.0547 68.0625 51.1426 68.1699C51.2305 68.2741 51.3802 68.3262 51.5918 68.3262C51.696 68.3262 51.8392 68.3066 52.0215 68.2676V69C51.7839 69.0651 51.5527 69.0977 51.3281 69.0977C50.9245 69.0977 50.6201 68.9756 50.415 68.7314C50.21 68.4873 50.1074 68.1406 50.1074 67.6914V64.415H49.1455V63.7168H50.1074V62.4375H51.0107ZM53.0762 68.5264C53.0762 68.3701 53.1217 68.2399 53.2129 68.1357C53.3073 68.0316 53.4473 67.9795 53.6328 67.9795C53.8184 67.9795 53.9583 68.0316 54.0527 68.1357C54.1504 68.2399 54.1992 68.3701 54.1992 68.5264C54.1992 68.6761 54.1504 68.8014 54.0527 68.9023C53.9583 69.0033 53.8184 69.0537 53.6328 69.0537C53.4473 69.0537 53.3073 69.0033 53.2129 68.9023C53.1217 68.8014 53.0762 68.6761 53.0762 68.5264Z" fill="#D83B01"/>
</svg>
