<svg width="165" height="73" viewBox="0 0 165 73" fill="none" xmlns="http://www.w3.org/2000/svg">
<g filter="url(#filter0_d)">
<rect width="164.339" height="70" rx="5" fill="#C00000"/>
<path d="M46.6357 37.0059H45.3711C45.3301 37.3066 45.2594 37.5869 45.1592 37.8467C45.0589 38.1019 44.9245 38.3229 44.7559 38.5098C44.5872 38.7012 44.3799 38.8493 44.1338 38.9541C43.8923 39.0589 43.6051 39.1113 43.2725 39.1113C42.9671 39.1113 42.7005 39.0635 42.4727 38.9678C42.2448 38.8675 42.0465 38.7308 41.8779 38.5576C41.7093 38.389 41.5703 38.193 41.4609 37.9697C41.3516 37.7464 41.2627 37.5072 41.1943 37.252C41.126 37.0013 41.0758 36.7461 41.0439 36.4863C41.0166 36.222 41.0029 35.9668 41.0029 35.7207V34.3193C41.0029 34.0732 41.0166 33.8203 41.0439 33.5605C41.0758 33.2962 41.126 33.0387 41.1943 32.7881C41.2627 32.5374 41.3516 32.3005 41.4609 32.0771C41.5749 31.8538 41.7161 31.6579 41.8848 31.4893C42.0488 31.3206 42.2448 31.1885 42.4727 31.0928C42.7051 30.9925 42.9717 30.9424 43.2725 30.9424C43.6051 30.9424 43.8923 30.9993 44.1338 31.1133C44.3799 31.2227 44.5872 31.3753 44.7559 31.5713C44.9245 31.7673 45.0589 31.9951 45.1592 32.2549C45.2594 32.5146 45.3301 32.7949 45.3711 33.0957H46.6357C46.5811 32.6217 46.4671 32.1888 46.2939 31.7969C46.1253 31.4049 45.8997 31.0677 45.6172 30.7852C45.3346 30.5072 44.9974 30.293 44.6055 30.1426C44.2135 29.9876 43.7692 29.9102 43.2725 29.9102C42.8577 29.9102 42.484 29.9694 42.1514 30.0879C41.8187 30.2018 41.5225 30.3613 41.2627 30.5664C40.9984 30.7715 40.7705 31.0153 40.5791 31.2979C40.3923 31.5758 40.2373 31.8789 40.1143 32.207C39.9867 32.5352 39.891 32.8792 39.8271 33.2393C39.7679 33.5993 39.736 33.9639 39.7314 34.333V35.7207C39.736 36.0898 39.7679 36.4544 39.8271 36.8145C39.891 37.1745 39.9867 37.5186 40.1143 37.8467C40.2373 38.1748 40.3923 38.4779 40.5791 38.7559C40.7705 39.0339 40.9984 39.2754 41.2627 39.4805C41.5225 39.6855 41.8187 39.8473 42.1514 39.9658C42.4886 40.0798 42.8623 40.1367 43.2725 40.1367C43.751 40.1367 44.1839 40.0615 44.5713 39.9111C44.9632 39.7562 45.3027 39.5397 45.5898 39.2617C45.8724 38.9883 46.1025 38.6602 46.2803 38.2773C46.458 37.89 46.5765 37.4661 46.6357 37.0059ZM48.2422 36.2334V36.3838C48.2422 36.917 48.3197 37.4115 48.4746 37.8672C48.6296 38.3229 48.8529 38.7194 49.1445 39.0566C49.4316 39.3939 49.7826 39.6582 50.1973 39.8496C50.6165 40.041 51.0882 40.1367 51.6123 40.1367C52.1318 40.1367 52.599 40.041 53.0137 39.8496C53.4284 39.6582 53.7816 39.3939 54.0732 39.0566C54.3604 38.7194 54.5814 38.3229 54.7363 37.8672C54.8913 37.4115 54.9688 36.917 54.9688 36.3838V36.2334C54.9688 35.7002 54.8913 35.2057 54.7363 34.75C54.5814 34.2897 54.3604 33.891 54.0732 33.5537C53.7816 33.2165 53.4261 32.9521 53.0068 32.7607C52.5921 32.5648 52.1227 32.4668 51.5986 32.4668C51.0791 32.4668 50.612 32.5648 50.1973 32.7607C49.7826 32.9521 49.4316 33.2165 49.1445 33.5537C48.8529 33.891 48.6296 34.2897 48.4746 34.75C48.3197 35.2057 48.2422 35.7002 48.2422 36.2334ZM49.5068 36.3838V36.2334C49.5068 35.8734 49.5501 35.5293 49.6367 35.2012C49.7233 34.8685 49.8555 34.5768 50.0332 34.3262C50.2064 34.0755 50.4229 33.8773 50.6826 33.7314C50.9424 33.5811 51.2477 33.5059 51.5986 33.5059C51.9495 33.5059 52.2549 33.5811 52.5146 33.7314C52.779 33.8773 53 34.0755 53.1777 34.3262C53.3509 34.5768 53.4808 34.8685 53.5674 35.2012C53.6585 35.5293 53.7041 35.8734 53.7041 36.2334V36.3838C53.7041 36.7484 53.6608 37.097 53.5742 37.4297C53.4876 37.7578 53.3577 38.0472 53.1846 38.2979C53.0068 38.5485 52.7858 38.7467 52.5215 38.8926C52.2617 39.0384 51.9587 39.1113 51.6123 39.1113C51.2614 39.1113 50.9538 39.0384 50.6895 38.8926C50.4251 38.7467 50.2064 38.5485 50.0332 38.2979C49.8555 38.0472 49.7233 37.7578 49.6367 37.4297C49.5501 37.097 49.5068 36.7484 49.5068 36.3838ZM57.0059 40H58.2705V34.6953C58.3571 34.5358 58.4574 34.39 58.5713 34.2578C58.6898 34.1257 58.8174 34.0094 58.9541 33.9092C59.1227 33.7952 59.3073 33.7064 59.5078 33.6426C59.7083 33.5742 59.9248 33.54 60.1572 33.54C60.4261 33.54 60.6631 33.5719 60.8682 33.6357C61.0778 33.6995 61.2555 33.8021 61.4014 33.9434C61.5426 34.0846 61.6497 34.2692 61.7227 34.4971C61.7956 34.7249 61.832 35.0029 61.832 35.3311V40H63.0967V35.3037C63.0967 34.8115 63.0352 34.3877 62.9121 34.0322C62.7936 33.6722 62.6227 33.376 62.3994 33.1436C62.1761 32.9111 61.9049 32.7402 61.5859 32.6309C61.2715 32.5215 60.9206 32.4668 60.5332 32.4668C60.2461 32.4714 59.9727 32.5146 59.7129 32.5967C59.4577 32.6742 59.2207 32.7858 59.002 32.9316C58.8561 33.0273 58.7171 33.1413 58.585 33.2734C58.4574 33.401 58.3389 33.5423 58.2295 33.6973L58.1406 32.6035H57.0059V40ZM68.4082 30.8125H67.1367V32.6035H65.1953V33.5811H67.1367V37.6006C67.1367 38.0563 67.196 38.446 67.3145 38.7695C67.4375 39.0885 67.6038 39.3483 67.8135 39.5488C68.0231 39.7539 68.2692 39.9043 68.5518 40C68.8389 40.0911 69.1465 40.1367 69.4746 40.1367C69.6706 40.1367 69.8665 40.1276 70.0625 40.1094C70.263 40.0911 70.4521 40.0638 70.6299 40.0273C70.8076 39.9954 70.9717 39.9567 71.1221 39.9111C71.2725 39.861 71.4001 39.804 71.5049 39.7402L71.3271 38.8447C71.2497 38.863 71.1494 38.8857 71.0264 38.9131C70.9079 38.9359 70.7803 38.9587 70.6436 38.9814C70.5023 39.0042 70.3587 39.0247 70.2129 39.043C70.0671 39.0566 69.9258 39.0635 69.7891 39.0635C69.6022 39.0635 69.4245 39.0407 69.2559 38.9951C69.0918 38.9495 68.946 38.8698 68.8184 38.7559C68.6908 38.6465 68.5905 38.4984 68.5176 38.3115C68.4447 38.1247 68.4082 37.8877 68.4082 37.6006V33.5811H71.2246V32.6035H68.4082V30.8125ZM78.6689 32.4668C78.1312 32.4668 77.6504 32.5853 77.2266 32.8223C76.8073 33.0547 76.4473 33.3737 76.1465 33.7793L76.1396 33.5947L76.085 32.6035H74.8818V40H76.1533V35.2559C76.2354 35.028 76.3379 34.8229 76.4609 34.6406C76.5885 34.4538 76.7367 34.2965 76.9053 34.1689C77.0921 34.0231 77.3109 33.9137 77.5615 33.8408C77.8122 33.7633 78.0924 33.7246 78.4023 33.7246C78.6439 33.7246 78.874 33.7383 79.0928 33.7656C79.3161 33.7884 79.5508 33.8271 79.7969 33.8818L79.9678 32.6445C79.8402 32.5898 79.6488 32.5465 79.3936 32.5146C79.1429 32.4827 78.9014 32.4668 78.6689 32.4668ZM82.4287 32.6035V33.7041H84.9443V38.9062H82.4287V40H88.6221V38.9062H86.209V32.6035H82.4287ZM84.7803 30.6621C84.7803 30.8672 84.8418 31.0381 84.9648 31.1748C85.0924 31.3115 85.2839 31.3799 85.5391 31.3799C85.7897 31.3799 85.9788 31.3115 86.1064 31.1748C86.234 31.0381 86.2979 30.8672 86.2979 30.6621C86.2979 30.5482 86.2796 30.4434 86.2432 30.3477C86.2067 30.252 86.152 30.1722 86.0791 30.1084C86.0199 30.0492 85.9447 30.0036 85.8535 29.9717C85.7624 29.9352 85.6576 29.917 85.5391 29.917C85.4206 29.917 85.3135 29.9352 85.2178 29.9717C85.1266 30.0036 85.0514 30.0492 84.9922 30.1084C84.9193 30.1768 84.8646 30.2588 84.8281 30.3545C84.7962 30.4502 84.7803 30.5527 84.7803 30.6621ZM96.9072 36.3838V36.2402C96.9072 35.8529 96.8753 35.486 96.8115 35.1396C96.7477 34.7887 96.6543 34.4697 96.5312 34.1826C96.4128 33.9274 96.276 33.6973 96.1211 33.4922C95.9661 33.2826 95.7907 33.1048 95.5947 32.959C95.376 32.804 95.1322 32.6833 94.8633 32.5967C94.5944 32.5101 94.3005 32.4668 93.9814 32.4668C93.7262 32.4668 93.4893 32.4919 93.2705 32.542C93.0518 32.5921 92.8512 32.665 92.6689 32.7607C92.5231 32.8382 92.3864 32.9316 92.2588 33.041C92.1312 33.1458 92.015 33.2643 91.9102 33.3965V29.5H90.6455V40H91.8076L91.8691 39.1592C91.9512 39.264 92.0378 39.3597 92.1289 39.4463C92.2201 39.5329 92.3158 39.6126 92.416 39.6855C92.6257 39.8314 92.8604 39.943 93.1201 40.0205C93.3844 40.098 93.6761 40.1367 93.9951 40.1367C94.2731 40.1367 94.5306 40.1025 94.7676 40.0342C95.0091 39.9658 95.2301 39.8701 95.4307 39.7471C95.7087 39.5693 95.9456 39.346 96.1416 39.0771C96.3421 38.8037 96.5039 38.4961 96.627 38.1543C96.7181 37.8945 96.7865 37.6165 96.832 37.3203C96.8822 37.0195 96.9072 36.7074 96.9072 36.3838ZM95.6426 36.2402V36.3838C95.6426 36.6025 95.6289 36.8167 95.6016 37.0264C95.5742 37.236 95.5309 37.432 95.4717 37.6143C95.3988 37.8558 95.3008 38.0745 95.1777 38.2705C95.0547 38.4665 94.902 38.6283 94.7197 38.7559C94.583 38.8561 94.4281 38.9336 94.2549 38.9883C94.0817 39.0384 93.8903 39.0635 93.6807 39.0635C93.4619 39.0635 93.2614 39.0361 93.0791 38.9814C92.8968 38.9222 92.7327 38.8402 92.5869 38.7354C92.4411 38.6305 92.3112 38.5098 92.1973 38.373C92.0879 38.2318 91.9922 38.0791 91.9102 37.915V34.6816C91.9876 34.5176 92.0811 34.3672 92.1904 34.2305C92.3044 34.0892 92.4342 33.9661 92.5801 33.8613C92.7214 33.7611 92.8831 33.6836 93.0654 33.6289C93.2477 33.5697 93.4482 33.54 93.667 33.54C93.8675 33.54 94.0498 33.5628 94.2139 33.6084C94.3779 33.654 94.526 33.7178 94.6582 33.7998C94.8496 33.9137 95.0114 34.071 95.1436 34.2715C95.2757 34.472 95.3828 34.693 95.4648 34.9346C95.5241 35.1305 95.5674 35.3402 95.5947 35.5635C95.6266 35.7822 95.6426 36.0078 95.6426 36.2402ZM103.921 40H105.069V32.6035H103.798V37.9082C103.729 38.0677 103.643 38.2158 103.538 38.3525C103.438 38.4847 103.319 38.5986 103.183 38.6943C103.019 38.8128 102.825 38.9062 102.602 38.9746C102.378 39.0384 102.125 39.0703 101.843 39.0703C101.601 39.0703 101.387 39.0384 101.2 38.9746C101.018 38.9108 100.863 38.7992 100.735 38.6396C100.608 38.4847 100.512 38.2751 100.448 38.0107C100.384 37.7464 100.353 37.4137 100.353 37.0127V32.6035H99.0879V36.999C99.0879 37.5505 99.1471 38.0244 99.2656 38.4209C99.3887 38.8128 99.5618 39.1364 99.7852 39.3916C100.008 39.6468 100.277 39.8359 100.592 39.959C100.906 40.0775 101.257 40.1367 101.645 40.1367C102.128 40.1367 102.554 40.0365 102.923 39.8359C103.292 39.6309 103.6 39.346 103.846 38.9814L103.921 40ZM110.449 30.8125H109.178V32.6035H107.236V33.5811H109.178V37.6006C109.178 38.0563 109.237 38.446 109.355 38.7695C109.479 39.0885 109.645 39.3483 109.854 39.5488C110.064 39.7539 110.31 39.9043 110.593 40C110.88 40.0911 111.188 40.1367 111.516 40.1367C111.712 40.1367 111.908 40.1276 112.104 40.1094C112.304 40.0911 112.493 40.0638 112.671 40.0273C112.849 39.9954 113.013 39.9567 113.163 39.9111C113.313 39.861 113.441 39.804 113.546 39.7402L113.368 38.8447C113.291 38.863 113.19 38.8857 113.067 38.9131C112.949 38.9359 112.821 38.9587 112.685 38.9814C112.543 39.0042 112.4 39.0247 112.254 39.043C112.108 39.0566 111.967 39.0635 111.83 39.0635C111.643 39.0635 111.465 39.0407 111.297 38.9951C111.133 38.9495 110.987 38.8698 110.859 38.7559C110.732 38.6465 110.632 38.4984 110.559 38.3115C110.486 38.1247 110.449 37.8877 110.449 37.6006V33.5811H113.266V32.6035H110.449V30.8125ZM119.131 40.1367C119.851 40.1367 120.455 39.9932 120.942 39.7061C121.435 39.4144 121.804 39.0817 122.05 38.708L121.277 38.1064C121.045 38.4072 120.753 38.6488 120.402 38.8311C120.051 39.0133 119.65 39.1045 119.199 39.1045C118.857 39.1045 118.545 39.0407 118.263 38.9131C117.98 38.7855 117.739 38.61 117.538 38.3867C117.342 38.1771 117.187 37.9355 117.073 37.6621C116.964 37.3887 116.893 37.0719 116.861 36.7119V36.6641H122.146V36.0967C122.146 35.5817 122.079 35.1032 121.947 34.6611C121.82 34.2191 121.624 33.834 121.359 33.5059C121.095 33.1823 120.762 32.9294 120.361 32.7471C119.965 32.5602 119.5 32.4668 118.967 32.4668C118.543 32.4668 118.128 32.5534 117.723 32.7266C117.322 32.8997 116.964 33.1481 116.649 33.4717C116.33 33.7998 116.075 34.2008 115.884 34.6748C115.692 35.1442 115.597 35.6774 115.597 36.2744V36.5615C115.597 37.0765 115.683 37.5527 115.856 37.9902C116.03 38.4277 116.271 38.806 116.581 39.125C116.891 39.444 117.262 39.6924 117.695 39.8701C118.133 40.0479 118.611 40.1367 119.131 40.1367ZM118.967 33.5059C119.29 33.5059 119.568 33.5651 119.801 33.6836C120.038 33.8021 120.234 33.957 120.389 34.1484C120.544 34.3398 120.664 34.5677 120.751 34.832C120.838 35.0918 120.881 35.3356 120.881 35.5635V35.625H116.902C116.952 35.2832 117.039 34.9824 117.162 34.7227C117.29 34.4583 117.445 34.235 117.627 34.0527C117.809 33.875 118.014 33.7406 118.242 33.6494C118.47 33.5537 118.712 33.5059 118.967 33.5059Z" fill="#F2B8B8"/>
</g>
<defs>
<filter id="filter0_d" x="0" y="0" width="164.339" height="73" filterUnits="userSpaceOnUse" color-interpolation-filters="sRGB">
<feFlood flood-opacity="0" result="BackgroundImageFix"/>
<feColorMatrix in="SourceAlpha" type="matrix" values="0 0 0 0 0 0 0 0 0 0 0 0 0 0 0 0 0 0 127 0"/>
<feOffset dy="3"/>
<feColorMatrix type="matrix" values="0 0 0 0 0.920833 0 0 0 0 0.306944 0 0 0 0 0.306944 0 0 0 1 0"/>
<feBlend mode="normal" in2="BackgroundImageFix" result="effect1_dropShadow"/>
<feBlend mode="normal" in="SourceGraphic" in2="effect1_dropShadow" result="shape"/>
</filter>
</defs>
</svg>
