<svg width="150" height="67" viewBox="0 0 150 67" fill="none" xmlns="http://www.w3.org/2000/svg">
<g filter="url(#filter0_d)">
<rect width="150" height="63.8925" rx="5" fill="#C00000"/>
<path d="M44.5449 34.4336H43.4609C43.4258 34.6914 43.3652 34.9316 43.2793 35.1543C43.1934 35.373 43.0781 35.5625 42.9336 35.7227C42.7891 35.8867 42.6113 36.0137 42.4004 36.1035C42.1934 36.1934 41.9473 36.2383 41.6621 36.2383C41.4004 36.2383 41.1719 36.1973 40.9766 36.1152C40.7812 36.0293 40.6113 35.9121 40.4668 35.7637C40.3223 35.6191 40.2031 35.4512 40.1094 35.2598C40.0156 35.0684 39.9395 34.8633 39.8809 34.6445C39.8223 34.4297 39.7793 34.2109 39.752 33.9883C39.7285 33.7617 39.7168 33.543 39.7168 33.332V32.1309C39.7168 31.9199 39.7285 31.7031 39.752 31.4805C39.7793 31.2539 39.8223 31.0332 39.8809 30.8184C39.9395 30.6035 40.0156 30.4004 40.1094 30.209C40.207 30.0176 40.3281 29.8496 40.4727 29.7051C40.6133 29.5605 40.7812 29.4473 40.9766 29.3652C41.1758 29.2793 41.4043 29.2363 41.6621 29.2363C41.9473 29.2363 42.1934 29.2852 42.4004 29.3828C42.6113 29.4766 42.7891 29.6074 42.9336 29.7754C43.0781 29.9434 43.1934 30.1387 43.2793 30.3613C43.3652 30.584 43.4258 30.8242 43.4609 31.082H44.5449C44.498 30.6758 44.4004 30.3047 44.252 29.9688C44.1074 29.6328 43.9141 29.3438 43.6719 29.1016C43.4297 28.8633 43.1406 28.6797 42.8047 28.5508C42.4688 28.418 42.0879 28.3516 41.6621 28.3516C41.3066 28.3516 40.9863 28.4023 40.7012 28.5039C40.416 28.6016 40.1621 28.7383 39.9395 28.9141C39.7129 29.0898 39.5176 29.2988 39.3535 29.541C39.1934 29.7793 39.0605 30.0391 38.9551 30.3203C38.8457 30.6016 38.7637 30.8965 38.709 31.2051C38.6582 31.5137 38.6309 31.8262 38.627 32.1426V33.332C38.6309 33.6484 38.6582 33.9609 38.709 34.2695C38.7637 34.5781 38.8457 34.873 38.9551 35.1543C39.0605 35.4355 39.1934 35.6953 39.3535 35.9336C39.5176 36.1719 39.7129 36.3789 39.9395 36.5547C40.1621 36.7305 40.416 36.8691 40.7012 36.9707C40.9902 37.0684 41.3105 37.1172 41.6621 37.1172C42.0723 37.1172 42.4434 37.0527 42.7754 36.9238C43.1113 36.791 43.4023 36.6055 43.6484 36.3672C43.8906 36.1328 44.0879 35.8516 44.2402 35.5234C44.3926 35.1914 44.4941 34.8281 44.5449 34.4336ZM45.9219 33.7715V33.9004C45.9219 34.3574 45.9883 34.7812 46.1211 35.1719C46.2539 35.5625 46.4453 35.9023 46.6953 36.1914C46.9414 36.4805 47.2422 36.707 47.5977 36.8711C47.957 37.0352 48.3613 37.1172 48.8105 37.1172C49.2559 37.1172 49.6562 37.0352 50.0117 36.8711C50.3672 36.707 50.6699 36.4805 50.9199 36.1914C51.166 35.9023 51.3555 35.5625 51.4883 35.1719C51.6211 34.7812 51.6875 34.3574 51.6875 33.9004V33.7715C51.6875 33.3145 51.6211 32.8906 51.4883 32.5C51.3555 32.1055 51.166 31.7637 50.9199 31.4746C50.6699 31.1855 50.3652 30.959 50.0059 30.7949C49.6504 30.627 49.248 30.543 48.7988 30.543C48.3535 30.543 47.9531 30.627 47.5977 30.7949C47.2422 30.959 46.9414 31.1855 46.6953 31.4746C46.4453 31.7637 46.2539 32.1055 46.1211 32.5C45.9883 32.8906 45.9219 33.3145 45.9219 33.7715ZM47.0059 33.9004V33.7715C47.0059 33.4629 47.043 33.168 47.1172 32.8867C47.1914 32.6016 47.3047 32.3516 47.457 32.1367C47.6055 31.9219 47.791 31.752 48.0137 31.627C48.2363 31.498 48.498 31.4336 48.7988 31.4336C49.0996 31.4336 49.3613 31.498 49.584 31.627C49.8105 31.752 50 31.9219 50.1523 32.1367C50.3008 32.3516 50.4121 32.6016 50.4863 32.8867C50.5645 33.168 50.6035 33.4629 50.6035 33.7715V33.9004C50.6035 34.2129 50.5664 34.5117 50.4922 34.7969C50.418 35.0781 50.3066 35.3262 50.1582 35.541C50.0059 35.7559 49.8164 35.9258 49.5898 36.0508C49.3672 36.1758 49.1074 36.2383 48.8105 36.2383C48.5098 36.2383 48.2461 36.1758 48.0195 36.0508C47.793 35.9258 47.6055 35.7559 47.457 35.541C47.3047 35.3262 47.1914 35.0781 47.1172 34.7969C47.043 34.5117 47.0059 34.2129 47.0059 33.9004ZM53.4336 37H54.5176V32.4531C54.5918 32.3164 54.6777 32.1914 54.7754 32.0781C54.877 31.9648 54.9863 31.8652 55.1035 31.7793C55.248 31.6816 55.4062 31.6055 55.5781 31.5508C55.75 31.4922 55.9355 31.4629 56.1348 31.4629C56.3652 31.4629 56.5684 31.4902 56.7441 31.5449C56.9238 31.5996 57.0762 31.6875 57.2012 31.8086C57.3223 31.9297 57.4141 32.0879 57.4766 32.2832C57.5391 32.4785 57.5703 32.7168 57.5703 32.998V37H58.6543V32.9746C58.6543 32.5527 58.6016 32.1895 58.4961 31.8848C58.3945 31.5762 58.248 31.3223 58.0566 31.123C57.8652 30.9238 57.6328 30.7773 57.3594 30.6836C57.0898 30.5898 56.7891 30.543 56.457 30.543C56.2109 30.5469 55.9766 30.584 55.7539 30.6543C55.5352 30.7207 55.332 30.8164 55.1445 30.9414C55.0195 31.0234 54.9004 31.1211 54.7871 31.2344C54.6777 31.3438 54.5762 31.4648 54.4824 31.5977L54.4062 30.6602H53.4336V37ZM63.207 29.125H62.1172V30.6602H60.4531V31.498H62.1172V34.9434C62.1172 35.334 62.168 35.668 62.2695 35.9453C62.375 36.2188 62.5176 36.4414 62.6973 36.6133C62.877 36.7891 63.0879 36.918 63.3301 37C63.5762 37.0781 63.8398 37.1172 64.1211 37.1172C64.2891 37.1172 64.457 37.1094 64.625 37.0938C64.7969 37.0781 64.959 37.0547 65.1113 37.0234C65.2637 36.9961 65.4043 36.9629 65.5332 36.9238C65.6621 36.8809 65.7715 36.832 65.8613 36.7773L65.709 36.0098C65.6426 36.0254 65.5566 36.0449 65.4512 36.0684C65.3496 36.0879 65.2402 36.1074 65.123 36.127C65.002 36.1465 64.8789 36.1641 64.7539 36.1797C64.6289 36.1914 64.5078 36.1973 64.3906 36.1973C64.2305 36.1973 64.0781 36.1777 63.9336 36.1387C63.793 36.0996 63.668 36.0312 63.5586 35.9336C63.4492 35.8398 63.3633 35.7129 63.3008 35.5527C63.2383 35.3926 63.207 35.1895 63.207 34.9434V31.498H65.6211V30.6602H63.207V29.125ZM72.002 30.543C71.541 30.543 71.1289 30.6445 70.7656 30.8477C70.4062 31.0469 70.0977 31.3203 69.8398 31.668L69.834 31.5098L69.7871 30.6602H68.7559V37H69.8457V32.9336C69.916 32.7383 70.0039 32.5625 70.1094 32.4062C70.2188 32.2461 70.3457 32.1113 70.4902 32.002C70.6504 31.877 70.8379 31.7832 71.0527 31.7207C71.2676 31.6543 71.5078 31.6211 71.7734 31.6211C71.9805 31.6211 72.1777 31.6328 72.3652 31.6562C72.5566 31.6758 72.7578 31.709 72.9688 31.7559L73.1152 30.6953C73.0059 30.6484 72.8418 30.6113 72.623 30.584C72.4082 30.5566 72.2012 30.543 72.002 30.543ZM75.2246 30.6602V31.6035H77.3809V36.0625H75.2246V37H80.5332V36.0625H78.4648V30.6602H75.2246ZM77.2402 28.9961C77.2402 29.1719 77.293 29.3184 77.3984 29.4355C77.5078 29.5527 77.6719 29.6113 77.8906 29.6113C78.1055 29.6113 78.2676 29.5527 78.377 29.4355C78.4863 29.3184 78.541 29.1719 78.541 28.9961C78.541 28.8984 78.5254 28.8086 78.4941 28.7266C78.4629 28.6445 78.416 28.5762 78.3535 28.5215C78.3027 28.4707 78.2383 28.4316 78.1602 28.4043C78.082 28.373 77.9922 28.3574 77.8906 28.3574C77.7891 28.3574 77.6973 28.373 77.6152 28.4043C77.5371 28.4316 77.4727 28.4707 77.4219 28.5215C77.3594 28.5801 77.3125 28.6504 77.2812 28.7324C77.2539 28.8145 77.2402 28.9023 77.2402 28.9961ZM87.6348 33.9004V33.7773C87.6348 33.4453 87.6074 33.1309 87.5527 32.834C87.498 32.5332 87.418 32.2598 87.3125 32.0137C87.2109 31.7949 87.0938 31.5977 86.9609 31.4219C86.8281 31.2422 86.6777 31.0898 86.5098 30.9648C86.3223 30.832 86.1133 30.7285 85.8828 30.6543C85.6523 30.5801 85.4004 30.543 85.127 30.543C84.9082 30.543 84.7051 30.5645 84.5176 30.6074C84.3301 30.6504 84.1582 30.7129 84.002 30.7949C83.877 30.8613 83.7598 30.9414 83.6504 31.0352C83.541 31.125 83.4414 31.2266 83.3516 31.3398V28H82.2676V37H83.2637L83.3164 36.2793C83.3867 36.3691 83.4609 36.4512 83.5391 36.5254C83.6172 36.5996 83.6992 36.668 83.7852 36.7305C83.9648 36.8555 84.166 36.9512 84.3887 37.0176C84.6152 37.084 84.8652 37.1172 85.1387 37.1172C85.377 37.1172 85.5977 37.0879 85.8008 37.0293C86.0078 36.9707 86.1973 36.8887 86.3691 36.7832C86.6074 36.6309 86.8105 36.4395 86.9785 36.209C87.1504 35.9746 87.2891 35.7109 87.3945 35.418C87.4727 35.1953 87.5312 34.957 87.5703 34.7031C87.6133 34.4453 87.6348 34.1777 87.6348 33.9004ZM86.5508 33.7773V33.9004C86.5508 34.0879 86.5391 34.2715 86.5156 34.4512C86.4922 34.6309 86.4551 34.7988 86.4043 34.9551C86.3418 35.1621 86.2578 35.3496 86.1523 35.5176C86.0469 35.6855 85.916 35.8242 85.7598 35.9336C85.6426 36.0195 85.5098 36.0859 85.3613 36.1328C85.2129 36.1758 85.0488 36.1973 84.8691 36.1973C84.6816 36.1973 84.5098 36.1738 84.3535 36.127C84.1973 36.0762 84.0566 36.0059 83.9316 35.916C83.8066 35.8262 83.6953 35.7227 83.5977 35.6055C83.5039 35.4844 83.4219 35.3535 83.3516 35.2129V32.4414C83.418 32.3008 83.498 32.1719 83.5918 32.0547C83.6895 31.9336 83.8008 31.8281 83.9258 31.7383C84.0469 31.6523 84.1855 31.5859 84.3418 31.5391C84.498 31.4883 84.6699 31.4629 84.8574 31.4629C85.0293 31.4629 85.1855 31.4824 85.3262 31.5215C85.4668 31.5605 85.5938 31.6152 85.707 31.6855C85.8711 31.7832 86.0098 31.918 86.123 32.0898C86.2363 32.2617 86.3281 32.4512 86.3984 32.6582C86.4492 32.8262 86.4863 33.0059 86.5098 33.1973C86.5371 33.3848 86.5508 33.5781 86.5508 33.7773ZM93.6465 37H94.6309V30.6602H93.541V35.207C93.4824 35.3438 93.4082 35.4707 93.3184 35.5879C93.2324 35.7012 93.1309 35.7988 93.0137 35.8809C92.873 35.9824 92.707 36.0625 92.5156 36.1211C92.3242 36.1758 92.1074 36.2031 91.8652 36.2031C91.6582 36.2031 91.4746 36.1758 91.3145 36.1211C91.1582 36.0664 91.0254 35.9707 90.916 35.834C90.8066 35.7012 90.7246 35.5215 90.6699 35.2949C90.6152 35.0684 90.5879 34.7832 90.5879 34.4395V30.6602H89.5039V34.4277C89.5039 34.9004 89.5547 35.3066 89.6562 35.6465C89.7617 35.9824 89.9102 36.2598 90.1016 36.4785C90.293 36.6973 90.5234 36.8594 90.793 36.9648C91.0625 37.0664 91.3633 37.1172 91.6953 37.1172C92.1094 37.1172 92.4746 37.0312 92.791 36.8594C93.1074 36.6836 93.3711 36.4395 93.582 36.127L93.6465 37ZM99.2422 29.125H98.1523V30.6602H96.4883V31.498H98.1523V34.9434C98.1523 35.334 98.2031 35.668 98.3047 35.9453C98.4102 36.2188 98.5527 36.4414 98.7324 36.6133C98.9121 36.7891 99.123 36.918 99.3652 37C99.6113 37.0781 99.875 37.1172 100.156 37.1172C100.324 37.1172 100.492 37.1094 100.66 37.0938C100.832 37.0781 100.994 37.0547 101.146 37.0234C101.299 36.9961 101.439 36.9629 101.568 36.9238C101.697 36.8809 101.807 36.832 101.896 36.7773L101.744 36.0098C101.678 36.0254 101.592 36.0449 101.486 36.0684C101.385 36.0879 101.275 36.1074 101.158 36.127C101.037 36.1465 100.914 36.1641 100.789 36.1797C100.664 36.1914 100.543 36.1973 100.426 36.1973C100.266 36.1973 100.113 36.1777 99.9688 36.1387C99.8281 36.0996 99.7031 36.0312 99.5938 35.9336C99.4844 35.8398 99.3984 35.7129 99.3359 35.5527C99.2734 35.3926 99.2422 35.1895 99.2422 34.9434V31.498H101.656V30.6602H99.2422V29.125ZM106.684 37.1172C107.301 37.1172 107.818 36.9941 108.236 36.748C108.658 36.498 108.975 36.2129 109.186 35.8926L108.523 35.377C108.324 35.6348 108.074 35.8418 107.773 35.998C107.473 36.1543 107.129 36.2324 106.742 36.2324C106.449 36.2324 106.182 36.1777 105.939 36.0684C105.697 35.959 105.49 35.8086 105.318 35.6172C105.15 35.4375 105.018 35.2305 104.92 34.9961C104.826 34.7617 104.766 34.4902 104.738 34.1816V34.1406H109.268V33.6543C109.268 33.2129 109.211 32.8027 109.098 32.4238C108.988 32.0449 108.82 31.7148 108.594 31.4336C108.367 31.1562 108.082 30.9395 107.738 30.7832C107.398 30.623 107 30.543 106.543 30.543C106.18 30.543 105.824 30.6172 105.477 30.7656C105.133 30.9141 104.826 31.127 104.557 31.4043C104.283 31.6855 104.064 32.0293 103.9 32.4355C103.736 32.8379 103.654 33.2949 103.654 33.8066V34.0527C103.654 34.4941 103.729 34.9023 103.877 35.2773C104.025 35.6523 104.232 35.9766 104.498 36.25C104.764 36.5234 105.082 36.7363 105.453 36.8887C105.828 37.041 106.238 37.1172 106.684 37.1172ZM106.543 31.4336C106.82 31.4336 107.059 31.4844 107.258 31.5859C107.461 31.6875 107.629 31.8203 107.762 31.9844C107.895 32.1484 107.998 32.3438 108.072 32.5703C108.146 32.793 108.184 33.002 108.184 33.1973V33.25H104.773C104.816 32.957 104.891 32.6992 104.996 32.4766C105.105 32.25 105.238 32.0586 105.395 31.9023C105.551 31.75 105.727 31.6348 105.922 31.5566C106.117 31.4746 106.324 31.4336 106.543 31.4336Z" fill="#F2B8B8"/>
</g>
<defs>
<filter id="filter0_d" x="0" y="0" width="150" height="66.8925" filterUnits="userSpaceOnUse" color-interpolation-filters="sRGB">
<feFlood flood-opacity="0" result="BackgroundImageFix"/>
<feColorMatrix in="SourceAlpha" type="matrix" values="0 0 0 0 0 0 0 0 0 0 0 0 0 0 0 0 0 0 127 0"/>
<feOffset dy="3"/>
<feColorMatrix type="matrix" values="0 0 0 0 0.825 0 0 0 0 0.144375 0 0 0 0 0.144375 0 0 0 1 0"/>
<feBlend mode="normal" in2="BackgroundImageFix" result="effect1_dropShadow"/>
<feBlend mode="normal" in="SourceGraphic" in2="effect1_dropShadow" result="shape"/>
</filter>
</defs>
</svg>
