<svg width="200" height="86" viewBox="0 0 200 86" fill="none" xmlns="http://www.w3.org/2000/svg">
<g clip-path="url(#clip0)">
<rect width="200" height="85.19" rx="5" fill="white"/>
<rect width="200" height="85.1852" rx="5" fill="#FF5722"/>
<path d="M67.0449 48.8486C67.625 48.8486 68.1318 48.6729 68.5654 48.3213C68.999 47.9697 69.2393 47.5303 69.2861 47.0029H70.8242C70.7949 47.5479 70.6074 48.0664 70.2617 48.5586C69.916 49.0508 69.4531 49.4434 68.873 49.7363C68.2988 50.0293 67.6895 50.1758 67.0449 50.1758C65.75 50.1758 64.7188 49.7451 63.9512 48.8838C63.1895 48.0166 62.8086 46.833 62.8086 45.333V45.0605C62.8086 44.1348 62.9785 43.3115 63.3184 42.5908C63.6582 41.8701 64.1445 41.3105 64.7773 40.9121C65.416 40.5137 66.1689 40.3145 67.0361 40.3145C68.1025 40.3145 68.9873 40.6338 69.6904 41.2725C70.3994 41.9111 70.7773 42.7402 70.8242 43.7598H69.2861C69.2393 43.1445 69.0049 42.6406 68.583 42.248C68.167 41.8496 67.6514 41.6504 67.0361 41.6504C66.21 41.6504 65.5684 41.9492 65.1113 42.5469C64.6602 43.1387 64.4346 43.9971 64.4346 45.1221V45.4297C64.4346 46.5254 64.6602 47.3691 65.1113 47.9609C65.5625 48.5527 66.207 48.8486 67.0449 48.8486ZM72.2217 45.1572C72.2217 44.2256 72.4033 43.3877 72.7666 42.6436C73.1357 41.8994 73.6455 41.3252 74.2959 40.9209C74.9521 40.5166 75.6992 40.3145 76.5371 40.3145C77.832 40.3145 78.8779 40.7627 79.6748 41.6592C80.4775 42.5557 80.8789 43.748 80.8789 45.2363V45.3506C80.8789 46.2764 80.7002 47.1084 80.3428 47.8467C79.9912 48.5791 79.4844 49.1504 78.8223 49.5605C78.166 49.9707 77.4102 50.1758 76.5547 50.1758C75.2656 50.1758 74.2197 49.7275 73.417 48.8311C72.6201 47.9346 72.2217 46.748 72.2217 45.2715V45.1572ZM73.8564 45.3506C73.8564 46.4053 74.0996 47.252 74.5859 47.8906C75.0781 48.5293 75.7344 48.8486 76.5547 48.8486C77.3809 48.8486 78.0371 48.5264 78.5234 47.8818C79.0098 47.2314 79.2529 46.3232 79.2529 45.1572C79.2529 44.1143 79.0039 43.2705 78.5059 42.626C78.0137 41.9756 77.3574 41.6504 76.5371 41.6504C75.7344 41.6504 75.0869 41.9697 74.5947 42.6084C74.1025 43.2471 73.8564 44.1611 73.8564 45.3506ZM84.4561 40.4902L84.5088 41.6855C85.2354 40.7715 86.1846 40.3145 87.3564 40.3145C89.3662 40.3145 90.3799 41.4482 90.3975 43.7158V50H88.7715V43.707C88.7656 43.0215 88.6074 42.5146 88.2969 42.1865C87.9922 41.8584 87.5146 41.6943 86.8643 41.6943C86.3369 41.6943 85.874 41.835 85.4756 42.1162C85.0771 42.3975 84.7666 42.7666 84.5439 43.2236V50H82.918V40.4902H84.4561ZM95.0557 38.1875V40.4902H96.8311V41.7471H95.0557V47.6445C95.0557 48.0254 95.1348 48.3125 95.293 48.5059C95.4512 48.6934 95.7207 48.7871 96.1016 48.7871C96.2891 48.7871 96.5469 48.752 96.875 48.6816V50C96.4473 50.1172 96.0312 50.1758 95.627 50.1758C94.9004 50.1758 94.3525 49.9561 93.9834 49.5166C93.6143 49.0771 93.4297 48.4531 93.4297 47.6445V41.7471H91.6982V40.4902H93.4297V38.1875H95.0557ZM103.335 41.9492C103.089 41.9082 102.822 41.8877 102.535 41.8877C101.469 41.8877 100.745 42.3418 100.364 43.25V50H98.7383V40.4902H100.32L100.347 41.5889C100.88 40.7393 101.636 40.3145 102.614 40.3145C102.931 40.3145 103.171 40.3555 103.335 40.4375V41.9492ZM106.604 50H104.979V40.4902H106.604V50ZM104.847 37.9678C104.847 37.7041 104.926 37.4814 105.084 37.2998C105.248 37.1182 105.488 37.0273 105.805 37.0273C106.121 37.0273 106.361 37.1182 106.525 37.2998C106.689 37.4814 106.771 37.7041 106.771 37.9678C106.771 38.2314 106.689 38.4512 106.525 38.627C106.361 38.8027 106.121 38.8906 105.805 38.8906C105.488 38.8906 105.248 38.8027 105.084 38.627C104.926 38.4512 104.847 38.2314 104.847 37.9678ZM117.266 45.3506C117.266 46.8037 116.932 47.9727 116.264 48.8574C115.596 49.7363 114.699 50.1758 113.574 50.1758C112.373 50.1758 111.444 49.751 110.788 48.9014L110.709 50H109.215V36.5H110.841V41.5361C111.497 40.7217 112.402 40.3145 113.557 40.3145C114.711 40.3145 115.616 40.751 116.272 41.624C116.935 42.4971 117.266 43.6924 117.266 45.21V45.3506ZM115.64 45.166C115.64 44.0586 115.426 43.2031 114.998 42.5996C114.57 41.9961 113.955 41.6943 113.152 41.6943C112.08 41.6943 111.31 42.1924 110.841 43.1885V47.3018C111.339 48.2979 112.115 48.7959 113.17 48.7959C113.949 48.7959 114.556 48.4941 114.989 47.8906C115.423 47.2871 115.64 46.3789 115.64 45.166ZM125.193 49.0596C124.561 49.8037 123.632 50.1758 122.407 50.1758C121.394 50.1758 120.62 49.8828 120.087 49.2969C119.56 48.7051 119.293 47.832 119.287 46.6777V40.4902H120.913V46.6338C120.913 48.0752 121.499 48.7959 122.671 48.7959C123.913 48.7959 124.739 48.333 125.149 47.4072V40.4902H126.775V50H125.229L125.193 49.0596ZM131.46 38.1875V40.4902H133.235V41.7471H131.46V47.6445C131.46 48.0254 131.539 48.3125 131.697 48.5059C131.855 48.6934 132.125 48.7871 132.506 48.7871C132.693 48.7871 132.951 48.752 133.279 48.6816V50C132.852 50.1172 132.436 50.1758 132.031 50.1758C131.305 50.1758 130.757 49.9561 130.388 49.5166C130.019 49.0771 129.834 48.4531 129.834 47.6445V41.7471H128.103V40.4902H129.834V38.1875H131.46ZM139.089 50.1758C137.8 50.1758 136.751 49.7539 135.942 48.9102C135.134 48.0605 134.729 46.9268 134.729 45.5088V45.21C134.729 44.2666 134.908 43.4258 135.266 42.6875C135.629 41.9434 136.133 41.3633 136.777 40.9473C137.428 40.5254 138.131 40.3145 138.887 40.3145C140.123 40.3145 141.084 40.7217 141.77 41.5361C142.455 42.3506 142.798 43.5166 142.798 45.0342V45.7109H136.355C136.379 46.6484 136.651 47.4072 137.173 47.9873C137.7 48.5615 138.368 48.8486 139.177 48.8486C139.751 48.8486 140.237 48.7314 140.636 48.4971C141.034 48.2627 141.383 47.9521 141.682 47.5654L142.675 48.3389C141.878 49.5635 140.683 50.1758 139.089 50.1758ZM138.887 41.6504C138.23 41.6504 137.68 41.8906 137.234 42.3711C136.789 42.8457 136.514 43.5137 136.408 44.375H141.172V44.252C141.125 43.4258 140.902 42.7871 140.504 42.3359C140.105 41.8789 139.566 41.6504 138.887 41.6504Z" fill="white"/>
</g>
<defs>
<clipPath id="clip0">
<rect width="200" height="85.19" rx="5" fill="white"/>
</clipPath>
</defs>
</svg>
