<svg width="174" height="60" viewBox="0 0 174 60" fill="none" xmlns="http://www.w3.org/2000/svg">
<path d="M52.6357 32.0059H51.3711C51.3301 32.3066 51.2594 32.5869 51.1592 32.8467C51.0589 33.1019 50.9245 33.3229 50.7559 33.5098C50.5872 33.7012 50.3799 33.8493 50.1338 33.9541C49.8923 34.0589 49.6051 34.1113 49.2725 34.1113C48.9671 34.1113 48.7005 34.0635 48.4727 33.9678C48.2448 33.8675 48.0465 33.7308 47.8779 33.5576C47.7093 33.389 47.5703 33.193 47.4609 32.9697C47.3516 32.7464 47.2627 32.5072 47.1943 32.252C47.126 32.0013 47.0758 31.7461 47.0439 31.4863C47.0166 31.222 47.0029 30.9668 47.0029 30.7207V29.3193C47.0029 29.0732 47.0166 28.8203 47.0439 28.5605C47.0758 28.2962 47.126 28.0387 47.1943 27.7881C47.2627 27.5374 47.3516 27.3005 47.4609 27.0771C47.5749 26.8538 47.7161 26.6579 47.8848 26.4893C48.0488 26.3206 48.2448 26.1885 48.4727 26.0928C48.7051 25.9925 48.9717 25.9424 49.2725 25.9424C49.6051 25.9424 49.8923 25.9993 50.1338 26.1133C50.3799 26.2227 50.5872 26.3753 50.7559 26.5713C50.9245 26.7673 51.0589 26.9951 51.1592 27.2549C51.2594 27.5146 51.3301 27.7949 51.3711 28.0957H52.6357C52.5811 27.6217 52.4671 27.1888 52.2939 26.7969C52.1253 26.4049 51.8997 26.0677 51.6172 25.7852C51.3346 25.5072 50.9974 25.293 50.6055 25.1426C50.2135 24.9876 49.7692 24.9102 49.2725 24.9102C48.8577 24.9102 48.484 24.9694 48.1514 25.0879C47.8187 25.2018 47.5225 25.3613 47.2627 25.5664C46.9984 25.7715 46.7705 26.0153 46.5791 26.2979C46.3923 26.5758 46.2373 26.8789 46.1143 27.207C45.9867 27.5352 45.891 27.8792 45.8271 28.2393C45.7679 28.5993 45.736 28.9639 45.7314 29.333V30.7207C45.736 31.0898 45.7679 31.4544 45.8271 31.8145C45.891 32.1745 45.9867 32.5186 46.1143 32.8467C46.2373 33.1748 46.3923 33.4779 46.5791 33.7559C46.7705 34.0339 46.9984 34.2754 47.2627 34.4805C47.5225 34.6855 47.8187 34.8473 48.1514 34.9658C48.4886 35.0798 48.8623 35.1367 49.2725 35.1367C49.751 35.1367 50.1839 35.0615 50.5713 34.9111C50.9632 34.7562 51.3027 34.5397 51.5898 34.2617C51.8724 33.9883 52.1025 33.6602 52.2803 33.2773C52.458 32.89 52.5765 32.4661 52.6357 32.0059ZM54.2422 31.2334V31.3838C54.2422 31.917 54.3197 32.4115 54.4746 32.8672C54.6296 33.3229 54.8529 33.7194 55.1445 34.0566C55.4316 34.3939 55.7826 34.6582 56.1973 34.8496C56.6165 35.041 57.0882 35.1367 57.6123 35.1367C58.1318 35.1367 58.599 35.041 59.0137 34.8496C59.4284 34.6582 59.7816 34.3939 60.0732 34.0566C60.3604 33.7194 60.5814 33.3229 60.7363 32.8672C60.8913 32.4115 60.9688 31.917 60.9688 31.3838V31.2334C60.9688 30.7002 60.8913 30.2057 60.7363 29.75C60.5814 29.2897 60.3604 28.891 60.0732 28.5537C59.7816 28.2165 59.4261 27.9521 59.0068 27.7607C58.5921 27.5648 58.1227 27.4668 57.5986 27.4668C57.0791 27.4668 56.612 27.5648 56.1973 27.7607C55.7826 27.9521 55.4316 28.2165 55.1445 28.5537C54.8529 28.891 54.6296 29.2897 54.4746 29.75C54.3197 30.2057 54.2422 30.7002 54.2422 31.2334ZM55.5068 31.3838V31.2334C55.5068 30.8734 55.5501 30.5293 55.6367 30.2012C55.7233 29.8685 55.8555 29.5768 56.0332 29.3262C56.2064 29.0755 56.4229 28.8773 56.6826 28.7314C56.9424 28.5811 57.2477 28.5059 57.5986 28.5059C57.9495 28.5059 58.2549 28.5811 58.5146 28.7314C58.779 28.8773 59 29.0755 59.1777 29.3262C59.3509 29.5768 59.4808 29.8685 59.5674 30.2012C59.6585 30.5293 59.7041 30.8734 59.7041 31.2334V31.3838C59.7041 31.7484 59.6608 32.097 59.5742 32.4297C59.4876 32.7578 59.3577 33.0472 59.1846 33.2979C59.0068 33.5485 58.7858 33.7467 58.5215 33.8926C58.2617 34.0384 57.9587 34.1113 57.6123 34.1113C57.2614 34.1113 56.9538 34.0384 56.6895 33.8926C56.4251 33.7467 56.2064 33.5485 56.0332 33.2979C55.8555 33.0472 55.7233 32.7578 55.6367 32.4297C55.5501 32.097 55.5068 31.7484 55.5068 31.3838ZM63.0059 35H64.2705V29.6953C64.3571 29.5358 64.4574 29.39 64.5713 29.2578C64.6898 29.1257 64.8174 29.0094 64.9541 28.9092C65.1227 28.7952 65.3073 28.7064 65.5078 28.6426C65.7083 28.5742 65.9248 28.54 66.1572 28.54C66.4261 28.54 66.6631 28.5719 66.8682 28.6357C67.0778 28.6995 67.2555 28.8021 67.4014 28.9434C67.5426 29.0846 67.6497 29.2692 67.7227 29.4971C67.7956 29.7249 67.832 30.0029 67.832 30.3311V35H69.0967V30.3037C69.0967 29.8115 69.0352 29.3877 68.9121 29.0322C68.7936 28.6722 68.6227 28.376 68.3994 28.1436C68.1761 27.9111 67.9049 27.7402 67.5859 27.6309C67.2715 27.5215 66.9206 27.4668 66.5332 27.4668C66.2461 27.4714 65.9727 27.5146 65.7129 27.5967C65.4577 27.6742 65.2207 27.7858 65.002 27.9316C64.8561 28.0273 64.7171 28.1413 64.585 28.2734C64.4574 28.401 64.3389 28.5423 64.2295 28.6973L64.1406 27.6035H63.0059V35ZM74.4082 25.8125H73.1367V27.6035H71.1953V28.5811H73.1367V32.6006C73.1367 33.0563 73.196 33.446 73.3145 33.7695C73.4375 34.0885 73.6038 34.3483 73.8135 34.5488C74.0231 34.7539 74.2692 34.9043 74.5518 35C74.8389 35.0911 75.1465 35.1367 75.4746 35.1367C75.6706 35.1367 75.8665 35.1276 76.0625 35.1094C76.263 35.0911 76.4521 35.0638 76.6299 35.0273C76.8076 34.9954 76.9717 34.9567 77.1221 34.9111C77.2725 34.861 77.4001 34.804 77.5049 34.7402L77.3271 33.8447C77.2497 33.863 77.1494 33.8857 77.0264 33.9131C76.9079 33.9359 76.7803 33.9587 76.6436 33.9814C76.5023 34.0042 76.3587 34.0247 76.2129 34.043C76.0671 34.0566 75.9258 34.0635 75.7891 34.0635C75.6022 34.0635 75.4245 34.0407 75.2559 33.9951C75.0918 33.9495 74.946 33.8698 74.8184 33.7559C74.6908 33.6465 74.5905 33.4984 74.5176 33.3115C74.4447 33.1247 74.4082 32.8877 74.4082 32.6006V28.5811H77.2246V27.6035H74.4082V25.8125ZM84.6689 27.4668C84.1312 27.4668 83.6504 27.5853 83.2266 27.8223C82.8073 28.0547 82.4473 28.3737 82.1465 28.7793L82.1396 28.5947L82.085 27.6035H80.8818V35H82.1533V30.2559C82.2354 30.028 82.3379 29.8229 82.4609 29.6406C82.5885 29.4538 82.7367 29.2965 82.9053 29.1689C83.0921 29.0231 83.3109 28.9137 83.5615 28.8408C83.8122 28.7633 84.0924 28.7246 84.4023 28.7246C84.6439 28.7246 84.874 28.7383 85.0928 28.7656C85.3161 28.7884 85.5508 28.8271 85.7969 28.8818L85.9678 27.6445C85.8402 27.5898 85.6488 27.5465 85.3936 27.5146C85.1429 27.4827 84.9014 27.4668 84.6689 27.4668ZM88.4287 27.6035V28.7041H90.9443V33.9062H88.4287V35H94.6221V33.9062H92.209V27.6035H88.4287ZM90.7803 25.6621C90.7803 25.8672 90.8418 26.0381 90.9648 26.1748C91.0924 26.3115 91.2839 26.3799 91.5391 26.3799C91.7897 26.3799 91.9788 26.3115 92.1064 26.1748C92.234 26.0381 92.2979 25.8672 92.2979 25.6621C92.2979 25.5482 92.2796 25.4434 92.2432 25.3477C92.2067 25.252 92.152 25.1722 92.0791 25.1084C92.0199 25.0492 91.9447 25.0036 91.8535 24.9717C91.7624 24.9352 91.6576 24.917 91.5391 24.917C91.4206 24.917 91.3135 24.9352 91.2178 24.9717C91.1266 25.0036 91.0514 25.0492 90.9922 25.1084C90.9193 25.1768 90.8646 25.2588 90.8281 25.3545C90.7962 25.4502 90.7803 25.5527 90.7803 25.6621ZM102.907 31.3838V31.2402C102.907 30.8529 102.875 30.486 102.812 30.1396C102.748 29.7887 102.654 29.4697 102.531 29.1826C102.413 28.9274 102.276 28.6973 102.121 28.4922C101.966 28.2826 101.791 28.1048 101.595 27.959C101.376 27.804 101.132 27.6833 100.863 27.5967C100.594 27.5101 100.3 27.4668 99.9814 27.4668C99.7262 27.4668 99.4893 27.4919 99.2705 27.542C99.0518 27.5921 98.8512 27.665 98.6689 27.7607C98.5231 27.8382 98.3864 27.9316 98.2588 28.041C98.1312 28.1458 98.015 28.2643 97.9102 28.3965V24.5H96.6455V35H97.8076L97.8691 34.1592C97.9512 34.264 98.0378 34.3597 98.1289 34.4463C98.2201 34.5329 98.3158 34.6126 98.416 34.6855C98.6257 34.8314 98.8604 34.943 99.1201 35.0205C99.3844 35.098 99.6761 35.1367 99.9951 35.1367C100.273 35.1367 100.531 35.1025 100.768 35.0342C101.009 34.9658 101.23 34.8701 101.431 34.7471C101.709 34.5693 101.946 34.346 102.142 34.0771C102.342 33.8037 102.504 33.4961 102.627 33.1543C102.718 32.8945 102.786 32.6165 102.832 32.3203C102.882 32.0195 102.907 31.7074 102.907 31.3838ZM101.643 31.2402V31.3838C101.643 31.6025 101.629 31.8167 101.602 32.0264C101.574 32.236 101.531 32.432 101.472 32.6143C101.399 32.8558 101.301 33.0745 101.178 33.2705C101.055 33.4665 100.902 33.6283 100.72 33.7559C100.583 33.8561 100.428 33.9336 100.255 33.9883C100.082 34.0384 99.8903 34.0635 99.6807 34.0635C99.4619 34.0635 99.2614 34.0361 99.0791 33.9814C98.8968 33.9222 98.7327 33.8402 98.5869 33.7354C98.4411 33.6305 98.3112 33.5098 98.1973 33.373C98.0879 33.2318 97.9922 33.0791 97.9102 32.915V29.6816C97.9876 29.5176 98.0811 29.3672 98.1904 29.2305C98.3044 29.0892 98.4342 28.9661 98.5801 28.8613C98.7214 28.7611 98.8831 28.6836 99.0654 28.6289C99.2477 28.5697 99.4482 28.54 99.667 28.54C99.8675 28.54 100.05 28.5628 100.214 28.6084C100.378 28.654 100.526 28.7178 100.658 28.7998C100.85 28.9137 101.011 29.071 101.144 29.2715C101.276 29.472 101.383 29.693 101.465 29.9346C101.524 30.1305 101.567 30.3402 101.595 30.5635C101.627 30.7822 101.643 31.0078 101.643 31.2402ZM109.921 35H111.069V27.6035H109.798V32.9082C109.729 33.0677 109.643 33.2158 109.538 33.3525C109.438 33.4847 109.319 33.5986 109.183 33.6943C109.019 33.8128 108.825 33.9062 108.602 33.9746C108.378 34.0384 108.125 34.0703 107.843 34.0703C107.601 34.0703 107.387 34.0384 107.2 33.9746C107.018 33.9108 106.863 33.7992 106.735 33.6396C106.608 33.4847 106.512 33.2751 106.448 33.0107C106.384 32.7464 106.353 32.4137 106.353 32.0127V27.6035H105.088V31.999C105.088 32.5505 105.147 33.0244 105.266 33.4209C105.389 33.8128 105.562 34.1364 105.785 34.3916C106.008 34.6468 106.277 34.8359 106.592 34.959C106.906 35.0775 107.257 35.1367 107.645 35.1367C108.128 35.1367 108.554 35.0365 108.923 34.8359C109.292 34.6309 109.6 34.346 109.846 33.9814L109.921 35ZM116.449 25.8125H115.178V27.6035H113.236V28.5811H115.178V32.6006C115.178 33.0563 115.237 33.446 115.355 33.7695C115.479 34.0885 115.645 34.3483 115.854 34.5488C116.064 34.7539 116.31 34.9043 116.593 35C116.88 35.0911 117.188 35.1367 117.516 35.1367C117.712 35.1367 117.908 35.1276 118.104 35.1094C118.304 35.0911 118.493 35.0638 118.671 35.0273C118.849 34.9954 119.013 34.9567 119.163 34.9111C119.313 34.861 119.441 34.804 119.546 34.7402L119.368 33.8447C119.291 33.863 119.19 33.8857 119.067 33.9131C118.949 33.9359 118.821 33.9587 118.685 33.9814C118.543 34.0042 118.4 34.0247 118.254 34.043C118.108 34.0566 117.967 34.0635 117.83 34.0635C117.643 34.0635 117.465 34.0407 117.297 33.9951C117.133 33.9495 116.987 33.8698 116.859 33.7559C116.732 33.6465 116.632 33.4984 116.559 33.3115C116.486 33.1247 116.449 32.8877 116.449 32.6006V28.5811H119.266V27.6035H116.449V25.8125ZM125.131 35.1367C125.851 35.1367 126.455 34.9932 126.942 34.7061C127.435 34.4144 127.804 34.0817 128.05 33.708L127.277 33.1064C127.045 33.4072 126.753 33.6488 126.402 33.8311C126.051 34.0133 125.65 34.1045 125.199 34.1045C124.857 34.1045 124.545 34.0407 124.263 33.9131C123.98 33.7855 123.739 33.61 123.538 33.3867C123.342 33.1771 123.187 32.9355 123.073 32.6621C122.964 32.3887 122.893 32.0719 122.861 31.7119V31.6641H128.146V31.0967C128.146 30.5817 128.079 30.1032 127.947 29.6611C127.82 29.2191 127.624 28.834 127.359 28.5059C127.095 28.1823 126.762 27.9294 126.361 27.7471C125.965 27.5602 125.5 27.4668 124.967 27.4668C124.543 27.4668 124.128 27.5534 123.723 27.7266C123.322 27.8997 122.964 28.1481 122.649 28.4717C122.33 28.7998 122.075 29.2008 121.884 29.6748C121.692 30.1442 121.597 30.6774 121.597 31.2744V31.5615C121.597 32.0765 121.683 32.5527 121.856 32.9902C122.03 33.4277 122.271 33.806 122.581 34.125C122.891 34.444 123.262 34.6924 123.695 34.8701C124.133 35.0479 124.611 35.1367 125.131 35.1367ZM124.967 28.5059C125.29 28.5059 125.568 28.5651 125.801 28.6836C126.038 28.8021 126.234 28.957 126.389 29.1484C126.544 29.3398 126.664 29.5677 126.751 29.832C126.838 30.0918 126.881 30.3356 126.881 30.5635V30.625H122.902C122.952 30.2832 123.039 29.9824 123.162 29.7227C123.29 29.4583 123.445 29.235 123.627 29.0527C123.809 28.875 124.014 28.7406 124.242 28.6494C124.47 28.5537 124.712 28.5059 124.967 28.5059Z" fill="#EB4E4E"/>
</svg>
