<svg width="200" height="86" viewBox="0 0 200 86" fill="none" xmlns="http://www.w3.org/2000/svg">
<g clip-path="url(#clip0)">
<rect width="200" height="85.19" rx="5" fill="white"/>
<rect width="200" height="85.1852" rx="5" fill="#FF5722"/>
<path d="M72.835 45.166C72.835 43.707 73.1807 42.5352 73.8721 41.6504C74.5635 40.7598 75.4688 40.3145 76.5879 40.3145C77.7012 40.3145 78.583 40.6953 79.2334 41.457V36.5H80.8594V50H79.3652L79.2861 48.9805C78.6357 49.7773 77.7305 50.1758 76.5703 50.1758C75.4688 50.1758 74.5693 49.7246 73.8721 48.8223C73.1807 47.9199 72.835 46.7422 72.835 45.2891V45.166ZM74.4609 45.3506C74.4609 46.4287 74.6836 47.2725 75.1289 47.8818C75.5742 48.4912 76.1895 48.7959 76.9746 48.7959C78.0059 48.7959 78.7588 48.333 79.2334 47.4072V43.0391C78.7471 42.1426 78 41.6943 76.9922 41.6943C76.1953 41.6943 75.5742 42.002 75.1289 42.6172C74.6836 43.2324 74.4609 44.1436 74.4609 45.3506ZM82.96 45.1572C82.96 44.2256 83.1416 43.3877 83.5049 42.6436C83.874 41.8994 84.3838 41.3252 85.0342 40.9209C85.6904 40.5166 86.4375 40.3145 87.2754 40.3145C88.5703 40.3145 89.6162 40.7627 90.4131 41.6592C91.2158 42.5557 91.6172 43.748 91.6172 45.2363V45.3506C91.6172 46.2764 91.4385 47.1084 91.0811 47.8467C90.7295 48.5791 90.2227 49.1504 89.5605 49.5605C88.9043 49.9707 88.1484 50.1758 87.293 50.1758C86.0039 50.1758 84.958 49.7275 84.1553 48.8311C83.3584 47.9346 82.96 46.748 82.96 45.2715V45.1572ZM84.5947 45.3506C84.5947 46.4053 84.8379 47.252 85.3242 47.8906C85.8164 48.5293 86.4727 48.8486 87.293 48.8486C88.1191 48.8486 88.7754 48.5264 89.2617 47.8818C89.748 47.2314 89.9912 46.3232 89.9912 45.1572C89.9912 44.1143 89.7422 43.2705 89.2441 42.626C88.752 41.9756 88.0957 41.6504 87.2754 41.6504C86.4727 41.6504 85.8252 41.9697 85.333 42.6084C84.8408 43.2471 84.5947 44.1611 84.5947 45.3506ZM95.1943 40.4902L95.2471 41.6855C95.9736 40.7715 96.9229 40.3145 98.0947 40.3145C100.104 40.3145 101.118 41.4482 101.136 43.7158V50H99.5098V43.707C99.5039 43.0215 99.3457 42.5146 99.0352 42.1865C98.7305 41.8584 98.2529 41.6943 97.6025 41.6943C97.0752 41.6943 96.6123 41.835 96.2139 42.1162C95.8154 42.3975 95.5049 42.7666 95.2822 43.2236V50H93.6562V40.4902H95.1943ZM109.459 50C109.365 49.8125 109.289 49.4785 109.23 48.998C108.475 49.7832 107.572 50.1758 106.523 50.1758C105.586 50.1758 104.815 49.9121 104.212 49.3848C103.614 48.8516 103.315 48.1777 103.315 47.3633C103.315 46.373 103.69 45.6055 104.44 45.0605C105.196 44.5098 106.257 44.2344 107.622 44.2344H109.204V43.4873C109.204 42.9189 109.034 42.4678 108.694 42.1338C108.354 41.7939 107.854 41.624 107.191 41.624C106.611 41.624 106.125 41.7705 105.732 42.0635C105.34 42.3564 105.144 42.7109 105.144 43.127H103.509C103.509 42.6523 103.676 42.1953 104.01 41.7559C104.35 41.3105 104.807 40.959 105.381 40.7012C105.961 40.4434 106.597 40.3145 107.288 40.3145C108.384 40.3145 109.242 40.5898 109.863 41.1406C110.484 41.6855 110.807 42.4385 110.83 43.3994V47.7764C110.83 48.6494 110.941 49.3438 111.164 49.8594V50H109.459ZM106.761 48.7607C107.271 48.7607 107.754 48.6289 108.211 48.3652C108.668 48.1016 108.999 47.7588 109.204 47.3369V45.3857H107.93C105.938 45.3857 104.941 45.9688 104.941 47.1348C104.941 47.6445 105.111 48.043 105.451 48.3301C105.791 48.6172 106.228 48.7607 106.761 48.7607ZM115.585 38.1875V40.4902H117.36V41.7471H115.585V47.6445C115.585 48.0254 115.664 48.3125 115.822 48.5059C115.98 48.6934 116.25 48.7871 116.631 48.7871C116.818 48.7871 117.076 48.752 117.404 48.6816V50C116.977 50.1172 116.561 50.1758 116.156 50.1758C115.43 50.1758 114.882 49.9561 114.513 49.5166C114.144 49.0771 113.959 48.4531 113.959 47.6445V41.7471H112.228V40.4902H113.959V38.1875H115.585ZM123.214 50.1758C121.925 50.1758 120.876 49.7539 120.067 48.9102C119.259 48.0605 118.854 46.9268 118.854 45.5088V45.21C118.854 44.2666 119.033 43.4258 119.391 42.6875C119.754 41.9434 120.258 41.3633 120.902 40.9473C121.553 40.5254 122.256 40.3145 123.012 40.3145C124.248 40.3145 125.209 40.7217 125.895 41.5361C126.58 42.3506 126.923 43.5166 126.923 45.0342V45.7109H120.48C120.504 46.6484 120.776 47.4072 121.298 47.9873C121.825 48.5615 122.493 48.8486 123.302 48.8486C123.876 48.8486 124.362 48.7314 124.761 48.4971C125.159 48.2627 125.508 47.9521 125.807 47.5654L126.8 48.3389C126.003 49.5635 124.808 50.1758 123.214 50.1758ZM123.012 41.6504C122.355 41.6504 121.805 41.8906 121.359 42.3711C120.914 42.8457 120.639 43.5137 120.533 44.375H125.297V44.252C125.25 43.4258 125.027 42.7871 124.629 42.3359C124.23 41.8789 123.691 41.6504 123.012 41.6504Z" fill="white"/>
</g>
<defs>
<clipPath id="clip0">
<rect width="200" height="85.19" rx="5" fill="white"/>
</clipPath>
</defs>
</svg>
