<svg width="165" height="73" viewBox="0 0 165 73" fill="none" xmlns="http://www.w3.org/2000/svg">
<g filter="url(#filter0_d)">
<rect width="164.339" height="70" rx="5" fill="#C00000"/>
<path d="M57.0596 40H59.3633C59.8418 39.9954 60.2861 39.9385 60.6963 39.8291C61.111 39.7197 61.4824 39.5625 61.8105 39.3574C62.1204 39.1615 62.4007 38.9245 62.6514 38.6465C62.902 38.3685 63.1094 38.0586 63.2734 37.7168C63.4329 37.3887 63.5537 37.0286 63.6357 36.6367C63.7223 36.2448 63.7656 35.8301 63.7656 35.3926V34.6611C63.7611 34.2054 63.7132 33.777 63.6221 33.376C63.5355 32.9749 63.4079 32.6058 63.2393 32.2686C63.0524 31.8721 62.8018 31.5234 62.4873 31.2227C62.1774 30.9173 61.8197 30.6712 61.4141 30.4844C61.1224 30.3477 60.8034 30.2428 60.457 30.1699C60.1152 30.0924 59.7507 30.0514 59.3633 30.0469H57.0596V40ZM58.3447 31.0859H59.3633C59.6777 31.0905 59.9671 31.127 60.2314 31.1953C60.4958 31.2591 60.735 31.3503 60.9492 31.4688C61.25 31.6283 61.5029 31.8379 61.708 32.0977C61.9176 32.3529 62.084 32.64 62.207 32.959C62.3027 33.2051 62.3734 33.4717 62.4189 33.7588C62.4691 34.0413 62.4964 34.3376 62.501 34.6475V35.3926C62.4964 35.6979 62.4714 35.9919 62.4258 36.2744C62.3802 36.5524 62.3118 36.8122 62.2207 37.0537C62.1159 37.3499 61.9723 37.6188 61.79 37.8604C61.6123 38.0973 61.4004 38.2979 61.1543 38.4619C60.9219 38.6214 60.6553 38.7445 60.3545 38.8311C60.0583 38.9176 59.7279 38.9632 59.3633 38.9678H58.3447V31.0859ZM65.2422 36.2334V36.3838C65.2422 36.917 65.3197 37.4115 65.4746 37.8672C65.6296 38.3229 65.8529 38.7194 66.1445 39.0566C66.4316 39.3939 66.7826 39.6582 67.1973 39.8496C67.6165 40.041 68.0882 40.1367 68.6123 40.1367C69.1318 40.1367 69.599 40.041 70.0137 39.8496C70.4284 39.6582 70.7816 39.3939 71.0732 39.0566C71.3604 38.7194 71.5814 38.3229 71.7363 37.8672C71.8913 37.4115 71.9688 36.917 71.9688 36.3838V36.2334C71.9688 35.7002 71.8913 35.2057 71.7363 34.75C71.5814 34.2897 71.3604 33.891 71.0732 33.5537C70.7816 33.2165 70.4261 32.9521 70.0068 32.7607C69.5921 32.5648 69.1227 32.4668 68.5986 32.4668C68.0791 32.4668 67.612 32.5648 67.1973 32.7607C66.7826 32.9521 66.4316 33.2165 66.1445 33.5537C65.8529 33.891 65.6296 34.2897 65.4746 34.75C65.3197 35.2057 65.2422 35.7002 65.2422 36.2334ZM66.5068 36.3838V36.2334C66.5068 35.8734 66.5501 35.5293 66.6367 35.2012C66.7233 34.8685 66.8555 34.5768 67.0332 34.3262C67.2064 34.0755 67.4229 33.8773 67.6826 33.7314C67.9424 33.5811 68.2477 33.5059 68.5986 33.5059C68.9495 33.5059 69.2549 33.5811 69.5146 33.7314C69.779 33.8773 70 34.0755 70.1777 34.3262C70.3509 34.5768 70.4808 34.8685 70.5674 35.2012C70.6585 35.5293 70.7041 35.8734 70.7041 36.2334V36.3838C70.7041 36.7484 70.6608 37.097 70.5742 37.4297C70.4876 37.7578 70.3577 38.0472 70.1846 38.2979C70.0068 38.5485 69.7858 38.7467 69.5215 38.8926C69.2617 39.0384 68.9587 39.1113 68.6123 39.1113C68.2614 39.1113 67.9538 39.0384 67.6895 38.8926C67.4251 38.7467 67.2064 38.5485 67.0332 38.2979C66.8555 38.0472 66.7233 37.7578 66.6367 37.4297C66.5501 37.097 66.5068 36.7484 66.5068 36.3838ZM74.0059 40H75.2705V34.6953C75.3571 34.5358 75.4574 34.39 75.5713 34.2578C75.6898 34.1257 75.8174 34.0094 75.9541 33.9092C76.1227 33.7952 76.3073 33.7064 76.5078 33.6426C76.7083 33.5742 76.9248 33.54 77.1572 33.54C77.4261 33.54 77.6631 33.5719 77.8682 33.6357C78.0778 33.6995 78.2555 33.8021 78.4014 33.9434C78.5426 34.0846 78.6497 34.2692 78.7227 34.4971C78.7956 34.7249 78.832 35.0029 78.832 35.3311V40H80.0967V35.3037C80.0967 34.8115 80.0352 34.3877 79.9121 34.0322C79.7936 33.6722 79.6227 33.376 79.3994 33.1436C79.1761 32.9111 78.9049 32.7402 78.5859 32.6309C78.2715 32.5215 77.9206 32.4668 77.5332 32.4668C77.2461 32.4714 76.9727 32.5146 76.7129 32.5967C76.4577 32.6742 76.2207 32.7858 76.002 32.9316C75.8561 33.0273 75.7171 33.1413 75.585 33.2734C75.4574 33.401 75.3389 33.5423 75.2295 33.6973L75.1406 32.6035H74.0059V40ZM87.2744 40H88.5938V39.8906C88.5117 39.6855 88.4479 39.4463 88.4023 39.1729C88.3568 38.8949 88.334 38.6328 88.334 38.3867V34.9482C88.334 34.5335 88.2588 34.1712 88.1084 33.8613C87.958 33.5514 87.7529 33.2917 87.4932 33.082C87.2288 32.877 86.9167 32.7243 86.5566 32.624C86.1966 32.5192 85.807 32.4668 85.3877 32.4668C84.9274 32.4668 84.515 32.5306 84.1504 32.6582C83.7904 32.7858 83.485 32.9521 83.2344 33.1572C82.9792 33.3669 82.7832 33.6016 82.6465 33.8613C82.5143 34.1211 82.446 34.3854 82.4414 34.6543H83.7129C83.7129 34.4993 83.7493 34.3512 83.8223 34.21C83.8997 34.0641 84.0068 33.9388 84.1436 33.834C84.2803 33.7292 84.4466 33.6449 84.6426 33.5811C84.8431 33.5173 85.0687 33.4854 85.3193 33.4854C85.5882 33.4854 85.8298 33.5195 86.0439 33.5879C86.2627 33.6562 86.4473 33.752 86.5977 33.875C86.748 34.0026 86.8643 34.1553 86.9463 34.333C87.0283 34.5107 87.0693 34.7113 87.0693 34.9346V35.5156H85.6885C85.1735 35.5156 84.7064 35.5658 84.2871 35.666C83.8724 35.7663 83.5169 35.9167 83.2207 36.1172C82.9245 36.3223 82.6943 36.5775 82.5303 36.8828C82.3708 37.1882 82.291 37.5436 82.291 37.9492C82.291 38.2591 82.3503 38.5485 82.4688 38.8174C82.5918 39.0817 82.765 39.3096 82.9883 39.501C83.207 39.6969 83.4736 39.8519 83.7881 39.9658C84.1071 40.0798 84.4626 40.1367 84.8545 40.1367C85.096 40.1367 85.3239 40.1117 85.5381 40.0615C85.7523 40.0114 85.9551 39.943 86.1465 39.8564C86.3333 39.7699 86.5042 39.6696 86.6592 39.5557C86.8187 39.4417 86.9622 39.321 87.0898 39.1934C87.1035 39.3483 87.124 39.4987 87.1514 39.6445C87.1833 39.7858 87.2243 39.9043 87.2744 40ZM85.0391 39.0361C84.793 39.0361 84.5765 39.0042 84.3896 38.9404C84.2028 38.8766 84.0479 38.7878 83.9248 38.6738C83.8018 38.5645 83.7083 38.4323 83.6445 38.2773C83.5853 38.1224 83.5557 37.9538 83.5557 37.7715C83.5557 37.5801 83.5898 37.4092 83.6582 37.2588C83.7311 37.1084 83.8359 36.9785 83.9727 36.8691C84.1641 36.7142 84.4215 36.6003 84.7451 36.5273C85.0732 36.4499 85.4561 36.4111 85.8936 36.4111H87.0693V37.9082C86.9964 38.054 86.8962 38.1953 86.7686 38.332C86.641 38.4642 86.4906 38.5827 86.3174 38.6875C86.1396 38.7923 85.9437 38.8766 85.7295 38.9404C85.5153 39.0042 85.2852 39.0361 85.0391 39.0361ZM93.8164 30.8125H92.5449V32.6035H90.6035V33.5811H92.5449V37.6006C92.5449 38.0563 92.6042 38.446 92.7227 38.7695C92.8457 39.0885 93.012 39.3483 93.2217 39.5488C93.4313 39.7539 93.6774 39.9043 93.96 40C94.2471 40.0911 94.5547 40.1367 94.8828 40.1367C95.0788 40.1367 95.2747 40.1276 95.4707 40.1094C95.6712 40.0911 95.8604 40.0638 96.0381 40.0273C96.2158 39.9954 96.3799 39.9567 96.5303 39.9111C96.6807 39.861 96.8083 39.804 96.9131 39.7402L96.7354 38.8447C96.6579 38.863 96.5576 38.8857 96.4346 38.9131C96.3161 38.9359 96.1885 38.9587 96.0518 38.9814C95.9105 39.0042 95.7669 39.0247 95.6211 39.043C95.4753 39.0566 95.334 39.0635 95.1973 39.0635C95.0104 39.0635 94.8327 39.0407 94.6641 38.9951C94.5 38.9495 94.3542 38.8698 94.2266 38.7559C94.099 38.6465 93.9987 38.4984 93.9258 38.3115C93.8529 38.1247 93.8164 37.8877 93.8164 37.6006V33.5811H96.6328V32.6035H93.8164V30.8125ZM102.498 40.1367C103.218 40.1367 103.822 39.9932 104.31 39.7061C104.802 39.4144 105.171 39.0817 105.417 38.708L104.645 38.1064C104.412 38.4072 104.12 38.6488 103.77 38.8311C103.419 39.0133 103.018 39.1045 102.566 39.1045C102.225 39.1045 101.912 39.0407 101.63 38.9131C101.347 38.7855 101.106 38.61 100.905 38.3867C100.709 38.1771 100.554 37.9355 100.44 37.6621C100.331 37.3887 100.26 37.0719 100.229 36.7119V36.6641H105.513V36.0967C105.513 35.5817 105.447 35.1032 105.314 34.6611C105.187 34.2191 104.991 33.834 104.727 33.5059C104.462 33.1823 104.13 32.9294 103.729 32.7471C103.332 32.5602 102.867 32.4668 102.334 32.4668C101.91 32.4668 101.495 32.5534 101.09 32.7266C100.689 32.8997 100.331 33.1481 100.017 33.4717C99.6976 33.7998 99.4424 34.2008 99.251 34.6748C99.0596 35.1442 98.9639 35.6774 98.9639 36.2744V36.5615C98.9639 37.0765 99.0505 37.5527 99.2236 37.9902C99.3968 38.4277 99.6383 38.806 99.9482 39.125C100.258 39.444 100.63 39.6924 101.062 39.8701C101.5 40.0479 101.979 40.1367 102.498 40.1367ZM102.334 33.5059C102.658 33.5059 102.936 33.5651 103.168 33.6836C103.405 33.8021 103.601 33.957 103.756 34.1484C103.911 34.3398 104.032 34.5677 104.118 34.832C104.205 35.0918 104.248 35.3356 104.248 35.5635V35.625H100.27C100.32 35.2832 100.406 34.9824 100.529 34.7227C100.657 34.4583 100.812 34.235 100.994 34.0527C101.176 33.875 101.382 33.7406 101.609 33.6494C101.837 33.5537 102.079 33.5059 102.334 33.5059Z" fill="#F2B8B8"/>
</g>
<defs>
<filter id="filter0_d" x="0" y="0" width="164.339" height="73" filterUnits="userSpaceOnUse" color-interpolation-filters="sRGB">
<feFlood flood-opacity="0" result="BackgroundImageFix"/>
<feColorMatrix in="SourceAlpha" type="matrix" values="0 0 0 0 0 0 0 0 0 0 0 0 0 0 0 0 0 0 127 0"/>
<feOffset dy="3"/>
<feColorMatrix type="matrix" values="0 0 0 0 0.920833 0 0 0 0 0.306944 0 0 0 0 0.306944 0 0 0 1 0"/>
<feBlend mode="normal" in2="BackgroundImageFix" result="effect1_dropShadow"/>
<feBlend mode="normal" in="SourceGraphic" in2="effect1_dropShadow" result="shape"/>
</filter>
</defs>
</svg>
