<svg width="150" height="96" viewBox="0 0 150 96" fill="none" xmlns="http://www.w3.org/2000/svg">
<rect x="0.5" y="0.5" width="149" height="95" rx="4.5" stroke="#DDD4D4"/>
<path d="M53.1553 37V27.0469H55.9648C56.8307 27.0469 57.5964 27.2383 58.2617 27.6211C58.9271 28.0039 59.4398 28.5485 59.7998 29.2549C60.1644 29.9613 60.349 30.7725 60.3535 31.6885V32.3242C60.3535 33.263 60.1712 34.0856 59.8066 34.792C59.4466 35.4984 58.9294 36.0407 58.2549 36.4189C57.585 36.7972 56.8034 36.9909 55.9102 37H53.1553ZM54.4678 28.127V35.9268H55.8486C56.8604 35.9268 57.6465 35.6123 58.207 34.9834C58.7721 34.3545 59.0547 33.459 59.0547 32.2969V31.7158C59.0547 30.5856 58.7881 29.7083 58.2549 29.084C57.7262 28.4551 56.9743 28.1361 55.999 28.127H54.4678ZM61.8096 33.2334C61.8096 32.5088 61.9508 31.8571 62.2334 31.2783C62.5205 30.6995 62.917 30.2529 63.4229 29.9385C63.9333 29.624 64.5143 29.4668 65.166 29.4668C66.1732 29.4668 66.9867 29.8154 67.6064 30.5127C68.2308 31.21 68.543 32.1374 68.543 33.2949V33.3838C68.543 34.1038 68.404 34.751 68.126 35.3252C67.8525 35.8949 67.4583 36.3392 66.9434 36.6582C66.4329 36.9772 65.8451 37.1367 65.1797 37.1367C64.1771 37.1367 63.3636 36.7881 62.7393 36.0908C62.1195 35.3936 61.8096 34.4707 61.8096 33.3223V33.2334ZM63.0811 33.3838C63.0811 34.2041 63.2702 34.8626 63.6484 35.3594C64.0312 35.8561 64.5417 36.1045 65.1797 36.1045C65.8223 36.1045 66.3327 35.8538 66.7109 35.3525C67.0892 34.8467 67.2783 34.1403 67.2783 33.2334C67.2783 32.4222 67.0846 31.766 66.6973 31.2646C66.3145 30.7588 65.804 30.5059 65.166 30.5059C64.5417 30.5059 64.0381 30.7542 63.6553 31.251C63.2725 31.7477 63.0811 32.4587 63.0811 33.3838ZM71.3252 29.6035L71.3662 30.5332C71.9313 29.8223 72.6696 29.4668 73.5811 29.4668C75.1442 29.4668 75.9326 30.3486 75.9463 32.1123V37H74.6816V32.1055C74.6771 31.5723 74.554 31.1781 74.3125 30.9229C74.0755 30.6676 73.7041 30.54 73.1982 30.54C72.7881 30.54 72.4281 30.6494 72.1182 30.8682C71.8083 31.0869 71.5667 31.374 71.3936 31.7295V37H70.1289V29.6035H71.3252ZM82.4199 37C82.347 36.8542 82.2878 36.5944 82.2422 36.2207C81.6543 36.8314 80.9525 37.1367 80.1367 37.1367C79.4076 37.1367 78.8083 36.9316 78.3389 36.5215C77.874 36.1068 77.6416 35.5827 77.6416 34.9492C77.6416 34.179 77.9333 33.582 78.5166 33.1582C79.1045 32.7298 79.9294 32.5156 80.9912 32.5156H82.2217V31.9346C82.2217 31.4925 82.0895 31.1416 81.8252 30.8818C81.5609 30.6175 81.1712 30.4854 80.6562 30.4854C80.2051 30.4854 79.8268 30.5993 79.5215 30.8271C79.2161 31.055 79.0635 31.3307 79.0635 31.6543H77.792C77.792 31.2852 77.9219 30.9297 78.1816 30.5879C78.446 30.2415 78.8014 29.9681 79.248 29.7676C79.6992 29.5671 80.1937 29.4668 80.7314 29.4668C81.5837 29.4668 82.2513 29.681 82.7344 30.1094C83.2174 30.5332 83.4681 31.1188 83.4863 31.8662V35.2705C83.4863 35.9495 83.5729 36.4896 83.7461 36.8906V37H82.4199ZM80.3213 36.0361C80.7178 36.0361 81.0938 35.9336 81.4492 35.7285C81.8047 35.5234 82.0622 35.2568 82.2217 34.9287V33.4111H81.2305C79.681 33.4111 78.9062 33.8646 78.9062 34.7715C78.9062 35.168 79.0384 35.4779 79.3027 35.7012C79.5671 35.9245 79.9066 36.0361 80.3213 36.0361ZM87.1846 27.8125V29.6035H88.5654V30.5811H87.1846V35.168C87.1846 35.4642 87.2461 35.6875 87.3691 35.8379C87.4922 35.9837 87.7018 36.0566 87.998 36.0566C88.1439 36.0566 88.3444 36.0293 88.5996 35.9746V37C88.2669 37.0911 87.9434 37.1367 87.6289 37.1367C87.0638 37.1367 86.6377 36.9658 86.3506 36.624C86.0635 36.2822 85.9199 35.7969 85.9199 35.168V30.5811H84.5732V29.6035H85.9199V27.8125H87.1846ZM93.1182 37.1367C92.1156 37.1367 91.2998 36.8086 90.6709 36.1523C90.042 35.4915 89.7275 34.6097 89.7275 33.5068V33.2744C89.7275 32.5407 89.8665 31.8867 90.1445 31.3125C90.4271 30.7337 90.819 30.2826 91.3203 29.959C91.8262 29.6309 92.373 29.4668 92.9609 29.4668C93.9225 29.4668 94.6699 29.7835 95.2031 30.417C95.7363 31.0505 96.0029 31.9574 96.0029 33.1377V33.6641H90.9922C91.0104 34.3932 91.2223 34.9834 91.6279 35.4346C92.0381 35.8812 92.5576 36.1045 93.1865 36.1045C93.6331 36.1045 94.0114 36.0133 94.3213 35.8311C94.6312 35.6488 94.9023 35.4072 95.1348 35.1064L95.9072 35.708C95.2874 36.6605 94.3577 37.1367 93.1182 37.1367ZM92.9609 30.5059C92.4505 30.5059 92.0221 30.6927 91.6758 31.0664C91.3294 31.4355 91.1152 31.9551 91.0332 32.625H94.7383V32.5293C94.7018 31.8867 94.5286 31.39 94.2188 31.0391C93.9089 30.6836 93.4896 30.5059 92.9609 30.5059Z" fill="#FF5722"/>
<path d="M18.3584 54.7588L18.4951 55.6963L18.6953 54.8516L20.1016 49.8906H20.8926L22.2646 54.8516L22.46 55.7109L22.6113 54.7539L23.7148 49.8906H24.6572L22.9336 57H22.0791L20.6143 51.8193L20.502 51.2773L20.3896 51.8193L18.8711 57H18.0166L16.2979 49.8906H17.2354L18.3584 54.7588ZM27.5967 57.0977C26.8805 57.0977 26.2979 56.8633 25.8486 56.3945C25.3994 55.9225 25.1748 55.2926 25.1748 54.5049V54.3389C25.1748 53.8148 25.2741 53.3477 25.4727 52.9375C25.6745 52.5241 25.9544 52.2018 26.3125 51.9707C26.6738 51.7363 27.0645 51.6191 27.4844 51.6191C28.1712 51.6191 28.7051 51.8454 29.0859 52.2979C29.4668 52.7503 29.6572 53.3981 29.6572 54.2412V54.6172H26.0781C26.0911 55.138 26.2425 55.5596 26.5322 55.8818C26.8252 56.2008 27.1963 56.3604 27.6455 56.3604C27.9645 56.3604 28.2347 56.2952 28.4561 56.165C28.6774 56.0348 28.8711 55.8623 29.0371 55.6475L29.5889 56.0771C29.1462 56.7575 28.4821 57.0977 27.5967 57.0977ZM27.4844 52.3613C27.1198 52.3613 26.8138 52.4948 26.5664 52.7617C26.319 53.0254 26.166 53.3965 26.1074 53.875H28.7539V53.8066C28.7279 53.3477 28.6042 52.9928 28.3828 52.7422C28.1615 52.4883 27.862 52.3613 27.4844 52.3613ZM36.4492 56.4775C36.0977 56.891 35.5817 57.0977 34.9014 57.0977C34.3382 57.0977 33.9085 56.9349 33.6123 56.6094C33.3193 56.2806 33.1712 55.7956 33.168 55.1543V51.7168H34.0713V55.1299C34.0713 55.9307 34.3968 56.3311 35.0479 56.3311C35.738 56.3311 36.1969 56.0739 36.4248 55.5596V51.7168H37.3281V57H36.4688L36.4492 56.4775ZM41.7812 55.5986C41.7812 55.3545 41.6885 55.1657 41.5029 55.0322C41.3206 54.8955 41 54.7783 40.541 54.6807C40.0853 54.583 39.7223 54.4658 39.4521 54.3291C39.1852 54.1924 38.9867 54.0296 38.8564 53.8408C38.7295 53.652 38.666 53.4274 38.666 53.167C38.666 52.734 38.8483 52.3678 39.2129 52.0684C39.5807 51.7689 40.0495 51.6191 40.6191 51.6191C41.2181 51.6191 41.7031 51.7738 42.0742 52.083C42.4486 52.3923 42.6357 52.7878 42.6357 53.2695H41.7275C41.7275 53.0221 41.6217 52.8089 41.4102 52.6299C41.2018 52.4508 40.9382 52.3613 40.6191 52.3613C40.2904 52.3613 40.0332 52.4329 39.8477 52.5762C39.6621 52.7194 39.5693 52.9066 39.5693 53.1377C39.5693 53.3558 39.6556 53.5202 39.8281 53.6309C40.0007 53.7415 40.3115 53.8473 40.7607 53.9482C41.2132 54.0492 41.5794 54.1696 41.8594 54.3096C42.1393 54.4495 42.346 54.6188 42.4795 54.8174C42.6162 55.0127 42.6846 55.252 42.6846 55.5352C42.6846 56.0072 42.4958 56.3864 42.1182 56.6729C41.7406 56.9561 41.2507 57.0977 40.6484 57.0977C40.2253 57.0977 39.8509 57.0228 39.5254 56.873C39.1999 56.7233 38.9443 56.515 38.7588 56.248C38.5765 55.9779 38.4854 55.6865 38.4854 55.374H39.3887C39.4049 55.6768 39.5254 55.9176 39.75 56.0967C39.9779 56.2725 40.2773 56.3604 40.6484 56.3604C40.9902 56.3604 41.2637 56.292 41.4688 56.1553C41.6771 56.0153 41.7812 55.8298 41.7812 55.5986ZM46.0537 57.0977C45.3376 57.0977 44.7549 56.8633 44.3057 56.3945C43.8564 55.9225 43.6318 55.2926 43.6318 54.5049V54.3389C43.6318 53.8148 43.7311 53.3477 43.9297 52.9375C44.1315 52.5241 44.4115 52.2018 44.7695 51.9707C45.1309 51.7363 45.5215 51.6191 45.9414 51.6191C46.6283 51.6191 47.1621 51.8454 47.543 52.2979C47.9238 52.7503 48.1143 53.3981 48.1143 54.2412V54.6172H44.5352C44.5482 55.138 44.6995 55.5596 44.9893 55.8818C45.2822 56.2008 45.6533 56.3604 46.1025 56.3604C46.4215 56.3604 46.6917 56.2952 46.9131 56.165C47.1344 56.0348 47.3281 55.8623 47.4941 55.6475L48.0459 56.0771C47.6032 56.7575 46.9391 57.0977 46.0537 57.0977ZM45.9414 52.3613C45.5768 52.3613 45.2708 52.4948 45.0234 52.7617C44.776 53.0254 44.623 53.3965 44.5645 53.875H47.2109V53.8066C47.1849 53.3477 47.0612 52.9928 46.8398 52.7422C46.6185 52.4883 46.319 52.3613 45.9414 52.3613ZM51.4248 54.3145C51.4248 53.5039 51.6169 52.8529 52.001 52.3613C52.3851 51.8665 52.888 51.6191 53.5098 51.6191C54.1283 51.6191 54.6182 51.8307 54.9795 52.2539V49.5H55.8828V57H55.0527L55.0088 56.4336C54.6475 56.8763 54.1445 57.0977 53.5 57.0977C52.888 57.0977 52.3883 56.847 52.001 56.3457C51.6169 55.8444 51.4248 55.1901 51.4248 54.3828V54.3145ZM52.3281 54.417C52.3281 55.016 52.4518 55.4847 52.6992 55.8232C52.9466 56.1618 53.2884 56.3311 53.7246 56.3311C54.2975 56.3311 54.7158 56.0739 54.9795 55.5596V53.1328C54.7093 52.6348 54.2943 52.3857 53.7344 52.3857C53.2917 52.3857 52.9466 52.5566 52.6992 52.8984C52.4518 53.2402 52.3281 53.7464 52.3281 54.417ZM57.0498 54.3096C57.0498 53.792 57.1507 53.3265 57.3525 52.9131C57.5576 52.4997 57.8408 52.1807 58.2021 51.9561C58.5667 51.7314 58.9818 51.6191 59.4473 51.6191C60.1667 51.6191 60.7477 51.8682 61.1904 52.3662C61.6364 52.8643 61.8594 53.5267 61.8594 54.3535V54.417C61.8594 54.9313 61.7601 55.3936 61.5615 55.8037C61.3662 56.2106 61.0846 56.528 60.7168 56.7559C60.3522 56.9837 59.9323 57.0977 59.457 57.0977C58.7409 57.0977 58.1598 56.8486 57.7139 56.3506C57.2712 55.8525 57.0498 55.1934 57.0498 54.373V54.3096ZM57.958 54.417C57.958 55.0029 58.0931 55.4733 58.3633 55.8281C58.6367 56.1829 59.0013 56.3604 59.457 56.3604C59.916 56.3604 60.2806 56.1813 60.5508 55.8232C60.821 55.4619 60.9561 54.9574 60.9561 54.3096C60.9561 53.7301 60.8177 53.2614 60.541 52.9033C60.2676 52.542 59.903 52.3613 59.4473 52.3613C59.0013 52.3613 58.6416 52.5387 58.3682 52.8936C58.0947 53.2484 57.958 53.7562 57.958 54.417ZM63.8467 51.7168L63.876 52.3809C64.2796 51.873 64.807 51.6191 65.458 51.6191C66.5745 51.6191 67.1377 52.249 67.1475 53.5088V57H66.2441V53.5039C66.2409 53.123 66.153 52.8415 65.9805 52.6592C65.8112 52.4769 65.5459 52.3857 65.1846 52.3857C64.8916 52.3857 64.6344 52.4639 64.4131 52.6201C64.1917 52.7764 64.0192 52.9814 63.8955 53.2354V57H62.9922V51.7168H63.8467ZM71.7715 57C71.7194 56.8958 71.6771 56.7103 71.6445 56.4434C71.2246 56.8796 70.7233 57.0977 70.1406 57.0977C69.6198 57.0977 69.1917 56.9512 68.8564 56.6582C68.5244 56.362 68.3584 55.9876 68.3584 55.5352C68.3584 54.985 68.5667 54.5586 68.9834 54.2559C69.4033 53.9499 69.9925 53.7969 70.751 53.7969H71.6299V53.3818C71.6299 53.0661 71.5355 52.8154 71.3467 52.6299C71.1579 52.4411 70.8796 52.3467 70.5117 52.3467C70.1895 52.3467 69.9193 52.4281 69.7012 52.5908C69.4831 52.7536 69.374 52.9505 69.374 53.1816H68.4658C68.4658 52.918 68.5586 52.6641 68.7441 52.4199C68.9329 52.1725 69.1868 51.9772 69.5059 51.834C69.8281 51.6908 70.1813 51.6191 70.5654 51.6191C71.1742 51.6191 71.651 51.7721 71.9961 52.0781C72.3411 52.3809 72.5202 52.7992 72.5332 53.333V55.7646C72.5332 56.2497 72.5951 56.6354 72.7188 56.9219V57H71.7715ZM70.2725 56.3115C70.5557 56.3115 70.8242 56.2383 71.0781 56.0918C71.332 55.9453 71.516 55.7549 71.6299 55.5205V54.4365H70.9219C69.8151 54.4365 69.2617 54.7604 69.2617 55.4082C69.2617 55.6914 69.3561 55.9128 69.5449 56.0723C69.7337 56.2318 69.9762 56.3115 70.2725 56.3115ZM75.1748 50.4375V51.7168H76.1611V52.415H75.1748V55.6914C75.1748 55.903 75.2188 56.0625 75.3066 56.1699C75.3945 56.2741 75.5443 56.3262 75.7559 56.3262C75.86 56.3262 76.0033 56.3066 76.1855 56.2676V57C75.9479 57.0651 75.7168 57.0977 75.4922 57.0977C75.0885 57.0977 74.7842 56.9756 74.5791 56.7314C74.374 56.4873 74.2715 56.1406 74.2715 55.6914V52.415H73.3096V51.7168H74.2715V50.4375H75.1748ZM78.2021 57H77.2988V51.7168H78.2021V57ZM77.2256 50.3154C77.2256 50.1689 77.2695 50.0452 77.3574 49.9443C77.4486 49.8434 77.582 49.793 77.7578 49.793C77.9336 49.793 78.0671 49.8434 78.1582 49.9443C78.2493 50.0452 78.2949 50.1689 78.2949 50.3154C78.2949 50.4619 78.2493 50.584 78.1582 50.6816C78.0671 50.7793 77.9336 50.8281 77.7578 50.8281C77.582 50.8281 77.4486 50.7793 77.3574 50.6816C77.2695 50.584 77.2256 50.4619 77.2256 50.3154ZM79.4131 54.3096C79.4131 53.792 79.514 53.3265 79.7158 52.9131C79.9209 52.4997 80.2041 52.1807 80.5654 51.9561C80.93 51.7314 81.3451 51.6191 81.8105 51.6191C82.5299 51.6191 83.111 51.8682 83.5537 52.3662C83.9997 52.8643 84.2227 53.5267 84.2227 54.3535V54.417C84.2227 54.9313 84.1234 55.3936 83.9248 55.8037C83.7295 56.2106 83.4479 56.528 83.0801 56.7559C82.7155 56.9837 82.2956 57.0977 81.8203 57.0977C81.1042 57.0977 80.5231 56.8486 80.0771 56.3506C79.6344 55.8525 79.4131 55.1934 79.4131 54.373V54.3096ZM80.3213 54.417C80.3213 55.0029 80.4564 55.4733 80.7266 55.8281C81 56.1829 81.3646 56.3604 81.8203 56.3604C82.2793 56.3604 82.6439 56.1813 82.9141 55.8232C83.1842 55.4619 83.3193 54.9574 83.3193 54.3096C83.3193 53.7301 83.181 53.2614 82.9043 52.9033C82.6309 52.542 82.2663 52.3613 81.8105 52.3613C81.3646 52.3613 81.0049 52.5387 80.7314 52.8936C80.458 53.2484 80.3213 53.7562 80.3213 54.417ZM86.21 51.7168L86.2393 52.3809C86.6429 51.873 87.1702 51.6191 87.8213 51.6191C88.9378 51.6191 89.501 52.249 89.5107 53.5088V57H88.6074V53.5039C88.6042 53.123 88.5163 52.8415 88.3438 52.6592C88.1745 52.4769 87.9092 52.3857 87.5479 52.3857C87.2549 52.3857 86.9977 52.4639 86.7764 52.6201C86.555 52.7764 86.3825 52.9814 86.2588 53.2354V57H85.3555V51.7168H86.21ZM93.9492 55.5986C93.9492 55.3545 93.8564 55.1657 93.6709 55.0322C93.4886 54.8955 93.168 54.7783 92.709 54.6807C92.2533 54.583 91.8903 54.4658 91.6201 54.3291C91.3532 54.1924 91.1546 54.0296 91.0244 53.8408C90.8975 53.652 90.834 53.4274 90.834 53.167C90.834 52.734 91.0163 52.3678 91.3809 52.0684C91.7487 51.7689 92.2174 51.6191 92.7871 51.6191C93.3861 51.6191 93.8711 51.7738 94.2422 52.083C94.6165 52.3923 94.8037 52.7878 94.8037 53.2695H93.8955C93.8955 53.0221 93.7897 52.8089 93.5781 52.6299C93.3698 52.4508 93.1061 52.3613 92.7871 52.3613C92.4583 52.3613 92.2012 52.4329 92.0156 52.5762C91.8301 52.7194 91.7373 52.9066 91.7373 53.1377C91.7373 53.3558 91.8236 53.5202 91.9961 53.6309C92.1686 53.7415 92.4795 53.8473 92.9287 53.9482C93.3812 54.0492 93.7474 54.1696 94.0273 54.3096C94.3073 54.4495 94.514 54.6188 94.6475 54.8174C94.7842 55.0127 94.8525 55.252 94.8525 55.5352C94.8525 56.0072 94.6637 56.3864 94.2861 56.6729C93.9085 56.9561 93.4186 57.0977 92.8164 57.0977C92.3932 57.0977 92.0189 57.0228 91.6934 56.873C91.3678 56.7233 91.1123 56.515 90.9268 56.248C90.7445 55.9779 90.6533 55.6865 90.6533 55.374H91.5566C91.5729 55.6768 91.6934 55.9176 91.918 56.0967C92.1458 56.2725 92.4453 56.3604 92.8164 56.3604C93.1582 56.3604 93.4316 56.292 93.6367 56.1553C93.8451 56.0153 93.9492 55.8298 93.9492 55.5986ZM99.7354 50.4375V51.7168H100.722V52.415H99.7354V55.6914C99.7354 55.903 99.7793 56.0625 99.8672 56.1699C99.9551 56.2741 100.105 56.3262 100.316 56.3262C100.421 56.3262 100.564 56.3066 100.746 56.2676V57C100.508 57.0651 100.277 57.0977 100.053 57.0977C99.6491 57.0977 99.3447 56.9756 99.1396 56.7314C98.9346 56.4873 98.832 56.1406 98.832 55.6914V52.415H97.8701V51.7168H98.832V50.4375H99.7354ZM101.444 54.3096C101.444 53.792 101.545 53.3265 101.747 52.9131C101.952 52.4997 102.235 52.1807 102.597 51.9561C102.961 51.7314 103.376 51.6191 103.842 51.6191C104.561 51.6191 105.142 51.8682 105.585 52.3662C106.031 52.8643 106.254 53.5267 106.254 54.3535V54.417C106.254 54.9313 106.155 55.3936 105.956 55.8037C105.761 56.2106 105.479 56.528 105.111 56.7559C104.747 56.9837 104.327 57.0977 103.852 57.0977C103.135 57.0977 102.554 56.8486 102.108 56.3506C101.666 55.8525 101.444 55.1934 101.444 54.373V54.3096ZM102.353 54.417C102.353 55.0029 102.488 55.4733 102.758 55.8281C103.031 56.1829 103.396 56.3604 103.852 56.3604C104.311 56.3604 104.675 56.1813 104.945 55.8232C105.215 55.4619 105.351 54.9574 105.351 54.3096C105.351 53.7301 105.212 53.2614 104.936 52.9033C104.662 52.542 104.298 52.3613 103.842 52.3613C103.396 52.3613 103.036 52.5387 102.763 52.8936C102.489 53.2484 102.353 53.7562 102.353 54.417ZM111.342 54.5537L110.775 55.1445V57H109.872V49.5H110.775V54.0361L111.259 53.4551L112.904 51.7168H114.003L111.947 53.9238L114.242 57H113.183L111.342 54.5537ZM117.03 57.0977C116.314 57.0977 115.731 56.8633 115.282 56.3945C114.833 55.9225 114.608 55.2926 114.608 54.5049V54.3389C114.608 53.8148 114.708 53.3477 114.906 52.9375C115.108 52.5241 115.388 52.2018 115.746 51.9707C116.107 51.7363 116.498 51.6191 116.918 51.6191C117.605 51.6191 118.139 51.8454 118.52 52.2979C118.9 52.7503 119.091 53.3981 119.091 54.2412V54.6172H115.512C115.525 55.138 115.676 55.5596 115.966 55.8818C116.259 56.2008 116.63 56.3604 117.079 56.3604C117.398 56.3604 117.668 56.2952 117.89 56.165C118.111 56.0348 118.305 55.8623 118.471 55.6475L119.022 56.0771C118.58 56.7575 117.916 57.0977 117.03 57.0977ZM116.918 52.3613C116.553 52.3613 116.247 52.4948 116 52.7617C115.753 53.0254 115.6 53.3965 115.541 53.875H118.188V53.8066C118.161 53.3477 118.038 52.9928 117.816 52.7422C117.595 52.4883 117.296 52.3613 116.918 52.3613ZM122.333 57.0977C121.617 57.0977 121.034 56.8633 120.585 56.3945C120.136 55.9225 119.911 55.2926 119.911 54.5049V54.3389C119.911 53.8148 120.01 53.3477 120.209 52.9375C120.411 52.5241 120.691 52.2018 121.049 51.9707C121.41 51.7363 121.801 51.6191 122.221 51.6191C122.908 51.6191 123.441 51.8454 123.822 52.2979C124.203 52.7503 124.394 53.3981 124.394 54.2412V54.6172H120.814C120.827 55.138 120.979 55.5596 121.269 55.8818C121.562 56.2008 121.933 56.3604 122.382 56.3604C122.701 56.3604 122.971 56.2952 123.192 56.165C123.414 56.0348 123.607 55.8623 123.773 55.6475L124.325 56.0771C123.882 56.7575 123.218 57.0977 122.333 57.0977ZM122.221 52.3613C121.856 52.3613 121.55 52.4948 121.303 52.7617C121.055 53.0254 120.902 53.3965 120.844 53.875H123.49V53.8066C123.464 53.3477 123.34 52.9928 123.119 52.7422C122.898 52.4883 122.598 52.3613 122.221 52.3613ZM129.906 54.417C129.906 55.221 129.722 55.8688 129.354 56.3604C128.987 56.8519 128.489 57.0977 127.86 57.0977C127.219 57.0977 126.715 56.8942 126.347 56.4873V59.0312H125.443V51.7168H126.269L126.312 52.3027C126.68 51.847 127.191 51.6191 127.846 51.6191C128.48 51.6191 128.982 51.8584 129.35 52.3369C129.721 52.8154 129.906 53.4811 129.906 54.334V54.417ZM129.003 54.3145C129.003 53.7188 128.876 53.2484 128.622 52.9033C128.368 52.5583 128.02 52.3857 127.577 52.3857C127.03 52.3857 126.62 52.6283 126.347 53.1133V55.6377C126.617 56.1195 127.03 56.3604 127.587 56.3604C128.02 56.3604 128.363 56.1895 128.617 55.8477C128.874 55.5026 129.003 54.9915 129.003 54.3145ZM17.665 69H16.7617V63.7168H17.665V69ZM16.6885 62.3154C16.6885 62.1689 16.7324 62.0452 16.8203 61.9443C16.9115 61.8434 17.0449 61.793 17.2207 61.793C17.3965 61.793 17.5299 61.8434 17.6211 61.9443C17.7122 62.0452 17.7578 62.1689 17.7578 62.3154C17.7578 62.4619 17.7122 62.584 17.6211 62.6816C17.5299 62.7793 17.3965 62.8281 17.2207 62.8281C17.0449 62.8281 16.9115 62.7793 16.8203 62.6816C16.7324 62.584 16.6885 62.4619 16.6885 62.3154ZM19.9648 63.7168L19.9893 64.3027C20.3766 63.847 20.8991 63.6191 21.5566 63.6191C22.2956 63.6191 22.7985 63.9023 23.0654 64.4688C23.2412 64.2148 23.4691 64.0098 23.749 63.8535C24.0322 63.6973 24.3659 63.6191 24.75 63.6191C25.9089 63.6191 26.498 64.2327 26.5176 65.46V69H25.6143V65.5137C25.6143 65.1361 25.528 64.8545 25.3555 64.6689C25.1829 64.4801 24.8932 64.3857 24.4863 64.3857C24.151 64.3857 23.8727 64.4867 23.6514 64.6885C23.43 64.887 23.3014 65.1556 23.2656 65.4941V69H22.3574V65.5381C22.3574 64.7699 21.9814 64.3857 21.2295 64.3857C20.637 64.3857 20.2318 64.638 20.0137 65.1426V69H19.1104V63.7168H19.9648ZM32.3477 66.417C32.3477 67.221 32.1637 67.8688 31.7959 68.3604C31.4281 68.8519 30.93 69.0977 30.3018 69.0977C29.6605 69.0977 29.1559 68.8942 28.7881 68.4873V71.0312H27.8848V63.7168H28.71L28.7539 64.3027C29.1217 63.847 29.6328 63.6191 30.2871 63.6191C30.9219 63.6191 31.4232 63.8584 31.791 64.3369C32.1621 64.8154 32.3477 65.4811 32.3477 66.334V66.417ZM31.4443 66.3145C31.4443 65.7188 31.3174 65.2484 31.0635 64.9033C30.8096 64.5583 30.4613 64.3857 30.0186 64.3857C29.4717 64.3857 29.0615 64.6283 28.7881 65.1133V67.6377C29.0583 68.1195 29.4717 68.3604 30.0283 68.3604C30.4613 68.3604 30.8047 68.1895 31.0586 67.8477C31.3158 67.5026 31.4443 66.9915 31.4443 66.3145ZM36.0537 64.5273C35.917 64.5046 35.7689 64.4932 35.6094 64.4932C35.0169 64.4932 34.6149 64.7454 34.4033 65.25V69H33.5V63.7168H34.3789L34.3936 64.3271C34.6898 63.8551 35.1097 63.6191 35.6533 63.6191C35.8291 63.6191 35.9626 63.6419 36.0537 63.6875V64.5273ZM36.5518 66.3096C36.5518 65.792 36.6527 65.3265 36.8545 64.9131C37.0596 64.4997 37.3428 64.1807 37.7041 63.9561C38.0687 63.7314 38.4837 63.6191 38.9492 63.6191C39.6686 63.6191 40.2497 63.8682 40.6924 64.3662C41.1383 64.8643 41.3613 65.5267 41.3613 66.3535V66.417C41.3613 66.9313 41.262 67.3936 41.0635 67.8037C40.8682 68.2106 40.5866 68.528 40.2188 68.7559C39.8542 68.9837 39.4342 69.0977 38.959 69.0977C38.2428 69.0977 37.6618 68.8486 37.2158 68.3506C36.7731 67.8525 36.5518 67.1934 36.5518 66.373V66.3096ZM37.46 66.417C37.46 67.0029 37.5951 67.4733 37.8652 67.8281C38.1387 68.1829 38.5033 68.3604 38.959 68.3604C39.418 68.3604 39.7826 68.1813 40.0527 67.8232C40.3229 67.4619 40.458 66.9574 40.458 66.3096C40.458 65.7301 40.3197 65.2614 40.043 64.9033C39.7695 64.542 39.4049 64.3613 38.9492 64.3613C38.5033 64.3613 38.1436 64.5387 37.8701 64.8936C37.5967 65.2484 37.46 65.7562 37.46 66.417ZM44.1592 67.7744L45.4678 63.7168H46.3906L44.4961 69H43.8076L41.8936 63.7168H42.8164L44.1592 67.7744ZM48.2412 69H47.3379V63.7168H48.2412V69ZM47.2646 62.3154C47.2646 62.1689 47.3086 62.0452 47.3965 61.9443C47.4876 61.8434 47.6211 61.793 47.7969 61.793C47.9727 61.793 48.1061 61.8434 48.1973 61.9443C48.2884 62.0452 48.334 62.1689 48.334 62.3154C48.334 62.4619 48.2884 62.584 48.1973 62.6816C48.1061 62.7793 47.9727 62.8281 47.7969 62.8281C47.6211 62.8281 47.4876 62.7793 47.3965 62.6816C47.3086 62.584 47.2646 62.4619 47.2646 62.3154ZM50.5459 63.7168L50.5752 64.3809C50.9788 63.873 51.5062 63.6191 52.1572 63.6191C53.2738 63.6191 53.8369 64.249 53.8467 65.5088V69H52.9434V65.5039C52.9401 65.123 52.8522 64.8415 52.6797 64.6592C52.5104 64.4769 52.2451 64.3857 51.8838 64.3857C51.5908 64.3857 51.3337 64.4639 51.1123 64.6201C50.891 64.7764 50.7184 64.9814 50.5947 65.2354V69H49.6914V63.7168H50.5459ZM54.9941 66.3145C54.9941 65.4909 55.1846 64.8366 55.5654 64.3516C55.9463 63.8633 56.4508 63.6191 57.0791 63.6191C57.7236 63.6191 58.2266 63.847 58.5879 64.3027L58.6318 63.7168H59.457V68.873C59.457 69.5566 59.2536 70.0954 58.8467 70.4893C58.443 70.8831 57.8994 71.0801 57.2158 71.0801C56.835 71.0801 56.4622 70.9987 56.0977 70.8359C55.7331 70.6732 55.4548 70.4502 55.2627 70.167L55.7314 69.625C56.1188 70.1035 56.5924 70.3428 57.1523 70.3428C57.5918 70.3428 57.9336 70.2191 58.1777 69.9717C58.4251 69.7243 58.5488 69.376 58.5488 68.9268V68.4727C58.1875 68.8893 57.6943 69.0977 57.0693 69.0977C56.4508 69.0977 55.9495 68.8486 55.5654 68.3506C55.1846 67.8525 54.9941 67.1738 54.9941 66.3145ZM55.9023 66.417C55.9023 67.0127 56.0244 67.4814 56.2686 67.8232C56.5127 68.1618 56.8545 68.3311 57.2939 68.3311C57.8636 68.3311 58.2819 68.0723 58.5488 67.5547V65.1426C58.2721 64.638 57.8571 64.3857 57.3037 64.3857C56.8643 64.3857 56.5208 64.5566 56.2734 64.8984C56.026 65.2402 55.9023 65.7464 55.9023 66.417ZM63.0654 66.3096C63.0654 65.792 63.1663 65.3265 63.3682 64.9131C63.5732 64.4997 63.8564 64.1807 64.2178 63.9561C64.5824 63.7314 64.9974 63.6191 65.4629 63.6191C66.1823 63.6191 66.7633 63.8682 67.2061 64.3662C67.652 64.8643 67.875 65.5267 67.875 66.3535V66.417C67.875 66.9313 67.7757 67.3936 67.5771 67.8037C67.3818 68.2106 67.1003 68.528 66.7324 68.7559C66.3678 68.9837 65.9479 69.0977 65.4727 69.0977C64.7565 69.0977 64.1755 68.8486 63.7295 68.3506C63.2868 67.8525 63.0654 67.1934 63.0654 66.373V66.3096ZM63.9736 66.417C63.9736 67.0029 64.1087 67.4733 64.3789 67.8281C64.6523 68.1829 65.0169 68.3604 65.4727 68.3604C65.9316 68.3604 66.2962 68.1813 66.5664 67.8232C66.8366 67.4619 66.9717 66.9574 66.9717 66.3096C66.9717 65.7301 66.8333 65.2614 66.5566 64.9033C66.2832 64.542 65.9186 64.3613 65.4629 64.3613C65.0169 64.3613 64.6572 64.5387 64.3838 64.8936C64.1104 65.2484 63.9736 65.7562 63.9736 66.417ZM72.2695 68.4775C71.918 68.891 71.402 69.0977 70.7217 69.0977C70.1585 69.0977 69.7288 68.9349 69.4326 68.6094C69.1396 68.2806 68.9915 67.7956 68.9883 67.1543V63.7168H69.8916V67.1299C69.8916 67.9307 70.2171 68.3311 70.8682 68.3311C71.5583 68.3311 72.0173 68.0739 72.2451 67.5596V63.7168H73.1484V69H72.2891L72.2695 68.4775ZM77.0791 64.5273C76.9424 64.5046 76.7943 64.4932 76.6348 64.4932C76.0423 64.4932 75.6403 64.7454 75.4287 65.25V69H74.5254V63.7168H75.4043L75.4189 64.3271C75.7152 63.8551 76.1351 63.6191 76.6787 63.6191C76.8545 63.6191 76.988 63.6419 77.0791 63.6875V64.5273ZM84.8574 66.417C84.8574 67.221 84.6735 67.8688 84.3057 68.3604C83.9378 68.8519 83.4398 69.0977 82.8115 69.0977C82.1702 69.0977 81.6657 68.8942 81.2979 68.4873V71.0312H80.3945V63.7168H81.2197L81.2637 64.3027C81.6315 63.847 82.1426 63.6191 82.7969 63.6191C83.4316 63.6191 83.9329 63.8584 84.3008 64.3369C84.6719 64.8154 84.8574 65.4811 84.8574 66.334V66.417ZM83.9541 66.3145C83.9541 65.7188 83.8271 65.2484 83.5732 64.9033C83.3193 64.5583 82.971 64.3857 82.5283 64.3857C81.9814 64.3857 81.5713 64.6283 81.2979 65.1133V67.6377C81.568 68.1195 81.9814 68.3604 82.5381 68.3604C82.971 68.3604 83.3145 68.1895 83.5684 67.8477C83.8255 67.5026 83.9541 66.9915 83.9541 66.3145ZM88.5635 64.5273C88.4268 64.5046 88.2786 64.4932 88.1191 64.4932C87.5267 64.4932 87.1247 64.7454 86.9131 65.25V69H86.0098V63.7168H86.8887L86.9033 64.3271C87.1995 63.8551 87.6195 63.6191 88.1631 63.6191C88.3389 63.6191 88.4723 63.6419 88.5635 63.6875V64.5273ZM89.0615 66.3096C89.0615 65.792 89.1624 65.3265 89.3643 64.9131C89.5693 64.4997 89.8525 64.1807 90.2139 63.9561C90.5785 63.7314 90.9935 63.6191 91.459 63.6191C92.1784 63.6191 92.7594 63.8682 93.2021 64.3662C93.6481 64.8643 93.8711 65.5267 93.8711 66.3535V66.417C93.8711 66.9313 93.7718 67.3936 93.5732 67.8037C93.3779 68.2106 93.0964 68.528 92.7285 68.7559C92.3639 68.9837 91.944 69.0977 91.4688 69.0977C90.7526 69.0977 90.1715 68.8486 89.7256 68.3506C89.2829 67.8525 89.0615 67.1934 89.0615 66.373V66.3096ZM89.9697 66.417C89.9697 67.0029 90.1048 67.4733 90.375 67.8281C90.6484 68.1829 91.013 68.3604 91.4688 68.3604C91.9277 68.3604 92.2923 68.1813 92.5625 67.8232C92.8327 67.4619 92.9678 66.9574 92.9678 66.3096C92.9678 65.7301 92.8294 65.2614 92.5527 64.9033C92.2793 64.542 91.9147 64.3613 91.459 64.3613C91.013 64.3613 90.6533 64.5387 90.3799 64.8936C90.1064 65.2484 89.9697 65.7562 89.9697 66.417ZM95.9365 63.7168V69.6104C95.9365 70.626 95.4759 71.1338 94.5547 71.1338C94.3561 71.1338 94.1722 71.1045 94.0029 71.0459V70.3232C94.1071 70.3493 94.2438 70.3623 94.4131 70.3623C94.6149 70.3623 94.7679 70.307 94.8721 70.1963C94.9795 70.0889 95.0332 69.9001 95.0332 69.6299V63.7168H95.9365ZM94.9404 62.3154C94.9404 62.1722 94.9844 62.0501 95.0723 61.9492C95.1634 61.8451 95.2952 61.793 95.4678 61.793C95.6436 61.793 95.777 61.8434 95.8682 61.9443C95.9593 62.0452 96.0049 62.1689 96.0049 62.3154C96.0049 62.4619 95.9593 62.584 95.8682 62.6816C95.777 62.7793 95.6436 62.8281 95.4678 62.8281C95.292 62.8281 95.1602 62.7793 95.0723 62.6816C94.9844 62.584 94.9404 62.4619 94.9404 62.3154ZM99.5889 69.0977C98.8727 69.0977 98.29 68.8633 97.8408 68.3945C97.3916 67.9225 97.167 67.2926 97.167 66.5049V66.3389C97.167 65.8148 97.2663 65.3477 97.4648 64.9375C97.6667 64.5241 97.9466 64.2018 98.3047 63.9707C98.666 63.7363 99.0566 63.6191 99.4766 63.6191C100.163 63.6191 100.697 63.8454 101.078 64.2979C101.459 64.7503 101.649 65.3981 101.649 66.2412V66.6172H98.0703C98.0833 67.138 98.2347 67.5596 98.5244 67.8818C98.8174 68.2008 99.1885 68.3604 99.6377 68.3604C99.9567 68.3604 100.227 68.2952 100.448 68.165C100.67 68.0348 100.863 67.8623 101.029 67.6475L101.581 68.0771C101.138 68.7575 100.474 69.0977 99.5889 69.0977ZM99.4766 64.3613C99.112 64.3613 98.806 64.4948 98.5586 64.7617C98.3112 65.0254 98.1582 65.3965 98.0996 65.875H100.746V65.8066C100.72 65.3477 100.596 64.9928 100.375 64.7422C100.154 64.4883 99.8542 64.3613 99.4766 64.3613ZM104.818 68.3604C105.141 68.3604 105.422 68.2627 105.663 68.0674C105.904 67.8721 106.037 67.6279 106.063 67.335H106.918C106.902 67.6377 106.798 67.9258 106.605 68.1992C106.413 68.4727 106.156 68.6908 105.834 68.8535C105.515 69.0163 105.176 69.0977 104.818 69.0977C104.099 69.0977 103.526 68.8584 103.1 68.3799C102.676 67.8981 102.465 67.2406 102.465 66.4072V66.2559C102.465 65.7415 102.559 65.2842 102.748 64.8838C102.937 64.4834 103.207 64.1725 103.559 63.9512C103.913 63.7298 104.332 63.6191 104.813 63.6191C105.406 63.6191 105.897 63.7965 106.288 64.1514C106.682 64.5062 106.892 64.9668 106.918 65.5332H106.063C106.037 65.1914 105.907 64.9115 105.673 64.6934C105.442 64.472 105.155 64.3613 104.813 64.3613C104.354 64.3613 103.998 64.5273 103.744 64.8594C103.493 65.1882 103.368 65.665 103.368 66.29V66.4609C103.368 67.0697 103.493 67.5384 103.744 67.8672C103.995 68.196 104.353 68.3604 104.818 68.3604ZM109.159 62.4375V63.7168H110.146V64.415H109.159V67.6914C109.159 67.903 109.203 68.0625 109.291 68.1699C109.379 68.2741 109.529 68.3262 109.74 68.3262C109.844 68.3262 109.988 68.3066 110.17 68.2676V69C109.932 69.0651 109.701 69.0977 109.477 69.0977C109.073 69.0977 108.769 68.9756 108.563 68.7314C108.358 68.4873 108.256 68.1406 108.256 67.6914V64.415H107.294V63.7168H108.256V62.4375H109.159ZM116.947 69C116.895 68.8958 116.853 68.7103 116.82 68.4434C116.4 68.8796 115.899 69.0977 115.316 69.0977C114.796 69.0977 114.368 68.9512 114.032 68.6582C113.7 68.362 113.534 67.9876 113.534 67.5352C113.534 66.985 113.743 66.5586 114.159 66.2559C114.579 65.9499 115.168 65.7969 115.927 65.7969H116.806V65.3818C116.806 65.0661 116.711 64.8154 116.522 64.6299C116.334 64.4411 116.055 64.3467 115.688 64.3467C115.365 64.3467 115.095 64.4281 114.877 64.5908C114.659 64.7536 114.55 64.9505 114.55 65.1816H113.642C113.642 64.918 113.734 64.6641 113.92 64.4199C114.109 64.1725 114.363 63.9772 114.682 63.834C115.004 63.6908 115.357 63.6191 115.741 63.6191C116.35 63.6191 116.827 63.7721 117.172 64.0781C117.517 64.3809 117.696 64.7992 117.709 65.333V67.7646C117.709 68.2497 117.771 68.6354 117.895 68.9219V69H116.947ZM115.448 68.3115C115.731 68.3115 116 68.2383 116.254 68.0918C116.508 67.9453 116.692 67.7549 116.806 67.5205V66.4365H116.098C114.991 66.4365 114.438 66.7604 114.438 67.4082C114.438 67.6914 114.532 67.9128 114.721 68.0723C114.91 68.2318 115.152 68.3115 115.448 68.3115ZM119.979 63.7168L120.009 64.3809C120.412 63.873 120.94 63.6191 121.591 63.6191C122.707 63.6191 123.271 64.249 123.28 65.5088V69H122.377V65.5039C122.374 65.123 122.286 64.8415 122.113 64.6592C121.944 64.4769 121.679 64.3857 121.317 64.3857C121.024 64.3857 120.767 64.4639 120.546 64.6201C120.325 64.7764 120.152 64.9814 120.028 65.2354V69H119.125V63.7168H119.979ZM124.423 66.3145C124.423 65.5039 124.615 64.8529 124.999 64.3613C125.383 63.8665 125.886 63.6191 126.508 63.6191C127.126 63.6191 127.616 63.8307 127.978 64.2539V61.5H128.881V69H128.051L128.007 68.4336C127.646 68.8763 127.143 69.0977 126.498 69.0977C125.886 69.0977 125.386 68.847 124.999 68.3457C124.615 67.8444 124.423 67.1901 124.423 66.3828V66.3145ZM125.326 66.417C125.326 67.016 125.45 67.4847 125.697 67.8232C125.945 68.1618 126.286 68.3311 126.723 68.3311C127.296 68.3311 127.714 68.0739 127.978 67.5596V65.1328C127.707 64.6348 127.292 64.3857 126.732 64.3857C126.29 64.3857 125.945 64.5566 125.697 64.8984C125.45 65.2402 125.326 65.7464 125.326 66.417ZM17.5869 76.3564C17.9873 75.8649 18.5081 75.6191 19.1494 75.6191C20.266 75.6191 20.8291 76.249 20.8389 77.5088V81H19.9355V77.5039C19.9323 77.123 19.8444 76.8415 19.6719 76.6592C19.5026 76.4769 19.2373 76.3857 18.876 76.3857C18.583 76.3857 18.3258 76.4639 18.1045 76.6201C17.8831 76.7764 17.7106 76.9814 17.5869 77.2354V81H16.6836V73.5H17.5869V76.3564ZM25.4531 81C25.401 80.8958 25.3587 80.7103 25.3262 80.4434C24.9062 80.8796 24.4049 81.0977 23.8223 81.0977C23.3014 81.0977 22.8734 80.9512 22.5381 80.6582C22.2061 80.362 22.04 79.9876 22.04 79.5352C22.04 78.985 22.2484 78.5586 22.665 78.2559C23.085 77.9499 23.6742 77.7969 24.4326 77.7969H25.3115V77.3818C25.3115 77.0661 25.2171 76.8154 25.0283 76.6299C24.8395 76.4411 24.5612 76.3467 24.1934 76.3467C23.8711 76.3467 23.6009 76.4281 23.3828 76.5908C23.1647 76.7536 23.0557 76.9505 23.0557 77.1816H22.1475C22.1475 76.918 22.2402 76.6641 22.4258 76.4199C22.6146 76.1725 22.8685 75.9772 23.1875 75.834C23.5098 75.6908 23.863 75.6191 24.2471 75.6191C24.8558 75.6191 25.3327 75.7721 25.6777 76.0781C26.0228 76.3809 26.2018 76.7992 26.2148 77.333V79.7646C26.2148 80.2497 26.2767 80.6354 26.4004 80.9219V81H25.4531ZM23.9541 80.3115C24.2373 80.3115 24.5059 80.2383 24.7598 80.0918C25.0137 79.9453 25.1976 79.7549 25.3115 79.5205V78.4365H24.6035C23.4967 78.4365 22.9434 78.7604 22.9434 79.4082C22.9434 79.6914 23.0378 79.9128 23.2266 80.0723C23.4154 80.2318 23.6579 80.3115 23.9541 80.3115ZM30.1846 76.5273C30.0479 76.5046 29.8997 76.4932 29.7402 76.4932C29.1478 76.4932 28.7458 76.7454 28.5342 77.25V81H27.6309V75.7168H28.5098L28.5244 76.3271C28.8206 75.8551 29.2406 75.6191 29.7842 75.6191C29.96 75.6191 30.0934 75.6419 30.1846 75.6875V76.5273ZM30.7021 78.3145C30.7021 77.5039 30.8942 76.8529 31.2783 76.3613C31.6624 75.8665 32.1654 75.6191 32.7871 75.6191C33.4056 75.6191 33.8955 75.8307 34.2568 76.2539V73.5H35.1602V81H34.3301L34.2861 80.4336C33.9248 80.8763 33.4219 81.0977 32.7773 81.0977C32.1654 81.0977 31.6657 80.847 31.2783 80.3457C30.8942 79.8444 30.7021 79.1901 30.7021 78.3828V78.3145ZM31.6055 78.417C31.6055 79.016 31.7292 79.4847 31.9766 79.8232C32.224 80.1618 32.5658 80.3311 33.002 80.3311C33.5749 80.3311 33.9932 80.0739 34.2568 79.5596V77.1328C33.9867 76.6348 33.5716 76.3857 33.0117 76.3857C32.569 76.3857 32.224 76.5566 31.9766 76.8984C31.7292 77.2402 31.6055 77.7464 31.6055 78.417ZM41.2441 79.7549L42.2598 75.7168H43.1631L41.625 81H40.8926L39.6084 76.9961L38.3584 81H37.626L36.0928 75.7168H36.9912L38.0312 79.6719L39.2617 75.7168H39.9893L41.2441 79.7549ZM47.3477 81C47.2956 80.8958 47.2533 80.7103 47.2207 80.4434C46.8008 80.8796 46.2995 81.0977 45.7168 81.0977C45.196 81.0977 44.7679 80.9512 44.4326 80.6582C44.1006 80.362 43.9346 79.9876 43.9346 79.5352C43.9346 78.985 44.1429 78.5586 44.5596 78.2559C44.9795 77.9499 45.5687 77.7969 46.3271 77.7969H47.2061V77.3818C47.2061 77.0661 47.1117 76.8154 46.9229 76.6299C46.734 76.4411 46.4557 76.3467 46.0879 76.3467C45.7656 76.3467 45.4954 76.4281 45.2773 76.5908C45.0592 76.7536 44.9502 76.9505 44.9502 77.1816H44.042C44.042 76.918 44.1348 76.6641 44.3203 76.4199C44.5091 76.1725 44.763 75.9772 45.082 75.834C45.4043 75.6908 45.7575 75.6191 46.1416 75.6191C46.7503 75.6191 47.2272 75.7721 47.5723 76.0781C47.9173 76.3809 48.0964 76.7992 48.1094 77.333V79.7646C48.1094 80.2497 48.1712 80.6354 48.2949 80.9219V81H47.3477ZM45.8486 80.3115C46.1318 80.3115 46.4004 80.2383 46.6543 80.0918C46.9082 79.9453 47.0921 79.7549 47.2061 79.5205V78.4365H46.498C45.3913 78.4365 44.8379 78.7604 44.8379 79.4082C44.8379 79.6914 44.9323 79.9128 45.1211 80.0723C45.3099 80.2318 45.5524 80.3115 45.8486 80.3115ZM52.0791 76.5273C51.9424 76.5046 51.7943 76.4932 51.6348 76.4932C51.0423 76.4932 50.6403 76.7454 50.4287 77.25V81H49.5254V75.7168H50.4043L50.4189 76.3271C50.7152 75.8551 51.1351 75.6191 51.6787 75.6191C51.8545 75.6191 51.988 75.6419 52.0791 75.6875V76.5273ZM55.0088 81.0977C54.2926 81.0977 53.71 80.8633 53.2607 80.3945C52.8115 79.9225 52.5869 79.2926 52.5869 78.5049V78.3389C52.5869 77.8148 52.6862 77.3477 52.8848 76.9375C53.0866 76.5241 53.3665 76.2018 53.7246 75.9707C54.0859 75.7363 54.4766 75.6191 54.8965 75.6191C55.5833 75.6191 56.1172 75.8454 56.498 76.2979C56.8789 76.7503 57.0693 77.3981 57.0693 78.2412V78.6172H53.4902C53.5033 79.138 53.6546 79.5596 53.9443 79.8818C54.2373 80.2008 54.6084 80.3604 55.0576 80.3604C55.3766 80.3604 55.6468 80.2952 55.8682 80.165C56.0895 80.0348 56.2832 79.8623 56.4492 79.6475L57.001 80.0771C56.5583 80.7575 55.8942 81.0977 55.0088 81.0977ZM54.8965 76.3613C54.5319 76.3613 54.2259 76.4948 53.9785 76.7617C53.7311 77.0254 53.5781 77.3965 53.5195 77.875H56.166V77.8066C56.14 77.3477 56.0163 76.9928 55.7949 76.7422C55.5736 76.4883 55.2741 76.3613 54.8965 76.3613ZM63.6758 79.5986C63.6758 79.3545 63.583 79.1657 63.3975 79.0322C63.2152 78.8955 62.8945 78.7783 62.4355 78.6807C61.9798 78.583 61.6169 78.4658 61.3467 78.3291C61.0798 78.1924 60.8812 78.0296 60.751 77.8408C60.624 77.652 60.5605 77.4274 60.5605 77.167C60.5605 76.734 60.7428 76.3678 61.1074 76.0684C61.4753 75.7689 61.944 75.6191 62.5137 75.6191C63.1126 75.6191 63.5977 75.7738 63.9688 76.083C64.3431 76.3923 64.5303 76.7878 64.5303 77.2695H63.6221C63.6221 77.0221 63.5163 76.8089 63.3047 76.6299C63.0964 76.4508 62.8327 76.3613 62.5137 76.3613C62.1849 76.3613 61.9277 76.4329 61.7422 76.5762C61.5566 76.7194 61.4639 76.9066 61.4639 77.1377C61.4639 77.3558 61.5501 77.5202 61.7227 77.6309C61.8952 77.7415 62.2061 77.8473 62.6553 77.9482C63.1077 78.0492 63.474 78.1696 63.7539 78.3096C64.0339 78.4495 64.2406 78.6188 64.374 78.8174C64.5107 79.0127 64.5791 79.252 64.5791 79.5352C64.5791 80.0072 64.3903 80.3864 64.0127 80.6729C63.6351 80.9561 63.1452 81.0977 62.543 81.0977C62.1198 81.0977 61.7454 81.0228 61.4199 80.873C61.0944 80.7233 60.8389 80.515 60.6533 80.248C60.471 79.9779 60.3799 79.6865 60.3799 79.374H61.2832C61.2995 79.6768 61.4199 79.9176 61.6445 80.0967C61.8724 80.2725 62.1719 80.3604 62.543 80.3604C62.8848 80.3604 63.1582 80.292 63.3633 80.1553C63.5716 80.0153 63.6758 79.8298 63.6758 79.5986ZM69.0176 80.4775C68.666 80.891 68.1501 81.0977 67.4697 81.0977C66.9066 81.0977 66.4769 80.9349 66.1807 80.6094C65.8877 80.2806 65.7396 79.7956 65.7363 79.1543V75.7168H66.6396V79.1299C66.6396 79.9307 66.9652 80.3311 67.6162 80.3311C68.3063 80.3311 68.7653 80.0739 68.9932 79.5596V75.7168H69.8965V81H69.0371L69.0176 80.4775ZM75.7363 78.417C75.7363 79.221 75.5524 79.8688 75.1846 80.3604C74.8167 80.8519 74.3187 81.0977 73.6904 81.0977C73.0492 81.0977 72.5446 80.8942 72.1768 80.4873V83.0312H71.2734V75.7168H72.0986L72.1426 76.3027C72.5104 75.847 73.0215 75.6191 73.6758 75.6191C74.3105 75.6191 74.8118 75.8584 75.1797 76.3369C75.5508 76.8154 75.7363 77.4811 75.7363 78.334V78.417ZM74.833 78.3145C74.833 77.7188 74.7061 77.2484 74.4521 76.9033C74.1982 76.5583 73.8499 76.3857 73.4072 76.3857C72.8604 76.3857 72.4502 76.6283 72.1768 77.1133V79.6377C72.4469 80.1195 72.8604 80.3604 73.417 80.3604C73.8499 80.3604 74.1934 80.1895 74.4473 79.8477C74.7044 79.5026 74.833 78.9915 74.833 78.3145ZM81.3516 78.417C81.3516 79.221 81.1676 79.8688 80.7998 80.3604C80.432 80.8519 79.9339 81.0977 79.3057 81.0977C78.6644 81.0977 78.1598 80.8942 77.792 80.4873V83.0312H76.8887V75.7168H77.7139L77.7578 76.3027C78.1257 75.847 78.6367 75.6191 79.291 75.6191C79.9258 75.6191 80.4271 75.8584 80.7949 76.3369C81.166 76.8154 81.3516 77.4811 81.3516 78.334V78.417ZM80.4482 78.3145C80.4482 77.7188 80.3213 77.2484 80.0674 76.9033C79.8135 76.5583 79.4652 76.3857 79.0225 76.3857C78.4756 76.3857 78.0654 76.6283 77.792 77.1133V79.6377C78.0622 80.1195 78.4756 80.3604 79.0322 80.3604C79.4652 80.3604 79.8086 80.1895 80.0625 79.8477C80.3197 79.5026 80.4482 78.9915 80.4482 78.3145ZM82.2646 78.3096C82.2646 77.792 82.3656 77.3265 82.5674 76.9131C82.7725 76.4997 83.0557 76.1807 83.417 75.9561C83.7816 75.7314 84.1966 75.6191 84.6621 75.6191C85.3815 75.6191 85.9626 75.8682 86.4053 76.3662C86.8512 76.8643 87.0742 77.5267 87.0742 78.3535V78.417C87.0742 78.9313 86.9749 79.3936 86.7764 79.8037C86.5811 80.2106 86.2995 80.528 85.9316 80.7559C85.5671 80.9837 85.1471 81.0977 84.6719 81.0977C83.9557 81.0977 83.3747 80.8486 82.9287 80.3506C82.486 79.8525 82.2646 79.1934 82.2646 78.373V78.3096ZM83.1729 78.417C83.1729 79.0029 83.3079 79.4733 83.5781 79.8281C83.8516 80.1829 84.2161 80.3604 84.6719 80.3604C85.1309 80.3604 85.4954 80.1813 85.7656 79.8232C86.0358 79.4619 86.1709 78.9574 86.1709 78.3096C86.1709 77.7301 86.0326 77.2614 85.7559 76.9033C85.4824 76.542 85.1178 76.3613 84.6621 76.3613C84.2161 76.3613 83.8564 76.5387 83.583 76.8936C83.3096 77.2484 83.1729 77.7562 83.1729 78.417ZM90.7607 76.5273C90.624 76.5046 90.4759 76.4932 90.3164 76.4932C89.724 76.4932 89.3219 76.7454 89.1104 77.25V81H88.207V75.7168H89.0859L89.1006 76.3271C89.3968 75.8551 89.8167 75.6191 90.3604 75.6191C90.5361 75.6191 90.6696 75.6419 90.7607 75.6875V76.5273ZM93.0654 74.4375V75.7168H94.0518V76.415H93.0654V79.6914C93.0654 79.903 93.1094 80.0625 93.1973 80.1699C93.2852 80.2741 93.4349 80.3262 93.6465 80.3262C93.7507 80.3262 93.8939 80.3066 94.0762 80.2676V81C93.8385 81.0651 93.6074 81.0977 93.3828 81.0977C92.9792 81.0977 92.6748 80.9756 92.4697 80.7314C92.2646 80.4873 92.1621 80.1406 92.1621 79.6914V76.415H91.2002V75.7168H92.1621V74.4375H93.0654ZM95.1309 80.5264C95.1309 80.3701 95.1764 80.2399 95.2676 80.1357C95.362 80.0316 95.502 79.9795 95.6875 79.9795C95.873 79.9795 96.013 80.0316 96.1074 80.1357C96.2051 80.2399 96.2539 80.3701 96.2539 80.5264C96.2539 80.6761 96.2051 80.8014 96.1074 80.9023C96.013 81.0033 95.873 81.0537 95.6875 81.0537C95.502 81.0537 95.362 81.0033 95.2676 80.9023C95.1764 80.8014 95.1309 80.6761 95.1309 80.5264Z" fill="#D83B01"/>
</svg>
