<svg width="174" height="60" viewBox="0 0 174 60" fill="none" xmlns="http://www.w3.org/2000/svg">
<path d="M63.0596 35H65.3633C65.8418 34.9954 66.2861 34.9385 66.6963 34.8291C67.111 34.7197 67.4824 34.5625 67.8105 34.3574C68.1204 34.1615 68.4007 33.9245 68.6514 33.6465C68.902 33.3685 69.1094 33.0586 69.2734 32.7168C69.4329 32.3887 69.5537 32.0286 69.6357 31.6367C69.7223 31.2448 69.7656 30.8301 69.7656 30.3926V29.6611C69.7611 29.2054 69.7132 28.777 69.6221 28.376C69.5355 27.9749 69.4079 27.6058 69.2393 27.2686C69.0524 26.8721 68.8018 26.5234 68.4873 26.2227C68.1774 25.9173 67.8197 25.6712 67.4141 25.4844C67.1224 25.3477 66.8034 25.2428 66.457 25.1699C66.1152 25.0924 65.7507 25.0514 65.3633 25.0469H63.0596V35ZM64.3447 26.0859H65.3633C65.6777 26.0905 65.9671 26.127 66.2314 26.1953C66.4958 26.2591 66.735 26.3503 66.9492 26.4688C67.25 26.6283 67.5029 26.8379 67.708 27.0977C67.9176 27.3529 68.084 27.64 68.207 27.959C68.3027 28.2051 68.3734 28.4717 68.4189 28.7588C68.4691 29.0413 68.4964 29.3376 68.501 29.6475V30.3926C68.4964 30.6979 68.4714 30.9919 68.4258 31.2744C68.3802 31.5524 68.3118 31.8122 68.2207 32.0537C68.1159 32.3499 67.9723 32.6188 67.79 32.8604C67.6123 33.0973 67.4004 33.2979 67.1543 33.4619C66.9219 33.6214 66.6553 33.7445 66.3545 33.8311C66.0583 33.9176 65.7279 33.9632 65.3633 33.9678H64.3447V26.0859ZM71.2422 31.2334V31.3838C71.2422 31.917 71.3197 32.4115 71.4746 32.8672C71.6296 33.3229 71.8529 33.7194 72.1445 34.0566C72.4316 34.3939 72.7826 34.6582 73.1973 34.8496C73.6165 35.041 74.0882 35.1367 74.6123 35.1367C75.1318 35.1367 75.599 35.041 76.0137 34.8496C76.4284 34.6582 76.7816 34.3939 77.0732 34.0566C77.3604 33.7194 77.5814 33.3229 77.7363 32.8672C77.8913 32.4115 77.9688 31.917 77.9688 31.3838V31.2334C77.9688 30.7002 77.8913 30.2057 77.7363 29.75C77.5814 29.2897 77.3604 28.891 77.0732 28.5537C76.7816 28.2165 76.4261 27.9521 76.0068 27.7607C75.5921 27.5648 75.1227 27.4668 74.5986 27.4668C74.0791 27.4668 73.612 27.5648 73.1973 27.7607C72.7826 27.9521 72.4316 28.2165 72.1445 28.5537C71.8529 28.891 71.6296 29.2897 71.4746 29.75C71.3197 30.2057 71.2422 30.7002 71.2422 31.2334ZM72.5068 31.3838V31.2334C72.5068 30.8734 72.5501 30.5293 72.6367 30.2012C72.7233 29.8685 72.8555 29.5768 73.0332 29.3262C73.2064 29.0755 73.4229 28.8773 73.6826 28.7314C73.9424 28.5811 74.2477 28.5059 74.5986 28.5059C74.9495 28.5059 75.2549 28.5811 75.5146 28.7314C75.779 28.8773 76 29.0755 76.1777 29.3262C76.3509 29.5768 76.4808 29.8685 76.5674 30.2012C76.6585 30.5293 76.7041 30.8734 76.7041 31.2334V31.3838C76.7041 31.7484 76.6608 32.097 76.5742 32.4297C76.4876 32.7578 76.3577 33.0472 76.1846 33.2979C76.0068 33.5485 75.7858 33.7467 75.5215 33.8926C75.2617 34.0384 74.9587 34.1113 74.6123 34.1113C74.2614 34.1113 73.9538 34.0384 73.6895 33.8926C73.4251 33.7467 73.2064 33.5485 73.0332 33.2979C72.8555 33.0472 72.7233 32.7578 72.6367 32.4297C72.5501 32.097 72.5068 31.7484 72.5068 31.3838ZM80.0059 35H81.2705V29.6953C81.3571 29.5358 81.4574 29.39 81.5713 29.2578C81.6898 29.1257 81.8174 29.0094 81.9541 28.9092C82.1227 28.7952 82.3073 28.7064 82.5078 28.6426C82.7083 28.5742 82.9248 28.54 83.1572 28.54C83.4261 28.54 83.6631 28.5719 83.8682 28.6357C84.0778 28.6995 84.2555 28.8021 84.4014 28.9434C84.5426 29.0846 84.6497 29.2692 84.7227 29.4971C84.7956 29.7249 84.832 30.0029 84.832 30.3311V35H86.0967V30.3037C86.0967 29.8115 86.0352 29.3877 85.9121 29.0322C85.7936 28.6722 85.6227 28.376 85.3994 28.1436C85.1761 27.9111 84.9049 27.7402 84.5859 27.6309C84.2715 27.5215 83.9206 27.4668 83.5332 27.4668C83.2461 27.4714 82.9727 27.5146 82.7129 27.5967C82.4577 27.6742 82.2207 27.7858 82.002 27.9316C81.8561 28.0273 81.7171 28.1413 81.585 28.2734C81.4574 28.401 81.3389 28.5423 81.2295 28.6973L81.1406 27.6035H80.0059V35ZM93.2744 35H94.5938V34.8906C94.5117 34.6855 94.4479 34.4463 94.4023 34.1729C94.3568 33.8949 94.334 33.6328 94.334 33.3867V29.9482C94.334 29.5335 94.2588 29.1712 94.1084 28.8613C93.958 28.5514 93.7529 28.2917 93.4932 28.082C93.2288 27.877 92.9167 27.7243 92.5566 27.624C92.1966 27.5192 91.807 27.4668 91.3877 27.4668C90.9274 27.4668 90.515 27.5306 90.1504 27.6582C89.7904 27.7858 89.485 27.9521 89.2344 28.1572C88.9792 28.3669 88.7832 28.6016 88.6465 28.8613C88.5143 29.1211 88.446 29.3854 88.4414 29.6543H89.7129C89.7129 29.4993 89.7493 29.3512 89.8223 29.21C89.8997 29.0641 90.0068 28.9388 90.1436 28.834C90.2803 28.7292 90.4466 28.6449 90.6426 28.5811C90.8431 28.5173 91.0687 28.4854 91.3193 28.4854C91.5882 28.4854 91.8298 28.5195 92.0439 28.5879C92.2627 28.6562 92.4473 28.752 92.5977 28.875C92.748 29.0026 92.8643 29.1553 92.9463 29.333C93.0283 29.5107 93.0693 29.7113 93.0693 29.9346V30.5156H91.6885C91.1735 30.5156 90.7064 30.5658 90.2871 30.666C89.8724 30.7663 89.5169 30.9167 89.2207 31.1172C88.9245 31.3223 88.6943 31.5775 88.5303 31.8828C88.3708 32.1882 88.291 32.5436 88.291 32.9492C88.291 33.2591 88.3503 33.5485 88.4688 33.8174C88.5918 34.0817 88.765 34.3096 88.9883 34.501C89.207 34.6969 89.4736 34.8519 89.7881 34.9658C90.1071 35.0798 90.4626 35.1367 90.8545 35.1367C91.096 35.1367 91.3239 35.1117 91.5381 35.0615C91.7523 35.0114 91.9551 34.943 92.1465 34.8564C92.3333 34.7699 92.5042 34.6696 92.6592 34.5557C92.8187 34.4417 92.9622 34.321 93.0898 34.1934C93.1035 34.3483 93.124 34.4987 93.1514 34.6445C93.1833 34.7858 93.2243 34.9043 93.2744 35ZM91.0391 34.0361C90.793 34.0361 90.5765 34.0042 90.3896 33.9404C90.2028 33.8766 90.0479 33.7878 89.9248 33.6738C89.8018 33.5645 89.7083 33.4323 89.6445 33.2773C89.5853 33.1224 89.5557 32.9538 89.5557 32.7715C89.5557 32.5801 89.5898 32.4092 89.6582 32.2588C89.7311 32.1084 89.8359 31.9785 89.9727 31.8691C90.1641 31.7142 90.4215 31.6003 90.7451 31.5273C91.0732 31.4499 91.4561 31.4111 91.8936 31.4111H93.0693V32.9082C92.9964 33.054 92.8962 33.1953 92.7686 33.332C92.641 33.4642 92.4906 33.5827 92.3174 33.6875C92.1396 33.7923 91.9437 33.8766 91.7295 33.9404C91.5153 34.0042 91.2852 34.0361 91.0391 34.0361ZM99.8164 25.8125H98.5449V27.6035H96.6035V28.5811H98.5449V32.6006C98.5449 33.0563 98.6042 33.446 98.7227 33.7695C98.8457 34.0885 99.012 34.3483 99.2217 34.5488C99.4313 34.7539 99.6774 34.9043 99.96 35C100.247 35.0911 100.555 35.1367 100.883 35.1367C101.079 35.1367 101.275 35.1276 101.471 35.1094C101.671 35.0911 101.86 35.0638 102.038 35.0273C102.216 34.9954 102.38 34.9567 102.53 34.9111C102.681 34.861 102.808 34.804 102.913 34.7402L102.735 33.8447C102.658 33.863 102.558 33.8857 102.435 33.9131C102.316 33.9359 102.188 33.9587 102.052 33.9814C101.91 34.0042 101.767 34.0247 101.621 34.043C101.475 34.0566 101.334 34.0635 101.197 34.0635C101.01 34.0635 100.833 34.0407 100.664 33.9951C100.5 33.9495 100.354 33.8698 100.227 33.7559C100.099 33.6465 99.9987 33.4984 99.9258 33.3115C99.8529 33.1247 99.8164 32.8877 99.8164 32.6006V28.5811H102.633V27.6035H99.8164V25.8125ZM108.498 35.1367C109.218 35.1367 109.822 34.9932 110.31 34.7061C110.802 34.4144 111.171 34.0817 111.417 33.708L110.645 33.1064C110.412 33.4072 110.12 33.6488 109.77 33.8311C109.419 34.0133 109.018 34.1045 108.566 34.1045C108.225 34.1045 107.912 34.0407 107.63 33.9131C107.347 33.7855 107.106 33.61 106.905 33.3867C106.709 33.1771 106.554 32.9355 106.44 32.6621C106.331 32.3887 106.26 32.0719 106.229 31.7119V31.6641H111.513V31.0967C111.513 30.5817 111.447 30.1032 111.314 29.6611C111.187 29.2191 110.991 28.834 110.727 28.5059C110.462 28.1823 110.13 27.9294 109.729 27.7471C109.332 27.5602 108.867 27.4668 108.334 27.4668C107.91 27.4668 107.495 27.5534 107.09 27.7266C106.689 27.8997 106.331 28.1481 106.017 28.4717C105.698 28.7998 105.442 29.2008 105.251 29.6748C105.06 30.1442 104.964 30.6774 104.964 31.2744V31.5615C104.964 32.0765 105.05 32.5527 105.224 32.9902C105.397 33.4277 105.638 33.806 105.948 34.125C106.258 34.444 106.63 34.6924 107.062 34.8701C107.5 35.0479 107.979 35.1367 108.498 35.1367ZM108.334 28.5059C108.658 28.5059 108.936 28.5651 109.168 28.6836C109.405 28.8021 109.601 28.957 109.756 29.1484C109.911 29.3398 110.032 29.5677 110.118 29.832C110.205 30.0918 110.248 30.3356 110.248 30.5635V30.625H106.27C106.32 30.2832 106.406 29.9824 106.529 29.7227C106.657 29.4583 106.812 29.235 106.994 29.0527C107.176 28.875 107.382 28.7406 107.609 28.6494C107.837 28.5537 108.079 28.5059 108.334 28.5059Z" fill="#EB4E4E"/>
</svg>
