<svg width="200" height="86" viewBox="0 0 200 86" fill="none" xmlns="http://www.w3.org/2000/svg">
<g clip-path="url(#clip0)">
<rect width="200" height="85.19" rx="5" fill="white"/>
<rect width="200" height="85.1852" rx="5" fill="#FF5722"/>
<path d="M64.8564 41.6416C65.5771 40.7568 66.5146 40.3145 67.6689 40.3145C69.6787 40.3145 70.6924 41.4482 70.71 43.7158V50H69.084V43.707C69.0781 43.0215 68.9199 42.5146 68.6094 42.1865C68.3047 41.8584 67.8271 41.6943 67.1768 41.6943C66.6494 41.6943 66.1865 41.835 65.7881 42.1162C65.3896 42.3975 65.0791 42.7666 64.8564 43.2236V50H63.2305V36.5H64.8564V41.6416ZM79.0156 50C78.9219 49.8125 78.8457 49.4785 78.7871 48.998C78.0312 49.7832 77.1289 50.1758 76.0801 50.1758C75.1426 50.1758 74.3721 49.9121 73.7686 49.3848C73.1709 48.8516 72.8721 48.1777 72.8721 47.3633C72.8721 46.373 73.2471 45.6055 73.9971 45.0605C74.7529 44.5098 75.8135 44.2344 77.1787 44.2344H78.7607V43.4873C78.7607 42.9189 78.5908 42.4678 78.251 42.1338C77.9111 41.7939 77.4102 41.624 76.748 41.624C76.168 41.624 75.6816 41.7705 75.2891 42.0635C74.8965 42.3564 74.7002 42.7109 74.7002 43.127H73.0654C73.0654 42.6523 73.2324 42.1953 73.5664 41.7559C73.9062 41.3105 74.3633 40.959 74.9375 40.7012C75.5176 40.4434 76.1533 40.3145 76.8447 40.3145C77.9404 40.3145 78.7988 40.5898 79.4199 41.1406C80.041 41.6855 80.3633 42.4385 80.3867 43.3994V47.7764C80.3867 48.6494 80.498 49.3438 80.7207 49.8594V50H79.0156ZM76.3174 48.7607C76.8271 48.7607 77.3105 48.6289 77.7676 48.3652C78.2246 48.1016 78.5557 47.7588 78.7607 47.3369V45.3857H77.4863C75.4941 45.3857 74.498 45.9688 74.498 47.1348C74.498 47.6445 74.668 48.043 75.0078 48.3301C75.3477 48.6172 75.7842 48.7607 76.3174 48.7607ZM87.5322 41.9492C87.2861 41.9082 87.0195 41.8877 86.7324 41.8877C85.666 41.8877 84.9424 42.3418 84.5615 43.25V50H82.9355V40.4902H84.5176L84.5439 41.5889C85.0771 40.7393 85.833 40.3145 86.8115 40.3145C87.1279 40.3145 87.3682 40.3555 87.5322 40.4375V41.9492ZM88.4639 45.166C88.4639 43.707 88.8096 42.5352 89.501 41.6504C90.1924 40.7598 91.0977 40.3145 92.2168 40.3145C93.3301 40.3145 94.2119 40.6953 94.8623 41.457V36.5H96.4883V50H94.9941L94.915 48.9805C94.2646 49.7773 93.3594 50.1758 92.1992 50.1758C91.0977 50.1758 90.1982 49.7246 89.501 48.8223C88.8096 47.9199 88.4639 46.7422 88.4639 45.2891V45.166ZM90.0898 45.3506C90.0898 46.4287 90.3125 47.2725 90.7578 47.8818C91.2031 48.4912 91.8184 48.7959 92.6035 48.7959C93.6348 48.7959 94.3877 48.333 94.8623 47.4072V43.0391C94.376 42.1426 93.6289 41.6943 92.6211 41.6943C91.8242 41.6943 91.2031 42.002 90.7578 42.6172C90.3125 43.2324 90.0898 44.1436 90.0898 45.3506ZM107.439 47.7588L109.268 40.4902H110.894L108.125 50H106.807L104.495 42.793L102.245 50H100.927L98.167 40.4902H99.7842L101.656 47.6094L103.871 40.4902H105.181L107.439 47.7588ZM118.426 50C118.332 49.8125 118.256 49.4785 118.197 48.998C117.441 49.7832 116.539 50.1758 115.49 50.1758C114.553 50.1758 113.782 49.9121 113.179 49.3848C112.581 48.8516 112.282 48.1777 112.282 47.3633C112.282 46.373 112.657 45.6055 113.407 45.0605C114.163 44.5098 115.224 44.2344 116.589 44.2344H118.171V43.4873C118.171 42.9189 118.001 42.4678 117.661 42.1338C117.321 41.7939 116.82 41.624 116.158 41.624C115.578 41.624 115.092 41.7705 114.699 42.0635C114.307 42.3564 114.11 42.7109 114.11 43.127H112.476C112.476 42.6523 112.643 42.1953 112.977 41.7559C113.316 41.3105 113.773 40.959 114.348 40.7012C114.928 40.4434 115.563 40.3145 116.255 40.3145C117.351 40.3145 118.209 40.5898 118.83 41.1406C119.451 41.6855 119.773 42.4385 119.797 43.3994V47.7764C119.797 48.6494 119.908 49.3438 120.131 49.8594V50H118.426ZM115.728 48.7607C116.237 48.7607 116.721 48.6289 117.178 48.3652C117.635 48.1016 117.966 47.7588 118.171 47.3369V45.3857H116.896C114.904 45.3857 113.908 45.9688 113.908 47.1348C113.908 47.6445 114.078 48.043 114.418 48.3301C114.758 48.6172 115.194 48.7607 115.728 48.7607ZM126.942 41.9492C126.696 41.9082 126.43 41.8877 126.143 41.8877C125.076 41.8877 124.353 42.3418 123.972 43.25V50H122.346V40.4902H123.928L123.954 41.5889C124.487 40.7393 125.243 40.3145 126.222 40.3145C126.538 40.3145 126.778 40.3555 126.942 40.4375V41.9492ZM132.216 50.1758C130.927 50.1758 129.878 49.7539 129.069 48.9102C128.261 48.0605 127.856 46.9268 127.856 45.5088V45.21C127.856 44.2666 128.035 43.4258 128.393 42.6875C128.756 41.9434 129.26 41.3633 129.904 40.9473C130.555 40.5254 131.258 40.3145 132.014 40.3145C133.25 40.3145 134.211 40.7217 134.896 41.5361C135.582 42.3506 135.925 43.5166 135.925 45.0342V45.7109H129.482C129.506 46.6484 129.778 47.4072 130.3 47.9873C130.827 48.5615 131.495 48.8486 132.304 48.8486C132.878 48.8486 133.364 48.7314 133.763 48.4971C134.161 48.2627 134.51 47.9521 134.809 47.5654L135.802 48.3389C135.005 49.5635 133.81 50.1758 132.216 50.1758ZM132.014 41.6504C131.357 41.6504 130.807 41.8906 130.361 42.3711C129.916 42.8457 129.641 43.5137 129.535 44.375H134.299V44.252C134.252 43.4258 134.029 42.7871 133.631 42.3359C133.232 41.8789 132.693 41.6504 132.014 41.6504Z" fill="white"/>
</g>
<defs>
<clipPath id="clip0">
<rect width="200" height="85.19" rx="5" fill="white"/>
</clipPath>
</defs>
</svg>
