<svg width="160" height="72" viewBox="0 0 160 72" fill="none" xmlns="http://www.w3.org/2000/svg">
<g filter="url(#filter0_d)">
<rect width="160" height="68.152" rx="5" fill="#C00000"/>
<path d="M55.0596 39H57.3633C57.8418 38.9954 58.2861 38.9385 58.6963 38.8291C59.111 38.7197 59.4824 38.5625 59.8105 38.3574C60.1204 38.1615 60.4007 37.9245 60.6514 37.6465C60.902 37.3685 61.1094 37.0586 61.2734 36.7168C61.4329 36.3887 61.5537 36.0286 61.6357 35.6367C61.7223 35.2448 61.7656 34.8301 61.7656 34.3926V33.6611C61.7611 33.2054 61.7132 32.777 61.6221 32.376C61.5355 31.9749 61.4079 31.6058 61.2393 31.2686C61.0524 30.8721 60.8018 30.5234 60.4873 30.2227C60.1774 29.9173 59.8197 29.6712 59.4141 29.4844C59.1224 29.3477 58.8034 29.2428 58.457 29.1699C58.1152 29.0924 57.7507 29.0514 57.3633 29.0469H55.0596V39ZM56.3447 30.0859H57.3633C57.6777 30.0905 57.9671 30.127 58.2314 30.1953C58.4958 30.2591 58.735 30.3503 58.9492 30.4688C59.25 30.6283 59.5029 30.8379 59.708 31.0977C59.9176 31.3529 60.084 31.64 60.207 31.959C60.3027 32.2051 60.3734 32.4717 60.4189 32.7588C60.4691 33.0413 60.4964 33.3376 60.501 33.6475V34.3926C60.4964 34.6979 60.4714 34.9919 60.4258 35.2744C60.3802 35.5524 60.3118 35.8122 60.2207 36.0537C60.1159 36.3499 59.9723 36.6188 59.79 36.8604C59.6123 37.0973 59.4004 37.2979 59.1543 37.4619C58.9219 37.6214 58.6553 37.7445 58.3545 37.8311C58.0583 37.9176 57.7279 37.9632 57.3633 37.9678H56.3447V30.0859ZM63.2422 35.2334V35.3838C63.2422 35.917 63.3197 36.4115 63.4746 36.8672C63.6296 37.3229 63.8529 37.7194 64.1445 38.0566C64.4316 38.3939 64.7826 38.6582 65.1973 38.8496C65.6165 39.041 66.0882 39.1367 66.6123 39.1367C67.1318 39.1367 67.599 39.041 68.0137 38.8496C68.4284 38.6582 68.7816 38.3939 69.0732 38.0566C69.3604 37.7194 69.5814 37.3229 69.7363 36.8672C69.8913 36.4115 69.9688 35.917 69.9688 35.3838V35.2334C69.9688 34.7002 69.8913 34.2057 69.7363 33.75C69.5814 33.2897 69.3604 32.891 69.0732 32.5537C68.7816 32.2165 68.4261 31.9521 68.0068 31.7607C67.5921 31.5648 67.1227 31.4668 66.5986 31.4668C66.0791 31.4668 65.612 31.5648 65.1973 31.7607C64.7826 31.9521 64.4316 32.2165 64.1445 32.5537C63.8529 32.891 63.6296 33.2897 63.4746 33.75C63.3197 34.2057 63.2422 34.7002 63.2422 35.2334ZM64.5068 35.3838V35.2334C64.5068 34.8734 64.5501 34.5293 64.6367 34.2012C64.7233 33.8685 64.8555 33.5768 65.0332 33.3262C65.2064 33.0755 65.4229 32.8773 65.6826 32.7314C65.9424 32.5811 66.2477 32.5059 66.5986 32.5059C66.9495 32.5059 67.2549 32.5811 67.5146 32.7314C67.779 32.8773 68 33.0755 68.1777 33.3262C68.3509 33.5768 68.4808 33.8685 68.5674 34.2012C68.6585 34.5293 68.7041 34.8734 68.7041 35.2334V35.3838C68.7041 35.7484 68.6608 36.097 68.5742 36.4297C68.4876 36.7578 68.3577 37.0472 68.1846 37.2979C68.0068 37.5485 67.7858 37.7467 67.5215 37.8926C67.2617 38.0384 66.9587 38.1113 66.6123 38.1113C66.2614 38.1113 65.9538 38.0384 65.6895 37.8926C65.4251 37.7467 65.2064 37.5485 65.0332 37.2979C64.8555 37.0472 64.7233 36.7578 64.6367 36.4297C64.5501 36.097 64.5068 35.7484 64.5068 35.3838ZM72.0059 39H73.2705V33.6953C73.3571 33.5358 73.4574 33.39 73.5713 33.2578C73.6898 33.1257 73.8174 33.0094 73.9541 32.9092C74.1227 32.7952 74.3073 32.7064 74.5078 32.6426C74.7083 32.5742 74.9248 32.54 75.1572 32.54C75.4261 32.54 75.6631 32.5719 75.8682 32.6357C76.0778 32.6995 76.2555 32.8021 76.4014 32.9434C76.5426 33.0846 76.6497 33.2692 76.7227 33.4971C76.7956 33.7249 76.832 34.0029 76.832 34.3311V39H78.0967V34.3037C78.0967 33.8115 78.0352 33.3877 77.9121 33.0322C77.7936 32.6722 77.6227 32.376 77.3994 32.1436C77.1761 31.9111 76.9049 31.7402 76.5859 31.6309C76.2715 31.5215 75.9206 31.4668 75.5332 31.4668C75.2461 31.4714 74.9727 31.5146 74.7129 31.5967C74.4577 31.6742 74.2207 31.7858 74.002 31.9316C73.8561 32.0273 73.7171 32.1413 73.585 32.2734C73.4574 32.401 73.3389 32.5423 73.2295 32.6973L73.1406 31.6035H72.0059V39ZM85.2744 39H86.5938V38.8906C86.5117 38.6855 86.4479 38.4463 86.4023 38.1729C86.3568 37.8949 86.334 37.6328 86.334 37.3867V33.9482C86.334 33.5335 86.2588 33.1712 86.1084 32.8613C85.958 32.5514 85.7529 32.2917 85.4932 32.082C85.2288 31.877 84.9167 31.7243 84.5566 31.624C84.1966 31.5192 83.807 31.4668 83.3877 31.4668C82.9274 31.4668 82.515 31.5306 82.1504 31.6582C81.7904 31.7858 81.485 31.9521 81.2344 32.1572C80.9792 32.3669 80.7832 32.6016 80.6465 32.8613C80.5143 33.1211 80.446 33.3854 80.4414 33.6543H81.7129C81.7129 33.4993 81.7493 33.3512 81.8223 33.21C81.8997 33.0641 82.0068 32.9388 82.1436 32.834C82.2803 32.7292 82.4466 32.6449 82.6426 32.5811C82.8431 32.5173 83.0687 32.4854 83.3193 32.4854C83.5882 32.4854 83.8298 32.5195 84.0439 32.5879C84.2627 32.6562 84.4473 32.752 84.5977 32.875C84.748 33.0026 84.8643 33.1553 84.9463 33.333C85.0283 33.5107 85.0693 33.7113 85.0693 33.9346V34.5156H83.6885C83.1735 34.5156 82.7064 34.5658 82.2871 34.666C81.8724 34.7663 81.5169 34.9167 81.2207 35.1172C80.9245 35.3223 80.6943 35.5775 80.5303 35.8828C80.3708 36.1882 80.291 36.5436 80.291 36.9492C80.291 37.2591 80.3503 37.5485 80.4688 37.8174C80.5918 38.0817 80.765 38.3096 80.9883 38.501C81.207 38.6969 81.4736 38.8519 81.7881 38.9658C82.1071 39.0798 82.4626 39.1367 82.8545 39.1367C83.096 39.1367 83.3239 39.1117 83.5381 39.0615C83.7523 39.0114 83.9551 38.943 84.1465 38.8564C84.3333 38.7699 84.5042 38.6696 84.6592 38.5557C84.8187 38.4417 84.9622 38.321 85.0898 38.1934C85.1035 38.3483 85.124 38.4987 85.1514 38.6445C85.1833 38.7858 85.2243 38.9043 85.2744 39ZM83.0391 38.0361C82.793 38.0361 82.5765 38.0042 82.3896 37.9404C82.2028 37.8766 82.0479 37.7878 81.9248 37.6738C81.8018 37.5645 81.7083 37.4323 81.6445 37.2773C81.5853 37.1224 81.5557 36.9538 81.5557 36.7715C81.5557 36.5801 81.5898 36.4092 81.6582 36.2588C81.7311 36.1084 81.8359 35.9785 81.9727 35.8691C82.1641 35.7142 82.4215 35.6003 82.7451 35.5273C83.0732 35.4499 83.4561 35.4111 83.8936 35.4111H85.0693V36.9082C84.9964 37.054 84.8962 37.1953 84.7686 37.332C84.641 37.4642 84.4906 37.5827 84.3174 37.6875C84.1396 37.7923 83.9437 37.8766 83.7295 37.9404C83.5153 38.0042 83.2852 38.0361 83.0391 38.0361ZM91.8164 29.8125H90.5449V31.6035H88.6035V32.5811H90.5449V36.6006C90.5449 37.0563 90.6042 37.446 90.7227 37.7695C90.8457 38.0885 91.012 38.3483 91.2217 38.5488C91.4313 38.7539 91.6774 38.9043 91.96 39C92.2471 39.0911 92.5547 39.1367 92.8828 39.1367C93.0788 39.1367 93.2747 39.1276 93.4707 39.1094C93.6712 39.0911 93.8604 39.0638 94.0381 39.0273C94.2158 38.9954 94.3799 38.9567 94.5303 38.9111C94.6807 38.861 94.8083 38.804 94.9131 38.7402L94.7354 37.8447C94.6579 37.863 94.5576 37.8857 94.4346 37.9131C94.3161 37.9359 94.1885 37.9587 94.0518 37.9814C93.9105 38.0042 93.7669 38.0247 93.6211 38.043C93.4753 38.0566 93.334 38.0635 93.1973 38.0635C93.0104 38.0635 92.8327 38.0407 92.6641 37.9951C92.5 37.9495 92.3542 37.8698 92.2266 37.7559C92.099 37.6465 91.9987 37.4984 91.9258 37.3115C91.8529 37.1247 91.8164 36.8877 91.8164 36.6006V32.5811H94.6328V31.6035H91.8164V29.8125ZM100.498 39.1367C101.218 39.1367 101.822 38.9932 102.31 38.7061C102.802 38.4144 103.171 38.0817 103.417 37.708L102.645 37.1064C102.412 37.4072 102.12 37.6488 101.77 37.8311C101.419 38.0133 101.018 38.1045 100.566 38.1045C100.225 38.1045 99.9124 38.0407 99.6299 37.9131C99.3473 37.7855 99.1058 37.61 98.9053 37.3867C98.7093 37.1771 98.5544 36.9355 98.4404 36.6621C98.3311 36.3887 98.2604 36.0719 98.2285 35.7119V35.6641H103.513V35.0967C103.513 34.5817 103.447 34.1032 103.314 33.6611C103.187 33.2191 102.991 32.834 102.727 32.5059C102.462 32.1823 102.13 31.9294 101.729 31.7471C101.332 31.5602 100.867 31.4668 100.334 31.4668C99.9102 31.4668 99.4954 31.5534 99.0898 31.7266C98.6888 31.8997 98.3311 32.1481 98.0166 32.4717C97.6976 32.7998 97.4424 33.2008 97.251 33.6748C97.0596 34.1442 96.9639 34.6774 96.9639 35.2744V35.5615C96.9639 36.0765 97.0505 36.5527 97.2236 36.9902C97.3968 37.4277 97.6383 37.806 97.9482 38.125C98.2581 38.444 98.6296 38.6924 99.0625 38.8701C99.5 39.0479 99.9785 39.1367 100.498 39.1367ZM100.334 32.5059C100.658 32.5059 100.936 32.5651 101.168 32.6836C101.405 32.8021 101.601 32.957 101.756 33.1484C101.911 33.3398 102.032 33.5677 102.118 33.832C102.205 34.0918 102.248 34.3356 102.248 34.5635V34.625H98.2695C98.3197 34.2832 98.4062 33.9824 98.5293 33.7227C98.6569 33.4583 98.8118 33.235 98.9941 33.0527C99.1764 32.875 99.3815 32.7406 99.6094 32.6494C99.8372 32.5537 100.079 32.5059 100.334 32.5059Z" fill="#F2B8B8"/>
</g>
<defs>
<filter id="filter0_d" x="0" y="0" width="160" height="71.152" filterUnits="userSpaceOnUse" color-interpolation-filters="sRGB">
<feFlood flood-opacity="0" result="BackgroundImageFix"/>
<feColorMatrix in="SourceAlpha" type="matrix" values="0 0 0 0 0 0 0 0 0 0 0 0 0 0 0 0 0 0 127 0"/>
<feOffset dy="3"/>
<feColorMatrix type="matrix" values="0 0 0 0 0.920833 0 0 0 0 0.306944 0 0 0 0 0.306944 0 0 0 1 0"/>
<feBlend mode="normal" in2="BackgroundImageFix" result="effect1_dropShadow"/>
<feBlend mode="normal" in="SourceGraphic" in2="effect1_dropShadow" result="shape"/>
</filter>
</defs>
</svg>
