<svg width="150" height="67" viewBox="0 0 150 67" fill="none" xmlns="http://www.w3.org/2000/svg">
<g filter="url(#filter0_d)">
<rect width="150" height="63.8925" rx="5" fill="#C00000"/>
<path d="M53.9082 37H55.8828C56.293 36.9961 56.6738 36.9473 57.0254 36.8535C57.3809 36.7598 57.6992 36.625 57.9805 36.4492C58.2461 36.2812 58.4863 36.0781 58.7012 35.8398C58.916 35.6016 59.0938 35.3359 59.2344 35.043C59.3711 34.7617 59.4746 34.4531 59.5449 34.1172C59.6191 33.7812 59.6562 33.4258 59.6562 33.0508V32.4238C59.6523 32.0332 59.6113 31.666 59.5332 31.3223C59.459 30.9785 59.3496 30.6621 59.2051 30.373C59.0449 30.0332 58.8301 29.7344 58.5605 29.4766C58.2949 29.2148 57.9883 29.0039 57.6406 28.8438C57.3906 28.7266 57.1172 28.6367 56.8203 28.5742C56.5273 28.5078 56.2148 28.4727 55.8828 28.4688H53.9082V37ZM55.0098 29.3594H55.8828C56.1523 29.3633 56.4004 29.3945 56.627 29.4531C56.8535 29.5078 57.0586 29.5859 57.2422 29.6875C57.5 29.8242 57.7168 30.0039 57.8926 30.2266C58.0723 30.4453 58.2148 30.6914 58.3203 30.9648C58.4023 31.1758 58.4629 31.4043 58.502 31.6504C58.5449 31.8926 58.5684 32.1465 58.5723 32.4121V33.0508C58.5684 33.3125 58.5469 33.5645 58.5078 33.8066C58.4688 34.0449 58.4102 34.2676 58.332 34.4746C58.2422 34.7285 58.1191 34.959 57.9629 35.166C57.8105 35.3691 57.6289 35.541 57.418 35.6816C57.2188 35.8184 56.9902 35.9238 56.7324 35.998C56.4785 36.0723 56.1953 36.1113 55.8828 36.1152H55.0098V29.3594ZM60.9219 33.7715V33.9004C60.9219 34.3574 60.9883 34.7812 61.1211 35.1719C61.2539 35.5625 61.4453 35.9023 61.6953 36.1914C61.9414 36.4805 62.2422 36.707 62.5977 36.8711C62.957 37.0352 63.3613 37.1172 63.8105 37.1172C64.2559 37.1172 64.6562 37.0352 65.0117 36.8711C65.3672 36.707 65.6699 36.4805 65.9199 36.1914C66.166 35.9023 66.3555 35.5625 66.4883 35.1719C66.6211 34.7812 66.6875 34.3574 66.6875 33.9004V33.7715C66.6875 33.3145 66.6211 32.8906 66.4883 32.5C66.3555 32.1055 66.166 31.7637 65.9199 31.4746C65.6699 31.1855 65.3652 30.959 65.0059 30.7949C64.6504 30.627 64.248 30.543 63.7988 30.543C63.3535 30.543 62.9531 30.627 62.5977 30.7949C62.2422 30.959 61.9414 31.1855 61.6953 31.4746C61.4453 31.7637 61.2539 32.1055 61.1211 32.5C60.9883 32.8906 60.9219 33.3145 60.9219 33.7715ZM62.0059 33.9004V33.7715C62.0059 33.4629 62.043 33.168 62.1172 32.8867C62.1914 32.6016 62.3047 32.3516 62.457 32.1367C62.6055 31.9219 62.791 31.752 63.0137 31.627C63.2363 31.498 63.498 31.4336 63.7988 31.4336C64.0996 31.4336 64.3613 31.498 64.584 31.627C64.8105 31.752 65 31.9219 65.1523 32.1367C65.3008 32.3516 65.4121 32.6016 65.4863 32.8867C65.5645 33.168 65.6035 33.4629 65.6035 33.7715V33.9004C65.6035 34.2129 65.5664 34.5117 65.4922 34.7969C65.418 35.0781 65.3066 35.3262 65.1582 35.541C65.0059 35.7559 64.8164 35.9258 64.5898 36.0508C64.3672 36.1758 64.1074 36.2383 63.8105 36.2383C63.5098 36.2383 63.2461 36.1758 63.0195 36.0508C62.793 35.9258 62.6055 35.7559 62.457 35.541C62.3047 35.3262 62.1914 35.0781 62.1172 34.7969C62.043 34.5117 62.0059 34.2129 62.0059 33.9004ZM68.4336 37H69.5176V32.4531C69.5918 32.3164 69.6777 32.1914 69.7754 32.0781C69.877 31.9648 69.9863 31.8652 70.1035 31.7793C70.248 31.6816 70.4062 31.6055 70.5781 31.5508C70.75 31.4922 70.9355 31.4629 71.1348 31.4629C71.3652 31.4629 71.5684 31.4902 71.7441 31.5449C71.9238 31.5996 72.0762 31.6875 72.2012 31.8086C72.3223 31.9297 72.4141 32.0879 72.4766 32.2832C72.5391 32.4785 72.5703 32.7168 72.5703 32.998V37H73.6543V32.9746C73.6543 32.5527 73.6016 32.1895 73.4961 31.8848C73.3945 31.5762 73.248 31.3223 73.0566 31.123C72.8652 30.9238 72.6328 30.7773 72.3594 30.6836C72.0898 30.5898 71.7891 30.543 71.457 30.543C71.2109 30.5469 70.9766 30.584 70.7539 30.6543C70.5352 30.7207 70.332 30.8164 70.1445 30.9414C70.0195 31.0234 69.9004 31.1211 69.7871 31.2344C69.6777 31.3438 69.5762 31.4648 69.4824 31.5977L69.4062 30.6602H68.4336V37ZM79.8066 37H80.9375V36.9062C80.8672 36.7305 80.8125 36.5254 80.7734 36.291C80.7344 36.0527 80.7148 35.8281 80.7148 35.6172V32.6699C80.7148 32.3145 80.6504 32.0039 80.5215 31.7383C80.3926 31.4727 80.2168 31.25 79.9941 31.0703C79.7676 30.8945 79.5 30.7637 79.1914 30.6777C78.8828 30.5879 78.5488 30.543 78.1895 30.543C77.7949 30.543 77.4414 30.5977 77.1289 30.707C76.8203 30.8164 76.5586 30.959 76.3438 31.1348C76.125 31.3145 75.957 31.5156 75.8398 31.7383C75.7266 31.9609 75.668 32.1875 75.6641 32.418H76.7539C76.7539 32.2852 76.7852 32.1582 76.8477 32.0371C76.9141 31.9121 77.0059 31.8047 77.123 31.7148C77.2402 31.625 77.3828 31.5527 77.5508 31.498C77.7227 31.4434 77.916 31.416 78.1309 31.416C78.3613 31.416 78.5684 31.4453 78.752 31.5039C78.9395 31.5625 79.0977 31.6445 79.2266 31.75C79.3555 31.8594 79.4551 31.9902 79.5254 32.1426C79.5957 32.2949 79.6309 32.4668 79.6309 32.6582V33.1562H78.4473C78.0059 33.1562 77.6055 33.1992 77.2461 33.2852C76.8906 33.3711 76.5859 33.5 76.332 33.6719C76.0781 33.8477 75.8809 34.0664 75.7402 34.3281C75.6035 34.5898 75.5352 34.8945 75.5352 35.2422C75.5352 35.5078 75.5859 35.7559 75.6875 35.9863C75.793 36.2129 75.9414 36.4082 76.1328 36.5723C76.3203 36.7402 76.5488 36.873 76.8184 36.9707C77.0918 37.0684 77.3965 37.1172 77.7324 37.1172C77.9395 37.1172 78.1348 37.0957 78.3184 37.0527C78.502 37.0098 78.6758 36.9512 78.8398 36.877C79 36.8027 79.1465 36.7168 79.2793 36.6191C79.416 36.5215 79.5391 36.418 79.6484 36.3086C79.6602 36.4414 79.6777 36.5703 79.7012 36.6953C79.7285 36.8164 79.7637 36.918 79.8066 37ZM77.8906 36.1738C77.6797 36.1738 77.4941 36.1465 77.334 36.0918C77.1738 36.0371 77.041 35.9609 76.9355 35.8633C76.8301 35.7695 76.75 35.6562 76.6953 35.5234C76.6445 35.3906 76.6191 35.2461 76.6191 35.0898C76.6191 34.9258 76.6484 34.7793 76.707 34.6504C76.7695 34.5215 76.8594 34.4102 76.9766 34.3164C77.1406 34.1836 77.3613 34.0859 77.6387 34.0234C77.9199 33.957 78.248 33.9238 78.623 33.9238H79.6309V35.207C79.5684 35.332 79.4824 35.4531 79.373 35.5703C79.2637 35.6836 79.1348 35.7852 78.9863 35.875C78.834 35.9648 78.666 36.0371 78.4824 36.0918C78.2988 36.1465 78.1016 36.1738 77.8906 36.1738ZM85.4141 29.125H84.3242V30.6602H82.6602V31.498H84.3242V34.9434C84.3242 35.334 84.375 35.668 84.4766 35.9453C84.582 36.2188 84.7246 36.4414 84.9043 36.6133C85.084 36.7891 85.2949 36.918 85.5371 37C85.7832 37.0781 86.0469 37.1172 86.3281 37.1172C86.4961 37.1172 86.6641 37.1094 86.832 37.0938C87.0039 37.0781 87.166 37.0547 87.3184 37.0234C87.4707 36.9961 87.6113 36.9629 87.7402 36.9238C87.8691 36.8809 87.9785 36.832 88.0684 36.7773L87.916 36.0098C87.8496 36.0254 87.7637 36.0449 87.6582 36.0684C87.5566 36.0879 87.4473 36.1074 87.3301 36.127C87.209 36.1465 87.0859 36.1641 86.9609 36.1797C86.8359 36.1914 86.7148 36.1973 86.5977 36.1973C86.4375 36.1973 86.2852 36.1777 86.1406 36.1387C86 36.0996 85.875 36.0312 85.7656 35.9336C85.6562 35.8398 85.5703 35.7129 85.5078 35.5527C85.4453 35.3926 85.4141 35.1895 85.4141 34.9434V31.498H87.8281V30.6602H85.4141V29.125ZM92.8555 37.1172C93.4727 37.1172 93.9902 36.9941 94.4082 36.748C94.8301 36.498 95.1465 36.2129 95.3574 35.8926L94.6953 35.377C94.4961 35.6348 94.2461 35.8418 93.9453 35.998C93.6445 36.1543 93.3008 36.2324 92.9141 36.2324C92.6211 36.2324 92.3535 36.1777 92.1113 36.0684C91.8691 35.959 91.6621 35.8086 91.4902 35.6172C91.3223 35.4375 91.1895 35.2305 91.0918 34.9961C90.998 34.7617 90.9375 34.4902 90.9102 34.1816V34.1406H95.4395V33.6543C95.4395 33.2129 95.3828 32.8027 95.2695 32.4238C95.1602 32.0449 94.9922 31.7148 94.7656 31.4336C94.5391 31.1562 94.2539 30.9395 93.9102 30.7832C93.5703 30.623 93.1719 30.543 92.7148 30.543C92.3516 30.543 91.9961 30.6172 91.6484 30.7656C91.3047 30.9141 90.998 31.127 90.7285 31.4043C90.4551 31.6855 90.2363 32.0293 90.0723 32.4355C89.9082 32.8379 89.8262 33.2949 89.8262 33.8066V34.0527C89.8262 34.4941 89.9004 34.9023 90.0488 35.2773C90.1973 35.6523 90.4043 35.9766 90.6699 36.25C90.9355 36.5234 91.2539 36.7363 91.625 36.8887C92 37.041 92.4102 37.1172 92.8555 37.1172ZM92.7148 31.4336C92.9922 31.4336 93.2305 31.4844 93.4297 31.5859C93.6328 31.6875 93.8008 31.8203 93.9336 31.9844C94.0664 32.1484 94.1699 32.3438 94.2441 32.5703C94.3184 32.793 94.3555 33.002 94.3555 33.1973V33.25H90.9453C90.9883 32.957 91.0625 32.6992 91.168 32.4766C91.2773 32.25 91.4102 32.0586 91.5664 31.9023C91.7227 31.75 91.8984 31.6348 92.0938 31.5566C92.2891 31.4746 92.4961 31.4336 92.7148 31.4336Z" fill="#F2B8B8"/>
</g>
<defs>
<filter id="filter0_d" x="0" y="0" width="150" height="66.8925" filterUnits="userSpaceOnUse" color-interpolation-filters="sRGB">
<feFlood flood-opacity="0" result="BackgroundImageFix"/>
<feColorMatrix in="SourceAlpha" type="matrix" values="0 0 0 0 0 0 0 0 0 0 0 0 0 0 0 0 0 0 127 0"/>
<feOffset dy="3"/>
<feColorMatrix type="matrix" values="0 0 0 0 0.825 0 0 0 0 0.144375 0 0 0 0 0.144375 0 0 0 1 0"/>
<feBlend mode="normal" in2="BackgroundImageFix" result="effect1_dropShadow"/>
<feBlend mode="normal" in="SourceGraphic" in2="effect1_dropShadow" result="shape"/>
</filter>
</defs>
</svg>
