<svg width="150" height="67" viewBox="0 0 150 67" fill="none" xmlns="http://www.w3.org/2000/svg">
<g filter="url(#filter0_d)">
<rect width="150" height="63.8925" rx="5" fill="#FF5722"/>
<path d="M53.1553 37V27.0469H55.9648C56.8307 27.0469 57.5964 27.2383 58.2617 27.6211C58.9271 28.0039 59.4398 28.5485 59.7998 29.2549C60.1644 29.9613 60.349 30.7725 60.3535 31.6885V32.3242C60.3535 33.263 60.1712 34.0856 59.8066 34.792C59.4466 35.4984 58.9294 36.0407 58.2549 36.4189C57.585 36.7972 56.8034 36.9909 55.9102 37H53.1553ZM54.4678 28.127V35.9268H55.8486C56.8604 35.9268 57.6465 35.6123 58.207 34.9834C58.7721 34.3545 59.0547 33.459 59.0547 32.2969V31.7158C59.0547 30.5856 58.7881 29.7083 58.2549 29.084C57.7262 28.4551 56.9743 28.1361 55.999 28.127H54.4678ZM61.8096 33.2334C61.8096 32.5088 61.9508 31.8571 62.2334 31.2783C62.5205 30.6995 62.917 30.2529 63.4229 29.9385C63.9333 29.624 64.5143 29.4668 65.166 29.4668C66.1732 29.4668 66.9867 29.8154 67.6064 30.5127C68.2308 31.21 68.543 32.1374 68.543 33.2949V33.3838C68.543 34.1038 68.404 34.751 68.126 35.3252C67.8525 35.8949 67.4583 36.3392 66.9434 36.6582C66.4329 36.9772 65.8451 37.1367 65.1797 37.1367C64.1771 37.1367 63.3636 36.7881 62.7393 36.0908C62.1195 35.3936 61.8096 34.4707 61.8096 33.3223V33.2334ZM63.0811 33.3838C63.0811 34.2041 63.2702 34.8626 63.6484 35.3594C64.0312 35.8561 64.5417 36.1045 65.1797 36.1045C65.8223 36.1045 66.3327 35.8538 66.7109 35.3525C67.0892 34.8467 67.2783 34.1403 67.2783 33.2334C67.2783 32.4222 67.0846 31.766 66.6973 31.2646C66.3145 30.7588 65.804 30.5059 65.166 30.5059C64.5417 30.5059 64.0381 30.7542 63.6553 31.251C63.2725 31.7477 63.0811 32.4587 63.0811 33.3838ZM71.3252 29.6035L71.3662 30.5332C71.9313 29.8223 72.6696 29.4668 73.5811 29.4668C75.1442 29.4668 75.9326 30.3486 75.9463 32.1123V37H74.6816V32.1055C74.6771 31.5723 74.554 31.1781 74.3125 30.9229C74.0755 30.6676 73.7041 30.54 73.1982 30.54C72.7881 30.54 72.4281 30.6494 72.1182 30.8682C71.8083 31.0869 71.5667 31.374 71.3936 31.7295V37H70.1289V29.6035H71.3252ZM82.4199 37C82.347 36.8542 82.2878 36.5944 82.2422 36.2207C81.6543 36.8314 80.9525 37.1367 80.1367 37.1367C79.4076 37.1367 78.8083 36.9316 78.3389 36.5215C77.874 36.1068 77.6416 35.5827 77.6416 34.9492C77.6416 34.179 77.9333 33.582 78.5166 33.1582C79.1045 32.7298 79.9294 32.5156 80.9912 32.5156H82.2217V31.9346C82.2217 31.4925 82.0895 31.1416 81.8252 30.8818C81.5609 30.6175 81.1712 30.4854 80.6562 30.4854C80.2051 30.4854 79.8268 30.5993 79.5215 30.8271C79.2161 31.055 79.0635 31.3307 79.0635 31.6543H77.792C77.792 31.2852 77.9219 30.9297 78.1816 30.5879C78.446 30.2415 78.8014 29.9681 79.248 29.7676C79.6992 29.5671 80.1937 29.4668 80.7314 29.4668C81.5837 29.4668 82.2513 29.681 82.7344 30.1094C83.2174 30.5332 83.4681 31.1188 83.4863 31.8662V35.2705C83.4863 35.9495 83.5729 36.4896 83.7461 36.8906V37H82.4199ZM80.3213 36.0361C80.7178 36.0361 81.0938 35.9336 81.4492 35.7285C81.8047 35.5234 82.0622 35.2568 82.2217 34.9287V33.4111H81.2305C79.681 33.4111 78.9062 33.8646 78.9062 34.7715C78.9062 35.168 79.0384 35.4779 79.3027 35.7012C79.5671 35.9245 79.9066 36.0361 80.3213 36.0361ZM87.1846 27.8125V29.6035H88.5654V30.5811H87.1846V35.168C87.1846 35.4642 87.2461 35.6875 87.3691 35.8379C87.4922 35.9837 87.7018 36.0566 87.998 36.0566C88.1439 36.0566 88.3444 36.0293 88.5996 35.9746V37C88.2669 37.0911 87.9434 37.1367 87.6289 37.1367C87.0638 37.1367 86.6377 36.9658 86.3506 36.624C86.0635 36.2822 85.9199 35.7969 85.9199 35.168V30.5811H84.5732V29.6035H85.9199V27.8125H87.1846ZM93.1182 37.1367C92.1156 37.1367 91.2998 36.8086 90.6709 36.1523C90.042 35.4915 89.7275 34.6097 89.7275 33.5068V33.2744C89.7275 32.5407 89.8665 31.8867 90.1445 31.3125C90.4271 30.7337 90.819 30.2826 91.3203 29.959C91.8262 29.6309 92.373 29.4668 92.9609 29.4668C93.9225 29.4668 94.6699 29.7835 95.2031 30.417C95.7363 31.0505 96.0029 31.9574 96.0029 33.1377V33.6641H90.9922C91.0104 34.3932 91.2223 34.9834 91.6279 35.4346C92.0381 35.8812 92.5576 36.1045 93.1865 36.1045C93.6331 36.1045 94.0114 36.0133 94.3213 35.8311C94.6312 35.6488 94.9023 35.4072 95.1348 35.1064L95.9072 35.708C95.2874 36.6605 94.3577 37.1367 93.1182 37.1367ZM92.9609 30.5059C92.4505 30.5059 92.0221 30.6927 91.6758 31.0664C91.3294 31.4355 91.1152 31.9551 91.0332 32.625H94.7383V32.5293C94.7018 31.8867 94.5286 31.39 94.2188 31.0391C93.9089 30.6836 93.4896 30.5059 92.9609 30.5059Z" fill="white"/>
<rect x="0.5" y="0.5" width="149" height="62.8925" rx="4.5" stroke="#FF5722"/>
</g>
<defs>
<filter id="filter0_d" x="0" y="0" width="150" height="66.8925" filterUnits="userSpaceOnUse" color-interpolation-filters="sRGB">
<feFlood flood-opacity="0" result="BackgroundImageFix"/>
<feColorMatrix in="SourceAlpha" type="matrix" values="0 0 0 0 0 0 0 0 0 0 0 0 0 0 0 0 0 0 127 0"/>
<feOffset dy="3"/>
<feColorMatrix type="matrix" values="0 0 0 0 0.752941 0 0 0 0 0 0 0 0 0 0 0 0 0 1 0"/>
<feBlend mode="normal" in2="BackgroundImageFix" result="effect1_dropShadow"/>
<feBlend mode="normal" in="SourceGraphic" in2="effect1_dropShadow" result="shape"/>
</filter>
</defs>
</svg>
