<svg width="150" height="64" viewBox="0 0 150 64" fill="none" xmlns="http://www.w3.org/2000/svg">
<g clip-path="url(#clip0)">
<rect width="150" height="63.8925" rx="5" fill="white"/>
<rect width="200" height="85.1852" rx="5" fill="#FF5722"/>
<path d="M68.6445 32.6045H64.4678V37H63.1553V27.0469H69.3213V28.127H64.4678V31.5312H68.6445V32.6045ZM75.2275 34.4023H71.0576L70.1211 37H68.7676L72.5684 27.0469H73.7168L77.5244 37H76.1777L75.2275 34.4023ZM71.4541 33.3223H74.8379L73.1426 28.667L71.4541 33.3223ZM86.3838 32.3447C86.3838 33.3063 86.2311 34.1357 85.9258 34.833C85.6204 35.5257 85.1921 36.068 84.6406 36.46L86.418 37.8545L85.5225 38.6816L83.4238 37.0137C83.0957 37.0957 82.7493 37.1367 82.3848 37.1367C81.6009 37.1367 80.9059 36.9453 80.2998 36.5625C79.6937 36.1751 79.222 35.626 78.8848 34.915C78.5521 34.1995 78.3812 33.3724 78.3721 32.4336V31.7158C78.3721 30.7588 78.5384 29.9134 78.8711 29.1797C79.2038 28.446 79.6732 27.8854 80.2793 27.498C80.89 27.1061 81.5872 26.9102 82.3711 26.9102C83.1732 26.9102 83.8773 27.1038 84.4834 27.4912C85.0941 27.8786 85.5635 28.4368 85.8916 29.166C86.2197 29.8906 86.3838 30.7383 86.3838 31.709V32.3447ZM85.0713 31.7021C85.0713 30.5309 84.8366 29.6286 84.3672 28.9951C83.9023 28.3571 83.237 28.0381 82.3711 28.0381C81.5462 28.0381 80.8945 28.3548 80.416 28.9883C79.9421 29.6172 79.6982 30.4922 79.6846 31.6133V32.3447C79.6846 33.484 79.9215 34.3818 80.3955 35.0381C80.874 35.6943 81.5371 36.0225 82.3848 36.0225C83.2324 36.0225 83.8887 35.7148 84.3535 35.0996C84.8184 34.4798 85.0576 33.5934 85.0713 32.4404V31.7021Z" fill="white"/>
</g>
<defs>
<clipPath id="clip0">
<rect width="150" height="63.8925" rx="5" fill="white"/>
</clipPath>
</defs>
</svg>
