<svg width="164" height="73" viewBox="0 0 164 73" fill="none" xmlns="http://www.w3.org/2000/svg">
<g filter="url(#filter0_d)">
<rect width="164" height="70" rx="5" fill="#C00000"/>
<path d="M75.7266 35.6045V34.5312H71.584V31.127H76.417V30.0469H70.3057V40H71.584V35.6045H75.7266ZM83.3486 37.4229L84.1348 40H85.3926L82.2344 30.0469H81.1748L77.9619 40H79.2266L80.0264 37.4229H83.3486ZM80.3682 36.3223L81.7012 32.002L83.0137 36.3223H80.3682ZM93.5684 35.4678V34.5928C93.5638 34.2282 93.5319 33.859 93.4727 33.4854C93.4134 33.1071 93.3245 32.7448 93.2061 32.3984C93.083 32.0521 92.9258 31.7285 92.7344 31.4277C92.5475 31.1224 92.3242 30.8581 92.0645 30.6348C91.8001 30.4115 91.4971 30.236 91.1553 30.1084C90.818 29.9762 90.4375 29.9102 90.0137 29.9102C89.5898 29.9102 89.207 29.9762 88.8652 30.1084C88.528 30.236 88.2295 30.4115 87.9697 30.6348C87.7054 30.8626 87.4798 31.1292 87.293 31.4346C87.1061 31.7354 86.9512 32.0589 86.8281 32.4053C86.7051 32.7516 86.6139 33.1117 86.5547 33.4854C86.4954 33.859 86.4635 34.2282 86.459 34.5928V35.4678C86.4635 35.8324 86.4954 36.2015 86.5547 36.5752C86.6139 36.9443 86.7051 37.3021 86.8281 37.6484C86.9512 37.9948 87.1084 38.3206 87.2998 38.626C87.4912 38.9268 87.7191 39.1888 87.9834 39.4121C88.2432 39.6354 88.5417 39.8132 88.8789 39.9453C89.2161 40.0729 89.5967 40.1367 90.0205 40.1367C90.1846 40.1367 90.3418 40.1253 90.4922 40.1025C90.6471 40.0843 90.7952 40.0547 90.9365 40.0137L92.9053 41.6816L93.7734 40.8545L92.0576 39.4258C92.3219 39.2025 92.5475 38.9404 92.7344 38.6396C92.9258 38.3343 93.083 38.0085 93.2061 37.6621C93.3245 37.3158 93.4134 36.9557 93.4727 36.582C93.5319 36.2083 93.5638 35.8369 93.5684 35.4678ZM92.3105 34.5791V35.4678C92.306 35.7184 92.29 35.9805 92.2627 36.2539C92.2399 36.5228 92.1966 36.7894 92.1328 37.0537C92.0645 37.318 91.9756 37.5687 91.8662 37.8057C91.7568 38.0426 91.6178 38.25 91.4492 38.4277C91.2806 38.61 91.0778 38.7559 90.8408 38.8652C90.6084 38.9701 90.335 39.0225 90.0205 39.0225C89.7106 39.0225 89.4372 38.9701 89.2002 38.8652C88.9678 38.7559 88.7673 38.61 88.5986 38.4277C88.43 38.2454 88.2887 38.0358 88.1748 37.7988C88.0654 37.5618 87.9766 37.3112 87.9082 37.0469C87.8398 36.7826 87.7897 36.516 87.7578 36.2471C87.7305 35.9736 87.7168 35.7139 87.7168 35.4678V34.5791C87.7168 34.333 87.7305 34.0755 87.7578 33.8066C87.7897 33.5332 87.8398 33.2643 87.9082 33C87.9766 32.7402 88.0654 32.4919 88.1748 32.2549C88.2887 32.0179 88.43 31.8083 88.5986 31.626C88.7673 31.4482 88.9678 31.307 89.2002 31.2021C89.4326 31.0928 89.7038 31.0381 90.0137 31.0381C90.3281 31.0381 90.6016 31.0905 90.834 31.1953C91.071 31.3001 91.2738 31.4414 91.4424 31.6191C91.611 31.8014 91.75 32.0111 91.8594 32.248C91.9733 32.485 92.0645 32.7334 92.1328 32.9932C92.1966 33.2575 92.2399 33.5264 92.2627 33.7998C92.29 34.0687 92.306 34.3285 92.3105 34.5791Z" fill="#F2B8B8"/>
</g>
<defs>
<filter id="filter0_d" x="0" y="0" width="164" height="73" filterUnits="userSpaceOnUse" color-interpolation-filters="sRGB">
<feFlood flood-opacity="0" result="BackgroundImageFix"/>
<feColorMatrix in="SourceAlpha" type="matrix" values="0 0 0 0 0 0 0 0 0 0 0 0 0 0 0 0 0 0 127 0"/>
<feOffset dy="3"/>
<feColorMatrix type="matrix" values="0 0 0 0 0.920833 0 0 0 0 0.306944 0 0 0 0 0.306944 0 0 0 1 0"/>
<feBlend mode="normal" in2="BackgroundImageFix" result="effect1_dropShadow"/>
<feBlend mode="normal" in="SourceGraphic" in2="effect1_dropShadow" result="shape"/>
</filter>
</defs>
</svg>
