<svg width="160" height="73" viewBox="0 0 160 73" fill="none" xmlns="http://www.w3.org/2000/svg">
<g filter="url(#filter0_d)">
<rect width="160" height="70" rx="5" fill="#C00000"/>
<path d="M73.7266 35.6045V34.5312H69.584V31.127H74.417V30.0469H68.3057V40H69.584V35.6045H73.7266ZM81.3486 37.4229L82.1348 40H83.3926L80.2344 30.0469H79.1748L75.9619 40H77.2266L78.0264 37.4229H81.3486ZM78.3682 36.3223L79.7012 32.002L81.0137 36.3223H78.3682ZM91.5684 35.4678V34.5928C91.5638 34.2282 91.5319 33.859 91.4727 33.4854C91.4134 33.1071 91.3245 32.7448 91.2061 32.3984C91.083 32.0521 90.9258 31.7285 90.7344 31.4277C90.5475 31.1224 90.3242 30.8581 90.0645 30.6348C89.8001 30.4115 89.4971 30.236 89.1553 30.1084C88.818 29.9762 88.4375 29.9102 88.0137 29.9102C87.5898 29.9102 87.207 29.9762 86.8652 30.1084C86.528 30.236 86.2295 30.4115 85.9697 30.6348C85.7054 30.8626 85.4798 31.1292 85.293 31.4346C85.1061 31.7354 84.9512 32.0589 84.8281 32.4053C84.7051 32.7516 84.6139 33.1117 84.5547 33.4854C84.4954 33.859 84.4635 34.2282 84.459 34.5928V35.4678C84.4635 35.8324 84.4954 36.2015 84.5547 36.5752C84.6139 36.9443 84.7051 37.3021 84.8281 37.6484C84.9512 37.9948 85.1084 38.3206 85.2998 38.626C85.4912 38.9268 85.7191 39.1888 85.9834 39.4121C86.2432 39.6354 86.5417 39.8132 86.8789 39.9453C87.2161 40.0729 87.5967 40.1367 88.0205 40.1367C88.1846 40.1367 88.3418 40.1253 88.4922 40.1025C88.6471 40.0843 88.7952 40.0547 88.9365 40.0137L90.9053 41.6816L91.7734 40.8545L90.0576 39.4258C90.3219 39.2025 90.5475 38.9404 90.7344 38.6396C90.9258 38.3343 91.083 38.0085 91.2061 37.6621C91.3245 37.3158 91.4134 36.9557 91.4727 36.582C91.5319 36.2083 91.5638 35.8369 91.5684 35.4678ZM90.3105 34.5791V35.4678C90.306 35.7184 90.29 35.9805 90.2627 36.2539C90.2399 36.5228 90.1966 36.7894 90.1328 37.0537C90.0645 37.318 89.9756 37.5687 89.8662 37.8057C89.7568 38.0426 89.6178 38.25 89.4492 38.4277C89.2806 38.61 89.0778 38.7559 88.8408 38.8652C88.6084 38.9701 88.335 39.0225 88.0205 39.0225C87.7106 39.0225 87.4372 38.9701 87.2002 38.8652C86.9678 38.7559 86.7673 38.61 86.5986 38.4277C86.43 38.2454 86.2887 38.0358 86.1748 37.7988C86.0654 37.5618 85.9766 37.3112 85.9082 37.0469C85.8398 36.7826 85.7897 36.516 85.7578 36.2471C85.7305 35.9736 85.7168 35.7139 85.7168 35.4678V34.5791C85.7168 34.333 85.7305 34.0755 85.7578 33.8066C85.7897 33.5332 85.8398 33.2643 85.9082 33C85.9766 32.7402 86.0654 32.4919 86.1748 32.2549C86.2887 32.0179 86.43 31.8083 86.5986 31.626C86.7673 31.4482 86.9678 31.307 87.2002 31.2021C87.4326 31.0928 87.7038 31.0381 88.0137 31.0381C88.3281 31.0381 88.6016 31.0905 88.834 31.1953C89.071 31.3001 89.2738 31.4414 89.4424 31.6191C89.611 31.8014 89.75 32.0111 89.8594 32.248C89.9733 32.485 90.0645 32.7334 90.1328 32.9932C90.1966 33.2575 90.2399 33.5264 90.2627 33.7998C90.29 34.0687 90.306 34.3285 90.3105 34.5791Z" fill="#F2B8B8"/>
</g>
<defs>
<filter id="filter0_d" x="0" y="0" width="160" height="73" filterUnits="userSpaceOnUse" color-interpolation-filters="sRGB">
<feFlood flood-opacity="0" result="BackgroundImageFix"/>
<feColorMatrix in="SourceAlpha" type="matrix" values="0 0 0 0 0 0 0 0 0 0 0 0 0 0 0 0 0 0 127 0"/>
<feOffset dy="3"/>
<feColorMatrix type="matrix" values="0 0 0 0 0.920833 0 0 0 0 0.306944 0 0 0 0 0.306944 0 0 0 1 0"/>
<feBlend mode="normal" in2="BackgroundImageFix" result="effect1_dropShadow"/>
<feBlend mode="normal" in="SourceGraphic" in2="effect1_dropShadow" result="shape"/>
</filter>
</defs>
</svg>
