<svg width="150" height="96" viewBox="0 0 150 96" fill="none" xmlns="http://www.w3.org/2000/svg">
<rect x="0.5" y="0.5" width="149" height="95" rx="4.5" stroke="#DDD4D4"/>
<path d="M68.6445 32.6045H64.4678V37H63.1553V27.0469H69.3213V28.127H64.4678V31.5312H68.6445V32.6045ZM75.2275 34.4023H71.0576L70.1211 37H68.7676L72.5684 27.0469H73.7168L77.5244 37H76.1777L75.2275 34.4023ZM71.4541 33.3223H74.8379L73.1426 28.667L71.4541 33.3223ZM86.3838 32.3447C86.3838 33.3063 86.2311 34.1357 85.9258 34.833C85.6204 35.5257 85.1921 36.068 84.6406 36.46L86.418 37.8545L85.5225 38.6816L83.4238 37.0137C83.0957 37.0957 82.7493 37.1367 82.3848 37.1367C81.6009 37.1367 80.9059 36.9453 80.2998 36.5625C79.6937 36.1751 79.222 35.626 78.8848 34.915C78.5521 34.1995 78.3812 33.3724 78.3721 32.4336V31.7158C78.3721 30.7588 78.5384 29.9134 78.8711 29.1797C79.2038 28.446 79.6732 27.8854 80.2793 27.498C80.89 27.1061 81.5872 26.9102 82.3711 26.9102C83.1732 26.9102 83.8773 27.1038 84.4834 27.4912C85.0941 27.8786 85.5635 28.4368 85.8916 29.166C86.2197 29.8906 86.3838 30.7383 86.3838 31.709V32.3447ZM85.0713 31.7021C85.0713 30.5309 84.8366 29.6286 84.3672 28.9951C83.9023 28.3571 83.237 28.0381 82.3711 28.0381C81.5462 28.0381 80.8945 28.3548 80.416 28.9883C79.9421 29.6172 79.6982 30.4922 79.6846 31.6133V32.3447C79.6846 33.484 79.9215 34.3818 80.3955 35.0381C80.874 35.6943 81.5371 36.0225 82.3848 36.0225C83.2324 36.0225 83.8887 35.7148 84.3535 35.0996C84.8184 34.4798 85.0576 33.5934 85.0713 32.4404V31.7021Z" fill="#FF5722"/>
<path d="M18.7461 52.8604H15.7627V56H14.8252V48.8906H19.2295V49.6621H15.7627V52.0938H18.7461V52.8604ZM22.6377 51.5273C22.501 51.5046 22.3529 51.4932 22.1934 51.4932C21.6009 51.4932 21.1989 51.7454 20.9873 52.25V56H20.084V50.7168H20.9629L20.9775 51.3271C21.2738 50.8551 21.6937 50.6191 22.2373 50.6191C22.4131 50.6191 22.5465 50.6419 22.6377 50.6875V51.5273ZM25.5674 56.0977C24.8512 56.0977 24.2686 55.8633 23.8193 55.3945C23.3701 54.9225 23.1455 54.2926 23.1455 53.5049V53.3389C23.1455 52.8148 23.2448 52.3477 23.4434 51.9375C23.6452 51.5241 23.9251 51.2018 24.2832 50.9707C24.6445 50.7363 25.0352 50.6191 25.4551 50.6191C26.1419 50.6191 26.6758 50.8454 27.0566 51.2979C27.4375 51.7503 27.6279 52.3981 27.6279 53.2412V53.6172H24.0488C24.0618 54.138 24.2132 54.5596 24.5029 54.8818C24.7959 55.2008 25.167 55.3604 25.6162 55.3604C25.9352 55.3604 26.2054 55.2952 26.4268 55.165C26.6481 55.0348 26.8418 54.8623 27.0078 54.6475L27.5596 55.0771C27.1169 55.7575 26.4528 56.0977 25.5674 56.0977ZM25.4551 51.3613C25.0905 51.3613 24.7845 51.4948 24.5371 51.7617C24.2897 52.0254 24.1367 52.3965 24.0781 52.875H26.7246V52.8066C26.6986 52.3477 26.5749 51.9928 26.3535 51.7422C26.1322 51.4883 25.8327 51.3613 25.4551 51.3613ZM28.458 53.3145C28.458 52.4844 28.6484 51.8285 29.0293 51.3467C29.4102 50.8617 29.9212 50.6191 30.5625 50.6191C31.1875 50.6191 31.6807 50.8291 32.042 51.249L32.0811 50.7168H32.9111V58.0312H32.0078V55.5117C31.6432 55.9023 31.1582 56.0977 30.5527 56.0977C29.9147 56.0977 29.4053 55.8503 29.0244 55.3555C28.6468 54.8574 28.458 54.1982 28.458 53.3779V53.3145ZM29.3613 53.417C29.3613 54.0225 29.4883 54.4977 29.7422 54.8428C29.9993 55.1878 30.3444 55.3604 30.7773 55.3604C31.3145 55.3604 31.7246 55.1227 32.0078 54.6475V52.0596C31.7214 51.5941 31.3145 51.3613 30.7871 51.3613C30.3509 51.3613 30.0042 51.5355 29.7471 51.8838C29.4899 52.2288 29.3613 52.7399 29.3613 53.417ZM37.623 55.4775C37.2715 55.891 36.7555 56.0977 36.0752 56.0977C35.512 56.0977 35.0824 55.9349 34.7861 55.6094C34.4932 55.2806 34.3451 54.7956 34.3418 54.1543V50.7168H35.2451V54.1299C35.2451 54.9307 35.5706 55.3311 36.2217 55.3311C36.9118 55.3311 37.3708 55.0739 37.5986 54.5596V50.7168H38.502V56H37.6426L37.623 55.4775ZM42.0713 56.0977C41.3551 56.0977 40.7725 55.8633 40.3232 55.3945C39.874 54.9225 39.6494 54.2926 39.6494 53.5049V53.3389C39.6494 52.8148 39.7487 52.3477 39.9473 51.9375C40.1491 51.5241 40.429 51.2018 40.7871 50.9707C41.1484 50.7363 41.5391 50.6191 41.959 50.6191C42.6458 50.6191 43.1797 50.8454 43.5605 51.2979C43.9414 51.7503 44.1318 52.3981 44.1318 53.2412V53.6172H40.5527C40.5658 54.138 40.7171 54.5596 41.0068 54.8818C41.2998 55.2008 41.6709 55.3604 42.1201 55.3604C42.4391 55.3604 42.7093 55.2952 42.9307 55.165C43.152 55.0348 43.3457 54.8623 43.5117 54.6475L44.0635 55.0771C43.6208 55.7575 42.9567 56.0977 42.0713 56.0977ZM41.959 51.3613C41.5944 51.3613 41.2884 51.4948 41.041 51.7617C40.7936 52.0254 40.6406 52.3965 40.582 52.875H43.2285V52.8066C43.2025 52.3477 43.0788 51.9928 42.8574 51.7422C42.6361 51.4883 42.3366 51.3613 41.959 51.3613ZM46.0361 50.7168L46.0654 51.3809C46.4691 50.873 46.9964 50.6191 47.6475 50.6191C48.764 50.6191 49.3271 51.249 49.3369 52.5088V56H48.4336V52.5039C48.4303 52.123 48.3424 51.8415 48.1699 51.6592C48.0007 51.4769 47.7354 51.3857 47.374 51.3857C47.0811 51.3857 46.8239 51.4639 46.6025 51.6201C46.3812 51.7764 46.2087 51.9814 46.085 52.2354V56H45.1816V50.7168H46.0361ZM51.9248 49.4375V50.7168H52.9111V51.415H51.9248V54.6914C51.9248 54.903 51.9688 55.0625 52.0566 55.1699C52.1445 55.2741 52.2943 55.3262 52.5059 55.3262C52.61 55.3262 52.7533 55.3066 52.9355 55.2676V56C52.6979 56.0651 52.4668 56.0977 52.2422 56.0977C51.8385 56.0977 51.5342 55.9756 51.3291 55.7314C51.124 55.4873 51.0215 55.1406 51.0215 54.6914V51.415H50.0596V50.7168H51.0215V49.4375H51.9248ZM54.9521 56H54.0488V48.5H54.9521V56ZM58.1309 54.6768L59.3613 50.7168H60.3281L58.2041 56.8154C57.8753 57.6943 57.3529 58.1338 56.6367 58.1338L56.4658 58.1191L56.1289 58.0557V57.3232L56.373 57.3428C56.679 57.3428 56.9167 57.2809 57.0859 57.1572C57.2585 57.0335 57.4001 56.8073 57.5107 56.4785L57.7109 55.9414L55.8262 50.7168H56.8125L58.1309 54.6768ZM66.8809 56C66.8288 55.8958 66.7865 55.7103 66.7539 55.4434C66.334 55.8796 65.8327 56.0977 65.25 56.0977C64.7292 56.0977 64.3011 55.9512 63.9658 55.6582C63.6338 55.362 63.4678 54.9876 63.4678 54.5352C63.4678 53.985 63.6761 53.5586 64.0928 53.2559C64.5127 52.9499 65.1019 52.7969 65.8604 52.7969H66.7393V52.3818C66.7393 52.0661 66.6449 51.8154 66.4561 51.6299C66.2673 51.4411 65.9889 51.3467 65.6211 51.3467C65.2988 51.3467 65.0286 51.4281 64.8105 51.5908C64.5924 51.7536 64.4834 51.9505 64.4834 52.1816H63.5752C63.5752 51.918 63.668 51.6641 63.8535 51.4199C64.0423 51.1725 64.2962 50.9772 64.6152 50.834C64.9375 50.6908 65.2907 50.6191 65.6748 50.6191C66.2835 50.6191 66.7604 50.7721 67.1055 51.0781C67.4505 51.3809 67.6296 51.7992 67.6426 52.333V54.7646C67.6426 55.2497 67.7044 55.6354 67.8281 55.9219V56H66.8809ZM65.3818 55.3115C65.665 55.3115 65.9336 55.2383 66.1875 55.0918C66.4414 54.9453 66.6253 54.7549 66.7393 54.5205V53.4365H66.0312C64.9245 53.4365 64.3711 53.7604 64.3711 54.4082C64.3711 54.6914 64.4655 54.9128 64.6543 55.0723C64.8431 55.2318 65.0856 55.3115 65.3818 55.3115ZM72.1348 54.5986C72.1348 54.3545 72.042 54.1657 71.8564 54.0322C71.6742 53.8955 71.3535 53.7783 70.8945 53.6807C70.4388 53.583 70.0758 53.4658 69.8057 53.3291C69.5387 53.1924 69.3402 53.0296 69.21 52.8408C69.083 52.652 69.0195 52.4274 69.0195 52.167C69.0195 51.734 69.2018 51.3678 69.5664 51.0684C69.9342 50.7689 70.403 50.6191 70.9727 50.6191C71.5716 50.6191 72.0566 50.7738 72.4277 51.083C72.8021 51.3923 72.9893 51.7878 72.9893 52.2695H72.0811C72.0811 52.0221 71.9753 51.8089 71.7637 51.6299C71.5553 51.4508 71.2917 51.3613 70.9727 51.3613C70.6439 51.3613 70.3867 51.4329 70.2012 51.5762C70.0156 51.7194 69.9229 51.9066 69.9229 52.1377C69.9229 52.3558 70.0091 52.5202 70.1816 52.6309C70.3542 52.7415 70.665 52.8473 71.1143 52.9482C71.5667 53.0492 71.9329 53.1696 72.2129 53.3096C72.4928 53.4495 72.6995 53.6188 72.833 53.8174C72.9697 54.0127 73.0381 54.252 73.0381 54.5352C73.0381 55.0072 72.8493 55.3864 72.4717 55.6729C72.0941 55.9561 71.6042 56.0977 71.002 56.0977C70.5788 56.0977 70.2044 56.0228 69.8789 55.873C69.5534 55.7233 69.2979 55.515 69.1123 55.248C68.93 54.9779 68.8389 54.6865 68.8389 54.374H69.7422C69.7585 54.6768 69.8789 54.9176 70.1035 55.0967C70.3314 55.2725 70.6309 55.3604 71.002 55.3604C71.3438 55.3604 71.6172 55.292 71.8223 55.1553C72.0306 55.0153 72.1348 54.8298 72.1348 54.5986ZM75.6895 53.5537L75.123 54.1445V56H74.2197V48.5H75.123V53.0361L75.6064 52.4551L77.252 50.7168H78.3506L76.2949 52.9238L78.5898 56H77.5303L75.6895 53.5537ZM81.3779 56.0977C80.6618 56.0977 80.0791 55.8633 79.6299 55.3945C79.1807 54.9225 78.9561 54.2926 78.9561 53.5049V53.3389C78.9561 52.8148 79.0553 52.3477 79.2539 51.9375C79.4557 51.5241 79.7357 51.2018 80.0938 50.9707C80.4551 50.7363 80.8457 50.6191 81.2656 50.6191C81.9525 50.6191 82.4863 50.8454 82.8672 51.2979C83.248 51.7503 83.4385 52.3981 83.4385 53.2412V53.6172H79.8594C79.8724 54.138 80.0238 54.5596 80.3135 54.8818C80.6064 55.2008 80.9775 55.3604 81.4268 55.3604C81.7458 55.3604 82.016 55.2952 82.2373 55.165C82.4587 55.0348 82.6523 54.8623 82.8184 54.6475L83.3701 55.0771C82.9274 55.7575 82.2633 56.0977 81.3779 56.0977ZM81.2656 51.3613C80.901 51.3613 80.5951 51.4948 80.3477 51.7617C80.1003 52.0254 79.9473 52.3965 79.8887 52.875H82.5352V52.8066C82.5091 52.3477 82.3854 51.9928 82.1641 51.7422C81.9427 51.4883 81.6432 51.3613 81.2656 51.3613ZM84.2686 53.3145C84.2686 52.5039 84.4606 51.8529 84.8447 51.3613C85.2288 50.8665 85.7318 50.6191 86.3535 50.6191C86.972 50.6191 87.4619 50.8307 87.8232 51.2539V48.5H88.7266V56H87.8965L87.8525 55.4336C87.4912 55.8763 86.9883 56.0977 86.3438 56.0977C85.7318 56.0977 85.2321 55.847 84.8447 55.3457C84.4606 54.8444 84.2686 54.1901 84.2686 53.3828V53.3145ZM85.1719 53.417C85.1719 54.016 85.2956 54.4847 85.543 54.8232C85.7904 55.1618 86.1322 55.3311 86.5684 55.3311C87.1413 55.3311 87.5596 55.0739 87.8232 54.5596V52.1328C87.5531 51.6348 87.138 51.3857 86.5781 51.3857C86.1354 51.3857 85.7904 51.5566 85.543 51.8984C85.2956 52.2402 85.1719 52.7464 85.1719 53.417ZM92.3936 53.3145C92.3936 52.4844 92.584 51.8285 92.9648 51.3467C93.3457 50.8617 93.8568 50.6191 94.498 50.6191C95.123 50.6191 95.6162 50.8291 95.9775 51.249L96.0166 50.7168H96.8467V58.0312H95.9434V55.5117C95.5788 55.9023 95.0938 56.0977 94.4883 56.0977C93.8503 56.0977 93.3408 55.8503 92.96 55.3555C92.5824 54.8574 92.3936 54.1982 92.3936 53.3779V53.3145ZM93.2969 53.417C93.2969 54.0225 93.4238 54.4977 93.6777 54.8428C93.9349 55.1878 94.2799 55.3604 94.7129 55.3604C95.25 55.3604 95.6602 55.1227 95.9434 54.6475V52.0596C95.6569 51.5941 95.25 51.3613 94.7227 51.3613C94.2865 51.3613 93.9398 51.5355 93.6826 51.8838C93.4255 52.2288 93.2969 52.7399 93.2969 53.417ZM101.559 55.4775C101.207 55.891 100.691 56.0977 100.011 56.0977C99.4476 56.0977 99.0179 55.9349 98.7217 55.6094C98.4287 55.2806 98.2806 54.7956 98.2773 54.1543V50.7168H99.1807V54.1299C99.1807 54.9307 99.5062 55.3311 100.157 55.3311C100.847 55.3311 101.306 55.0739 101.534 54.5596V50.7168H102.438V56H101.578L101.559 55.4775ZM106.007 56.0977C105.291 56.0977 104.708 55.8633 104.259 55.3945C103.81 54.9225 103.585 54.2926 103.585 53.5049V53.3389C103.585 52.8148 103.684 52.3477 103.883 51.9375C104.085 51.5241 104.365 51.2018 104.723 50.9707C105.084 50.7363 105.475 50.6191 105.895 50.6191C106.581 50.6191 107.115 50.8454 107.496 51.2979C107.877 51.7503 108.067 52.3981 108.067 53.2412V53.6172H104.488C104.501 54.138 104.653 54.5596 104.942 54.8818C105.235 55.2008 105.606 55.3604 106.056 55.3604C106.375 55.3604 106.645 55.2952 106.866 55.165C107.088 55.0348 107.281 54.8623 107.447 54.6475L107.999 55.0771C107.556 55.7575 106.892 56.0977 106.007 56.0977ZM105.895 51.3613C105.53 51.3613 105.224 51.4948 104.977 51.7617C104.729 52.0254 104.576 52.3965 104.518 52.875H107.164V52.8066C107.138 52.3477 107.014 51.9928 106.793 51.7422C106.572 51.4883 106.272 51.3613 105.895 51.3613ZM112.193 54.5986C112.193 54.3545 112.101 54.1657 111.915 54.0322C111.733 53.8955 111.412 53.7783 110.953 53.6807C110.497 53.583 110.134 53.4658 109.864 53.3291C109.597 53.1924 109.399 53.0296 109.269 52.8408C109.142 52.652 109.078 52.4274 109.078 52.167C109.078 51.734 109.26 51.3678 109.625 51.0684C109.993 50.7689 110.462 50.6191 111.031 50.6191C111.63 50.6191 112.115 50.7738 112.486 51.083C112.861 51.3923 113.048 51.7878 113.048 52.2695H112.14C112.14 52.0221 112.034 51.8089 111.822 51.6299C111.614 51.4508 111.35 51.3613 111.031 51.3613C110.702 51.3613 110.445 51.4329 110.26 51.5762C110.074 51.7194 109.981 51.9066 109.981 52.1377C109.981 52.3558 110.068 52.5202 110.24 52.6309C110.413 52.7415 110.724 52.8473 111.173 52.9482C111.625 53.0492 111.992 53.1696 112.271 53.3096C112.551 53.4495 112.758 53.6188 112.892 53.8174C113.028 54.0127 113.097 54.252 113.097 54.5352C113.097 55.0072 112.908 55.3864 112.53 55.6729C112.153 55.9561 111.663 56.0977 111.061 56.0977C110.637 56.0977 110.263 56.0228 109.938 55.873C109.612 55.7233 109.356 55.515 109.171 55.248C108.989 54.9779 108.897 54.6865 108.897 54.374H109.801C109.817 54.6768 109.938 54.9176 110.162 55.0967C110.39 55.2725 110.689 55.3604 111.061 55.3604C111.402 55.3604 111.676 55.292 111.881 55.1553C112.089 55.0153 112.193 54.8298 112.193 54.5986ZM115.499 49.4375V50.7168H116.485V51.415H115.499V54.6914C115.499 54.903 115.543 55.0625 115.631 55.1699C115.719 55.2741 115.868 55.3262 116.08 55.3262C116.184 55.3262 116.327 55.3066 116.51 55.2676V56C116.272 56.0651 116.041 56.0977 115.816 56.0977C115.413 56.0977 115.108 55.9756 114.903 55.7314C114.698 55.4873 114.596 55.1406 114.596 54.6914V51.415H113.634V50.7168H114.596V49.4375H115.499ZM118.526 56H117.623V50.7168H118.526V56ZM117.55 49.3154C117.55 49.1689 117.594 49.0452 117.682 48.9443C117.773 48.8434 117.906 48.793 118.082 48.793C118.258 48.793 118.391 48.8434 118.482 48.9443C118.574 49.0452 118.619 49.1689 118.619 49.3154C118.619 49.4619 118.574 49.584 118.482 49.6816C118.391 49.7793 118.258 49.8281 118.082 49.8281C117.906 49.8281 117.773 49.7793 117.682 49.6816C117.594 49.584 117.55 49.4619 117.55 49.3154ZM119.737 53.3096C119.737 52.792 119.838 52.3265 120.04 51.9131C120.245 51.4997 120.528 51.1807 120.89 50.9561C121.254 50.7314 121.669 50.6191 122.135 50.6191C122.854 50.6191 123.435 50.8682 123.878 51.3662C124.324 51.8643 124.547 52.5267 124.547 53.3535V53.417C124.547 53.9313 124.448 54.3936 124.249 54.8037C124.054 55.2106 123.772 55.528 123.404 55.7559C123.04 55.9837 122.62 56.0977 122.145 56.0977C121.428 56.0977 120.847 55.8486 120.401 55.3506C119.959 54.8525 119.737 54.1934 119.737 53.373V53.3096ZM120.646 53.417C120.646 54.0029 120.781 54.4733 121.051 54.8281C121.324 55.1829 121.689 55.3604 122.145 55.3604C122.604 55.3604 122.968 55.1813 123.238 54.8232C123.508 54.4619 123.644 53.9574 123.644 53.3096C123.644 52.7301 123.505 52.2614 123.229 51.9033C122.955 51.542 122.59 51.3613 122.135 51.3613C121.689 51.3613 121.329 51.5387 121.056 51.8936C120.782 52.2484 120.646 52.7562 120.646 53.417ZM126.534 50.7168L126.563 51.3809C126.967 50.873 127.494 50.6191 128.146 50.6191C129.262 50.6191 129.825 51.249 129.835 52.5088V56H128.932V52.5039C128.928 52.123 128.84 51.8415 128.668 51.6592C128.499 51.4769 128.233 51.3857 127.872 51.3857C127.579 51.3857 127.322 51.4639 127.101 51.6201C126.879 51.7764 126.707 51.9814 126.583 52.2354V56H125.68V50.7168H126.534ZM134.273 54.5986C134.273 54.3545 134.181 54.1657 133.995 54.0322C133.813 53.8955 133.492 53.7783 133.033 53.6807C132.577 53.583 132.215 53.4658 131.944 53.3291C131.677 53.1924 131.479 53.0296 131.349 52.8408C131.222 52.652 131.158 52.4274 131.158 52.167C131.158 51.734 131.34 51.3678 131.705 51.0684C132.073 50.7689 132.542 50.6191 133.111 50.6191C133.71 50.6191 134.195 50.7738 134.566 51.083C134.941 51.3923 135.128 51.7878 135.128 52.2695H134.22C134.22 52.0221 134.114 51.8089 133.902 51.6299C133.694 51.4508 133.43 51.3613 133.111 51.3613C132.783 51.3613 132.525 51.4329 132.34 51.5762C132.154 51.7194 132.062 51.9066 132.062 52.1377C132.062 52.3558 132.148 52.5202 132.32 52.6309C132.493 52.7415 132.804 52.8473 133.253 52.9482C133.705 53.0492 134.072 53.1696 134.352 53.3096C134.632 53.4495 134.838 53.6188 134.972 53.8174C135.108 54.0127 135.177 54.252 135.177 54.5352C135.177 55.0072 134.988 55.3864 134.61 55.6729C134.233 55.9561 133.743 56.0977 133.141 56.0977C132.717 56.0977 132.343 56.0228 132.018 55.873C131.692 55.7233 131.437 55.515 131.251 55.248C131.069 54.9779 130.978 54.6865 130.978 54.374H131.881C131.897 54.6768 132.018 54.9176 132.242 55.0967C132.47 55.2725 132.77 55.3604 133.141 55.3604C133.482 55.3604 133.756 55.292 133.961 55.1553C134.169 55.0153 134.273 54.8298 134.273 54.5986ZM17.9453 68C17.8932 67.8958 17.8509 67.7103 17.8184 67.4434C17.3984 67.8796 16.8971 68.0977 16.3145 68.0977C15.7936 68.0977 15.3656 67.9512 15.0303 67.6582C14.6982 67.362 14.5322 66.9876 14.5322 66.5352C14.5322 65.985 14.7406 65.5586 15.1572 65.2559C15.5771 64.9499 16.1663 64.7969 16.9248 64.7969H17.8037V64.3818C17.8037 64.0661 17.7093 63.8154 17.5205 63.6299C17.3317 63.4411 17.0534 63.3467 16.6855 63.3467C16.3633 63.3467 16.0931 63.4281 15.875 63.5908C15.6569 63.7536 15.5479 63.9505 15.5479 64.1816H14.6396C14.6396 63.918 14.7324 63.6641 14.918 63.4199C15.1068 63.1725 15.3607 62.9772 15.6797 62.834C16.002 62.6908 16.3551 62.6191 16.7393 62.6191C17.348 62.6191 17.8249 62.7721 18.1699 63.0781C18.515 63.3809 18.694 63.7992 18.707 64.333V66.7646C18.707 67.2497 18.7689 67.6354 18.8926 67.9219V68H17.9453ZM16.4463 67.3115C16.7295 67.3115 16.998 67.2383 17.252 67.0918C17.5059 66.9453 17.6898 66.7549 17.8037 66.5205V65.4365H17.0957C15.9889 65.4365 15.4355 65.7604 15.4355 66.4082C15.4355 66.6914 15.5299 66.9128 15.7188 67.0723C15.9076 67.2318 16.1501 67.3115 16.4463 67.3115ZM24.5957 65.417C24.5957 66.2243 24.4102 66.8737 24.0391 67.3652C23.668 67.8535 23.1699 68.0977 22.5449 68.0977C21.8776 68.0977 21.3617 67.8617 20.9971 67.3896L20.9531 68H20.123V60.5H21.0264V63.2979C21.391 62.8454 21.8939 62.6191 22.5352 62.6191C23.1764 62.6191 23.6794 62.8617 24.0439 63.3467C24.4118 63.8317 24.5957 64.4958 24.5957 65.3389V65.417ZM23.6924 65.3145C23.6924 64.6992 23.5736 64.224 23.3359 63.8887C23.0983 63.5534 22.7565 63.3857 22.3105 63.3857C21.7148 63.3857 21.2868 63.6624 21.0264 64.2158V66.501C21.3031 67.0544 21.7344 67.3311 22.3203 67.3311C22.7533 67.3311 23.0902 67.1634 23.3311 66.8281C23.5719 66.4928 23.6924 65.9883 23.6924 65.3145ZM25.499 65.3096C25.499 64.792 25.5999 64.3265 25.8018 63.9131C26.0068 63.4997 26.29 63.1807 26.6514 62.9561C27.016 62.7314 27.431 62.6191 27.8965 62.6191C28.6159 62.6191 29.1969 62.8682 29.6396 63.3662C30.0856 63.8643 30.3086 64.5267 30.3086 65.3535V65.417C30.3086 65.9313 30.2093 66.3936 30.0107 66.8037C29.8154 67.2106 29.5339 67.528 29.166 67.7559C28.8014 67.9837 28.3815 68.0977 27.9062 68.0977C27.1901 68.0977 26.609 67.8486 26.1631 67.3506C25.7204 66.8525 25.499 66.1934 25.499 65.373V65.3096ZM26.4072 65.417C26.4072 66.0029 26.5423 66.4733 26.8125 66.8281C27.0859 67.1829 27.4505 67.3604 27.9062 67.3604C28.3652 67.3604 28.7298 67.1813 29 66.8232C29.2702 66.4619 29.4053 65.9574 29.4053 65.3096C29.4053 64.7301 29.2669 64.2614 28.9902 63.9033C28.7168 63.542 28.3522 63.3613 27.8965 63.3613C27.4505 63.3613 27.0908 63.5387 26.8174 63.8936C26.5439 64.2484 26.4072 64.7562 26.4072 65.417ZM34.7031 67.4775C34.3516 67.891 33.8356 68.0977 33.1553 68.0977C32.5921 68.0977 32.1624 67.9349 31.8662 67.6094C31.5732 67.2806 31.4251 66.7956 31.4219 66.1543V62.7168H32.3252V66.1299C32.3252 66.9307 32.6507 67.3311 33.3018 67.3311C33.9919 67.3311 34.4508 67.0739 34.6787 66.5596V62.7168H35.582V68H34.7227L34.7031 67.4775ZM38.1846 61.4375V62.7168H39.1709V63.415H38.1846V66.6914C38.1846 66.903 38.2285 67.0625 38.3164 67.1699C38.4043 67.2741 38.554 67.3262 38.7656 67.3262C38.8698 67.3262 39.013 67.3066 39.1953 67.2676V68C38.9577 68.0651 38.7266 68.0977 38.502 68.0977C38.0983 68.0977 37.7939 67.9756 37.5889 67.7314C37.3838 67.4873 37.2812 67.1406 37.2812 66.6914V63.415H36.3193V62.7168H37.2812V61.4375H38.1846ZM43.9365 61.4375V62.7168H44.9229V63.415H43.9365V66.6914C43.9365 66.903 43.9805 67.0625 44.0684 67.1699C44.1562 67.2741 44.306 67.3262 44.5176 67.3262C44.6217 67.3262 44.765 67.3066 44.9473 67.2676V68C44.7096 68.0651 44.4785 68.0977 44.2539 68.0977C43.8503 68.0977 43.5459 67.9756 43.3408 67.7314C43.1357 67.4873 43.0332 67.1406 43.0332 66.6914V63.415H42.0713V62.7168H43.0332V61.4375H43.9365ZM46.8857 63.3564C47.2861 62.8649 47.807 62.6191 48.4482 62.6191C49.5648 62.6191 50.1279 63.249 50.1377 64.5088V68H49.2344V64.5039C49.2311 64.123 49.1432 63.8415 48.9707 63.6592C48.8014 63.4769 48.5361 63.3857 48.1748 63.3857C47.8818 63.3857 47.6247 63.4639 47.4033 63.6201C47.182 63.7764 47.0094 63.9814 46.8857 64.2354V68H45.9824V60.5H46.8857V63.3564ZM53.6826 68.0977C52.9665 68.0977 52.3838 67.8633 51.9346 67.3945C51.4854 66.9225 51.2607 66.2926 51.2607 65.5049V65.3389C51.2607 64.8148 51.36 64.3477 51.5586 63.9375C51.7604 63.5241 52.0404 63.2018 52.3984 62.9707C52.7598 62.7363 53.1504 62.6191 53.5703 62.6191C54.2572 62.6191 54.791 62.8454 55.1719 63.2979C55.5527 63.7503 55.7432 64.3981 55.7432 65.2412V65.6172H52.1641C52.1771 66.138 52.3285 66.5596 52.6182 66.8818C52.9111 67.2008 53.2822 67.3604 53.7314 67.3604C54.0505 67.3604 54.3206 67.2952 54.542 67.165C54.7633 67.0348 54.957 66.8623 55.123 66.6475L55.6748 67.0771C55.2321 67.7575 54.568 68.0977 53.6826 68.0977ZM53.5703 63.3613C53.2057 63.3613 52.8997 63.4948 52.6523 63.7617C52.4049 64.0254 52.252 64.3965 52.1934 64.875H54.8398V64.8066C54.8138 64.3477 54.6901 63.9928 54.4688 63.7422C54.2474 63.4883 53.9479 63.3613 53.5703 63.3613ZM59.0537 65.3145C59.0537 64.5039 59.2458 63.8529 59.6299 63.3613C60.014 62.8665 60.5169 62.6191 61.1387 62.6191C61.7572 62.6191 62.2471 62.8307 62.6084 63.2539V60.5H63.5117V68H62.6816L62.6377 67.4336C62.2764 67.8763 61.7734 68.0977 61.1289 68.0977C60.5169 68.0977 60.0173 67.847 59.6299 67.3457C59.2458 66.8444 59.0537 66.1901 59.0537 65.3828V65.3145ZM59.957 65.417C59.957 66.016 60.0807 66.4847 60.3281 66.8232C60.5755 67.1618 60.9173 67.3311 61.3535 67.3311C61.9264 67.3311 62.3447 67.0739 62.6084 66.5596V64.1328C62.3382 63.6348 61.9232 63.3857 61.3633 63.3857C60.9206 63.3857 60.5755 63.5566 60.3281 63.8984C60.0807 64.2402 59.957 64.7464 59.957 65.417ZM68.1797 68C68.1276 67.8958 68.0853 67.7103 68.0527 67.4434C67.6328 67.8796 67.1315 68.0977 66.5488 68.0977C66.028 68.0977 65.5999 67.9512 65.2646 67.6582C64.9326 67.362 64.7666 66.9876 64.7666 66.5352C64.7666 65.985 64.9749 65.5586 65.3916 65.2559C65.8115 64.9499 66.4007 64.7969 67.1592 64.7969H68.0381V64.3818C68.0381 64.0661 67.9437 63.8154 67.7549 63.6299C67.5661 63.4411 67.2878 63.3467 66.9199 63.3467C66.5977 63.3467 66.3275 63.4281 66.1094 63.5908C65.8913 63.7536 65.7822 63.9505 65.7822 64.1816H64.874C64.874 63.918 64.9668 63.6641 65.1523 63.4199C65.3411 63.1725 65.5951 62.9772 65.9141 62.834C66.2363 62.6908 66.5895 62.6191 66.9736 62.6191C67.5824 62.6191 68.0592 62.7721 68.4043 63.0781C68.7493 63.3809 68.9284 63.7992 68.9414 64.333V66.7646C68.9414 67.2497 69.0033 67.6354 69.127 67.9219V68H68.1797ZM66.6807 67.3115C66.9639 67.3115 67.2324 67.2383 67.4863 67.0918C67.7402 66.9453 67.9242 66.7549 68.0381 66.5205V65.4365H67.3301C66.2233 65.4365 65.6699 65.7604 65.6699 66.4082C65.6699 66.6914 65.7643 66.9128 65.9531 67.0723C66.1419 67.2318 66.3844 67.3115 66.6807 67.3115ZM71.2607 63.3564C71.6611 62.8649 72.182 62.6191 72.8232 62.6191C73.9398 62.6191 74.5029 63.249 74.5127 64.5088V68H73.6094V64.5039C73.6061 64.123 73.5182 63.8415 73.3457 63.6592C73.1764 63.4769 72.9111 63.3857 72.5498 63.3857C72.2568 63.3857 71.9997 63.4639 71.7783 63.6201C71.557 63.7764 71.3844 63.9814 71.2607 64.2354V68H70.3574V60.5H71.2607V63.3564ZM76.8467 68H75.9434V60.5H76.8467V68ZM79.2783 68H78.375V62.7168H79.2783V68ZM78.3018 61.3154C78.3018 61.1689 78.3457 61.0452 78.4336 60.9443C78.5247 60.8434 78.6582 60.793 78.834 60.793C79.0098 60.793 79.1432 60.8434 79.2344 60.9443C79.3255 61.0452 79.3711 61.1689 79.3711 61.3154C79.3711 61.4619 79.3255 61.584 79.2344 61.6816C79.1432 61.7793 79.0098 61.8281 78.834 61.8281C78.6582 61.8281 78.5247 61.7793 78.4336 61.6816C78.3457 61.584 78.3018 61.4619 78.3018 61.3154ZM83.9902 68C83.9382 67.8958 83.8958 67.7103 83.8633 67.4434C83.4434 67.8796 82.9421 68.0977 82.3594 68.0977C81.8385 68.0977 81.4105 67.9512 81.0752 67.6582C80.7432 67.362 80.5771 66.9876 80.5771 66.5352C80.5771 65.985 80.7855 65.5586 81.2021 65.2559C81.6221 64.9499 82.2113 64.7969 82.9697 64.7969H83.8486V64.3818C83.8486 64.0661 83.7542 63.8154 83.5654 63.6299C83.3766 63.4411 83.0983 63.3467 82.7305 63.3467C82.4082 63.3467 82.138 63.4281 81.9199 63.5908C81.7018 63.7536 81.5928 63.9505 81.5928 64.1816H80.6846C80.6846 63.918 80.7773 63.6641 80.9629 63.4199C81.1517 63.1725 81.4056 62.9772 81.7246 62.834C82.0469 62.6908 82.4001 62.6191 82.7842 62.6191C83.3929 62.6191 83.8698 62.7721 84.2148 63.0781C84.5599 63.3809 84.7389 63.7992 84.752 64.333V66.7646C84.752 67.2497 84.8138 67.6354 84.9375 67.9219V68H83.9902ZM82.4912 67.3115C82.7744 67.3115 83.043 67.2383 83.2969 67.0918C83.5508 66.9453 83.7347 66.7549 83.8486 66.5205V65.4365H83.1406C82.0339 65.4365 81.4805 65.7604 81.4805 66.4082C81.4805 66.6914 81.5749 66.9128 81.7637 67.0723C81.9525 67.2318 82.195 67.3115 82.4912 67.3115ZM88.4092 65.3096C88.4092 64.792 88.5101 64.3265 88.7119 63.9131C88.917 63.4997 89.2002 63.1807 89.5615 62.9561C89.9261 62.7314 90.3411 62.6191 90.8066 62.6191C91.526 62.6191 92.1071 62.8682 92.5498 63.3662C92.9958 63.8643 93.2188 64.5267 93.2188 65.3535V65.417C93.2188 65.9313 93.1195 66.3936 92.9209 66.8037C92.7256 67.2106 92.444 67.528 92.0762 67.7559C91.7116 67.9837 91.2917 68.0977 90.8164 68.0977C90.1003 68.0977 89.5192 67.8486 89.0732 67.3506C88.6305 66.8525 88.4092 66.1934 88.4092 65.373V65.3096ZM89.3174 65.417C89.3174 66.0029 89.4525 66.4733 89.7227 66.8281C89.9961 67.1829 90.3607 67.3604 90.8164 67.3604C91.2754 67.3604 91.64 67.1813 91.9102 66.8232C92.1803 66.4619 92.3154 65.9574 92.3154 65.3096C92.3154 64.7301 92.1771 64.2614 91.9004 63.9033C91.627 63.542 91.2624 63.3613 90.8066 63.3613C90.3607 63.3613 90.001 63.5387 89.7275 63.8936C89.4541 64.2484 89.3174 64.7562 89.3174 65.417ZM97.4277 66.5986C97.4277 66.3545 97.335 66.1657 97.1494 66.0322C96.9671 65.8955 96.6465 65.7783 96.1875 65.6807C95.7318 65.583 95.3688 65.4658 95.0986 65.3291C94.8317 65.1924 94.6331 65.0296 94.5029 64.8408C94.376 64.652 94.3125 64.4274 94.3125 64.167C94.3125 63.734 94.4948 63.3678 94.8594 63.0684C95.2272 62.7689 95.696 62.6191 96.2656 62.6191C96.8646 62.6191 97.3496 62.7738 97.7207 63.083C98.0951 63.3923 98.2822 63.7878 98.2822 64.2695H97.374C97.374 64.0221 97.2682 63.8089 97.0566 63.6299C96.8483 63.4508 96.5846 63.3613 96.2656 63.3613C95.9368 63.3613 95.6797 63.4329 95.4941 63.5762C95.3086 63.7194 95.2158 63.9066 95.2158 64.1377C95.2158 64.3558 95.3021 64.5202 95.4746 64.6309C95.6471 64.7415 95.958 64.8473 96.4072 64.9482C96.8597 65.0492 97.2259 65.1696 97.5059 65.3096C97.7858 65.4495 97.9925 65.6188 98.126 65.8174C98.2627 66.0127 98.3311 66.252 98.3311 66.5352C98.3311 67.0072 98.1423 67.3864 97.7646 67.6729C97.387 67.9561 96.8971 68.0977 96.2949 68.0977C95.8717 68.0977 95.4974 68.0228 95.1719 67.873C94.8464 67.7233 94.5908 67.515 94.4053 67.248C94.223 66.9779 94.1318 66.6865 94.1318 66.374H95.0352C95.0514 66.6768 95.1719 66.9176 95.3965 67.0967C95.6243 67.2725 95.9238 67.3604 96.2949 67.3604C96.6367 67.3604 96.9102 67.292 97.1152 67.1553C97.3236 67.0153 97.4277 66.8298 97.4277 66.5986ZM106.451 65.417C106.451 66.221 106.267 66.8688 105.899 67.3604C105.532 67.8519 105.034 68.0977 104.405 68.0977C103.764 68.0977 103.259 67.8942 102.892 67.4873V70.0312H101.988V62.7168H102.813L102.857 63.3027C103.225 62.847 103.736 62.6191 104.391 62.6191C105.025 62.6191 105.527 62.8584 105.895 63.3369C106.266 63.8154 106.451 64.4811 106.451 65.334V65.417ZM105.548 65.3145C105.548 64.7188 105.421 64.2484 105.167 63.9033C104.913 63.5583 104.565 63.3857 104.122 63.3857C103.575 63.3857 103.165 63.6283 102.892 64.1133V66.6377C103.162 67.1195 103.575 67.3604 104.132 67.3604C104.565 67.3604 104.908 67.1895 105.162 66.8477C105.419 66.5026 105.548 65.9915 105.548 65.3145ZM110.157 63.5273C110.021 63.5046 109.872 63.4932 109.713 63.4932C109.12 63.4932 108.718 63.7454 108.507 64.25V68H107.604V62.7168H108.482L108.497 63.3271C108.793 62.8551 109.213 62.6191 109.757 62.6191C109.933 62.6191 110.066 62.6419 110.157 62.6875V63.5273ZM110.655 65.3096C110.655 64.792 110.756 64.3265 110.958 63.9131C111.163 63.4997 111.446 63.1807 111.808 62.9561C112.172 62.7314 112.587 62.6191 113.053 62.6191C113.772 62.6191 114.353 62.8682 114.796 63.3662C115.242 63.8643 115.465 64.5267 115.465 65.3535V65.417C115.465 65.9313 115.366 66.3936 115.167 66.8037C114.972 67.2106 114.69 67.528 114.322 67.7559C113.958 67.9837 113.538 68.0977 113.062 68.0977C112.346 68.0977 111.765 67.8486 111.319 67.3506C110.877 66.8525 110.655 66.1934 110.655 65.373V65.3096ZM111.563 65.417C111.563 66.0029 111.699 66.4733 111.969 66.8281C112.242 67.1829 112.607 67.3604 113.062 67.3604C113.521 67.3604 113.886 67.1813 114.156 66.8232C114.426 66.4619 114.562 65.9574 114.562 65.3096C114.562 64.7301 114.423 64.2614 114.146 63.9033C113.873 63.542 113.508 63.3613 113.053 63.3613C112.607 63.3613 112.247 63.5387 111.974 63.8936C111.7 64.2484 111.563 64.7562 111.563 65.417ZM117.53 62.7168V68.6104C117.53 69.626 117.07 70.1338 116.148 70.1338C115.95 70.1338 115.766 70.1045 115.597 70.0459V69.3232C115.701 69.3493 115.838 69.3623 116.007 69.3623C116.209 69.3623 116.362 69.307 116.466 69.1963C116.573 69.0889 116.627 68.9001 116.627 68.6299V62.7168H117.53ZM116.534 61.3154C116.534 61.1722 116.578 61.0501 116.666 60.9492C116.757 60.8451 116.889 60.793 117.062 60.793C117.237 60.793 117.371 60.8434 117.462 60.9443C117.553 61.0452 117.599 61.1689 117.599 61.3154C117.599 61.4619 117.553 61.584 117.462 61.6816C117.371 61.7793 117.237 61.8281 117.062 61.8281C116.886 61.8281 116.754 61.7793 116.666 61.6816C116.578 61.584 116.534 61.4619 116.534 61.3154ZM121.183 68.0977C120.466 68.0977 119.884 67.8633 119.435 67.3945C118.985 66.9225 118.761 66.2926 118.761 65.5049V65.3389C118.761 64.8148 118.86 64.3477 119.059 63.9375C119.26 63.5241 119.54 63.2018 119.898 62.9707C120.26 62.7363 120.65 62.6191 121.07 62.6191C121.757 62.6191 122.291 62.8454 122.672 63.2979C123.053 63.7503 123.243 64.3981 123.243 65.2412V65.6172H119.664C119.677 66.138 119.828 66.5596 120.118 66.8818C120.411 67.2008 120.782 67.3604 121.231 67.3604C121.55 67.3604 121.821 67.2952 122.042 67.165C122.263 67.0348 122.457 66.8623 122.623 66.6475L123.175 67.0771C122.732 67.7575 122.068 68.0977 121.183 68.0977ZM121.07 63.3613C120.706 63.3613 120.4 63.4948 120.152 63.7617C119.905 64.0254 119.752 64.3965 119.693 64.875H122.34V64.8066C122.314 64.3477 122.19 63.9928 121.969 63.7422C121.747 63.4883 121.448 63.3613 121.07 63.3613ZM126.412 67.3604C126.734 67.3604 127.016 67.2627 127.257 67.0674C127.498 66.8721 127.631 66.6279 127.657 66.335H128.512C128.495 66.6377 128.391 66.9258 128.199 67.1992C128.007 67.4727 127.75 67.6908 127.428 67.8535C127.109 68.0163 126.77 68.0977 126.412 68.0977C125.693 68.0977 125.12 67.8584 124.693 67.3799C124.27 66.8981 124.059 66.2406 124.059 65.4072V65.2559C124.059 64.7415 124.153 64.2842 124.342 63.8838C124.531 63.4834 124.801 63.1725 125.152 62.9512C125.507 62.7298 125.925 62.6191 126.407 62.6191C127 62.6191 127.491 62.7965 127.882 63.1514C128.276 63.5062 128.486 63.9668 128.512 64.5332H127.657C127.631 64.1914 127.501 63.9115 127.267 63.6934C127.035 63.472 126.749 63.3613 126.407 63.3613C125.948 63.3613 125.592 63.5273 125.338 63.8594C125.087 64.1882 124.962 64.665 124.962 65.29V65.4609C124.962 66.0697 125.087 66.5384 125.338 66.8672C125.589 67.196 125.947 67.3604 126.412 67.3604ZM130.753 61.4375V62.7168H131.739V63.415H130.753V66.6914C130.753 66.903 130.797 67.0625 130.885 67.1699C130.973 67.2741 131.122 67.3262 131.334 67.3262C131.438 67.3262 131.581 67.3066 131.764 67.2676V68C131.526 68.0651 131.295 68.0977 131.07 68.0977C130.667 68.0977 130.362 67.9756 130.157 67.7314C129.952 67.4873 129.85 67.1406 129.85 66.6914V63.415H128.888V62.7168H129.85V61.4375H130.753ZM132.818 67.5264C132.818 67.3701 132.864 67.2399 132.955 67.1357C133.049 67.0316 133.189 66.9795 133.375 66.9795C133.561 66.9795 133.701 67.0316 133.795 67.1357C133.893 67.2399 133.941 67.3701 133.941 67.5264C133.941 67.6761 133.893 67.8014 133.795 67.9023C133.701 68.0033 133.561 68.0537 133.375 68.0537C133.189 68.0537 133.049 68.0033 132.955 67.9023C132.864 67.8014 132.818 67.6761 132.818 67.5264Z" fill="#D83B01"/>
</svg>
