<svg width="150" height="67" viewBox="0 0 150 67" fill="none" xmlns="http://www.w3.org/2000/svg">
<g filter="url(#filter0_d)">
<rect width="150" height="63.8925" rx="5" fill="#C00000"/>
<path d="M69.7656 33.2324V32.3125H66.2148V29.3945H70.3574V28.4688H65.1191V37H66.2148V33.2324H69.7656ZM76.2988 34.791L76.9727 37H78.0508L75.3438 28.4688H74.4355L71.6816 37H72.7656L73.4512 34.791H76.2988ZM73.7441 33.8477L74.8867 30.1445L76.0117 33.8477H73.7441ZM85.0586 33.1152V32.3652C85.0547 32.0527 85.0273 31.7363 84.9766 31.416C84.9258 31.0918 84.8496 30.7812 84.748 30.4844C84.6426 30.1875 84.5078 29.9102 84.3438 29.6523C84.1836 29.3906 83.9922 29.1641 83.7695 28.9727C83.543 28.7812 83.2832 28.6309 82.9902 28.5215C82.7012 28.4082 82.375 28.3516 82.0117 28.3516C81.6484 28.3516 81.3203 28.4082 81.0273 28.5215C80.7383 28.6309 80.4824 28.7812 80.2598 28.9727C80.0332 29.168 79.8398 29.3965 79.6797 29.6582C79.5195 29.916 79.3867 30.1934 79.2812 30.4902C79.1758 30.7871 79.0977 31.0957 79.0469 31.416C78.9961 31.7363 78.9688 32.0527 78.9648 32.3652V33.1152C78.9688 33.4277 78.9961 33.7441 79.0469 34.0645C79.0977 34.3809 79.1758 34.6875 79.2812 34.9844C79.3867 35.2812 79.5215 35.5605 79.6855 35.8223C79.8496 36.0801 80.0449 36.3047 80.2715 36.4961C80.4941 36.6875 80.75 36.8398 81.0391 36.9531C81.3281 37.0625 81.6543 37.1172 82.0176 37.1172C82.1582 37.1172 82.293 37.1074 82.4219 37.0879C82.5547 37.0723 82.6816 37.0469 82.8027 37.0117L84.4902 38.4414L85.2344 37.7324L83.7637 36.5078C83.9902 36.3164 84.1836 36.0918 84.3438 35.834C84.5078 35.5723 84.6426 35.293 84.748 34.9961C84.8496 34.6992 84.9258 34.3906 84.9766 34.0703C85.0273 33.75 85.0547 33.4316 85.0586 33.1152ZM83.9805 32.3535V33.1152C83.9766 33.3301 83.9629 33.5547 83.9395 33.7891C83.9199 34.0195 83.8828 34.248 83.8281 34.4746C83.7695 34.7012 83.6934 34.916 83.5996 35.1191C83.5059 35.3223 83.3867 35.5 83.2422 35.6523C83.0977 35.8086 82.9238 35.9336 82.7207 36.0273C82.5215 36.1172 82.2871 36.1621 82.0176 36.1621C81.752 36.1621 81.5176 36.1172 81.3145 36.0273C81.1152 35.9336 80.9434 35.8086 80.7988 35.6523C80.6543 35.4961 80.5332 35.3164 80.4355 35.1133C80.3418 34.9102 80.2656 34.6953 80.207 34.4688C80.1484 34.2422 80.1055 34.0137 80.0781 33.7832C80.0547 33.5488 80.043 33.3262 80.043 33.1152V32.3535C80.043 32.1426 80.0547 31.9219 80.0781 31.6914C80.1055 31.457 80.1484 31.2266 80.207 31C80.2656 30.7773 80.3418 30.5645 80.4355 30.3613C80.5332 30.1582 80.6543 29.9785 80.7988 29.8223C80.9434 29.6699 81.1152 29.5488 81.3145 29.459C81.5137 29.3652 81.7461 29.3184 82.0117 29.3184C82.2812 29.3184 82.5156 29.3633 82.7148 29.4531C82.918 29.543 83.0918 29.6641 83.2363 29.8164C83.3809 29.9727 83.5 30.1523 83.5938 30.3555C83.6914 30.5586 83.7695 30.7715 83.8281 30.9941C83.8828 31.2207 83.9199 31.4512 83.9395 31.6855C83.9629 31.916 83.9766 32.1387 83.9805 32.3535Z" fill="#F2B8B8"/>
</g>
<defs>
<filter id="filter0_d" x="0" y="0" width="150" height="66.8925" filterUnits="userSpaceOnUse" color-interpolation-filters="sRGB">
<feFlood flood-opacity="0" result="BackgroundImageFix"/>
<feColorMatrix in="SourceAlpha" type="matrix" values="0 0 0 0 0 0 0 0 0 0 0 0 0 0 0 0 0 0 127 0"/>
<feOffset dy="3"/>
<feColorMatrix type="matrix" values="0 0 0 0 0.825 0 0 0 0 0.144375 0 0 0 0 0.144375 0 0 0 1 0"/>
<feBlend mode="normal" in2="BackgroundImageFix" result="effect1_dropShadow"/>
<feBlend mode="normal" in="SourceGraphic" in2="effect1_dropShadow" result="shape"/>
</filter>
</defs>
</svg>
