<svg width="150" height="64" viewBox="0 0 150 64" fill="none" xmlns="http://www.w3.org/2000/svg">
<path d="M52.8047 37H51.4854V32.3994H46.4678V37H45.1553V27.0469H46.4678V31.3262H51.4854V27.0469H52.8047V37ZM59.5039 37C59.431 36.8542 59.3717 36.5944 59.3262 36.2207C58.7383 36.8314 58.0365 37.1367 57.2207 37.1367C56.4915 37.1367 55.8923 36.9316 55.4229 36.5215C54.958 36.1068 54.7256 35.5827 54.7256 34.9492C54.7256 34.179 55.0173 33.582 55.6006 33.1582C56.1885 32.7298 57.0133 32.5156 58.0752 32.5156H59.3057V31.9346C59.3057 31.4925 59.1735 31.1416 58.9092 30.8818C58.6449 30.6175 58.2552 30.4854 57.7402 30.4854C57.2891 30.4854 56.9108 30.5993 56.6055 30.8271C56.3001 31.055 56.1475 31.3307 56.1475 31.6543H54.876C54.876 31.2852 55.0059 30.9297 55.2656 30.5879C55.5299 30.2415 55.8854 29.9681 56.332 29.7676C56.7832 29.5671 57.2777 29.4668 57.8154 29.4668C58.6676 29.4668 59.3353 29.681 59.8184 30.1094C60.3014 30.5332 60.5521 31.1188 60.5703 31.8662V35.2705C60.5703 35.9495 60.6569 36.4896 60.8301 36.8906V37H59.5039ZM57.4053 36.0361C57.8018 36.0361 58.1777 35.9336 58.5332 35.7285C58.8887 35.5234 59.1462 35.2568 59.3057 34.9287V33.4111H58.3145C56.765 33.4111 55.9902 33.8646 55.9902 34.7715C55.9902 35.168 56.1224 35.4779 56.3867 35.7012C56.651 35.9245 56.9906 36.0361 57.4053 36.0361ZM66.1279 30.7383C65.9365 30.7064 65.7292 30.6904 65.5059 30.6904C64.6764 30.6904 64.1136 31.0436 63.8174 31.75V37H62.5527V29.6035H63.7832L63.8037 30.458C64.2184 29.7972 64.8063 29.4668 65.5674 29.4668C65.8135 29.4668 66.0003 29.4987 66.1279 29.5625V30.7383ZM66.8525 33.2402C66.8525 32.1055 67.1214 31.194 67.6592 30.5059C68.1969 29.8132 68.901 29.4668 69.7715 29.4668C70.6374 29.4668 71.3232 29.763 71.8291 30.3555V26.5H73.0938V37H71.9316L71.8701 36.207C71.3643 36.8268 70.6602 37.1367 69.7578 37.1367C68.901 37.1367 68.2015 36.7858 67.6592 36.084C67.1214 35.3822 66.8525 34.4661 66.8525 33.3359V33.2402ZM68.1172 33.3838C68.1172 34.2223 68.2904 34.8786 68.6367 35.3525C68.9831 35.8265 69.4616 36.0635 70.0723 36.0635C70.8743 36.0635 71.46 35.7035 71.8291 34.9834V31.5859C71.4508 30.8887 70.8698 30.54 70.0859 30.54C69.4661 30.54 68.9831 30.7793 68.6367 31.2578C68.2904 31.7363 68.1172 32.445 68.1172 33.3838ZM81.6113 35.2568L83.0332 29.6035H84.2979L82.1445 37H81.1191L79.3213 31.3945L77.5713 37H76.5459L74.3994 29.6035H75.6572L77.1133 35.1406L78.8359 29.6035H79.8545L81.6113 35.2568ZM90.1562 37C90.0833 36.8542 90.0241 36.5944 89.9785 36.2207C89.3906 36.8314 88.6888 37.1367 87.873 37.1367C87.1439 37.1367 86.5446 36.9316 86.0752 36.5215C85.6104 36.1068 85.3779 35.5827 85.3779 34.9492C85.3779 34.179 85.6696 33.582 86.2529 33.1582C86.8408 32.7298 87.6657 32.5156 88.7275 32.5156H89.958V31.9346C89.958 31.4925 89.8258 31.1416 89.5615 30.8818C89.2972 30.6175 88.9076 30.4854 88.3926 30.4854C87.9414 30.4854 87.5632 30.5993 87.2578 30.8271C86.9525 31.055 86.7998 31.3307 86.7998 31.6543H85.5283C85.5283 31.2852 85.6582 30.9297 85.918 30.5879C86.1823 30.2415 86.5378 29.9681 86.9844 29.7676C87.4355 29.5671 87.93 29.4668 88.4678 29.4668C89.32 29.4668 89.9876 29.681 90.4707 30.1094C90.9538 30.5332 91.2044 31.1188 91.2227 31.8662V35.2705C91.2227 35.9495 91.3092 36.4896 91.4824 36.8906V37H90.1562ZM88.0576 36.0361C88.4541 36.0361 88.8301 35.9336 89.1855 35.7285C89.541 35.5234 89.7985 35.2568 89.958 34.9287V33.4111H88.9668C87.4173 33.4111 86.6426 33.8646 86.6426 34.7715C86.6426 35.168 86.7747 35.4779 87.0391 35.7012C87.3034 35.9245 87.6429 36.0361 88.0576 36.0361ZM96.7803 30.7383C96.5889 30.7064 96.3815 30.6904 96.1582 30.6904C95.3288 30.6904 94.766 31.0436 94.4697 31.75V37H93.2051V29.6035H94.4355L94.4561 30.458C94.8708 29.7972 95.4587 29.4668 96.2197 29.4668C96.4658 29.4668 96.6527 29.4987 96.7803 29.5625V30.7383ZM100.882 37.1367C99.8792 37.1367 99.0635 36.8086 98.4346 36.1523C97.8057 35.4915 97.4912 34.6097 97.4912 33.5068V33.2744C97.4912 32.5407 97.6302 31.8867 97.9082 31.3125C98.1908 30.7337 98.5827 30.2826 99.084 29.959C99.5898 29.6309 100.137 29.4668 100.725 29.4668C101.686 29.4668 102.434 29.7835 102.967 30.417C103.5 31.0505 103.767 31.9574 103.767 33.1377V33.6641H98.7559C98.7741 34.3932 98.986 34.9834 99.3916 35.4346C99.8018 35.8812 100.321 36.1045 100.95 36.1045C101.397 36.1045 101.775 36.0133 102.085 35.8311C102.395 35.6488 102.666 35.4072 102.898 35.1064L103.671 35.708C103.051 36.6605 102.121 37.1367 100.882 37.1367ZM100.725 30.5059C100.214 30.5059 99.7858 30.6927 99.4395 31.0664C99.0931 31.4355 98.8789 31.9551 98.7969 32.625H102.502V32.5293C102.465 31.8867 102.292 31.39 101.982 31.0391C101.673 30.6836 101.253 30.5059 100.725 30.5059Z" fill="#FF5722"/>
<rect x="0.5" y="0.5" width="149" height="62.8925" rx="4.5" stroke="#DDD4D4"/>
</svg>
