<svg width="160" height="72" viewBox="0 0 160 72" fill="none" xmlns="http://www.w3.org/2000/svg">
<g filter="url(#filter0_d)">
<rect width="160" height="68.2927" rx="5" fill="#C00000"/>
<path d="M53.4307 39V29.0469H52.2344V33.3262H48.1533V29.0469H46.9639V39H48.1533V34.3994H52.2344V39H53.4307ZM60.458 39H61.7773V38.8906C61.6953 38.6855 61.6315 38.4463 61.5859 38.1729C61.5404 37.8949 61.5176 37.6328 61.5176 37.3867V33.9482C61.5176 33.5335 61.4424 33.1712 61.292 32.8613C61.1416 32.5514 60.9365 32.2917 60.6768 32.082C60.4124 31.877 60.1003 31.7243 59.7402 31.624C59.3802 31.5192 58.9906 31.4668 58.5713 31.4668C58.111 31.4668 57.6986 31.5306 57.334 31.6582C56.974 31.7858 56.6686 31.9521 56.418 32.1572C56.1628 32.3669 55.9668 32.6016 55.8301 32.8613C55.6979 33.1211 55.6296 33.3854 55.625 33.6543H56.8965C56.8965 33.4993 56.9329 33.3512 57.0059 33.21C57.0833 33.0641 57.1904 32.9388 57.3271 32.834C57.4639 32.7292 57.6302 32.6449 57.8262 32.5811C58.0267 32.5173 58.2523 32.4854 58.5029 32.4854C58.7718 32.4854 59.0133 32.5195 59.2275 32.5879C59.4463 32.6562 59.6309 32.752 59.7812 32.875C59.9316 33.0026 60.0479 33.1553 60.1299 33.333C60.2119 33.5107 60.2529 33.7113 60.2529 33.9346V34.5156H58.8721C58.3571 34.5156 57.89 34.5658 57.4707 34.666C57.056 34.7663 56.7005 34.9167 56.4043 35.1172C56.1081 35.3223 55.8779 35.5775 55.7139 35.8828C55.5544 36.1882 55.4746 36.5436 55.4746 36.9492C55.4746 37.2591 55.5339 37.5485 55.6523 37.8174C55.7754 38.0817 55.9486 38.3096 56.1719 38.501C56.3906 38.6969 56.6572 38.8519 56.9717 38.9658C57.2907 39.0798 57.6462 39.1367 58.0381 39.1367C58.2796 39.1367 58.5075 39.1117 58.7217 39.0615C58.9359 39.0114 59.1387 38.943 59.3301 38.8564C59.5169 38.7699 59.6878 38.6696 59.8428 38.5557C60.0023 38.4417 60.1458 38.321 60.2734 38.1934C60.2871 38.3483 60.3076 38.4987 60.335 38.6445C60.3669 38.7858 60.4079 38.9043 60.458 39ZM58.2227 38.0361C57.9766 38.0361 57.7601 38.0042 57.5732 37.9404C57.3864 37.8766 57.2314 37.7878 57.1084 37.6738C56.9854 37.5645 56.8919 37.4323 56.8281 37.2773C56.7689 37.1224 56.7393 36.9538 56.7393 36.7715C56.7393 36.5801 56.7734 36.4092 56.8418 36.2588C56.9147 36.1084 57.0195 35.9785 57.1562 35.8691C57.3477 35.7142 57.6051 35.6003 57.9287 35.5273C58.2568 35.4499 58.6396 35.4111 59.0771 35.4111H60.2529V36.9082C60.18 37.054 60.0798 37.1953 59.9521 37.332C59.8245 37.4642 59.6742 37.5827 59.501 37.6875C59.3232 37.7923 59.1273 37.8766 58.9131 37.9404C58.6989 38.0042 58.4688 38.0361 58.2227 38.0361ZM68.8525 31.4668C68.3148 31.4668 67.834 31.5853 67.4102 31.8223C66.9909 32.0547 66.6309 32.3737 66.3301 32.7793L66.3232 32.5947L66.2686 31.6035H65.0654V39H66.3369V34.2559C66.4189 34.028 66.5215 33.8229 66.6445 33.6406C66.7721 33.4538 66.9202 33.2965 67.0889 33.1689C67.2757 33.0231 67.4945 32.9137 67.7451 32.8408C67.9958 32.7633 68.276 32.7246 68.5859 32.7246C68.8275 32.7246 69.0576 32.7383 69.2764 32.7656C69.4997 32.7884 69.7344 32.8271 69.9805 32.8818L70.1514 31.6445C70.0238 31.5898 69.8324 31.5465 69.5771 31.5146C69.3265 31.4827 69.085 31.4668 68.8525 31.4668ZM72.1748 35.2402V35.3838C72.1748 35.9124 72.2454 36.4069 72.3867 36.8672C72.528 37.3229 72.7262 37.7194 72.9814 38.0566C73.2367 38.3939 73.5443 38.6582 73.9043 38.8496C74.2689 39.041 74.6745 39.1367 75.1211 39.1367C75.5768 39.1367 75.9756 39.0592 76.3174 38.9043C76.6592 38.7493 76.9531 38.5215 77.1992 38.2207L77.2539 39H78.416V28.5H77.1514V32.335C76.9098 32.0524 76.6227 31.8382 76.29 31.6924C75.9619 31.542 75.5768 31.4668 75.1348 31.4668C74.6836 31.4668 74.2757 31.5602 73.9111 31.7471C73.5465 31.9339 73.2367 32.1937 72.9814 32.5264C72.7217 32.859 72.5212 33.2578 72.3799 33.7227C72.2432 34.1829 72.1748 34.6888 72.1748 35.2402ZM73.4395 35.3838V35.2402C73.4395 34.8802 73.4782 34.5384 73.5557 34.2148C73.6331 33.8867 73.7539 33.5973 73.918 33.3467C74.0775 33.1006 74.2826 32.9046 74.5332 32.7588C74.7884 32.613 75.0938 32.54 75.4492 32.54C75.8639 32.54 76.2103 32.638 76.4883 32.834C76.7663 33.0254 76.9873 33.2715 77.1514 33.5723V37.0039C76.9873 37.3275 76.7663 37.585 76.4883 37.7764C76.2103 37.9678 75.8594 38.0635 75.4355 38.0635C75.0846 38.0635 74.7839 37.9928 74.5332 37.8516C74.2826 37.7057 74.0775 37.5098 73.918 37.2637C73.7539 37.0176 73.6331 36.7327 73.5557 36.4092C73.4782 36.0856 73.4395 35.7438 73.4395 35.3838ZM81.5332 39H82.5312L83.6729 34.4678L83.8574 33.3193L84.0488 34.4678L85.2041 39H86.2021L87.7744 31.6035H86.6533L85.833 36.3203L85.6484 37.4824L85.4502 36.3203L84.2744 31.6035H83.4609L82.2783 36.3203L82.0938 37.3799L81.9434 36.3203L81.082 31.6035H79.9609L81.5332 39ZM94.0908 39H95.4102V38.8906C95.3281 38.6855 95.2643 38.4463 95.2188 38.1729C95.1732 37.8949 95.1504 37.6328 95.1504 37.3867V33.9482C95.1504 33.5335 95.0752 33.1712 94.9248 32.8613C94.7744 32.5514 94.5693 32.2917 94.3096 32.082C94.0452 31.877 93.7331 31.7243 93.373 31.624C93.013 31.5192 92.6234 31.4668 92.2041 31.4668C91.7438 31.4668 91.3314 31.5306 90.9668 31.6582C90.6068 31.7858 90.3014 31.9521 90.0508 32.1572C89.7956 32.3669 89.5996 32.6016 89.4629 32.8613C89.3307 33.1211 89.2624 33.3854 89.2578 33.6543H90.5293C90.5293 33.4993 90.5658 33.3512 90.6387 33.21C90.7161 33.0641 90.8232 32.9388 90.96 32.834C91.0967 32.7292 91.263 32.6449 91.459 32.5811C91.6595 32.5173 91.8851 32.4854 92.1357 32.4854C92.4046 32.4854 92.6462 32.5195 92.8604 32.5879C93.0791 32.6562 93.2637 32.752 93.4141 32.875C93.5645 33.0026 93.6807 33.1553 93.7627 33.333C93.8447 33.5107 93.8857 33.7113 93.8857 33.9346V34.5156H92.5049C91.9899 34.5156 91.5228 34.5658 91.1035 34.666C90.6888 34.7663 90.3333 34.9167 90.0371 35.1172C89.7409 35.3223 89.5107 35.5775 89.3467 35.8828C89.1872 36.1882 89.1074 36.5436 89.1074 36.9492C89.1074 37.2591 89.1667 37.5485 89.2852 37.8174C89.4082 38.0817 89.5814 38.3096 89.8047 38.501C90.0234 38.6969 90.29 38.8519 90.6045 38.9658C90.9235 39.0798 91.279 39.1367 91.6709 39.1367C91.9124 39.1367 92.1403 39.1117 92.3545 39.0615C92.5687 39.0114 92.7715 38.943 92.9629 38.8564C93.1497 38.7699 93.3206 38.6696 93.4756 38.5557C93.6351 38.4417 93.7786 38.321 93.9062 38.1934C93.9199 38.3483 93.9404 38.4987 93.9678 38.6445C93.9997 38.7858 94.0407 38.9043 94.0908 39ZM91.8555 38.0361C91.6094 38.0361 91.3929 38.0042 91.2061 37.9404C91.0192 37.8766 90.8643 37.7878 90.7412 37.6738C90.6182 37.5645 90.5247 37.4323 90.4609 37.2773C90.4017 37.1224 90.3721 36.9538 90.3721 36.7715C90.3721 36.5801 90.4062 36.4092 90.4746 36.2588C90.5475 36.1084 90.6523 35.9785 90.7891 35.8691C90.9805 35.7142 91.238 35.6003 91.5615 35.5273C91.8896 35.4499 92.2725 35.4111 92.71 35.4111H93.8857V36.9082C93.8128 37.054 93.7126 37.1953 93.585 37.332C93.4574 37.4642 93.307 37.5827 93.1338 37.6875C92.9561 37.7923 92.7601 37.8766 92.5459 37.9404C92.3317 38.0042 92.1016 38.0361 91.8555 38.0361ZM102.485 31.4668C101.948 31.4668 101.467 31.5853 101.043 31.8223C100.624 32.0547 100.264 32.3737 99.9629 32.7793L99.9561 32.5947L99.9014 31.6035H98.6982V39H99.9697V34.2559C100.052 34.028 100.154 33.8229 100.277 33.6406C100.405 33.4538 100.553 33.2965 100.722 33.1689C100.909 33.0231 101.127 32.9137 101.378 32.8408C101.629 32.7633 101.909 32.7246 102.219 32.7246C102.46 32.7246 102.69 32.7383 102.909 32.7656C103.132 32.7884 103.367 32.8271 103.613 32.8818L103.784 31.6445C103.657 31.5898 103.465 31.5465 103.21 31.5146C102.959 31.4827 102.718 31.4668 102.485 31.4668ZM109.314 39.1367C110.035 39.1367 110.638 38.9932 111.126 38.7061C111.618 38.4144 111.987 38.0817 112.233 37.708L111.461 37.1064C111.229 37.4072 110.937 37.6488 110.586 37.8311C110.235 38.0133 109.834 38.1045 109.383 38.1045C109.041 38.1045 108.729 38.0407 108.446 37.9131C108.164 37.7855 107.922 37.61 107.722 37.3867C107.526 37.1771 107.371 36.9355 107.257 36.6621C107.147 36.3887 107.077 36.0719 107.045 35.7119V35.6641H112.329V35.0967C112.329 34.5817 112.263 34.1032 112.131 33.6611C112.003 33.2191 111.807 32.834 111.543 32.5059C111.279 32.1823 110.946 31.9294 110.545 31.7471C110.148 31.5602 109.684 31.4668 109.15 31.4668C108.727 31.4668 108.312 31.5534 107.906 31.7266C107.505 31.8997 107.147 32.1481 106.833 32.4717C106.514 32.7998 106.259 33.2008 106.067 33.6748C105.876 34.1442 105.78 34.6774 105.78 35.2744V35.5615C105.78 36.0765 105.867 36.5527 106.04 36.9902C106.213 37.4277 106.455 37.806 106.765 38.125C107.075 38.444 107.446 38.6924 107.879 38.8701C108.316 39.0479 108.795 39.1367 109.314 39.1367ZM109.15 32.5059C109.474 32.5059 109.752 32.5651 109.984 32.6836C110.221 32.8021 110.417 32.957 110.572 33.1484C110.727 33.3398 110.848 33.5677 110.935 33.832C111.021 34.0918 111.064 34.3356 111.064 34.5635V34.625H107.086C107.136 34.2832 107.223 33.9824 107.346 33.7227C107.473 33.4583 107.628 33.235 107.811 33.0527C107.993 32.875 108.198 32.7406 108.426 32.6494C108.654 32.5537 108.895 32.5059 109.15 32.5059Z" fill="#F2B8B8"/>
</g>
<defs>
<filter id="filter0_d" x="0" y="0" width="160" height="71.2927" filterUnits="userSpaceOnUse" color-interpolation-filters="sRGB">
<feFlood flood-opacity="0" result="BackgroundImageFix"/>
<feColorMatrix in="SourceAlpha" type="matrix" values="0 0 0 0 0 0 0 0 0 0 0 0 0 0 0 0 0 0 127 0"/>
<feOffset dy="3"/>
<feColorMatrix type="matrix" values="0 0 0 0 0.920833 0 0 0 0 0.306944 0 0 0 0 0.306944 0 0 0 1 0"/>
<feBlend mode="normal" in2="BackgroundImageFix" result="effect1_dropShadow"/>
<feBlend mode="normal" in="SourceGraphic" in2="effect1_dropShadow" result="shape"/>
</filter>
</defs>
</svg>
