<svg width="150" height="96" viewBox="0 0 150 96" fill="none" xmlns="http://www.w3.org/2000/svg">
<rect x="0.5" y="0.5" width="149" height="95" rx="4.5" stroke="#DDD4D4"/>
<path d="M52.8047 37H51.4854V32.3994H46.4678V37H45.1553V27.0469H46.4678V31.3262H51.4854V27.0469H52.8047V37ZM59.5039 37C59.431 36.8542 59.3717 36.5944 59.3262 36.2207C58.7383 36.8314 58.0365 37.1367 57.2207 37.1367C56.4915 37.1367 55.8923 36.9316 55.4229 36.5215C54.958 36.1068 54.7256 35.5827 54.7256 34.9492C54.7256 34.179 55.0173 33.582 55.6006 33.1582C56.1885 32.7298 57.0133 32.5156 58.0752 32.5156H59.3057V31.9346C59.3057 31.4925 59.1735 31.1416 58.9092 30.8818C58.6449 30.6175 58.2552 30.4854 57.7402 30.4854C57.2891 30.4854 56.9108 30.5993 56.6055 30.8271C56.3001 31.055 56.1475 31.3307 56.1475 31.6543H54.876C54.876 31.2852 55.0059 30.9297 55.2656 30.5879C55.5299 30.2415 55.8854 29.9681 56.332 29.7676C56.7832 29.5671 57.2777 29.4668 57.8154 29.4668C58.6676 29.4668 59.3353 29.681 59.8184 30.1094C60.3014 30.5332 60.5521 31.1188 60.5703 31.8662V35.2705C60.5703 35.9495 60.6569 36.4896 60.8301 36.8906V37H59.5039ZM57.4053 36.0361C57.8018 36.0361 58.1777 35.9336 58.5332 35.7285C58.8887 35.5234 59.1462 35.2568 59.3057 34.9287V33.4111H58.3145C56.765 33.4111 55.9902 33.8646 55.9902 34.7715C55.9902 35.168 56.1224 35.4779 56.3867 35.7012C56.651 35.9245 56.9906 36.0361 57.4053 36.0361ZM66.1279 30.7383C65.9365 30.7064 65.7292 30.6904 65.5059 30.6904C64.6764 30.6904 64.1136 31.0436 63.8174 31.75V37H62.5527V29.6035H63.7832L63.8037 30.458C64.2184 29.7972 64.8063 29.4668 65.5674 29.4668C65.8135 29.4668 66.0003 29.4987 66.1279 29.5625V30.7383ZM66.8525 33.2402C66.8525 32.1055 67.1214 31.194 67.6592 30.5059C68.1969 29.8132 68.901 29.4668 69.7715 29.4668C70.6374 29.4668 71.3232 29.763 71.8291 30.3555V26.5H73.0938V37H71.9316L71.8701 36.207C71.3643 36.8268 70.6602 37.1367 69.7578 37.1367C68.901 37.1367 68.2015 36.7858 67.6592 36.084C67.1214 35.3822 66.8525 34.4661 66.8525 33.3359V33.2402ZM68.1172 33.3838C68.1172 34.2223 68.2904 34.8786 68.6367 35.3525C68.9831 35.8265 69.4616 36.0635 70.0723 36.0635C70.8743 36.0635 71.46 35.7035 71.8291 34.9834V31.5859C71.4508 30.8887 70.8698 30.54 70.0859 30.54C69.4661 30.54 68.9831 30.7793 68.6367 31.2578C68.2904 31.7363 68.1172 32.445 68.1172 33.3838ZM81.6113 35.2568L83.0332 29.6035H84.2979L82.1445 37H81.1191L79.3213 31.3945L77.5713 37H76.5459L74.3994 29.6035H75.6572L77.1133 35.1406L78.8359 29.6035H79.8545L81.6113 35.2568ZM90.1562 37C90.0833 36.8542 90.0241 36.5944 89.9785 36.2207C89.3906 36.8314 88.6888 37.1367 87.873 37.1367C87.1439 37.1367 86.5446 36.9316 86.0752 36.5215C85.6104 36.1068 85.3779 35.5827 85.3779 34.9492C85.3779 34.179 85.6696 33.582 86.2529 33.1582C86.8408 32.7298 87.6657 32.5156 88.7275 32.5156H89.958V31.9346C89.958 31.4925 89.8258 31.1416 89.5615 30.8818C89.2972 30.6175 88.9076 30.4854 88.3926 30.4854C87.9414 30.4854 87.5632 30.5993 87.2578 30.8271C86.9525 31.055 86.7998 31.3307 86.7998 31.6543H85.5283C85.5283 31.2852 85.6582 30.9297 85.918 30.5879C86.1823 30.2415 86.5378 29.9681 86.9844 29.7676C87.4355 29.5671 87.93 29.4668 88.4678 29.4668C89.32 29.4668 89.9876 29.681 90.4707 30.1094C90.9538 30.5332 91.2044 31.1188 91.2227 31.8662V35.2705C91.2227 35.9495 91.3092 36.4896 91.4824 36.8906V37H90.1562ZM88.0576 36.0361C88.4541 36.0361 88.8301 35.9336 89.1855 35.7285C89.541 35.5234 89.7985 35.2568 89.958 34.9287V33.4111H88.9668C87.4173 33.4111 86.6426 33.8646 86.6426 34.7715C86.6426 35.168 86.7747 35.4779 87.0391 35.7012C87.3034 35.9245 87.6429 36.0361 88.0576 36.0361ZM96.7803 30.7383C96.5889 30.7064 96.3815 30.6904 96.1582 30.6904C95.3288 30.6904 94.766 31.0436 94.4697 31.75V37H93.2051V29.6035H94.4355L94.4561 30.458C94.8708 29.7972 95.4587 29.4668 96.2197 29.4668C96.4658 29.4668 96.6527 29.4987 96.7803 29.5625V30.7383ZM100.882 37.1367C99.8792 37.1367 99.0635 36.8086 98.4346 36.1523C97.8057 35.4915 97.4912 34.6097 97.4912 33.5068V33.2744C97.4912 32.5407 97.6302 31.8867 97.9082 31.3125C98.1908 30.7337 98.5827 30.2826 99.084 29.959C99.5898 29.6309 100.137 29.4668 100.725 29.4668C101.686 29.4668 102.434 29.7835 102.967 30.417C103.5 31.0505 103.767 31.9574 103.767 33.1377V33.6641H98.7559C98.7741 34.3932 98.986 34.9834 99.3916 35.4346C99.8018 35.8812 100.321 36.1045 100.95 36.1045C101.397 36.1045 101.775 36.0133 102.085 35.8311C102.395 35.6488 102.666 35.4072 102.898 35.1064L103.671 35.708C103.051 36.6605 102.121 37.1367 100.882 37.1367ZM100.725 30.5059C100.214 30.5059 99.7858 30.6927 99.4395 31.0664C99.0931 31.4355 98.8789 31.9551 98.7969 32.625H102.502V32.5293C102.465 31.8867 102.292 31.39 101.982 31.0391C101.673 30.6836 101.253 30.5059 100.725 30.5059Z" fill="#FF5722"/>
<path d="M12.0547 53.7441C11.9668 54.4961 11.6885 55.0771 11.2197 55.4873C10.7542 55.8942 10.1341 56.0977 9.35938 56.0977C8.51953 56.0977 7.8457 55.7965 7.33789 55.1943C6.83333 54.5921 6.58105 53.7865 6.58105 52.7773V52.0938C6.58105 51.4329 6.69824 50.8519 6.93262 50.3506C7.17025 49.8493 7.50553 49.4652 7.93848 49.1982C8.37142 48.9281 8.87272 48.793 9.44238 48.793C10.1976 48.793 10.8031 49.0046 11.2588 49.4277C11.7145 49.8477 11.9798 50.4303 12.0547 51.1758H11.1123C11.0309 50.6094 10.8535 50.1992 10.5801 49.9453C10.3099 49.6914 9.93066 49.5645 9.44238 49.5645C8.84342 49.5645 8.37305 49.7858 8.03125 50.2285C7.69271 50.6712 7.52344 51.3011 7.52344 52.1182V52.8066C7.52344 53.5781 7.68457 54.1917 8.00684 54.6475C8.3291 55.1032 8.77995 55.3311 9.35938 55.3311C9.88021 55.3311 10.279 55.2139 10.5557 54.9795C10.8356 54.7419 11.0212 54.3301 11.1123 53.7441H12.0547ZM16.459 56C16.4069 55.8958 16.3646 55.7103 16.332 55.4434C15.9121 55.8796 15.4108 56.0977 14.8281 56.0977C14.3073 56.0977 13.8792 55.9512 13.5439 55.6582C13.2119 55.362 13.0459 54.9876 13.0459 54.5352C13.0459 53.985 13.2542 53.5586 13.6709 53.2559C14.0908 52.9499 14.68 52.7969 15.4385 52.7969H16.3174V52.3818C16.3174 52.0661 16.223 51.8154 16.0342 51.6299C15.8454 51.4411 15.5671 51.3467 15.1992 51.3467C14.877 51.3467 14.6068 51.4281 14.3887 51.5908C14.1706 51.7536 14.0615 51.9505 14.0615 52.1816H13.1533C13.1533 51.918 13.2461 51.6641 13.4316 51.4199C13.6204 51.1725 13.8743 50.9772 14.1934 50.834C14.5156 50.6908 14.8688 50.6191 15.2529 50.6191C15.8617 50.6191 16.3385 50.7721 16.6836 51.0781C17.0286 51.3809 17.2077 51.7992 17.2207 52.333V54.7646C17.2207 55.2497 17.2826 55.6354 17.4062 55.9219V56H16.459ZM14.96 55.3115C15.2432 55.3115 15.5117 55.2383 15.7656 55.0918C16.0195 54.9453 16.2035 54.7549 16.3174 54.5205V53.4365H15.6094C14.5026 53.4365 13.9492 53.7604 13.9492 54.4082C13.9492 54.6914 14.0436 54.9128 14.2324 55.0723C14.4212 55.2318 14.6637 55.3115 14.96 55.3115ZM19.8623 49.4375V50.7168H20.8486V51.415H19.8623V54.6914C19.8623 54.903 19.9062 55.0625 19.9941 55.1699C20.082 55.2741 20.2318 55.3262 20.4434 55.3262C20.5475 55.3262 20.6908 55.3066 20.873 55.2676V56C20.6354 56.0651 20.4043 56.0977 20.1797 56.0977C19.776 56.0977 19.4717 55.9756 19.2666 55.7314C19.0615 55.4873 18.959 55.1406 18.959 54.6914V51.415H17.9971V50.7168H18.959V49.4375H19.8623ZM25.1699 56C25.1178 55.8958 25.0755 55.7103 25.043 55.4434C24.623 55.8796 24.1217 56.0977 23.5391 56.0977C23.0182 56.0977 22.5902 55.9512 22.2549 55.6582C21.9229 55.362 21.7568 54.9876 21.7568 54.5352C21.7568 53.985 21.9652 53.5586 22.3818 53.2559C22.8018 52.9499 23.391 52.7969 24.1494 52.7969H25.0283V52.3818C25.0283 52.0661 24.9339 51.8154 24.7451 51.6299C24.5563 51.4411 24.278 51.3467 23.9102 51.3467C23.5879 51.3467 23.3177 51.4281 23.0996 51.5908C22.8815 51.7536 22.7725 51.9505 22.7725 52.1816H21.8643C21.8643 51.918 21.957 51.6641 22.1426 51.4199C22.3314 51.1725 22.5853 50.9772 22.9043 50.834C23.2266 50.6908 23.5798 50.6191 23.9639 50.6191C24.5726 50.6191 25.0495 50.7721 25.3945 51.0781C25.7396 51.3809 25.9186 51.7992 25.9316 52.333V54.7646C25.9316 55.2497 25.9935 55.6354 26.1172 55.9219V56H25.1699ZM23.6709 55.3115C23.9541 55.3115 24.2227 55.2383 24.4766 55.0918C24.7305 54.9453 24.9144 54.7549 25.0283 54.5205V53.4365H24.3203C23.2135 53.4365 22.6602 53.7604 22.6602 54.4082C22.6602 54.6914 22.7546 54.9128 22.9434 55.0723C23.1322 55.2318 23.3747 55.3115 23.6709 55.3115ZM28.3291 56H27.4258V48.5H28.3291V56ZM29.54 53.3096C29.54 52.792 29.641 52.3265 29.8428 51.9131C30.0479 51.4997 30.3311 51.1807 30.6924 50.9561C31.057 50.7314 31.472 50.6191 31.9375 50.6191C32.6569 50.6191 33.238 50.8682 33.6807 51.3662C34.1266 51.8643 34.3496 52.5267 34.3496 53.3535V53.417C34.3496 53.9313 34.2503 54.3936 34.0518 54.8037C33.8564 55.2106 33.5749 55.528 33.207 55.7559C32.8424 55.9837 32.4225 56.0977 31.9473 56.0977C31.2311 56.0977 30.6501 55.8486 30.2041 55.3506C29.7614 54.8525 29.54 54.1934 29.54 53.373V53.3096ZM30.4482 53.417C30.4482 54.0029 30.5833 54.4733 30.8535 54.8281C31.127 55.1829 31.4915 55.3604 31.9473 55.3604C32.4062 55.3604 32.7708 55.1813 33.041 54.8232C33.3112 54.4619 33.4463 53.9574 33.4463 53.3096C33.4463 52.7301 33.3079 52.2614 33.0312 51.9033C32.7578 51.542 32.3932 51.3613 31.9375 51.3613C31.4915 51.3613 31.1318 51.5387 30.8584 51.8936C30.585 52.2484 30.4482 52.7562 30.4482 53.417ZM35.2676 53.3145C35.2676 52.4909 35.458 51.8366 35.8389 51.3516C36.2197 50.8633 36.7243 50.6191 37.3525 50.6191C37.9971 50.6191 38.5 50.847 38.8613 51.3027L38.9053 50.7168H39.7305V55.873C39.7305 56.5566 39.527 57.0954 39.1201 57.4893C38.7165 57.8831 38.1729 58.0801 37.4893 58.0801C37.1084 58.0801 36.7357 57.9987 36.3711 57.8359C36.0065 57.6732 35.7282 57.4502 35.5361 57.167L36.0049 56.625C36.3923 57.1035 36.8659 57.3428 37.4258 57.3428C37.8652 57.3428 38.207 57.2191 38.4512 56.9717C38.6986 56.7243 38.8223 56.376 38.8223 55.9268V55.4727C38.4609 55.8893 37.9678 56.0977 37.3428 56.0977C36.7243 56.0977 36.223 55.8486 35.8389 55.3506C35.458 54.8525 35.2676 54.1738 35.2676 53.3145ZM36.1758 53.417C36.1758 54.0127 36.2979 54.4814 36.542 54.8232C36.7861 55.1618 37.1279 55.3311 37.5674 55.3311C38.137 55.3311 38.5553 55.0723 38.8223 54.5547V52.1426C38.5456 51.638 38.1305 51.3857 37.5771 51.3857C37.1377 51.3857 36.7943 51.5566 36.5469 51.8984C36.2995 52.2402 36.1758 52.7464 36.1758 53.417ZM43.3389 53.3096C43.3389 52.792 43.4398 52.3265 43.6416 51.9131C43.8467 51.4997 44.1299 51.1807 44.4912 50.9561C44.8558 50.7314 45.2708 50.6191 45.7363 50.6191C46.4557 50.6191 47.0368 50.8682 47.4795 51.3662C47.9255 51.8643 48.1484 52.5267 48.1484 53.3535V53.417C48.1484 53.9313 48.0492 54.3936 47.8506 54.8037C47.6553 55.2106 47.3737 55.528 47.0059 55.7559C46.6413 55.9837 46.2214 56.0977 45.7461 56.0977C45.0299 56.0977 44.4489 55.8486 44.0029 55.3506C43.5602 54.8525 43.3389 54.1934 43.3389 53.373V53.3096ZM44.2471 53.417C44.2471 54.0029 44.3822 54.4733 44.6523 54.8281C44.9258 55.1829 45.2904 55.3604 45.7461 55.3604C46.2051 55.3604 46.5697 55.1813 46.8398 54.8232C47.11 54.4619 47.2451 53.9574 47.2451 53.3096C47.2451 52.7301 47.1068 52.2614 46.8301 51.9033C46.5566 51.542 46.1921 51.3613 45.7363 51.3613C45.2904 51.3613 44.9307 51.5387 44.6572 51.8936C44.3838 52.2484 44.2471 52.7562 44.2471 53.417ZM49.7256 56V51.415H48.8906V50.7168H49.7256V50.1748C49.7256 49.6084 49.877 49.1706 50.1797 48.8613C50.4824 48.5521 50.9105 48.3975 51.4639 48.3975C51.6722 48.3975 51.8789 48.4251 52.084 48.4805L52.0352 49.2129C51.8822 49.1836 51.7194 49.1689 51.5469 49.1689C51.2539 49.1689 51.0277 49.2552 50.8682 49.4277C50.7087 49.597 50.6289 49.8411 50.6289 50.1602V50.7168H51.7568V51.415H50.6289V56H49.7256ZM56.1416 51.3564C56.542 50.8649 57.0628 50.6191 57.7041 50.6191C58.8206 50.6191 59.3838 51.249 59.3936 52.5088V56H58.4902V52.5039C58.487 52.123 58.3991 51.8415 58.2266 51.6592C58.0573 51.4769 57.792 51.3857 57.4307 51.3857C57.1377 51.3857 56.8805 51.4639 56.6592 51.6201C56.4378 51.7764 56.2653 51.9814 56.1416 52.2354V56H55.2383V48.5H56.1416V51.3564ZM64.0078 56C63.9557 55.8958 63.9134 55.7103 63.8809 55.4434C63.4609 55.8796 62.9596 56.0977 62.377 56.0977C61.8561 56.0977 61.4281 55.9512 61.0928 55.6582C60.7607 55.362 60.5947 54.9876 60.5947 54.5352C60.5947 53.985 60.8031 53.5586 61.2197 53.2559C61.6396 52.9499 62.2288 52.7969 62.9873 52.7969H63.8662V52.3818C63.8662 52.0661 63.7718 51.8154 63.583 51.6299C63.3942 51.4411 63.1159 51.3467 62.748 51.3467C62.4258 51.3467 62.1556 51.4281 61.9375 51.5908C61.7194 51.7536 61.6104 51.9505 61.6104 52.1816H60.7021C60.7021 51.918 60.7949 51.6641 60.9805 51.4199C61.1693 51.1725 61.4232 50.9772 61.7422 50.834C62.0645 50.6908 62.4176 50.6191 62.8018 50.6191C63.4105 50.6191 63.8874 50.7721 64.2324 51.0781C64.5775 51.3809 64.7565 51.7992 64.7695 52.333V54.7646C64.7695 55.2497 64.8314 55.6354 64.9551 55.9219V56H64.0078ZM62.5088 55.3115C62.792 55.3115 63.0605 55.2383 63.3145 55.0918C63.5684 54.9453 63.7523 54.7549 63.8662 54.5205V53.4365H63.1582C62.0514 53.4365 61.498 53.7604 61.498 54.4082C61.498 54.6914 61.5924 54.9128 61.7812 55.0723C61.9701 55.2318 62.2126 55.3115 62.5088 55.3115ZM68.7393 51.5273C68.6025 51.5046 68.4544 51.4932 68.2949 51.4932C67.7025 51.4932 67.3005 51.7454 67.0889 52.25V56H66.1855V50.7168H67.0645L67.0791 51.3271C67.3753 50.8551 67.7952 50.6191 68.3389 50.6191C68.5146 50.6191 68.6481 50.6419 68.7393 50.6875V51.5273ZM69.2568 53.3145C69.2568 52.5039 69.4489 51.8529 69.833 51.3613C70.2171 50.8665 70.7201 50.6191 71.3418 50.6191C71.9603 50.6191 72.4502 50.8307 72.8115 51.2539V48.5H73.7148V56H72.8848L72.8408 55.4336C72.4795 55.8763 71.9766 56.0977 71.332 56.0977C70.7201 56.0977 70.2204 55.847 69.833 55.3457C69.4489 54.8444 69.2568 54.1901 69.2568 53.3828V53.3145ZM70.1602 53.417C70.1602 54.016 70.2839 54.4847 70.5312 54.8232C70.7786 55.1618 71.1204 55.3311 71.5566 55.3311C72.1296 55.3311 72.5479 55.0739 72.8115 54.5596V52.1328C72.5413 51.6348 72.1263 51.3857 71.5664 51.3857C71.1237 51.3857 70.7786 51.5566 70.5312 51.8984C70.2839 52.2402 70.1602 52.7464 70.1602 53.417ZM79.7988 54.7549L80.8145 50.7168H81.7178L80.1797 56H79.4473L78.1631 51.9961L76.9131 56H76.1807L74.6475 50.7168H75.5459L76.5859 54.6719L77.8164 50.7168H78.5439L79.7988 54.7549ZM85.9023 56C85.8503 55.8958 85.8079 55.7103 85.7754 55.4434C85.3555 55.8796 84.8542 56.0977 84.2715 56.0977C83.7507 56.0977 83.3226 55.9512 82.9873 55.6582C82.6553 55.362 82.4893 54.9876 82.4893 54.5352C82.4893 53.985 82.6976 53.5586 83.1143 53.2559C83.5342 52.9499 84.1234 52.7969 84.8818 52.7969H85.7607V52.3818C85.7607 52.0661 85.6663 51.8154 85.4775 51.6299C85.2887 51.4411 85.0104 51.3467 84.6426 51.3467C84.3203 51.3467 84.0501 51.4281 83.832 51.5908C83.6139 51.7536 83.5049 51.9505 83.5049 52.1816H82.5967C82.5967 51.918 82.6895 51.6641 82.875 51.4199C83.0638 51.1725 83.3177 50.9772 83.6367 50.834C83.959 50.6908 84.3122 50.6191 84.6963 50.6191C85.305 50.6191 85.7819 50.7721 86.127 51.0781C86.472 51.3809 86.651 51.7992 86.6641 52.333V54.7646C86.6641 55.2497 86.7259 55.6354 86.8496 55.9219V56H85.9023ZM84.4033 55.3115C84.6865 55.3115 84.9551 55.2383 85.209 55.0918C85.4629 54.9453 85.6468 54.7549 85.7607 54.5205V53.4365H85.0527C83.946 53.4365 83.3926 53.7604 83.3926 54.4082C83.3926 54.6914 83.487 54.9128 83.6758 55.0723C83.8646 55.2318 84.1071 55.3115 84.4033 55.3115ZM90.6338 51.5273C90.4971 51.5046 90.349 51.4932 90.1895 51.4932C89.597 51.4932 89.195 51.7454 88.9834 52.25V56H88.0801V50.7168H88.959L88.9736 51.3271C89.2699 50.8551 89.6898 50.6191 90.2334 50.6191C90.4092 50.6191 90.5426 50.6419 90.6338 50.6875V51.5273ZM93.5635 56.0977C92.8473 56.0977 92.2646 55.8633 91.8154 55.3945C91.3662 54.9225 91.1416 54.2926 91.1416 53.5049V53.3389C91.1416 52.8148 91.2409 52.3477 91.4395 51.9375C91.6413 51.5241 91.9212 51.2018 92.2793 50.9707C92.6406 50.7363 93.0312 50.6191 93.4512 50.6191C94.138 50.6191 94.6719 50.8454 95.0527 51.2979C95.4336 51.7503 95.624 52.3981 95.624 53.2412V53.6172H92.0449C92.0579 54.138 92.2093 54.5596 92.499 54.8818C92.792 55.2008 93.1631 55.3604 93.6123 55.3604C93.9313 55.3604 94.2015 55.2952 94.4229 55.165C94.6442 55.0348 94.8379 54.8623 95.0039 54.6475L95.5557 55.0771C95.113 55.7575 94.4489 56.0977 93.5635 56.0977ZM93.4512 51.3613C93.0866 51.3613 92.7806 51.4948 92.5332 51.7617C92.2858 52.0254 92.1328 52.3965 92.0742 52.875H94.7207V52.8066C94.6947 52.3477 94.571 51.9928 94.3496 51.7422C94.1283 51.4883 93.8288 51.3613 93.4512 51.3613ZM103.832 54.7549L104.848 50.7168H105.751L104.213 56H103.48L102.196 51.9961L100.946 56H100.214L98.6807 50.7168H99.5791L100.619 54.6719L101.85 50.7168H102.577L103.832 54.7549ZM107.655 56H106.752V50.7168H107.655V56ZM106.679 49.3154C106.679 49.1689 106.723 49.0452 106.811 48.9443C106.902 48.8434 107.035 48.793 107.211 48.793C107.387 48.793 107.52 48.8434 107.611 48.9443C107.702 49.0452 107.748 49.1689 107.748 49.3154C107.748 49.4619 107.702 49.584 107.611 49.6816C107.52 49.7793 107.387 49.8281 107.211 49.8281C107.035 49.8281 106.902 49.7793 106.811 49.6816C106.723 49.584 106.679 49.4619 106.679 49.3154ZM110.331 49.4375V50.7168H111.317V51.415H110.331V54.6914C110.331 54.903 110.375 55.0625 110.463 55.1699C110.551 55.2741 110.701 55.3262 110.912 55.3262C111.016 55.3262 111.16 55.3066 111.342 55.2676V56C111.104 56.0651 110.873 56.0977 110.648 56.0977C110.245 56.0977 109.94 55.9756 109.735 55.7314C109.53 55.4873 109.428 55.1406 109.428 54.6914V51.415H108.466V50.7168H109.428V49.4375H110.331ZM113.28 51.3564C113.681 50.8649 114.201 50.6191 114.843 50.6191C115.959 50.6191 116.522 51.249 116.532 52.5088V56H115.629V52.5039C115.626 52.123 115.538 51.8415 115.365 51.6592C115.196 51.4769 114.931 51.3857 114.569 51.3857C114.276 51.3857 114.019 51.4639 113.798 51.6201C113.576 51.7764 113.404 51.9814 113.28 52.2354V56H112.377V48.5H113.28V51.3564ZM121.591 49.4375V50.7168H122.577V51.415H121.591V54.6914C121.591 54.903 121.635 55.0625 121.723 55.1699C121.811 55.2741 121.96 55.3262 122.172 55.3262C122.276 55.3262 122.419 55.3066 122.602 55.2676V56C122.364 56.0651 122.133 56.0977 121.908 56.0977C121.505 56.0977 121.2 55.9756 120.995 55.7314C120.79 55.4873 120.688 55.1406 120.688 54.6914V51.415H119.726V50.7168H120.688V49.4375H121.591ZM124.54 51.3564C124.94 50.8649 125.461 50.6191 126.103 50.6191C127.219 50.6191 127.782 51.249 127.792 52.5088V56H126.889V52.5039C126.885 52.123 126.798 51.8415 126.625 51.6592C126.456 51.4769 126.19 51.3857 125.829 51.3857C125.536 51.3857 125.279 51.4639 125.058 51.6201C124.836 51.7764 124.664 51.9814 124.54 52.2354V56H123.637V48.5H124.54V51.3564ZM131.337 56.0977C130.621 56.0977 130.038 55.8633 129.589 55.3945C129.14 54.9225 128.915 54.2926 128.915 53.5049V53.3389C128.915 52.8148 129.014 52.3477 129.213 51.9375C129.415 51.5241 129.695 51.2018 130.053 50.9707C130.414 50.7363 130.805 50.6191 131.225 50.6191C131.911 50.6191 132.445 50.8454 132.826 51.2979C133.207 51.7503 133.397 52.3981 133.397 53.2412V53.6172H129.818C129.831 54.138 129.983 54.5596 130.272 54.8818C130.565 55.2008 130.937 55.3604 131.386 55.3604C131.705 55.3604 131.975 55.2952 132.196 55.165C132.418 55.0348 132.611 54.8623 132.777 54.6475L133.329 55.0771C132.886 55.7575 132.222 56.0977 131.337 56.0977ZM131.225 51.3613C130.86 51.3613 130.554 51.4948 130.307 51.7617C130.059 52.0254 129.906 52.3965 129.848 52.875H132.494V52.8066C132.468 52.3477 132.344 51.9928 132.123 51.7422C131.902 51.4883 131.602 51.3613 131.225 51.3613ZM137.001 51.5273C136.864 51.5046 136.716 51.4932 136.557 51.4932C135.964 51.4932 135.562 51.7454 135.351 52.25V56H134.447V50.7168H135.326L135.341 51.3271C135.637 50.8551 136.057 50.6191 136.601 50.6191C136.776 50.6191 136.91 50.6419 137.001 50.6875V51.5273ZM139.931 56.0977C139.215 56.0977 138.632 55.8633 138.183 55.3945C137.733 54.9225 137.509 54.2926 137.509 53.5049V53.3389C137.509 52.8148 137.608 52.3477 137.807 51.9375C138.008 51.5241 138.288 51.2018 138.646 50.9707C139.008 50.7363 139.398 50.6191 139.818 50.6191C140.505 50.6191 141.039 50.8454 141.42 51.2979C141.801 51.7503 141.991 52.3981 141.991 53.2412V53.6172H138.412C138.425 54.138 138.576 54.5596 138.866 54.8818C139.159 55.2008 139.53 55.3604 139.979 55.3604C140.299 55.3604 140.569 55.2952 140.79 55.165C141.011 55.0348 141.205 54.8623 141.371 54.6475L141.923 55.0771C141.48 55.7575 140.816 56.0977 139.931 56.0977ZM139.818 51.3613C139.454 51.3613 139.148 51.4948 138.9 51.7617C138.653 52.0254 138.5 52.3965 138.441 52.875H141.088V52.8066C141.062 52.3477 140.938 51.9928 140.717 51.7422C140.495 51.4883 140.196 51.3613 139.818 51.3613ZM6.46387 65.3145C6.46387 64.5039 6.65592 63.8529 7.04004 63.3613C7.42415 62.8665 7.92708 62.6191 8.54883 62.6191C9.16732 62.6191 9.65723 62.8307 10.0186 63.2539V60.5H10.9219V68H10.0918L10.0479 67.4336C9.68652 67.8763 9.18359 68.0977 8.53906 68.0977C7.92708 68.0977 7.42741 67.847 7.04004 67.3457C6.65592 66.8444 6.46387 66.1901 6.46387 65.3828V65.3145ZM7.36719 65.417C7.36719 66.016 7.49089 66.4847 7.73828 66.8232C7.98568 67.1618 8.32747 67.3311 8.76367 67.3311C9.33659 67.3311 9.75488 67.0739 10.0186 66.5596V64.1328C9.74837 63.6348 9.33333 63.3857 8.77344 63.3857C8.33073 63.3857 7.98568 63.5566 7.73828 63.8984C7.49089 64.2402 7.36719 64.7464 7.36719 65.417ZM12.0889 65.3096C12.0889 64.792 12.1898 64.3265 12.3916 63.9131C12.5967 63.4997 12.8799 63.1807 13.2412 62.9561C13.6058 62.7314 14.0208 62.6191 14.4863 62.6191C15.2057 62.6191 15.7868 62.8682 16.2295 63.3662C16.6755 63.8643 16.8984 64.5267 16.8984 65.3535V65.417C16.8984 65.9313 16.7992 66.3936 16.6006 66.8037C16.4053 67.2106 16.1237 67.528 15.7559 67.7559C15.3913 67.9837 14.9714 68.0977 14.4961 68.0977C13.7799 68.0977 13.1989 67.8486 12.7529 67.3506C12.3102 66.8525 12.0889 66.1934 12.0889 65.373V65.3096ZM12.9971 65.417C12.9971 66.0029 13.1322 66.4733 13.4023 66.8281C13.6758 67.1829 14.0404 67.3604 14.4961 67.3604C14.9551 67.3604 15.3197 67.1813 15.5898 66.8232C15.86 66.4619 15.9951 65.9574 15.9951 65.3096C15.9951 64.7301 15.8568 64.2614 15.5801 63.9033C15.3066 63.542 14.9421 63.3613 14.4863 63.3613C14.0404 63.3613 13.6807 63.5387 13.4072 63.8936C13.1338 64.2484 12.9971 64.7562 12.9971 65.417ZM20.1504 67.3604C20.4727 67.3604 20.7542 67.2627 20.9951 67.0674C21.236 66.8721 21.3695 66.6279 21.3955 66.335H22.25C22.2337 66.6377 22.1296 66.9258 21.9375 67.1992C21.7454 67.4727 21.4883 67.6908 21.166 67.8535C20.847 68.0163 20.5085 68.0977 20.1504 68.0977C19.431 68.0977 18.8581 67.8584 18.4316 67.3799C18.0085 66.8981 17.7969 66.2406 17.7969 65.4072V65.2559C17.7969 64.7415 17.8913 64.2842 18.0801 63.8838C18.2689 63.4834 18.5391 63.1725 18.8906 62.9512C19.2454 62.7298 19.6637 62.6191 20.1455 62.6191C20.738 62.6191 21.2295 62.7965 21.6201 63.1514C22.014 63.5062 22.224 63.9668 22.25 64.5332H21.3955C21.3695 64.1914 21.2393 63.9115 21.0049 63.6934C20.7738 63.472 20.4873 63.3613 20.1455 63.3613C19.6865 63.3613 19.3301 63.5273 19.0762 63.8594C18.8255 64.1882 18.7002 64.665 18.7002 65.29V65.4609C18.7002 66.0697 18.8255 66.5384 19.0762 66.8672C19.3268 67.196 19.6849 67.3604 20.1504 67.3604ZM26.5273 67.4775C26.1758 67.891 25.6598 68.0977 24.9795 68.0977C24.4163 68.0977 23.9867 67.9349 23.6904 67.6094C23.3975 67.2806 23.2493 66.7956 23.2461 66.1543V62.7168H24.1494V66.1299C24.1494 66.9307 24.4749 67.3311 25.126 67.3311C25.8161 67.3311 26.2751 67.0739 26.5029 66.5596V62.7168H27.4062V68H26.5469L26.5273 67.4775ZM29.6328 62.7168L29.6572 63.3027C30.0446 62.847 30.5671 62.6191 31.2246 62.6191C31.9635 62.6191 32.4665 62.9023 32.7334 63.4688C32.9092 63.2148 33.137 63.0098 33.417 62.8535C33.7002 62.6973 34.0339 62.6191 34.418 62.6191C35.5768 62.6191 36.166 63.2327 36.1855 64.46V68H35.2822V64.5137C35.2822 64.1361 35.196 63.8545 35.0234 63.6689C34.8509 63.4801 34.5612 63.3857 34.1543 63.3857C33.819 63.3857 33.5407 63.4867 33.3193 63.6885C33.098 63.887 32.9694 64.1556 32.9336 64.4941V68H32.0254V64.5381C32.0254 63.7699 31.6494 63.3857 30.8975 63.3857C30.305 63.3857 29.8997 63.638 29.6816 64.1426V68H28.7783V62.7168H29.6328ZM39.7451 68.0977C39.029 68.0977 38.4463 67.8633 37.9971 67.3945C37.5479 66.9225 37.3232 66.2926 37.3232 65.5049V65.3389C37.3232 64.8148 37.4225 64.3477 37.6211 63.9375C37.8229 63.5241 38.1029 63.2018 38.4609 62.9707C38.8223 62.7363 39.2129 62.6191 39.6328 62.6191C40.3197 62.6191 40.8535 62.8454 41.2344 63.2979C41.6152 63.7503 41.8057 64.3981 41.8057 65.2412V65.6172H38.2266C38.2396 66.138 38.391 66.5596 38.6807 66.8818C38.9736 67.2008 39.3447 67.3604 39.7939 67.3604C40.113 67.3604 40.3831 67.2952 40.6045 67.165C40.8258 67.0348 41.0195 66.8623 41.1855 66.6475L41.7373 67.0771C41.2946 67.7575 40.6305 68.0977 39.7451 68.0977ZM39.6328 63.3613C39.2682 63.3613 38.9622 63.4948 38.7148 63.7617C38.4674 64.0254 38.3145 64.3965 38.2559 64.875H40.9023V64.8066C40.8763 64.3477 40.7526 63.9928 40.5312 63.7422C40.3099 63.4883 40.0104 63.3613 39.6328 63.3613ZM43.71 62.7168L43.7393 63.3809C44.1429 62.873 44.6702 62.6191 45.3213 62.6191C46.4378 62.6191 47.001 63.249 47.0107 64.5088V68H46.1074V64.5039C46.1042 64.123 46.0163 63.8415 45.8438 63.6592C45.6745 63.4769 45.4092 63.3857 45.0479 63.3857C44.7549 63.3857 44.4977 63.4639 44.2764 63.6201C44.055 63.7764 43.8825 63.9814 43.7588 64.2354V68H42.8555V62.7168H43.71ZM49.5986 61.4375V62.7168H50.585V63.415H49.5986V66.6914C49.5986 66.903 49.6426 67.0625 49.7305 67.1699C49.8184 67.2741 49.9681 67.3262 50.1797 67.3262C50.2839 67.3262 50.4271 67.3066 50.6094 67.2676V68C50.3717 68.0651 50.1406 68.0977 49.916 68.0977C49.5124 68.0977 49.208 67.9756 49.0029 67.7314C48.7979 67.4873 48.6953 67.1406 48.6953 66.6914V63.415H47.7334V62.7168H48.6953V61.4375H49.5986ZM54.9062 68C54.8542 67.8958 54.8118 67.7103 54.7793 67.4434C54.3594 67.8796 53.8581 68.0977 53.2754 68.0977C52.7546 68.0977 52.3265 67.9512 51.9912 67.6582C51.6592 67.362 51.4932 66.9876 51.4932 66.5352C51.4932 65.985 51.7015 65.5586 52.1182 65.2559C52.5381 64.9499 53.1273 64.7969 53.8857 64.7969H54.7646V64.3818C54.7646 64.0661 54.6702 63.8154 54.4814 63.6299C54.2926 63.4411 54.0143 63.3467 53.6465 63.3467C53.3242 63.3467 53.054 63.4281 52.8359 63.5908C52.6178 63.7536 52.5088 63.9505 52.5088 64.1816H51.6006C51.6006 63.918 51.6934 63.6641 51.8789 63.4199C52.0677 63.1725 52.3216 62.9772 52.6406 62.834C52.9629 62.6908 53.3161 62.6191 53.7002 62.6191C54.3089 62.6191 54.7858 62.7721 55.1309 63.0781C55.4759 63.3809 55.6549 63.7992 55.668 64.333V66.7646C55.668 67.2497 55.7298 67.6354 55.8535 67.9219V68H54.9062ZM53.4072 67.3115C53.6904 67.3115 53.959 67.2383 54.2129 67.0918C54.4668 66.9453 54.6507 66.7549 54.7646 66.5205V65.4365H54.0566C52.9499 65.4365 52.3965 65.7604 52.3965 66.4082C52.3965 66.6914 52.4909 66.9128 52.6797 67.0723C52.8685 67.2318 53.111 67.3115 53.4072 67.3115ZM58.3096 61.4375V62.7168H59.2959V63.415H58.3096V66.6914C58.3096 66.903 58.3535 67.0625 58.4414 67.1699C58.5293 67.2741 58.679 67.3262 58.8906 67.3262C58.9948 67.3262 59.138 67.3066 59.3203 67.2676V68C59.0827 68.0651 58.8516 68.0977 58.627 68.0977C58.2233 68.0977 57.9189 67.9756 57.7139 67.7314C57.5088 67.4873 57.4062 67.1406 57.4062 66.6914V63.415H56.4443V62.7168H57.4062V61.4375H58.3096ZM61.3369 68H60.4336V62.7168H61.3369V68ZM60.3604 61.3154C60.3604 61.1689 60.4043 61.0452 60.4922 60.9443C60.5833 60.8434 60.7168 60.793 60.8926 60.793C61.0684 60.793 61.2018 60.8434 61.293 60.9443C61.3841 61.0452 61.4297 61.1689 61.4297 61.3154C61.4297 61.4619 61.3841 61.584 61.293 61.6816C61.2018 61.7793 61.0684 61.8281 60.8926 61.8281C60.7168 61.8281 60.5833 61.7793 60.4922 61.6816C60.4043 61.584 60.3604 61.4619 60.3604 61.3154ZM62.5479 65.3096C62.5479 64.792 62.6488 64.3265 62.8506 63.9131C63.0557 63.4997 63.3389 63.1807 63.7002 62.9561C64.0648 62.7314 64.4798 62.6191 64.9453 62.6191C65.6647 62.6191 66.2458 62.8682 66.6885 63.3662C67.1344 63.8643 67.3574 64.5267 67.3574 65.3535V65.417C67.3574 65.9313 67.2581 66.3936 67.0596 66.8037C66.8643 67.2106 66.5827 67.528 66.2148 67.7559C65.8503 67.9837 65.4303 68.0977 64.9551 68.0977C64.2389 68.0977 63.6579 67.8486 63.2119 67.3506C62.7692 66.8525 62.5479 66.1934 62.5479 65.373V65.3096ZM63.4561 65.417C63.4561 66.0029 63.5911 66.4733 63.8613 66.8281C64.1348 67.1829 64.4993 67.3604 64.9551 67.3604C65.4141 67.3604 65.7786 67.1813 66.0488 66.8232C66.319 66.4619 66.4541 65.9574 66.4541 65.3096C66.4541 64.7301 66.3158 64.2614 66.0391 63.9033C65.7656 63.542 65.401 63.3613 64.9453 63.3613C64.4993 63.3613 64.1396 63.5387 63.8662 63.8936C63.5928 64.2484 63.4561 64.7562 63.4561 65.417ZM69.3447 62.7168L69.374 63.3809C69.7777 62.873 70.305 62.6191 70.9561 62.6191C72.0726 62.6191 72.6357 63.249 72.6455 64.5088V68H71.7422V64.5039C71.7389 64.123 71.651 63.8415 71.4785 63.6592C71.3092 63.4769 71.0439 63.3857 70.6826 63.3857C70.3896 63.3857 70.1325 63.4639 69.9111 63.6201C69.6898 63.7764 69.5173 63.9814 69.3936 64.2354V68H68.4902V62.7168H69.3447ZM74.0273 67.5264C74.0273 67.3701 74.0729 67.2399 74.1641 67.1357C74.2585 67.0316 74.3984 66.9795 74.584 66.9795C74.7695 66.9795 74.9095 67.0316 75.0039 67.1357C75.1016 67.2399 75.1504 67.3701 75.1504 67.5264C75.1504 67.6761 75.1016 67.8014 75.0039 67.9023C74.9095 68.0033 74.7695 68.0537 74.584 68.0537C74.3984 68.0537 74.2585 68.0033 74.1641 67.9023C74.0729 67.8014 74.0273 67.6761 74.0273 67.5264Z" fill="#D83B01"/>
</svg>
