<svg width="150" height="67" viewBox="0 0 150 67" fill="none" xmlns="http://www.w3.org/2000/svg">
<g filter="url(#filter0_d)">
<rect width="150" height="63.8925" rx="5" fill="#C00000"/>
<path d="M52.3691 37V28.4688H51.3438V32.1367H47.8457V28.4688H46.8262V37H47.8457V33.0566H51.3438V37H52.3691ZM58.3926 37H59.5234V36.9062C59.4531 36.7305 59.3984 36.5254 59.3594 36.291C59.3203 36.0527 59.3008 35.8281 59.3008 35.6172V32.6699C59.3008 32.3145 59.2363 32.0039 59.1074 31.7383C58.9785 31.4727 58.8027 31.25 58.5801 31.0703C58.3535 30.8945 58.0859 30.7637 57.7773 30.6777C57.4688 30.5879 57.1348 30.543 56.7754 30.543C56.3809 30.543 56.0273 30.5977 55.7148 30.707C55.4062 30.8164 55.1445 30.959 54.9297 31.1348C54.7109 31.3145 54.543 31.5156 54.4258 31.7383C54.3125 31.9609 54.2539 32.1875 54.25 32.418H55.3398C55.3398 32.2852 55.3711 32.1582 55.4336 32.0371C55.5 31.9121 55.5918 31.8047 55.709 31.7148C55.8262 31.625 55.9688 31.5527 56.1367 31.498C56.3086 31.4434 56.502 31.416 56.7168 31.416C56.9473 31.416 57.1543 31.4453 57.3379 31.5039C57.5254 31.5625 57.6836 31.6445 57.8125 31.75C57.9414 31.8594 58.041 31.9902 58.1113 32.1426C58.1816 32.2949 58.2168 32.4668 58.2168 32.6582V33.1562H57.0332C56.5918 33.1562 56.1914 33.1992 55.832 33.2852C55.4766 33.3711 55.1719 33.5 54.918 33.6719C54.6641 33.8477 54.4668 34.0664 54.3262 34.3281C54.1895 34.5898 54.1211 34.8945 54.1211 35.2422C54.1211 35.5078 54.1719 35.7559 54.2734 35.9863C54.3789 36.2129 54.5273 36.4082 54.7188 36.5723C54.9062 36.7402 55.1348 36.873 55.4043 36.9707C55.6777 37.0684 55.9824 37.1172 56.3184 37.1172C56.5254 37.1172 56.7207 37.0957 56.9043 37.0527C57.0879 37.0098 57.2617 36.9512 57.4258 36.877C57.5859 36.8027 57.7324 36.7168 57.8652 36.6191C58.002 36.5215 58.125 36.418 58.2344 36.3086C58.2461 36.4414 58.2637 36.5703 58.2871 36.6953C58.3145 36.8164 58.3496 36.918 58.3926 37ZM56.4766 36.1738C56.2656 36.1738 56.0801 36.1465 55.9199 36.0918C55.7598 36.0371 55.627 35.9609 55.5215 35.8633C55.416 35.7695 55.3359 35.6562 55.2812 35.5234C55.2305 35.3906 55.2051 35.2461 55.2051 35.0898C55.2051 34.9258 55.2344 34.7793 55.293 34.6504C55.3555 34.5215 55.4453 34.4102 55.5625 34.3164C55.7266 34.1836 55.9473 34.0859 56.2246 34.0234C56.5059 33.957 56.834 33.9238 57.209 33.9238H58.2168V35.207C58.1543 35.332 58.0684 35.4531 57.959 35.5703C57.8496 35.6836 57.7207 35.7852 57.5723 35.875C57.4199 35.9648 57.252 36.0371 57.0684 36.0918C56.8848 36.1465 56.6875 36.1738 56.4766 36.1738ZM65.5879 30.543C65.127 30.543 64.7148 30.6445 64.3516 30.8477C63.9922 31.0469 63.6836 31.3203 63.4258 31.668L63.4199 31.5098L63.373 30.6602H62.3418V37H63.4316V32.9336C63.502 32.7383 63.5898 32.5625 63.6953 32.4062C63.8047 32.2461 63.9316 32.1113 64.0762 32.002C64.2363 31.877 64.4238 31.7832 64.6387 31.7207C64.8535 31.6543 65.0938 31.6211 65.3594 31.6211C65.5664 31.6211 65.7637 31.6328 65.9512 31.6562C66.1426 31.6758 66.3438 31.709 66.5547 31.7559L66.7012 30.6953C66.5918 30.6484 66.4277 30.6113 66.209 30.584C65.9941 30.5566 65.7871 30.543 65.5879 30.543ZM68.4355 33.7773V33.9004C68.4355 34.3535 68.4961 34.7773 68.6172 35.1719C68.7383 35.5625 68.9082 35.9023 69.127 36.1914C69.3457 36.4805 69.6094 36.707 69.918 36.8711C70.2305 37.0352 70.5781 37.1172 70.9609 37.1172C71.3516 37.1172 71.6934 37.0508 71.9863 36.918C72.2793 36.7852 72.5312 36.5898 72.7422 36.332L72.7891 37H73.7852V28H72.7012V31.2871C72.4941 31.0449 72.248 30.8613 71.9629 30.7363C71.6816 30.6074 71.3516 30.543 70.9727 30.543C70.5859 30.543 70.2363 30.623 69.9238 30.7832C69.6113 30.9434 69.3457 31.166 69.127 31.4512C68.9043 31.7363 68.7324 32.0781 68.6113 32.4766C68.4941 32.8711 68.4355 33.3047 68.4355 33.7773ZM69.5195 33.9004V33.7773C69.5195 33.4688 69.5527 33.1758 69.6191 32.8984C69.6855 32.6172 69.7891 32.3691 69.9297 32.1543C70.0664 31.9434 70.2422 31.7754 70.457 31.6504C70.6758 31.5254 70.9375 31.4629 71.2422 31.4629C71.5977 31.4629 71.8945 31.5469 72.1328 31.7148C72.3711 31.8789 72.5605 32.0898 72.7012 32.3477V35.2891C72.5605 35.5664 72.3711 35.7871 72.1328 35.9512C71.8945 36.1152 71.5938 36.1973 71.2305 36.1973C70.9297 36.1973 70.6719 36.1367 70.457 36.0156C70.2422 35.8906 70.0664 35.7227 69.9297 35.5117C69.7891 35.3008 69.6855 35.0566 69.6191 34.7793C69.5527 34.502 69.5195 34.209 69.5195 33.9004ZM76.457 37H77.3125L78.291 33.1152L78.4492 32.1309L78.6133 33.1152L79.6035 37H80.459L81.8066 30.6602H80.8457L80.1426 34.7031L79.9844 35.6992L79.8145 34.7031L78.8066 30.6602H78.1094L77.0957 34.7031L76.9375 35.6113L76.8086 34.7031L76.0703 30.6602H75.1094L76.457 37ZM87.2207 37H88.3516V36.9062C88.2812 36.7305 88.2266 36.5254 88.1875 36.291C88.1484 36.0527 88.1289 35.8281 88.1289 35.6172V32.6699C88.1289 32.3145 88.0645 32.0039 87.9355 31.7383C87.8066 31.4727 87.6309 31.25 87.4082 31.0703C87.1816 30.8945 86.9141 30.7637 86.6055 30.6777C86.2969 30.5879 85.9629 30.543 85.6035 30.543C85.209 30.543 84.8555 30.5977 84.543 30.707C84.2344 30.8164 83.9727 30.959 83.7578 31.1348C83.5391 31.3145 83.3711 31.5156 83.2539 31.7383C83.1406 31.9609 83.082 32.1875 83.0781 32.418H84.168C84.168 32.2852 84.1992 32.1582 84.2617 32.0371C84.3281 31.9121 84.4199 31.8047 84.5371 31.7148C84.6543 31.625 84.7969 31.5527 84.9648 31.498C85.1367 31.4434 85.3301 31.416 85.5449 31.416C85.7754 31.416 85.9824 31.4453 86.166 31.5039C86.3535 31.5625 86.5117 31.6445 86.6406 31.75C86.7695 31.8594 86.8691 31.9902 86.9395 32.1426C87.0098 32.2949 87.0449 32.4668 87.0449 32.6582V33.1562H85.8613C85.4199 33.1562 85.0195 33.1992 84.6602 33.2852C84.3047 33.3711 84 33.5 83.7461 33.6719C83.4922 33.8477 83.2949 34.0664 83.1543 34.3281C83.0176 34.5898 82.9492 34.8945 82.9492 35.2422C82.9492 35.5078 83 35.7559 83.1016 35.9863C83.207 36.2129 83.3555 36.4082 83.5469 36.5723C83.7344 36.7402 83.9629 36.873 84.2324 36.9707C84.5059 37.0684 84.8105 37.1172 85.1465 37.1172C85.3535 37.1172 85.5488 37.0957 85.7324 37.0527C85.916 37.0098 86.0898 36.9512 86.2539 36.877C86.4141 36.8027 86.5605 36.7168 86.6934 36.6191C86.8301 36.5215 86.9531 36.418 87.0625 36.3086C87.0742 36.4414 87.0918 36.5703 87.1152 36.6953C87.1426 36.8164 87.1777 36.918 87.2207 37ZM85.3047 36.1738C85.0938 36.1738 84.9082 36.1465 84.748 36.0918C84.5879 36.0371 84.4551 35.9609 84.3496 35.8633C84.2441 35.7695 84.1641 35.6562 84.1094 35.5234C84.0586 35.3906 84.0332 35.2461 84.0332 35.0898C84.0332 34.9258 84.0625 34.7793 84.1211 34.6504C84.1836 34.5215 84.2734 34.4102 84.3906 34.3164C84.5547 34.1836 84.7754 34.0859 85.0527 34.0234C85.334 33.957 85.6621 33.9238 86.0371 33.9238H87.0449V35.207C86.9824 35.332 86.8965 35.4531 86.7871 35.5703C86.6777 35.6836 86.5488 35.7852 86.4004 35.875C86.248 35.9648 86.0801 36.0371 85.8965 36.0918C85.7129 36.1465 85.5156 36.1738 85.3047 36.1738ZM94.416 30.543C93.9551 30.543 93.543 30.6445 93.1797 30.8477C92.8203 31.0469 92.5117 31.3203 92.2539 31.668L92.248 31.5098L92.2012 30.6602H91.1699V37H92.2598V32.9336C92.3301 32.7383 92.418 32.5625 92.5234 32.4062C92.6328 32.2461 92.7598 32.1113 92.9043 32.002C93.0645 31.877 93.252 31.7832 93.4668 31.7207C93.6816 31.6543 93.9219 31.6211 94.1875 31.6211C94.3945 31.6211 94.5918 31.6328 94.7793 31.6562C94.9707 31.6758 95.1719 31.709 95.3828 31.7559L95.5293 30.6953C95.4199 30.6484 95.2559 30.6113 95.0371 30.584C94.8223 30.5566 94.6152 30.543 94.416 30.543ZM100.27 37.1172C100.887 37.1172 101.404 36.9941 101.822 36.748C102.244 36.498 102.561 36.2129 102.771 35.8926L102.109 35.377C101.91 35.6348 101.66 35.8418 101.359 35.998C101.059 36.1543 100.715 36.2324 100.328 36.2324C100.035 36.2324 99.7676 36.1777 99.5254 36.0684C99.2832 35.959 99.0762 35.8086 98.9043 35.6172C98.7363 35.4375 98.6035 35.2305 98.5059 34.9961C98.4121 34.7617 98.3516 34.4902 98.3242 34.1816V34.1406H102.854V33.6543C102.854 33.2129 102.797 32.8027 102.684 32.4238C102.574 32.0449 102.406 31.7148 102.18 31.4336C101.953 31.1562 101.668 30.9395 101.324 30.7832C100.984 30.623 100.586 30.543 100.129 30.543C99.7656 30.543 99.4102 30.6172 99.0625 30.7656C98.7188 30.9141 98.4121 31.127 98.1426 31.4043C97.8691 31.6855 97.6504 32.0293 97.4863 32.4355C97.3223 32.8379 97.2402 33.2949 97.2402 33.8066V34.0527C97.2402 34.4941 97.3145 34.9023 97.4629 35.2773C97.6113 35.6523 97.8184 35.9766 98.084 36.25C98.3496 36.5234 98.668 36.7363 99.0391 36.8887C99.4141 37.041 99.8242 37.1172 100.27 37.1172ZM100.129 31.4336C100.406 31.4336 100.645 31.4844 100.844 31.5859C101.047 31.6875 101.215 31.8203 101.348 31.9844C101.48 32.1484 101.584 32.3438 101.658 32.5703C101.732 32.793 101.77 33.002 101.77 33.1973V33.25H98.3594C98.4023 32.957 98.4766 32.6992 98.582 32.4766C98.6914 32.25 98.8242 32.0586 98.9805 31.9023C99.1367 31.75 99.3125 31.6348 99.5078 31.5566C99.7031 31.4746 99.9102 31.4336 100.129 31.4336Z" fill="#F2B8B8"/>
</g>
<defs>
<filter id="filter0_d" x="0" y="0" width="150" height="66.8925" filterUnits="userSpaceOnUse" color-interpolation-filters="sRGB">
<feFlood flood-opacity="0" result="BackgroundImageFix"/>
<feColorMatrix in="SourceAlpha" type="matrix" values="0 0 0 0 0 0 0 0 0 0 0 0 0 0 0 0 0 0 127 0"/>
<feOffset dy="3"/>
<feColorMatrix type="matrix" values="0 0 0 0 0.825 0 0 0 0 0.144375 0 0 0 0 0.144375 0 0 0 1 0"/>
<feBlend mode="normal" in2="BackgroundImageFix" result="effect1_dropShadow"/>
<feBlend mode="normal" in="SourceGraphic" in2="effect1_dropShadow" result="shape"/>
</filter>
</defs>
</svg>
