<svg width="174" height="60" viewBox="0 0 174 60" fill="none" xmlns="http://www.w3.org/2000/svg">
<path d="M60.4307 35V25.0469H59.2344V29.3262H55.1533V25.0469H53.9639V35H55.1533V30.3994H59.2344V35H60.4307ZM67.458 35H68.7773V34.8906C68.6953 34.6855 68.6315 34.4463 68.5859 34.1729C68.5404 33.8949 68.5176 33.6328 68.5176 33.3867V29.9482C68.5176 29.5335 68.4424 29.1712 68.292 28.8613C68.1416 28.5514 67.9365 28.2917 67.6768 28.082C67.4124 27.877 67.1003 27.7243 66.7402 27.624C66.3802 27.5192 65.9906 27.4668 65.5713 27.4668C65.111 27.4668 64.6986 27.5306 64.334 27.6582C63.974 27.7858 63.6686 27.9521 63.418 28.1572C63.1628 28.3669 62.9668 28.6016 62.8301 28.8613C62.6979 29.1211 62.6296 29.3854 62.625 29.6543H63.8965C63.8965 29.4993 63.9329 29.3512 64.0059 29.21C64.0833 29.0641 64.1904 28.9388 64.3271 28.834C64.4639 28.7292 64.6302 28.6449 64.8262 28.5811C65.0267 28.5173 65.2523 28.4854 65.5029 28.4854C65.7718 28.4854 66.0133 28.5195 66.2275 28.5879C66.4463 28.6562 66.6309 28.752 66.7812 28.875C66.9316 29.0026 67.0479 29.1553 67.1299 29.333C67.2119 29.5107 67.2529 29.7113 67.2529 29.9346V30.5156H65.8721C65.3571 30.5156 64.89 30.5658 64.4707 30.666C64.056 30.7663 63.7005 30.9167 63.4043 31.1172C63.1081 31.3223 62.8779 31.5775 62.7139 31.8828C62.5544 32.1882 62.4746 32.5436 62.4746 32.9492C62.4746 33.2591 62.5339 33.5485 62.6523 33.8174C62.7754 34.0817 62.9486 34.3096 63.1719 34.501C63.3906 34.6969 63.6572 34.8519 63.9717 34.9658C64.2907 35.0798 64.6462 35.1367 65.0381 35.1367C65.2796 35.1367 65.5075 35.1117 65.7217 35.0615C65.9359 35.0114 66.1387 34.943 66.3301 34.8564C66.5169 34.7699 66.6878 34.6696 66.8428 34.5557C67.0023 34.4417 67.1458 34.321 67.2734 34.1934C67.2871 34.3483 67.3076 34.4987 67.335 34.6445C67.3669 34.7858 67.4079 34.9043 67.458 35ZM65.2227 34.0361C64.9766 34.0361 64.7601 34.0042 64.5732 33.9404C64.3864 33.8766 64.2314 33.7878 64.1084 33.6738C63.9854 33.5645 63.8919 33.4323 63.8281 33.2773C63.7689 33.1224 63.7393 32.9538 63.7393 32.7715C63.7393 32.5801 63.7734 32.4092 63.8418 32.2588C63.9147 32.1084 64.0195 31.9785 64.1562 31.8691C64.3477 31.7142 64.6051 31.6003 64.9287 31.5273C65.2568 31.4499 65.6396 31.4111 66.0771 31.4111H67.2529V32.9082C67.18 33.054 67.0798 33.1953 66.9521 33.332C66.8245 33.4642 66.6742 33.5827 66.501 33.6875C66.3232 33.7923 66.1273 33.8766 65.9131 33.9404C65.6989 34.0042 65.4688 34.0361 65.2227 34.0361ZM75.8525 27.4668C75.3148 27.4668 74.834 27.5853 74.4102 27.8223C73.9909 28.0547 73.6309 28.3737 73.3301 28.7793L73.3232 28.5947L73.2686 27.6035H72.0654V35H73.3369V30.2559C73.4189 30.028 73.5215 29.8229 73.6445 29.6406C73.7721 29.4538 73.9202 29.2965 74.0889 29.1689C74.2757 29.0231 74.4945 28.9137 74.7451 28.8408C74.9958 28.7633 75.276 28.7246 75.5859 28.7246C75.8275 28.7246 76.0576 28.7383 76.2764 28.7656C76.4997 28.7884 76.7344 28.8271 76.9805 28.8818L77.1514 27.6445C77.0238 27.5898 76.8324 27.5465 76.5771 27.5146C76.3265 27.4827 76.085 27.4668 75.8525 27.4668ZM79.1748 31.2402V31.3838C79.1748 31.9124 79.2454 32.4069 79.3867 32.8672C79.528 33.3229 79.7262 33.7194 79.9814 34.0566C80.2367 34.3939 80.5443 34.6582 80.9043 34.8496C81.2689 35.041 81.6745 35.1367 82.1211 35.1367C82.5768 35.1367 82.9756 35.0592 83.3174 34.9043C83.6592 34.7493 83.9531 34.5215 84.1992 34.2207L84.2539 35H85.416V24.5H84.1514V28.335C83.9098 28.0524 83.6227 27.8382 83.29 27.6924C82.9619 27.542 82.5768 27.4668 82.1348 27.4668C81.6836 27.4668 81.2757 27.5602 80.9111 27.7471C80.5465 27.9339 80.2367 28.1937 79.9814 28.5264C79.7217 28.859 79.5212 29.2578 79.3799 29.7227C79.2432 30.1829 79.1748 30.6888 79.1748 31.2402ZM80.4395 31.3838V31.2402C80.4395 30.8802 80.4782 30.5384 80.5557 30.2148C80.6331 29.8867 80.7539 29.5973 80.918 29.3467C81.0775 29.1006 81.2826 28.9046 81.5332 28.7588C81.7884 28.613 82.0938 28.54 82.4492 28.54C82.8639 28.54 83.2103 28.638 83.4883 28.834C83.7663 29.0254 83.9873 29.2715 84.1514 29.5723V33.0039C83.9873 33.3275 83.7663 33.585 83.4883 33.7764C83.2103 33.9678 82.8594 34.0635 82.4355 34.0635C82.0846 34.0635 81.7839 33.9928 81.5332 33.8516C81.2826 33.7057 81.0775 33.5098 80.918 33.2637C80.7539 33.0176 80.6331 32.7327 80.5557 32.4092C80.4782 32.0856 80.4395 31.7438 80.4395 31.3838ZM88.5332 35H89.5312L90.6729 30.4678L90.8574 29.3193L91.0488 30.4678L92.2041 35H93.2021L94.7744 27.6035H93.6533L92.833 32.3203L92.6484 33.4824L92.4502 32.3203L91.2744 27.6035H90.4609L89.2783 32.3203L89.0938 33.3799L88.9434 32.3203L88.082 27.6035H86.9609L88.5332 35ZM101.091 35H102.41V34.8906C102.328 34.6855 102.264 34.4463 102.219 34.1729C102.173 33.8949 102.15 33.6328 102.15 33.3867V29.9482C102.15 29.5335 102.075 29.1712 101.925 28.8613C101.774 28.5514 101.569 28.2917 101.31 28.082C101.045 27.877 100.733 27.7243 100.373 27.624C100.013 27.5192 99.6234 27.4668 99.2041 27.4668C98.7438 27.4668 98.3314 27.5306 97.9668 27.6582C97.6068 27.7858 97.3014 27.9521 97.0508 28.1572C96.7956 28.3669 96.5996 28.6016 96.4629 28.8613C96.3307 29.1211 96.2624 29.3854 96.2578 29.6543H97.5293C97.5293 29.4993 97.5658 29.3512 97.6387 29.21C97.7161 29.0641 97.8232 28.9388 97.96 28.834C98.0967 28.7292 98.263 28.6449 98.459 28.5811C98.6595 28.5173 98.8851 28.4854 99.1357 28.4854C99.4046 28.4854 99.6462 28.5195 99.8604 28.5879C100.079 28.6562 100.264 28.752 100.414 28.875C100.564 29.0026 100.681 29.1553 100.763 29.333C100.845 29.5107 100.886 29.7113 100.886 29.9346V30.5156H99.5049C98.9899 30.5156 98.5228 30.5658 98.1035 30.666C97.6888 30.7663 97.3333 30.9167 97.0371 31.1172C96.7409 31.3223 96.5107 31.5775 96.3467 31.8828C96.1872 32.1882 96.1074 32.5436 96.1074 32.9492C96.1074 33.2591 96.1667 33.5485 96.2852 33.8174C96.4082 34.0817 96.5814 34.3096 96.8047 34.501C97.0234 34.6969 97.29 34.8519 97.6045 34.9658C97.9235 35.0798 98.279 35.1367 98.6709 35.1367C98.9124 35.1367 99.1403 35.1117 99.3545 35.0615C99.5687 35.0114 99.7715 34.943 99.9629 34.8564C100.15 34.7699 100.321 34.6696 100.476 34.5557C100.635 34.4417 100.779 34.321 100.906 34.1934C100.92 34.3483 100.94 34.4987 100.968 34.6445C101 34.7858 101.041 34.9043 101.091 35ZM98.8555 34.0361C98.6094 34.0361 98.3929 34.0042 98.2061 33.9404C98.0192 33.8766 97.8643 33.7878 97.7412 33.6738C97.6182 33.5645 97.5247 33.4323 97.4609 33.2773C97.4017 33.1224 97.3721 32.9538 97.3721 32.7715C97.3721 32.5801 97.4062 32.4092 97.4746 32.2588C97.5475 32.1084 97.6523 31.9785 97.7891 31.8691C97.9805 31.7142 98.238 31.6003 98.5615 31.5273C98.8896 31.4499 99.2725 31.4111 99.71 31.4111H100.886V32.9082C100.813 33.054 100.713 33.1953 100.585 33.332C100.457 33.4642 100.307 33.5827 100.134 33.6875C99.9561 33.7923 99.7601 33.8766 99.5459 33.9404C99.3317 34.0042 99.1016 34.0361 98.8555 34.0361ZM109.485 27.4668C108.948 27.4668 108.467 27.5853 108.043 27.8223C107.624 28.0547 107.264 28.3737 106.963 28.7793L106.956 28.5947L106.901 27.6035H105.698V35H106.97V30.2559C107.052 30.028 107.154 29.8229 107.277 29.6406C107.405 29.4538 107.553 29.2965 107.722 29.1689C107.909 29.0231 108.127 28.9137 108.378 28.8408C108.629 28.7633 108.909 28.7246 109.219 28.7246C109.46 28.7246 109.69 28.7383 109.909 28.7656C110.132 28.7884 110.367 28.8271 110.613 28.8818L110.784 27.6445C110.657 27.5898 110.465 27.5465 110.21 27.5146C109.959 27.4827 109.718 27.4668 109.485 27.4668ZM116.314 35.1367C117.035 35.1367 117.638 34.9932 118.126 34.7061C118.618 34.4144 118.987 34.0817 119.233 33.708L118.461 33.1064C118.229 33.4072 117.937 33.6488 117.586 33.8311C117.235 34.0133 116.834 34.1045 116.383 34.1045C116.041 34.1045 115.729 34.0407 115.446 33.9131C115.164 33.7855 114.922 33.61 114.722 33.3867C114.526 33.1771 114.371 32.9355 114.257 32.6621C114.147 32.3887 114.077 32.0719 114.045 31.7119V31.6641H119.329V31.0967C119.329 30.5817 119.263 30.1032 119.131 29.6611C119.003 29.2191 118.807 28.834 118.543 28.5059C118.279 28.1823 117.946 27.9294 117.545 27.7471C117.148 27.5602 116.684 27.4668 116.15 27.4668C115.727 27.4668 115.312 27.5534 114.906 27.7266C114.505 27.8997 114.147 28.1481 113.833 28.4717C113.514 28.7998 113.259 29.2008 113.067 29.6748C112.876 30.1442 112.78 30.6774 112.78 31.2744V31.5615C112.78 32.0765 112.867 32.5527 113.04 32.9902C113.213 33.4277 113.455 33.806 113.765 34.125C114.075 34.444 114.446 34.6924 114.879 34.8701C115.316 35.0479 115.795 35.1367 116.314 35.1367ZM116.15 28.5059C116.474 28.5059 116.752 28.5651 116.984 28.6836C117.221 28.8021 117.417 28.957 117.572 29.1484C117.727 29.3398 117.848 29.5677 117.935 29.832C118.021 30.0918 118.064 30.3356 118.064 30.5635V30.625H114.086C114.136 30.2832 114.223 29.9824 114.346 29.7227C114.473 29.4583 114.628 29.235 114.811 29.0527C114.993 28.875 115.198 28.7406 115.426 28.6494C115.654 28.5537 115.895 28.5059 116.15 28.5059Z" fill="#EB4E4E"/>
</svg>
