<svg width="150" height="67" viewBox="0 0 150 67" fill="none" xmlns="http://www.w3.org/2000/svg">
<g filter="url(#filter0_d)">
<rect width="150" height="63.8925" rx="5" fill="#FF5722"/>
<path d="M53.8047 37H52.4854V32.3994H47.4678V37H46.1553V27.0469H47.4678V31.3262H52.4854V27.0469H53.8047V37ZM60.5039 37C60.431 36.8542 60.3717 36.5944 60.3262 36.2207C59.7383 36.8314 59.0365 37.1367 58.2207 37.1367C57.4915 37.1367 56.8923 36.9316 56.4229 36.5215C55.958 36.1068 55.7256 35.5827 55.7256 34.9492C55.7256 34.179 56.0173 33.582 56.6006 33.1582C57.1885 32.7298 58.0133 32.5156 59.0752 32.5156H60.3057V31.9346C60.3057 31.4925 60.1735 31.1416 59.9092 30.8818C59.6449 30.6175 59.2552 30.4854 58.7402 30.4854C58.2891 30.4854 57.9108 30.5993 57.6055 30.8271C57.3001 31.055 57.1475 31.3307 57.1475 31.6543H55.876C55.876 31.2852 56.0059 30.9297 56.2656 30.5879C56.5299 30.2415 56.8854 29.9681 57.332 29.7676C57.7832 29.5671 58.2777 29.4668 58.8154 29.4668C59.6676 29.4668 60.3353 29.681 60.8184 30.1094C61.3014 30.5332 61.5521 31.1188 61.5703 31.8662V35.2705C61.5703 35.9495 61.6569 36.4896 61.8301 36.8906V37H60.5039ZM58.4053 36.0361C58.8018 36.0361 59.1777 35.9336 59.5332 35.7285C59.8887 35.5234 60.1462 35.2568 60.3057 34.9287V33.4111H59.3145C57.765 33.4111 56.9902 33.8646 56.9902 34.7715C56.9902 35.168 57.1224 35.4779 57.3867 35.7012C57.651 35.9245 57.9906 36.0361 58.4053 36.0361ZM67.1279 30.7383C66.9365 30.7064 66.7292 30.6904 66.5059 30.6904C65.6764 30.6904 65.1136 31.0436 64.8174 31.75V37H63.5527V29.6035H64.7832L64.8037 30.458C65.2184 29.7972 65.8063 29.4668 66.5674 29.4668C66.8135 29.4668 67.0003 29.4987 67.1279 29.5625V30.7383ZM67.8525 33.2402C67.8525 32.1055 68.1214 31.194 68.6592 30.5059C69.1969 29.8132 69.901 29.4668 70.7715 29.4668C71.6374 29.4668 72.3232 29.763 72.8291 30.3555V26.5H74.0938V37H72.9316L72.8701 36.207C72.3643 36.8268 71.6602 37.1367 70.7578 37.1367C69.901 37.1367 69.2015 36.7858 68.6592 36.084C68.1214 35.3822 67.8525 34.4661 67.8525 33.3359V33.2402ZM69.1172 33.3838C69.1172 34.2223 69.2904 34.8786 69.6367 35.3525C69.9831 35.8265 70.4616 36.0635 71.0723 36.0635C71.8743 36.0635 72.46 35.7035 72.8291 34.9834V31.5859C72.4508 30.8887 71.8698 30.54 71.0859 30.54C70.4661 30.54 69.9831 30.7793 69.6367 31.2578C69.2904 31.7363 69.1172 32.445 69.1172 33.3838ZM82.6113 35.2568L84.0332 29.6035H85.2979L83.1445 37H82.1191L80.3213 31.3945L78.5713 37H77.5459L75.3994 29.6035H76.6572L78.1133 35.1406L79.8359 29.6035H80.8545L82.6113 35.2568ZM91.1562 37C91.0833 36.8542 91.0241 36.5944 90.9785 36.2207C90.3906 36.8314 89.6888 37.1367 88.873 37.1367C88.1439 37.1367 87.5446 36.9316 87.0752 36.5215C86.6104 36.1068 86.3779 35.5827 86.3779 34.9492C86.3779 34.179 86.6696 33.582 87.2529 33.1582C87.8408 32.7298 88.6657 32.5156 89.7275 32.5156H90.958V31.9346C90.958 31.4925 90.8258 31.1416 90.5615 30.8818C90.2972 30.6175 89.9076 30.4854 89.3926 30.4854C88.9414 30.4854 88.5632 30.5993 88.2578 30.8271C87.9525 31.055 87.7998 31.3307 87.7998 31.6543H86.5283C86.5283 31.2852 86.6582 30.9297 86.918 30.5879C87.1823 30.2415 87.5378 29.9681 87.9844 29.7676C88.4355 29.5671 88.93 29.4668 89.4678 29.4668C90.32 29.4668 90.9876 29.681 91.4707 30.1094C91.9538 30.5332 92.2044 31.1188 92.2227 31.8662V35.2705C92.2227 35.9495 92.3092 36.4896 92.4824 36.8906V37H91.1562ZM89.0576 36.0361C89.4541 36.0361 89.8301 35.9336 90.1855 35.7285C90.541 35.5234 90.7985 35.2568 90.958 34.9287V33.4111H89.9668C88.4173 33.4111 87.6426 33.8646 87.6426 34.7715C87.6426 35.168 87.7747 35.4779 88.0391 35.7012C88.3034 35.9245 88.6429 36.0361 89.0576 36.0361ZM97.7803 30.7383C97.5889 30.7064 97.3815 30.6904 97.1582 30.6904C96.3288 30.6904 95.766 31.0436 95.4697 31.75V37H94.2051V29.6035H95.4355L95.4561 30.458C95.8708 29.7972 96.4587 29.4668 97.2197 29.4668C97.4658 29.4668 97.6527 29.4987 97.7803 29.5625V30.7383ZM101.882 37.1367C100.879 37.1367 100.063 36.8086 99.4346 36.1523C98.8057 35.4915 98.4912 34.6097 98.4912 33.5068V33.2744C98.4912 32.5407 98.6302 31.8867 98.9082 31.3125C99.1908 30.7337 99.5827 30.2826 100.084 29.959C100.59 29.6309 101.137 29.4668 101.725 29.4668C102.686 29.4668 103.434 29.7835 103.967 30.417C104.5 31.0505 104.767 31.9574 104.767 33.1377V33.6641H99.7559C99.7741 34.3932 99.986 34.9834 100.392 35.4346C100.802 35.8812 101.321 36.1045 101.95 36.1045C102.397 36.1045 102.775 36.0133 103.085 35.8311C103.395 35.6488 103.666 35.4072 103.898 35.1064L104.671 35.708C104.051 36.6605 103.121 37.1367 101.882 37.1367ZM101.725 30.5059C101.214 30.5059 100.786 30.6927 100.439 31.0664C100.093 31.4355 99.8789 31.9551 99.7969 32.625H103.502V32.5293C103.465 31.8867 103.292 31.39 102.982 31.0391C102.673 30.6836 102.253 30.5059 101.725 30.5059Z" fill="white"/>
<rect x="0.5" y="0.5" width="149" height="62.8925" rx="4.5" stroke="#FF5722"/>
</g>
<defs>
<filter id="filter0_d" x="0" y="0" width="150" height="66.8925" filterUnits="userSpaceOnUse" color-interpolation-filters="sRGB">
<feFlood flood-opacity="0" result="BackgroundImageFix"/>
<feColorMatrix in="SourceAlpha" type="matrix" values="0 0 0 0 0 0 0 0 0 0 0 0 0 0 0 0 0 0 127 0"/>
<feOffset dy="3"/>
<feColorMatrix type="matrix" values="0 0 0 0 0.752941 0 0 0 0 0 0 0 0 0 0 0 0 0 1 0"/>
<feBlend mode="normal" in2="BackgroundImageFix" result="effect1_dropShadow"/>
<feBlend mode="normal" in="SourceGraphic" in2="effect1_dropShadow" result="shape"/>
</filter>
</defs>
</svg>
