<svg width="164" height="73" viewBox="0 0 164 73" fill="none" xmlns="http://www.w3.org/2000/svg">
<g filter="url(#filter0_d)">
<rect width="164" height="70" rx="5" fill="#C00000"/>
<path d="M55.4307 40V30.0469H54.2344V34.3262H50.1533V30.0469H48.9639V40H50.1533V35.3994H54.2344V40H55.4307ZM62.458 40H63.7773V39.8906C63.6953 39.6855 63.6315 39.4463 63.5859 39.1729C63.5404 38.8949 63.5176 38.6328 63.5176 38.3867V34.9482C63.5176 34.5335 63.4424 34.1712 63.292 33.8613C63.1416 33.5514 62.9365 33.2917 62.6768 33.082C62.4124 32.877 62.1003 32.7243 61.7402 32.624C61.3802 32.5192 60.9906 32.4668 60.5713 32.4668C60.111 32.4668 59.6986 32.5306 59.334 32.6582C58.974 32.7858 58.6686 32.9521 58.418 33.1572C58.1628 33.3669 57.9668 33.6016 57.8301 33.8613C57.6979 34.1211 57.6296 34.3854 57.625 34.6543H58.8965C58.8965 34.4993 58.9329 34.3512 59.0059 34.21C59.0833 34.0641 59.1904 33.9388 59.3271 33.834C59.4639 33.7292 59.6302 33.6449 59.8262 33.5811C60.0267 33.5173 60.2523 33.4854 60.5029 33.4854C60.7718 33.4854 61.0133 33.5195 61.2275 33.5879C61.4463 33.6562 61.6309 33.752 61.7812 33.875C61.9316 34.0026 62.0479 34.1553 62.1299 34.333C62.2119 34.5107 62.2529 34.7113 62.2529 34.9346V35.5156H60.8721C60.3571 35.5156 59.89 35.5658 59.4707 35.666C59.056 35.7663 58.7005 35.9167 58.4043 36.1172C58.1081 36.3223 57.8779 36.5775 57.7139 36.8828C57.5544 37.1882 57.4746 37.5436 57.4746 37.9492C57.4746 38.2591 57.5339 38.5485 57.6523 38.8174C57.7754 39.0817 57.9486 39.3096 58.1719 39.501C58.3906 39.6969 58.6572 39.8519 58.9717 39.9658C59.2907 40.0798 59.6462 40.1367 60.0381 40.1367C60.2796 40.1367 60.5075 40.1117 60.7217 40.0615C60.9359 40.0114 61.1387 39.943 61.3301 39.8564C61.5169 39.7699 61.6878 39.6696 61.8428 39.5557C62.0023 39.4417 62.1458 39.321 62.2734 39.1934C62.2871 39.3483 62.3076 39.4987 62.335 39.6445C62.3669 39.7858 62.4079 39.9043 62.458 40ZM60.2227 39.0361C59.9766 39.0361 59.7601 39.0042 59.5732 38.9404C59.3864 38.8766 59.2314 38.7878 59.1084 38.6738C58.9854 38.5645 58.8919 38.4323 58.8281 38.2773C58.7689 38.1224 58.7393 37.9538 58.7393 37.7715C58.7393 37.5801 58.7734 37.4092 58.8418 37.2588C58.9147 37.1084 59.0195 36.9785 59.1562 36.8691C59.3477 36.7142 59.6051 36.6003 59.9287 36.5273C60.2568 36.4499 60.6396 36.4111 61.0771 36.4111H62.2529V37.9082C62.18 38.054 62.0798 38.1953 61.9521 38.332C61.8245 38.4642 61.6742 38.5827 61.501 38.6875C61.3232 38.7923 61.1273 38.8766 60.9131 38.9404C60.6989 39.0042 60.4688 39.0361 60.2227 39.0361ZM70.8525 32.4668C70.3148 32.4668 69.834 32.5853 69.4102 32.8223C68.9909 33.0547 68.6309 33.3737 68.3301 33.7793L68.3232 33.5947L68.2686 32.6035H67.0654V40H68.3369V35.2559C68.4189 35.028 68.5215 34.8229 68.6445 34.6406C68.7721 34.4538 68.9202 34.2965 69.0889 34.1689C69.2757 34.0231 69.4945 33.9137 69.7451 33.8408C69.9958 33.7633 70.276 33.7246 70.5859 33.7246C70.8275 33.7246 71.0576 33.7383 71.2764 33.7656C71.4997 33.7884 71.7344 33.8271 71.9805 33.8818L72.1514 32.6445C72.0238 32.5898 71.8324 32.5465 71.5771 32.5146C71.3265 32.4827 71.085 32.4668 70.8525 32.4668ZM74.1748 36.2402V36.3838C74.1748 36.9124 74.2454 37.4069 74.3867 37.8672C74.528 38.3229 74.7262 38.7194 74.9814 39.0566C75.2367 39.3939 75.5443 39.6582 75.9043 39.8496C76.2689 40.041 76.6745 40.1367 77.1211 40.1367C77.5768 40.1367 77.9756 40.0592 78.3174 39.9043C78.6592 39.7493 78.9531 39.5215 79.1992 39.2207L79.2539 40H80.416V29.5H79.1514V33.335C78.9098 33.0524 78.6227 32.8382 78.29 32.6924C77.9619 32.542 77.5768 32.4668 77.1348 32.4668C76.6836 32.4668 76.2757 32.5602 75.9111 32.7471C75.5465 32.9339 75.2367 33.1937 74.9814 33.5264C74.7217 33.859 74.5212 34.2578 74.3799 34.7227C74.2432 35.1829 74.1748 35.6888 74.1748 36.2402ZM75.4395 36.3838V36.2402C75.4395 35.8802 75.4782 35.5384 75.5557 35.2148C75.6331 34.8867 75.7539 34.5973 75.918 34.3467C76.0775 34.1006 76.2826 33.9046 76.5332 33.7588C76.7884 33.613 77.0938 33.54 77.4492 33.54C77.8639 33.54 78.2103 33.638 78.4883 33.834C78.7663 34.0254 78.9873 34.2715 79.1514 34.5723V38.0039C78.9873 38.3275 78.7663 38.585 78.4883 38.7764C78.2103 38.9678 77.8594 39.0635 77.4355 39.0635C77.0846 39.0635 76.7839 38.9928 76.5332 38.8516C76.2826 38.7057 76.0775 38.5098 75.918 38.2637C75.7539 38.0176 75.6331 37.7327 75.5557 37.4092C75.4782 37.0856 75.4395 36.7438 75.4395 36.3838ZM83.5332 40H84.5312L85.6729 35.4678L85.8574 34.3193L86.0488 35.4678L87.2041 40H88.2021L89.7744 32.6035H88.6533L87.833 37.3203L87.6484 38.4824L87.4502 37.3203L86.2744 32.6035H85.4609L84.2783 37.3203L84.0938 38.3799L83.9434 37.3203L83.082 32.6035H81.9609L83.5332 40ZM96.0908 40H97.4102V39.8906C97.3281 39.6855 97.2643 39.4463 97.2188 39.1729C97.1732 38.8949 97.1504 38.6328 97.1504 38.3867V34.9482C97.1504 34.5335 97.0752 34.1712 96.9248 33.8613C96.7744 33.5514 96.5693 33.2917 96.3096 33.082C96.0452 32.877 95.7331 32.7243 95.373 32.624C95.013 32.5192 94.6234 32.4668 94.2041 32.4668C93.7438 32.4668 93.3314 32.5306 92.9668 32.6582C92.6068 32.7858 92.3014 32.9521 92.0508 33.1572C91.7956 33.3669 91.5996 33.6016 91.4629 33.8613C91.3307 34.1211 91.2624 34.3854 91.2578 34.6543H92.5293C92.5293 34.4993 92.5658 34.3512 92.6387 34.21C92.7161 34.0641 92.8232 33.9388 92.96 33.834C93.0967 33.7292 93.263 33.6449 93.459 33.5811C93.6595 33.5173 93.8851 33.4854 94.1357 33.4854C94.4046 33.4854 94.6462 33.5195 94.8604 33.5879C95.0791 33.6562 95.2637 33.752 95.4141 33.875C95.5645 34.0026 95.6807 34.1553 95.7627 34.333C95.8447 34.5107 95.8857 34.7113 95.8857 34.9346V35.5156H94.5049C93.9899 35.5156 93.5228 35.5658 93.1035 35.666C92.6888 35.7663 92.3333 35.9167 92.0371 36.1172C91.7409 36.3223 91.5107 36.5775 91.3467 36.8828C91.1872 37.1882 91.1074 37.5436 91.1074 37.9492C91.1074 38.2591 91.1667 38.5485 91.2852 38.8174C91.4082 39.0817 91.5814 39.3096 91.8047 39.501C92.0234 39.6969 92.29 39.8519 92.6045 39.9658C92.9235 40.0798 93.279 40.1367 93.6709 40.1367C93.9124 40.1367 94.1403 40.1117 94.3545 40.0615C94.5687 40.0114 94.7715 39.943 94.9629 39.8564C95.1497 39.7699 95.3206 39.6696 95.4756 39.5557C95.6351 39.4417 95.7786 39.321 95.9062 39.1934C95.9199 39.3483 95.9404 39.4987 95.9678 39.6445C95.9997 39.7858 96.0407 39.9043 96.0908 40ZM93.8555 39.0361C93.6094 39.0361 93.3929 39.0042 93.2061 38.9404C93.0192 38.8766 92.8643 38.7878 92.7412 38.6738C92.6182 38.5645 92.5247 38.4323 92.4609 38.2773C92.4017 38.1224 92.3721 37.9538 92.3721 37.7715C92.3721 37.5801 92.4062 37.4092 92.4746 37.2588C92.5475 37.1084 92.6523 36.9785 92.7891 36.8691C92.9805 36.7142 93.238 36.6003 93.5615 36.5273C93.8896 36.4499 94.2725 36.4111 94.71 36.4111H95.8857V37.9082C95.8128 38.054 95.7126 38.1953 95.585 38.332C95.4574 38.4642 95.307 38.5827 95.1338 38.6875C94.9561 38.7923 94.7601 38.8766 94.5459 38.9404C94.3317 39.0042 94.1016 39.0361 93.8555 39.0361ZM104.485 32.4668C103.948 32.4668 103.467 32.5853 103.043 32.8223C102.624 33.0547 102.264 33.3737 101.963 33.7793L101.956 33.5947L101.901 32.6035H100.698V40H101.97V35.2559C102.052 35.028 102.154 34.8229 102.277 34.6406C102.405 34.4538 102.553 34.2965 102.722 34.1689C102.909 34.0231 103.127 33.9137 103.378 33.8408C103.629 33.7633 103.909 33.7246 104.219 33.7246C104.46 33.7246 104.69 33.7383 104.909 33.7656C105.132 33.7884 105.367 33.8271 105.613 33.8818L105.784 32.6445C105.657 32.5898 105.465 32.5465 105.21 32.5146C104.959 32.4827 104.718 32.4668 104.485 32.4668ZM111.314 40.1367C112.035 40.1367 112.638 39.9932 113.126 39.7061C113.618 39.4144 113.987 39.0817 114.233 38.708L113.461 38.1064C113.229 38.4072 112.937 38.6488 112.586 38.8311C112.235 39.0133 111.834 39.1045 111.383 39.1045C111.041 39.1045 110.729 39.0407 110.446 38.9131C110.164 38.7855 109.922 38.61 109.722 38.3867C109.526 38.1771 109.371 37.9355 109.257 37.6621C109.147 37.3887 109.077 37.0719 109.045 36.7119V36.6641H114.329V36.0967C114.329 35.5817 114.263 35.1032 114.131 34.6611C114.003 34.2191 113.807 33.834 113.543 33.5059C113.279 33.1823 112.946 32.9294 112.545 32.7471C112.148 32.5602 111.684 32.4668 111.15 32.4668C110.727 32.4668 110.312 32.5534 109.906 32.7266C109.505 32.8997 109.147 33.1481 108.833 33.4717C108.514 33.7998 108.259 34.2008 108.067 34.6748C107.876 35.1442 107.78 35.6774 107.78 36.2744V36.5615C107.78 37.0765 107.867 37.5527 108.04 37.9902C108.213 38.4277 108.455 38.806 108.765 39.125C109.075 39.444 109.446 39.6924 109.879 39.8701C110.316 40.0479 110.795 40.1367 111.314 40.1367ZM111.15 33.5059C111.474 33.5059 111.752 33.5651 111.984 33.6836C112.221 33.8021 112.417 33.957 112.572 34.1484C112.727 34.3398 112.848 34.5677 112.935 34.832C113.021 35.0918 113.064 35.3356 113.064 35.5635V35.625H109.086C109.136 35.2832 109.223 34.9824 109.346 34.7227C109.473 34.4583 109.628 34.235 109.811 34.0527C109.993 33.875 110.198 33.7406 110.426 33.6494C110.654 33.5537 110.895 33.5059 111.15 33.5059Z" fill="#F2B8B8"/>
</g>
<defs>
<filter id="filter0_d" x="0" y="0" width="164" height="73" filterUnits="userSpaceOnUse" color-interpolation-filters="sRGB">
<feFlood flood-opacity="0" result="BackgroundImageFix"/>
<feColorMatrix in="SourceAlpha" type="matrix" values="0 0 0 0 0 0 0 0 0 0 0 0 0 0 0 0 0 0 127 0"/>
<feOffset dy="3"/>
<feColorMatrix type="matrix" values="0 0 0 0 0.920833 0 0 0 0 0.306944 0 0 0 0 0.306944 0 0 0 1 0"/>
<feBlend mode="normal" in2="BackgroundImageFix" result="effect1_dropShadow"/>
<feBlend mode="normal" in="SourceGraphic" in2="effect1_dropShadow" result="shape"/>
</filter>
</defs>
</svg>
