<svg width="200" height="86" viewBox="0 0 200 86" fill="none" xmlns="http://www.w3.org/2000/svg">
<g clip-path="url(#clip0)">
<rect width="200" height="85.19" rx="5" fill="white"/>
<rect width="200" height="85.1852" rx="5" fill="#FF5722"/>
<path d="M25.7676 47.4775C25.7676 47.0381 25.6006 46.6982 25.2666 46.458C24.9385 46.2119 24.3613 46.001 23.5352 45.8252C22.7148 45.6494 22.0615 45.4385 21.5752 45.1924C21.0947 44.9463 20.7373 44.6533 20.5029 44.3135C20.2744 43.9736 20.1602 43.5693 20.1602 43.1006C20.1602 42.3213 20.4883 41.6621 21.1445 41.123C21.8066 40.584 22.6504 40.3145 23.6758 40.3145C24.7539 40.3145 25.627 40.5928 26.2949 41.1494C26.9688 41.7061 27.3057 42.418 27.3057 43.2852H25.6709C25.6709 42.8398 25.4805 42.4561 25.0996 42.1338C24.7246 41.8115 24.25 41.6504 23.6758 41.6504C23.084 41.6504 22.6211 41.7793 22.2871 42.0371C21.9531 42.2949 21.7861 42.6318 21.7861 43.0479C21.7861 43.4404 21.9414 43.7363 22.252 43.9355C22.5625 44.1348 23.1221 44.3252 23.9307 44.5068C24.7451 44.6885 25.4043 44.9053 25.9082 45.1572C26.4121 45.4092 26.7842 45.7139 27.0244 46.0713C27.2705 46.4229 27.3936 46.8535 27.3936 47.3633C27.3936 48.2129 27.0537 48.8955 26.374 49.4111C25.6943 49.9209 24.8125 50.1758 23.7285 50.1758C22.9668 50.1758 22.293 50.041 21.707 49.7715C21.1211 49.502 20.6611 49.127 20.3271 48.6465C19.999 48.1602 19.835 47.6357 19.835 47.0732H21.4609C21.4902 47.6182 21.707 48.0518 22.1113 48.374C22.5215 48.6904 23.0605 48.8486 23.7285 48.8486C24.3438 48.8486 24.8359 48.7256 25.2051 48.4795C25.5801 48.2275 25.7676 47.8936 25.7676 47.4775ZM35.3828 49.0596C34.75 49.8037 33.8213 50.1758 32.5967 50.1758C31.583 50.1758 30.8096 49.8828 30.2764 49.2969C29.749 48.7051 29.4824 47.832 29.4766 46.6777V40.4902H31.1025V46.6338C31.1025 48.0752 31.6885 48.7959 32.8604 48.7959C34.1025 48.7959 34.9287 48.333 35.3389 47.4072V40.4902H36.9648V50H35.418L35.3828 49.0596ZM47.4766 45.3506C47.4766 46.7979 47.1455 47.9639 46.4834 48.8486C45.8213 49.7334 44.9248 50.1758 43.7939 50.1758C42.6396 50.1758 41.7314 49.8096 41.0693 49.0771V53.6562H39.4434V40.4902H40.9287L41.0078 41.5449C41.6699 40.7246 42.5898 40.3145 43.7676 40.3145C44.9102 40.3145 45.8125 40.7451 46.4746 41.6064C47.1426 42.4678 47.4766 43.666 47.4766 45.2012V45.3506ZM45.8506 45.166C45.8506 44.0938 45.6221 43.2471 45.165 42.626C44.708 42.0049 44.0811 41.6943 43.2842 41.6943C42.2998 41.6943 41.5615 42.1309 41.0693 43.0039V47.5479C41.5557 48.415 42.2998 48.8486 43.3018 48.8486C44.0811 48.8486 44.6992 48.541 45.1562 47.9258C45.6191 47.3047 45.8506 46.3848 45.8506 45.166ZM57.584 45.3506C57.584 46.7979 57.2529 47.9639 56.5908 48.8486C55.9287 49.7334 55.0322 50.1758 53.9014 50.1758C52.7471 50.1758 51.8389 49.8096 51.1768 49.0771V53.6562H49.5508V40.4902H51.0361L51.1152 41.5449C51.7773 40.7246 52.6973 40.3145 53.875 40.3145C55.0176 40.3145 55.9199 40.7451 56.582 41.6064C57.25 42.4678 57.584 43.666 57.584 45.2012V45.3506ZM55.958 45.166C55.958 44.0938 55.7295 43.2471 55.2725 42.626C54.8154 42.0049 54.1885 41.6943 53.3916 41.6943C52.4072 41.6943 51.6689 42.1309 51.1768 43.0039V47.5479C51.6631 48.415 52.4072 48.8486 53.4092 48.8486C54.1885 48.8486 54.8066 48.541 55.2637 47.9258C55.7266 47.3047 55.958 46.3848 55.958 45.166ZM59.2275 45.1572C59.2275 44.2256 59.4092 43.3877 59.7725 42.6436C60.1416 41.8994 60.6514 41.3252 61.3018 40.9209C61.958 40.5166 62.7051 40.3145 63.543 40.3145C64.8379 40.3145 65.8838 40.7627 66.6807 41.6592C67.4834 42.5557 67.8848 43.748 67.8848 45.2363V45.3506C67.8848 46.2764 67.7061 47.1084 67.3486 47.8467C66.9971 48.5791 66.4902 49.1504 65.8281 49.5605C65.1719 49.9707 64.416 50.1758 63.5605 50.1758C62.2715 50.1758 61.2256 49.7275 60.4229 48.8311C59.626 47.9346 59.2275 46.748 59.2275 45.2715V45.1572ZM60.8623 45.3506C60.8623 46.4053 61.1055 47.252 61.5918 47.8906C62.084 48.5293 62.7402 48.8486 63.5605 48.8486C64.3867 48.8486 65.043 48.5264 65.5293 47.8818C66.0156 47.2314 66.2588 46.3232 66.2588 45.1572C66.2588 44.1143 66.0098 43.2705 65.5117 42.626C65.0195 41.9756 64.3633 41.6504 63.543 41.6504C62.7402 41.6504 62.0928 41.9697 61.6006 42.6084C61.1084 43.2471 60.8623 44.1611 60.8623 45.3506ZM74.5205 41.9492C74.2744 41.9082 74.0078 41.8877 73.7207 41.8877C72.6543 41.8877 71.9307 42.3418 71.5498 43.25V50H69.9238V40.4902H71.5059L71.5322 41.5889C72.0654 40.7393 72.8213 40.3145 73.7998 40.3145C74.1162 40.3145 74.3564 40.3555 74.5205 40.4375V41.9492ZM78.6689 38.1875V40.4902H80.4443V41.7471H78.6689V47.6445C78.6689 48.0254 78.748 48.3125 78.9062 48.5059C79.0645 48.6934 79.334 48.7871 79.7148 48.7871C79.9023 48.7871 80.1602 48.752 80.4883 48.6816V50C80.0605 50.1172 79.6445 50.1758 79.2402 50.1758C78.5137 50.1758 77.9658 49.9561 77.5967 49.5166C77.2275 49.0771 77.043 48.4531 77.043 47.6445V41.7471H75.3115V40.4902H77.043V38.1875H78.6689ZM86.2979 50.1758C85.0088 50.1758 83.96 49.7539 83.1514 48.9102C82.3428 48.0605 81.9385 46.9268 81.9385 45.5088V45.21C81.9385 44.2666 82.1172 43.4258 82.4746 42.6875C82.8379 41.9434 83.3418 41.3633 83.9863 40.9473C84.6367 40.5254 85.3398 40.3145 86.0957 40.3145C87.332 40.3145 88.293 40.7217 88.9785 41.5361C89.6641 42.3506 90.0068 43.5166 90.0068 45.0342V45.7109H83.5645C83.5879 46.6484 83.8604 47.4072 84.3818 47.9873C84.9092 48.5615 85.5771 48.8486 86.3857 48.8486C86.96 48.8486 87.4463 48.7314 87.8447 48.4971C88.2432 48.2627 88.5918 47.9521 88.8906 47.5654L89.8838 48.3389C89.0869 49.5635 87.8916 50.1758 86.2979 50.1758ZM86.0957 41.6504C85.4395 41.6504 84.8887 41.8906 84.4434 42.3711C83.998 42.8457 83.7227 43.5137 83.6172 44.375H88.3809V44.252C88.334 43.4258 88.1113 42.7871 87.7129 42.3359C87.3145 41.8789 86.7754 41.6504 86.0957 41.6504ZM91.501 45.166C91.501 43.707 91.8467 42.5352 92.5381 41.6504C93.2295 40.7598 94.1348 40.3145 95.2539 40.3145C96.3672 40.3145 97.249 40.6953 97.8994 41.457V36.5H99.5254V50H98.0312L97.9521 48.9805C97.3018 49.7773 96.3965 50.1758 95.2363 50.1758C94.1348 50.1758 93.2354 49.7246 92.5381 48.8223C91.8467 47.9199 91.501 46.7422 91.501 45.2891V45.166ZM93.127 45.3506C93.127 46.4287 93.3496 47.2725 93.7949 47.8818C94.2402 48.4912 94.8555 48.7959 95.6406 48.7959C96.6719 48.7959 97.4248 48.333 97.8994 47.4072V43.0391C97.4131 42.1426 96.666 41.6943 95.6582 41.6943C94.8613 41.6943 94.2402 42.002 93.7949 42.6172C93.3496 43.2324 93.127 44.1436 93.127 45.3506ZM108.147 41.6416C108.868 40.7568 109.806 40.3145 110.96 40.3145C112.97 40.3145 113.983 41.4482 114.001 43.7158V50H112.375V43.707C112.369 43.0215 112.211 42.5146 111.9 42.1865C111.596 41.8584 111.118 41.6943 110.468 41.6943C109.94 41.6943 109.478 41.835 109.079 42.1162C108.681 42.3975 108.37 42.7666 108.147 43.2236V50H106.521V36.5H108.147V41.6416ZM122.307 50C122.213 49.8125 122.137 49.4785 122.078 48.998C121.322 49.7832 120.42 50.1758 119.371 50.1758C118.434 50.1758 117.663 49.9121 117.06 49.3848C116.462 48.8516 116.163 48.1777 116.163 47.3633C116.163 46.373 116.538 45.6055 117.288 45.0605C118.044 44.5098 119.104 44.2344 120.47 44.2344H122.052V43.4873C122.052 42.9189 121.882 42.4678 121.542 42.1338C121.202 41.7939 120.701 41.624 120.039 41.624C119.459 41.624 118.973 41.7705 118.58 42.0635C118.188 42.3564 117.991 42.7109 117.991 43.127H116.356C116.356 42.6523 116.523 42.1953 116.857 41.7559C117.197 41.3105 117.654 40.959 118.229 40.7012C118.809 40.4434 119.444 40.3145 120.136 40.3145C121.231 40.3145 122.09 40.5898 122.711 41.1406C123.332 41.6855 123.654 42.4385 123.678 43.3994V47.7764C123.678 48.6494 123.789 49.3438 124.012 49.8594V50H122.307ZM119.608 48.7607C120.118 48.7607 120.602 48.6289 121.059 48.3652C121.516 48.1016 121.847 47.7588 122.052 47.3369V45.3857H120.777C118.785 45.3857 117.789 45.9688 117.789 47.1348C117.789 47.6445 117.959 48.043 118.299 48.3301C118.639 48.6172 119.075 48.7607 119.608 48.7607ZM130.823 41.9492C130.577 41.9082 130.311 41.8877 130.023 41.8877C128.957 41.8877 128.233 42.3418 127.853 43.25V50H126.227V40.4902H127.809L127.835 41.5889C128.368 40.7393 129.124 40.3145 130.103 40.3145C130.419 40.3145 130.659 40.3555 130.823 40.4375V41.9492ZM131.755 45.166C131.755 43.707 132.101 42.5352 132.792 41.6504C133.483 40.7598 134.389 40.3145 135.508 40.3145C136.621 40.3145 137.503 40.6953 138.153 41.457V36.5H139.779V50H138.285L138.206 48.9805C137.556 49.7773 136.65 50.1758 135.49 50.1758C134.389 50.1758 133.489 49.7246 132.792 48.8223C132.101 47.9199 131.755 46.7422 131.755 45.2891V45.166ZM133.381 45.3506C133.381 46.4287 133.604 47.2725 134.049 47.8818C134.494 48.4912 135.109 48.7959 135.895 48.7959C136.926 48.7959 137.679 48.333 138.153 47.4072V43.0391C137.667 42.1426 136.92 41.6943 135.912 41.6943C135.115 41.6943 134.494 42.002 134.049 42.6172C133.604 43.2324 133.381 44.1436 133.381 45.3506ZM150.73 47.7588L152.559 40.4902H154.185L151.416 50H150.098L147.786 42.793L145.536 50H144.218L141.458 40.4902H143.075L144.947 47.6094L147.162 40.4902H148.472L150.73 47.7588ZM161.717 50C161.623 49.8125 161.547 49.4785 161.488 48.998C160.732 49.7832 159.83 50.1758 158.781 50.1758C157.844 50.1758 157.073 49.9121 156.47 49.3848C155.872 48.8516 155.573 48.1777 155.573 47.3633C155.573 46.373 155.948 45.6055 156.698 45.0605C157.454 44.5098 158.515 44.2344 159.88 44.2344H161.462V43.4873C161.462 42.9189 161.292 42.4678 160.952 42.1338C160.612 41.7939 160.111 41.624 159.449 41.624C158.869 41.624 158.383 41.7705 157.99 42.0635C157.598 42.3564 157.401 42.7109 157.401 43.127H155.767C155.767 42.6523 155.934 42.1953 156.268 41.7559C156.607 41.3105 157.064 40.959 157.639 40.7012C158.219 40.4434 158.854 40.3145 159.546 40.3145C160.642 40.3145 161.5 40.5898 162.121 41.1406C162.742 41.6855 163.064 42.4385 163.088 43.3994V47.7764C163.088 48.6494 163.199 49.3438 163.422 49.8594V50H161.717ZM159.019 48.7607C159.528 48.7607 160.012 48.6289 160.469 48.3652C160.926 48.1016 161.257 47.7588 161.462 47.3369V45.3857H160.188C158.195 45.3857 157.199 45.9688 157.199 47.1348C157.199 47.6445 157.369 48.043 157.709 48.3301C158.049 48.6172 158.485 48.7607 159.019 48.7607ZM170.233 41.9492C169.987 41.9082 169.721 41.8877 169.434 41.8877C168.367 41.8877 167.644 42.3418 167.263 43.25V50H165.637V40.4902H167.219L167.245 41.5889C167.778 40.7393 168.534 40.3145 169.513 40.3145C169.829 40.3145 170.069 40.3555 170.233 40.4375V41.9492ZM175.507 50.1758C174.218 50.1758 173.169 49.7539 172.36 48.9102C171.552 48.0605 171.147 46.9268 171.147 45.5088V45.21C171.147 44.2666 171.326 43.4258 171.684 42.6875C172.047 41.9434 172.551 41.3633 173.195 40.9473C173.846 40.5254 174.549 40.3145 175.305 40.3145C176.541 40.3145 177.502 40.7217 178.188 41.5361C178.873 42.3506 179.216 43.5166 179.216 45.0342V45.7109H172.773C172.797 46.6484 173.069 47.4072 173.591 47.9873C174.118 48.5615 174.786 48.8486 175.595 48.8486C176.169 48.8486 176.655 48.7314 177.054 48.4971C177.452 48.2627 177.801 47.9521 178.1 47.5654L179.093 48.3389C178.296 49.5635 177.101 50.1758 175.507 50.1758ZM175.305 41.6504C174.648 41.6504 174.098 41.8906 173.652 42.3711C173.207 42.8457 172.932 43.5137 172.826 44.375H177.59V44.252C177.543 43.4258 177.32 42.7871 176.922 42.3359C176.523 41.8789 175.984 41.6504 175.305 41.6504Z" fill="white"/>
</g>
<defs>
<clipPath id="clip0">
<rect width="200" height="85.19" rx="5" fill="white"/>
</clipPath>
</defs>
</svg>
