<svg width="150" height="64" viewBox="0 0 150 64" fill="none" xmlns="http://www.w3.org/2000/svg">
<path d="M14.0879 32.5635C12.9622 32.2399 12.1419 31.8434 11.627 31.374C11.1165 30.9001 10.8613 30.3167 10.8613 29.624C10.8613 28.8402 11.1735 28.193 11.7979 27.6826C12.4268 27.1676 13.2425 26.9102 14.2451 26.9102C14.9287 26.9102 15.5371 27.0423 16.0703 27.3066C16.6081 27.571 17.0228 27.9355 17.3145 28.4004C17.6107 28.8652 17.7588 29.3734 17.7588 29.9248H16.4395C16.4395 29.3232 16.248 28.8516 15.8652 28.5098C15.4824 28.1634 14.9424 27.9902 14.2451 27.9902C13.598 27.9902 13.0921 28.1338 12.7275 28.4209C12.3675 28.7035 12.1875 29.0977 12.1875 29.6035C12.1875 30.0091 12.3584 30.3532 12.7002 30.6357C13.0465 30.9137 13.6322 31.1689 14.457 31.4014C15.2865 31.6338 15.9336 31.8913 16.3984 32.1738C16.8678 32.4518 17.2142 32.7777 17.4375 33.1514C17.6654 33.5251 17.7793 33.9648 17.7793 34.4707C17.7793 35.2773 17.4648 35.9245 16.8359 36.4121C16.207 36.8952 15.3662 37.1367 14.3135 37.1367C13.6299 37.1367 12.9919 37.0068 12.3994 36.7471C11.807 36.4827 11.349 36.1227 11.0254 35.667C10.7064 35.2113 10.5469 34.694 10.5469 34.1152H11.8662C11.8662 34.7168 12.0872 35.193 12.5293 35.5439C12.9759 35.8903 13.5706 36.0635 14.3135 36.0635C15.0062 36.0635 15.5371 35.9222 15.9062 35.6396C16.2754 35.3571 16.46 34.972 16.46 34.4844C16.46 33.9967 16.2891 33.6208 15.9473 33.3564C15.6055 33.0876 14.9857 32.8232 14.0879 32.5635ZM23.8359 36.2686C23.3438 36.8473 22.6214 37.1367 21.6689 37.1367C20.8805 37.1367 20.279 36.9089 19.8643 36.4531C19.4541 35.9928 19.2467 35.3138 19.2422 34.416V29.6035H20.5068V34.3818C20.5068 35.5029 20.9626 36.0635 21.874 36.0635C22.8402 36.0635 23.4827 35.7035 23.8018 34.9834V29.6035H25.0664V37H23.8633L23.8359 36.2686ZM33.2422 33.3838C33.2422 34.5094 32.9847 35.4163 32.4697 36.1045C31.9548 36.7926 31.2575 37.1367 30.3779 37.1367C29.4801 37.1367 28.7738 36.8519 28.2588 36.2822V39.8438H26.9941V29.6035H28.1494L28.2109 30.4238C28.7259 29.7858 29.4414 29.4668 30.3574 29.4668C31.2461 29.4668 31.9479 29.8018 32.4629 30.4717C32.9824 31.1416 33.2422 32.0736 33.2422 33.2676V33.3838ZM31.9775 33.2402C31.9775 32.4062 31.7998 31.7477 31.4443 31.2646C31.0889 30.7816 30.6012 30.54 29.9814 30.54C29.2158 30.54 28.6416 30.8796 28.2588 31.5586V35.0928C28.637 35.7673 29.2158 36.1045 29.9951 36.1045C30.6012 36.1045 31.082 35.8652 31.4375 35.3867C31.7975 34.9036 31.9775 34.1882 31.9775 33.2402ZM41.1035 33.3838C41.1035 34.5094 40.846 35.4163 40.3311 36.1045C39.8161 36.7926 39.1188 37.1367 38.2393 37.1367C37.3415 37.1367 36.6351 36.8519 36.1201 36.2822V39.8438H34.8555V29.6035H36.0107L36.0723 30.4238C36.5872 29.7858 37.3027 29.4668 38.2188 29.4668C39.1074 29.4668 39.8092 29.8018 40.3242 30.4717C40.8438 31.1416 41.1035 32.0736 41.1035 33.2676V33.3838ZM39.8389 33.2402C39.8389 32.4062 39.6611 31.7477 39.3057 31.2646C38.9502 30.7816 38.4626 30.54 37.8428 30.54C37.0771 30.54 36.5029 30.8796 36.1201 31.5586V35.0928C36.4984 35.7673 37.0771 36.1045 37.8564 36.1045C38.4626 36.1045 38.9434 35.8652 39.2988 35.3867C39.6589 34.9036 39.8389 34.1882 39.8389 33.2402ZM42.3818 33.2334C42.3818 32.5088 42.5231 31.8571 42.8057 31.2783C43.0928 30.6995 43.4893 30.2529 43.9951 29.9385C44.5055 29.624 45.0866 29.4668 45.7383 29.4668C46.7454 29.4668 47.5589 29.8154 48.1787 30.5127C48.8031 31.21 49.1152 32.1374 49.1152 33.2949V33.3838C49.1152 34.1038 48.9762 34.751 48.6982 35.3252C48.4248 35.8949 48.0306 36.3392 47.5156 36.6582C47.0052 36.9772 46.4173 37.1367 45.752 37.1367C44.7493 37.1367 43.9359 36.7881 43.3115 36.0908C42.6917 35.3936 42.3818 34.4707 42.3818 33.3223V33.2334ZM43.6533 33.3838C43.6533 34.2041 43.8424 34.8626 44.2207 35.3594C44.6035 35.8561 45.1139 36.1045 45.752 36.1045C46.3945 36.1045 46.9049 35.8538 47.2832 35.3525C47.6615 34.8467 47.8506 34.1403 47.8506 33.2334C47.8506 32.4222 47.6569 31.766 47.2695 31.2646C46.8867 30.7588 46.3763 30.5059 45.7383 30.5059C45.1139 30.5059 44.6104 30.7542 44.2275 31.251C43.8447 31.7477 43.6533 32.4587 43.6533 33.3838ZM54.2764 30.7383C54.085 30.7064 53.8776 30.6904 53.6543 30.6904C52.8249 30.6904 52.262 31.0436 51.9658 31.75V37H50.7012V29.6035H51.9316L51.9521 30.458C52.3669 29.7972 52.9548 29.4668 53.7158 29.4668C53.9619 29.4668 54.1488 29.4987 54.2764 29.5625V30.7383ZM57.5029 27.8125V29.6035H58.8838V30.5811H57.5029V35.168C57.5029 35.4642 57.5645 35.6875 57.6875 35.8379C57.8105 35.9837 58.0202 36.0566 58.3164 36.0566C58.4622 36.0566 58.6628 36.0293 58.918 35.9746V37C58.5853 37.0911 58.2617 37.1367 57.9473 37.1367C57.3822 37.1367 56.9561 36.9658 56.6689 36.624C56.3818 36.2822 56.2383 35.7969 56.2383 35.168V30.5811H54.8916V29.6035H56.2383V27.8125H57.5029ZM63.4365 37.1367C62.4339 37.1367 61.6182 36.8086 60.9893 36.1523C60.3604 35.4915 60.0459 34.6097 60.0459 33.5068V33.2744C60.0459 32.5407 60.1849 31.8867 60.4629 31.3125C60.7454 30.7337 61.1374 30.2826 61.6387 29.959C62.1445 29.6309 62.6914 29.4668 63.2793 29.4668C64.2409 29.4668 64.9883 29.7835 65.5215 30.417C66.0547 31.0505 66.3213 31.9574 66.3213 33.1377V33.6641H61.3105C61.3288 34.3932 61.5407 34.9834 61.9463 35.4346C62.3564 35.8812 62.876 36.1045 63.5049 36.1045C63.9515 36.1045 64.3298 36.0133 64.6396 35.8311C64.9495 35.6488 65.2207 35.4072 65.4531 35.1064L66.2256 35.708C65.6058 36.6605 64.6761 37.1367 63.4365 37.1367ZM63.2793 30.5059C62.7689 30.5059 62.3405 30.6927 61.9941 31.0664C61.6478 31.4355 61.4336 31.9551 61.3516 32.625H65.0566V32.5293C65.0202 31.8867 64.847 31.39 64.5371 31.0391C64.2272 30.6836 63.8079 30.5059 63.2793 30.5059ZM67.4834 33.2402C67.4834 32.1055 67.7523 31.194 68.29 30.5059C68.8278 29.8132 69.5319 29.4668 70.4023 29.4668C71.2682 29.4668 71.9541 29.763 72.46 30.3555V26.5H73.7246V37H72.5625L72.501 36.207C71.9951 36.8268 71.291 37.1367 70.3887 37.1367C69.5319 37.1367 68.8324 36.7858 68.29 36.084C67.7523 35.3822 67.4834 34.4661 67.4834 33.3359V33.2402ZM68.748 33.3838C68.748 34.2223 68.9212 34.8786 69.2676 35.3525C69.6139 35.8265 70.0924 36.0635 70.7031 36.0635C71.5052 36.0635 72.0908 35.7035 72.46 34.9834V31.5859C72.0817 30.8887 71.5007 30.54 70.7168 30.54C70.097 30.54 69.6139 30.7793 69.2676 31.2578C68.9212 31.7363 68.748 32.445 68.748 33.3838ZM87.0137 37H85.6943V32.3994H80.6768V37H79.3643V27.0469H80.6768V31.3262H85.6943V27.0469H87.0137V37ZM93.7129 37C93.64 36.8542 93.5807 36.5944 93.5352 36.2207C92.9473 36.8314 92.2454 37.1367 91.4297 37.1367C90.7005 37.1367 90.1012 36.9316 89.6318 36.5215C89.167 36.1068 88.9346 35.5827 88.9346 34.9492C88.9346 34.179 89.2262 33.582 89.8096 33.1582C90.3975 32.7298 91.2223 32.5156 92.2842 32.5156H93.5146V31.9346C93.5146 31.4925 93.3825 31.1416 93.1182 30.8818C92.8538 30.6175 92.4642 30.4854 91.9492 30.4854C91.498 30.4854 91.1198 30.5993 90.8145 30.8271C90.5091 31.055 90.3564 31.3307 90.3564 31.6543H89.085C89.085 31.2852 89.2148 30.9297 89.4746 30.5879C89.7389 30.2415 90.0944 29.9681 90.541 29.7676C90.9922 29.5671 91.4867 29.4668 92.0244 29.4668C92.8766 29.4668 93.5443 29.681 94.0273 30.1094C94.5104 30.5332 94.7611 31.1188 94.7793 31.8662V35.2705C94.7793 35.9495 94.8659 36.4896 95.0391 36.8906V37H93.7129ZM91.6143 36.0361C92.0107 36.0361 92.3867 35.9336 92.7422 35.7285C93.0977 35.5234 93.3551 35.2568 93.5146 34.9287V33.4111H92.5234C90.974 33.4111 90.1992 33.8646 90.1992 34.7715C90.1992 35.168 90.3314 35.4779 90.5957 35.7012C90.86 35.9245 91.1995 36.0361 91.6143 36.0361ZM100.337 30.7383C100.146 30.7064 99.9382 30.6904 99.7148 30.6904C98.8854 30.6904 98.3226 31.0436 98.0264 31.75V37H96.7617V29.6035H97.9922L98.0127 30.458C98.4274 29.7972 99.0153 29.4668 99.7764 29.4668C100.022 29.4668 100.209 29.4987 100.337 29.5625V30.7383ZM101.062 33.2402C101.062 32.1055 101.33 31.194 101.868 30.5059C102.406 29.8132 103.11 29.4668 103.98 29.4668C104.846 29.4668 105.532 29.763 106.038 30.3555V26.5H107.303V37H106.141L106.079 36.207C105.573 36.8268 104.869 37.1367 103.967 37.1367C103.11 37.1367 102.41 36.7858 101.868 36.084C101.33 35.3822 101.062 34.4661 101.062 33.3359V33.2402ZM102.326 33.3838C102.326 34.2223 102.499 34.8786 102.846 35.3525C103.192 35.8265 103.671 36.0635 104.281 36.0635C105.083 36.0635 105.669 35.7035 106.038 34.9834V31.5859C105.66 30.8887 105.079 30.54 104.295 30.54C103.675 30.54 103.192 30.7793 102.846 31.2578C102.499 31.7363 102.326 32.445 102.326 33.3838ZM115.82 35.2568L117.242 29.6035H118.507L116.354 37H115.328L113.53 31.3945L111.78 37H110.755L108.608 29.6035H109.866L111.322 35.1406L113.045 29.6035H114.063L115.82 35.2568ZM124.365 37C124.292 36.8542 124.233 36.5944 124.188 36.2207C123.6 36.8314 122.898 37.1367 122.082 37.1367C121.353 37.1367 120.754 36.9316 120.284 36.5215C119.819 36.1068 119.587 35.5827 119.587 34.9492C119.587 34.179 119.879 33.582 120.462 33.1582C121.05 32.7298 121.875 32.5156 122.937 32.5156H124.167V31.9346C124.167 31.4925 124.035 31.1416 123.771 30.8818C123.506 30.6175 123.117 30.4854 122.602 30.4854C122.15 30.4854 121.772 30.5993 121.467 30.8271C121.161 31.055 121.009 31.3307 121.009 31.6543H119.737C119.737 31.2852 119.867 30.9297 120.127 30.5879C120.391 30.2415 120.747 29.9681 121.193 29.7676C121.645 29.5671 122.139 29.4668 122.677 29.4668C123.529 29.4668 124.197 29.681 124.68 30.1094C125.163 30.5332 125.413 31.1188 125.432 31.8662V35.2705C125.432 35.9495 125.518 36.4896 125.691 36.8906V37H124.365ZM122.267 36.0361C122.663 36.0361 123.039 35.9336 123.395 35.7285C123.75 35.5234 124.007 35.2568 124.167 34.9287V33.4111H123.176C121.626 33.4111 120.852 33.8646 120.852 34.7715C120.852 35.168 120.984 35.4779 121.248 35.7012C121.512 35.9245 121.852 36.0361 122.267 36.0361ZM130.989 30.7383C130.798 30.7064 130.59 30.6904 130.367 30.6904C129.538 30.6904 128.975 31.0436 128.679 31.75V37H127.414V29.6035H128.645L128.665 30.458C129.08 29.7972 129.668 29.4668 130.429 29.4668C130.675 29.4668 130.862 29.4987 130.989 29.5625V30.7383ZM135.091 37.1367C134.088 37.1367 133.272 36.8086 132.644 36.1523C132.015 35.4915 131.7 34.6097 131.7 33.5068V33.2744C131.7 32.5407 131.839 31.8867 132.117 31.3125C132.4 30.7337 132.792 30.2826 133.293 29.959C133.799 29.6309 134.346 29.4668 134.934 29.4668C135.895 29.4668 136.643 29.7835 137.176 30.417C137.709 31.0505 137.976 31.9574 137.976 33.1377V33.6641H132.965C132.983 34.3932 133.195 34.9834 133.601 35.4346C134.011 35.8812 134.53 36.1045 135.159 36.1045C135.606 36.1045 135.984 36.0133 136.294 35.8311C136.604 35.6488 136.875 35.4072 137.107 35.1064L137.88 35.708C137.26 36.6605 136.33 37.1367 135.091 37.1367ZM134.934 30.5059C134.423 30.5059 133.995 30.6927 133.648 31.0664C133.302 31.4355 133.088 31.9551 133.006 32.625H136.711V32.5293C136.674 31.8867 136.501 31.39 136.191 31.0391C135.882 30.6836 135.462 30.5059 134.934 30.5059Z" fill="#FF5722"/>
<rect x="0.5" y="0.5" width="149" height="62.8925" rx="4.5" stroke="#DDD4D4"/>
</svg>
