<svg width="174" height="60" viewBox="0 0 174 60" fill="none" xmlns="http://www.w3.org/2000/svg">
<path d="M22.3984 33.4844C22.3984 33.7578 22.3392 33.9948 22.2207 34.1953C22.1022 34.3913 21.9495 34.5531 21.7627 34.6807C21.5758 34.8128 21.3617 34.9108 21.1201 34.9746C20.8831 35.0339 20.6416 35.0635 20.3955 35.0635C20.0856 35.0635 19.7985 35.0225 19.5342 34.9404C19.2744 34.8538 19.0443 34.7262 18.8438 34.5576C18.6432 34.3936 18.4792 34.193 18.3516 33.9561C18.224 33.7145 18.1396 33.4388 18.0986 33.1289H16.8066C16.8203 33.5573 16.9137 33.9469 17.0869 34.2979C17.2646 34.6442 17.5039 34.9473 17.8047 35.207C18.1419 35.5078 18.5384 35.738 18.9941 35.8975C19.4544 36.057 19.9215 36.1367 20.3955 36.1367C20.792 36.1367 21.1885 36.082 21.585 35.9727C21.9814 35.8587 22.3369 35.6901 22.6514 35.4668C22.9658 35.248 23.221 34.9723 23.417 34.6396C23.6175 34.307 23.7178 33.9173 23.7178 33.4707C23.7178 33.0286 23.6243 32.639 23.4375 32.3018C23.2552 31.9645 23.0137 31.6797 22.7129 31.4473C22.4076 31.1966 22.0703 30.9915 21.7012 30.832C21.332 30.668 20.9629 30.529 20.5938 30.415C20.3704 30.3467 20.1312 30.2669 19.876 30.1758C19.6253 30.0846 19.3929 29.9707 19.1787 29.834C18.96 29.6973 18.7799 29.5309 18.6387 29.335C18.4974 29.1344 18.4245 28.8906 18.4199 28.6035C18.4199 28.3392 18.4723 28.1068 18.5771 27.9062C18.6865 27.7057 18.8324 27.5371 19.0146 27.4004C19.1924 27.2637 19.3952 27.1611 19.623 27.0928C19.8555 27.0244 20.0924 26.9902 20.334 26.9902C20.6348 26.9902 20.9036 27.0381 21.1406 27.1338C21.3822 27.2249 21.5895 27.3548 21.7627 27.5234C21.9359 27.6921 22.0749 27.8949 22.1797 28.1318C22.2845 28.3643 22.3551 28.624 22.3916 28.9111H23.6904C23.6813 28.4554 23.5833 28.043 23.3965 27.6738C23.2096 27.3047 22.9613 26.9902 22.6514 26.7305C22.3415 26.4707 21.986 26.2702 21.585 26.1289C21.1839 25.9831 20.7669 25.9102 20.334 25.9102C19.9421 25.9102 19.5524 25.9717 19.165 26.0947C18.7777 26.2132 18.4313 26.3887 18.126 26.6211C17.8206 26.8535 17.5723 27.1383 17.3809 27.4756C17.194 27.8128 17.1006 28.1956 17.1006 28.624C17.1006 29.0524 17.194 29.4261 17.3809 29.7451C17.5723 30.0596 17.8184 30.333 18.1191 30.5654C18.4154 30.7933 18.7435 30.9893 19.1035 31.1533C19.4681 31.3128 19.8258 31.4495 20.1768 31.5635C20.4183 31.641 20.6689 31.7275 20.9287 31.8232C21.193 31.9189 21.4346 32.0374 21.6533 32.1787C21.8721 32.3245 22.0498 32.5023 22.1865 32.7119C22.3278 32.9215 22.3984 33.179 22.3984 33.4844ZM30.4717 36H31.6201V28.6035H30.3486V33.9082C30.2803 34.0677 30.1937 34.2158 30.0889 34.3525C29.9886 34.4847 29.8701 34.5986 29.7334 34.6943C29.5693 34.8128 29.3757 34.9062 29.1523 34.9746C28.929 35.0384 28.6761 35.0703 28.3936 35.0703C28.152 35.0703 27.9378 35.0384 27.751 34.9746C27.5687 34.9108 27.4137 34.7992 27.2861 34.6396C27.1585 34.4847 27.0628 34.2751 26.999 34.0107C26.9352 33.7464 26.9033 33.4137 26.9033 33.0127V28.6035H25.6387V32.999C25.6387 33.5505 25.6979 34.0244 25.8164 34.4209C25.9395 34.8128 26.1126 35.1364 26.3359 35.3916C26.5592 35.6468 26.8281 35.8359 27.1426 35.959C27.457 36.0775 27.8079 36.1367 28.1953 36.1367C28.6784 36.1367 29.1045 36.0365 29.4736 35.8359C29.8428 35.6309 30.1504 35.346 30.3965 34.9814L30.4717 36ZM33.999 38.8438H35.2637V35.2891C35.3548 35.3893 35.4528 35.4827 35.5576 35.5693C35.6624 35.6514 35.7741 35.7266 35.8926 35.7949C36.0885 35.9043 36.3073 35.9886 36.5488 36.0479C36.7949 36.1071 37.0592 36.1367 37.3418 36.1367C37.8066 36.1367 38.2191 36.041 38.5791 35.8496C38.9437 35.6582 39.249 35.3939 39.4951 35.0566C39.7412 34.7194 39.9281 34.3229 40.0557 33.8672C40.1833 33.4069 40.2471 32.9124 40.2471 32.3838V32.2402C40.2471 31.6888 40.1833 31.1829 40.0557 30.7227C39.9281 30.2578 39.7412 29.859 39.4951 29.5264C39.249 29.1937 38.9437 28.9339 38.5791 28.7471C38.2145 28.5602 37.7952 28.4668 37.3213 28.4668C37.0524 28.4668 36.7995 28.4964 36.5625 28.5557C36.3301 28.6104 36.1182 28.6924 35.9268 28.8018C35.79 28.8747 35.6624 28.9635 35.5439 29.0684C35.4255 29.1686 35.3161 29.2826 35.2158 29.4102L35.1543 28.6035H33.999V38.8438ZM38.9824 32.2402V32.3838C38.9824 32.7438 38.9414 33.0879 38.8594 33.416C38.7819 33.7441 38.6611 34.0335 38.4971 34.2842C38.333 34.5348 38.1234 34.7354 37.8682 34.8857C37.613 35.0316 37.3099 35.1045 36.959 35.1045C36.7402 35.1045 36.5397 35.0771 36.3574 35.0225C36.1797 34.9678 36.0179 34.8926 35.8721 34.7969C35.7445 34.7148 35.6305 34.6146 35.5303 34.4961C35.43 34.3776 35.3411 34.25 35.2637 34.1133V30.5518C35.3503 30.3968 35.4505 30.2555 35.5645 30.1279C35.6784 30.0003 35.8083 29.8932 35.9541 29.8066C36.0863 29.7201 36.2344 29.654 36.3984 29.6084C36.5671 29.5628 36.7493 29.54 36.9453 29.54C37.3008 29.54 37.6061 29.613 37.8613 29.7588C38.1165 29.9046 38.3285 30.1006 38.4971 30.3467C38.6611 30.5973 38.7819 30.8867 38.8594 31.2148C38.9414 31.5384 38.9824 31.8802 38.9824 32.2402ZM42.4072 38.8438H43.6719V35.2891C43.763 35.3893 43.861 35.4827 43.9658 35.5693C44.0706 35.6514 44.1823 35.7266 44.3008 35.7949C44.4967 35.9043 44.7155 35.9886 44.957 36.0479C45.2031 36.1071 45.4674 36.1367 45.75 36.1367C46.2148 36.1367 46.6273 36.041 46.9873 35.8496C47.3519 35.6582 47.6572 35.3939 47.9033 35.0566C48.1494 34.7194 48.3363 34.3229 48.4639 33.8672C48.5915 33.4069 48.6553 32.9124 48.6553 32.3838V32.2402C48.6553 31.6888 48.5915 31.1829 48.4639 30.7227C48.3363 30.2578 48.1494 29.859 47.9033 29.5264C47.6572 29.1937 47.3519 28.9339 46.9873 28.7471C46.6227 28.5602 46.2035 28.4668 45.7295 28.4668C45.4606 28.4668 45.2077 28.4964 44.9707 28.5557C44.7383 28.6104 44.5264 28.6924 44.335 28.8018C44.1982 28.8747 44.0706 28.9635 43.9521 29.0684C43.8337 29.1686 43.7243 29.2826 43.624 29.4102L43.5625 28.6035H42.4072V38.8438ZM47.3906 32.2402V32.3838C47.3906 32.7438 47.3496 33.0879 47.2676 33.416C47.1901 33.7441 47.0693 34.0335 46.9053 34.2842C46.7412 34.5348 46.5316 34.7354 46.2764 34.8857C46.0212 35.0316 45.7181 35.1045 45.3672 35.1045C45.1484 35.1045 44.9479 35.0771 44.7656 35.0225C44.5879 34.9678 44.4261 34.8926 44.2803 34.7969C44.1527 34.7148 44.0387 34.6146 43.9385 34.4961C43.8382 34.3776 43.7493 34.25 43.6719 34.1133V30.5518C43.7585 30.3968 43.8587 30.2555 43.9727 30.1279C44.0866 30.0003 44.2165 29.8932 44.3623 29.8066C44.4945 29.7201 44.6426 29.654 44.8066 29.6084C44.9753 29.5628 45.1576 29.54 45.3535 29.54C45.709 29.54 46.0143 29.613 46.2695 29.7588C46.5247 29.9046 46.7367 30.1006 46.9053 30.3467C47.0693 30.5973 47.1901 30.8867 47.2676 31.2148C47.3496 31.5384 47.3906 31.8802 47.3906 32.2402ZM50.4668 32.2334V32.3838C50.4668 32.917 50.5443 33.4115 50.6992 33.8672C50.8542 34.3229 51.0775 34.7194 51.3691 35.0566C51.6562 35.3939 52.0072 35.6582 52.4219 35.8496C52.8411 36.041 53.3128 36.1367 53.8369 36.1367C54.3564 36.1367 54.8236 36.041 55.2383 35.8496C55.653 35.6582 56.0062 35.3939 56.2979 35.0566C56.585 34.7194 56.806 34.3229 56.9609 33.8672C57.1159 33.4115 57.1934 32.917 57.1934 32.3838V32.2334C57.1934 31.7002 57.1159 31.2057 56.9609 30.75C56.806 30.2897 56.585 29.891 56.2979 29.5537C56.0062 29.2165 55.6507 28.9521 55.2314 28.7607C54.8167 28.5648 54.3473 28.4668 53.8232 28.4668C53.3037 28.4668 52.8366 28.5648 52.4219 28.7607C52.0072 28.9521 51.6562 29.2165 51.3691 29.5537C51.0775 29.891 50.8542 30.2897 50.6992 30.75C50.5443 31.2057 50.4668 31.7002 50.4668 32.2334ZM51.7314 32.3838V32.2334C51.7314 31.8734 51.7747 31.5293 51.8613 31.2012C51.9479 30.8685 52.0801 30.5768 52.2578 30.3262C52.431 30.0755 52.6475 29.8773 52.9072 29.7314C53.167 29.5811 53.4723 29.5059 53.8232 29.5059C54.1742 29.5059 54.4795 29.5811 54.7393 29.7314C55.0036 29.8773 55.2246 30.0755 55.4023 30.3262C55.5755 30.5768 55.7054 30.8685 55.792 31.2012C55.8831 31.5293 55.9287 31.8734 55.9287 32.2334V32.3838C55.9287 32.7484 55.8854 33.097 55.7988 33.4297C55.7122 33.7578 55.5824 34.0472 55.4092 34.2979C55.2314 34.5485 55.0104 34.7467 54.7461 34.8926C54.4863 35.0384 54.1833 35.1113 53.8369 35.1113C53.486 35.1113 53.1784 35.0384 52.9141 34.8926C52.6497 34.7467 52.431 34.5485 52.2578 34.2979C52.0801 34.0472 51.9479 33.7578 51.8613 33.4297C51.7747 33.097 51.7314 32.7484 51.7314 32.3838ZM64.0771 28.4668C63.5394 28.4668 63.0586 28.5853 62.6348 28.8223C62.2155 29.0547 61.8555 29.3737 61.5547 29.7793L61.5479 29.5947L61.4932 28.6035H60.29V36H61.5615V31.2559C61.6436 31.028 61.7461 30.8229 61.8691 30.6406C61.9967 30.4538 62.1449 30.2965 62.3135 30.1689C62.5003 30.0231 62.7191 29.9137 62.9697 29.8408C63.2204 29.7633 63.5007 29.7246 63.8105 29.7246C64.0521 29.7246 64.2822 29.7383 64.501 29.7656C64.7243 29.7884 64.959 29.8271 65.2051 29.8818L65.376 28.6445C65.2484 28.5898 65.057 28.5465 64.8018 28.5146C64.5511 28.4827 64.3096 28.4668 64.0771 28.4668ZM70.6328 26.8125H69.3613V28.6035H67.4199V29.5811H69.3613V33.6006C69.3613 34.0563 69.4206 34.446 69.5391 34.7695C69.6621 35.0885 69.8285 35.3483 70.0381 35.5488C70.2477 35.7539 70.4938 35.9043 70.7764 36C71.0635 36.0911 71.3711 36.1367 71.6992 36.1367C71.8952 36.1367 72.0911 36.1276 72.2871 36.1094C72.4876 36.0911 72.6768 36.0638 72.8545 36.0273C73.0322 35.9954 73.1963 35.9567 73.3467 35.9111C73.4971 35.861 73.6247 35.804 73.7295 35.7402L73.5518 34.8447C73.4743 34.863 73.374 34.8857 73.251 34.9131C73.1325 34.9359 73.0049 34.9587 72.8682 34.9814C72.7269 35.0042 72.5833 35.0247 72.4375 35.043C72.2917 35.0566 72.1504 35.0635 72.0137 35.0635C71.8268 35.0635 71.6491 35.0407 71.4805 34.9951C71.3164 34.9495 71.1706 34.8698 71.043 34.7559C70.9154 34.6465 70.8151 34.4984 70.7422 34.3115C70.6693 34.1247 70.6328 33.8877 70.6328 33.6006V29.5811H73.4492V28.6035H70.6328V26.8125ZM79.3145 36.1367C80.0345 36.1367 80.6383 35.9932 81.126 35.7061C81.6182 35.4144 81.9873 35.0817 82.2334 34.708L81.4609 34.1064C81.2285 34.4072 80.9368 34.6488 80.5859 34.8311C80.235 35.0133 79.834 35.1045 79.3828 35.1045C79.041 35.1045 78.7288 35.0407 78.4463 34.9131C78.1637 34.7855 77.9222 34.61 77.7217 34.3867C77.5257 34.1771 77.3708 33.9355 77.2568 33.6621C77.1475 33.3887 77.0768 33.0719 77.0449 32.7119V32.6641H82.3291V32.0967C82.3291 31.5817 82.263 31.1032 82.1309 30.6611C82.0033 30.2191 81.8073 29.834 81.543 29.5059C81.2786 29.1823 80.946 28.9294 80.5449 28.7471C80.1484 28.5602 79.6836 28.4668 79.1504 28.4668C78.7266 28.4668 78.3118 28.5534 77.9062 28.7266C77.5052 28.8997 77.1475 29.1481 76.833 29.4717C76.514 29.7998 76.2588 30.2008 76.0674 30.6748C75.876 31.1442 75.7803 31.6774 75.7803 32.2744V32.5615C75.7803 33.0765 75.8669 33.5527 76.04 33.9902C76.2132 34.4277 76.4548 34.806 76.7646 35.125C77.0745 35.444 77.446 35.6924 77.8789 35.8701C78.3164 36.0479 78.7949 36.1367 79.3145 36.1367ZM79.1504 29.5059C79.474 29.5059 79.752 29.5651 79.9844 29.6836C80.2214 29.8021 80.4173 29.957 80.5723 30.1484C80.7272 30.3398 80.848 30.5677 80.9346 30.832C81.0212 31.0918 81.0645 31.3356 81.0645 31.5635V31.625H77.0859C77.1361 31.2832 77.2227 30.9824 77.3457 30.7227C77.4733 30.4583 77.6283 30.235 77.8105 30.0527C77.9928 29.875 78.1979 29.7406 78.4258 29.6494C78.6536 29.5537 78.8952 29.5059 79.1504 29.5059ZM84.2158 32.2402V32.3838C84.2158 32.9124 84.2865 33.4069 84.4277 33.8672C84.569 34.3229 84.7673 34.7194 85.0225 35.0566C85.2777 35.3939 85.5853 35.6582 85.9453 35.8496C86.3099 36.041 86.7155 36.1367 87.1621 36.1367C87.6178 36.1367 88.0166 36.0592 88.3584 35.9043C88.7002 35.7493 88.9941 35.5215 89.2402 35.2207L89.2949 36H90.457V25.5H89.1924V29.335C88.9508 29.0524 88.6637 28.8382 88.3311 28.6924C88.0029 28.542 87.6178 28.4668 87.1758 28.4668C86.7246 28.4668 86.3167 28.5602 85.9521 28.7471C85.5876 28.9339 85.2777 29.1937 85.0225 29.5264C84.7627 29.859 84.5622 30.2578 84.4209 30.7227C84.2842 31.1829 84.2158 31.6888 84.2158 32.2402ZM85.4805 32.3838V32.2402C85.4805 31.8802 85.5192 31.5384 85.5967 31.2148C85.6742 30.8867 85.7949 30.5973 85.959 30.3467C86.1185 30.1006 86.3236 29.9046 86.5742 29.7588C86.8294 29.613 87.1348 29.54 87.4902 29.54C87.9049 29.54 88.2513 29.638 88.5293 29.834C88.8073 30.0254 89.0283 30.2715 89.1924 30.5723V34.0039C89.0283 34.3275 88.8073 34.585 88.5293 34.7764C88.2513 34.9678 87.9004 35.0635 87.4766 35.0635C87.1257 35.0635 86.8249 34.9928 86.5742 34.8516C86.3236 34.7057 86.1185 34.5098 85.959 34.2637C85.7949 34.0176 85.6742 33.7327 85.5967 33.4092C85.5192 33.0856 85.4805 32.7438 85.4805 32.3838ZM101.142 36H103.445C103.924 35.9954 104.368 35.9385 104.778 35.8291C105.193 35.7197 105.564 35.5625 105.893 35.3574C106.202 35.1615 106.483 34.9245 106.733 34.6465C106.984 34.3685 107.191 34.0586 107.355 33.7168C107.515 33.3887 107.636 33.0286 107.718 32.6367C107.804 32.2448 107.848 31.8301 107.848 31.3926V30.6611C107.843 30.2054 107.795 29.777 107.704 29.376C107.618 28.9749 107.49 28.6058 107.321 28.2686C107.134 27.8721 106.884 27.5234 106.569 27.2227C106.259 26.9173 105.902 26.6712 105.496 26.4844C105.204 26.3477 104.885 26.2428 104.539 26.1699C104.197 26.0924 103.833 26.0514 103.445 26.0469H101.142V36ZM102.427 27.0859H103.445C103.76 27.0905 104.049 27.127 104.313 27.1953C104.578 27.2591 104.817 27.3503 105.031 27.4688C105.332 27.6283 105.585 27.8379 105.79 28.0977C106 28.3529 106.166 28.64 106.289 28.959C106.385 29.2051 106.455 29.4717 106.501 29.7588C106.551 30.0413 106.578 30.3376 106.583 30.6475V31.3926C106.578 31.6979 106.553 31.9919 106.508 32.2744C106.462 32.5524 106.394 32.8122 106.303 33.0537C106.198 33.3499 106.054 33.6188 105.872 33.8604C105.694 34.0973 105.482 34.2979 105.236 34.4619C105.004 34.6214 104.737 34.7445 104.437 34.8311C104.14 34.9176 103.81 34.9632 103.445 34.9678H102.427V27.0859ZM112.947 36.1367C113.667 36.1367 114.271 35.9932 114.759 35.7061C115.251 35.4144 115.62 35.0817 115.866 34.708L115.094 34.1064C114.861 34.4072 114.57 34.6488 114.219 34.8311C113.868 35.0133 113.467 35.1045 113.016 35.1045C112.674 35.1045 112.362 35.0407 112.079 34.9131C111.797 34.7855 111.555 34.61 111.354 34.3867C111.159 34.1771 111.004 33.9355 110.89 33.6621C110.78 33.3887 110.71 33.0719 110.678 32.7119V32.6641H115.962V32.0967C115.962 31.5817 115.896 31.1032 115.764 30.6611C115.636 30.2191 115.44 29.834 115.176 29.5059C114.911 29.1823 114.579 28.9294 114.178 28.7471C113.781 28.5602 113.316 28.4668 112.783 28.4668C112.359 28.4668 111.945 28.5534 111.539 28.7266C111.138 28.8997 110.78 29.1481 110.466 29.4717C110.147 29.7998 109.892 30.2008 109.7 30.6748C109.509 31.1442 109.413 31.6774 109.413 32.2744V32.5615C109.413 33.0765 109.5 33.5527 109.673 33.9902C109.846 34.4277 110.088 34.806 110.397 35.125C110.707 35.444 111.079 35.6924 111.512 35.8701C111.949 36.0479 112.428 36.1367 112.947 36.1367ZM112.783 29.5059C113.107 29.5059 113.385 29.5651 113.617 29.6836C113.854 29.8021 114.05 29.957 114.205 30.1484C114.36 30.3398 114.481 30.5677 114.567 30.832C114.654 31.0918 114.697 31.3356 114.697 31.5635V31.625H110.719C110.769 31.2832 110.855 30.9824 110.979 30.7227C111.106 30.4583 111.261 30.235 111.443 30.0527C111.626 29.875 111.831 29.7406 112.059 29.6494C112.286 29.5537 112.528 29.5059 112.783 29.5059ZM120.61 36H121.574L124.589 28.6035H123.297L121.226 34.1816L121.103 34.6396L120.986 34.1816L118.867 28.6035H117.568L120.61 36ZM126.694 28.6035V29.7041H129.21V34.9062H126.694V36H132.888V34.9062H130.475V28.6035H126.694ZM129.046 26.6621C129.046 26.8672 129.107 27.0381 129.23 27.1748C129.358 27.3115 129.549 27.3799 129.805 27.3799C130.055 27.3799 130.244 27.3115 130.372 27.1748C130.5 27.0381 130.563 26.8672 130.563 26.6621C130.563 26.5482 130.545 26.4434 130.509 26.3477C130.472 26.252 130.418 26.1722 130.345 26.1084C130.285 26.0492 130.21 26.0036 130.119 25.9717C130.028 25.9352 129.923 25.917 129.805 25.917C129.686 25.917 129.579 25.9352 129.483 25.9717C129.392 26.0036 129.317 26.0492 129.258 26.1084C129.185 26.1768 129.13 26.2588 129.094 26.3545C129.062 26.4502 129.046 26.5527 129.046 26.6621ZM138.056 35.1113C137.659 35.1113 137.326 35.0339 137.058 34.8789C136.793 34.7194 136.581 34.512 136.422 34.2568C136.258 34.0062 136.139 33.7236 136.066 33.4092C135.998 33.0902 135.964 32.7689 135.964 32.4453V32.1582C135.964 31.8392 135.998 31.5225 136.066 31.208C136.139 30.8936 136.258 30.6087 136.422 30.3535C136.586 30.1029 136.8 29.9001 137.064 29.7451C137.333 29.5856 137.664 29.5059 138.056 29.5059C138.311 29.5059 138.548 29.5492 138.767 29.6357C138.99 29.7223 139.181 29.8408 139.341 29.9912C139.5 30.1416 139.626 30.3171 139.717 30.5176C139.812 30.7135 139.863 30.9232 139.867 31.1465H141.063C141.063 30.7728 140.988 30.4219 140.838 30.0938C140.688 29.7656 140.48 29.4808 140.216 29.2393C139.947 29.0023 139.628 28.8154 139.259 28.6787C138.894 28.5374 138.493 28.4668 138.056 28.4668C137.495 28.4668 137.005 28.5671 136.586 28.7676C136.167 28.9681 135.818 29.237 135.54 29.5742C135.257 29.916 135.046 30.3102 134.904 30.7568C134.763 31.2035 134.692 31.6706 134.692 32.1582V32.4453C134.692 32.9375 134.763 33.4069 134.904 33.8535C135.046 34.2956 135.257 34.6852 135.54 35.0225C135.818 35.3643 136.167 35.6354 136.586 35.8359C137.005 36.0365 137.495 36.1367 138.056 36.1367C138.448 36.1367 138.824 36.0706 139.184 35.9385C139.544 35.8018 139.863 35.6195 140.141 35.3916C140.419 35.1683 140.64 34.9085 140.804 34.6123C140.972 34.3115 141.059 33.9971 141.063 33.6689H139.867C139.863 33.874 139.808 34.0654 139.703 34.2432C139.603 34.4163 139.468 34.5667 139.3 34.6943C139.131 34.8265 138.938 34.929 138.719 35.002C138.505 35.0749 138.284 35.1113 138.056 35.1113ZM146.58 36.1367C147.3 36.1367 147.904 35.9932 148.392 35.7061C148.884 35.4144 149.253 35.0817 149.499 34.708L148.727 34.1064C148.494 34.4072 148.202 34.6488 147.852 34.8311C147.501 35.0133 147.1 35.1045 146.648 35.1045C146.307 35.1045 145.994 35.0407 145.712 34.9131C145.429 34.7855 145.188 34.61 144.987 34.3867C144.791 34.1771 144.636 33.9355 144.522 33.6621C144.413 33.3887 144.342 33.0719 144.311 32.7119V32.6641H149.595V32.0967C149.595 31.5817 149.529 31.1032 149.396 30.6611C149.269 30.2191 149.073 29.834 148.809 29.5059C148.544 29.1823 148.212 28.9294 147.811 28.7471C147.414 28.5602 146.949 28.4668 146.416 28.4668C145.992 28.4668 145.577 28.5534 145.172 28.7266C144.771 28.8997 144.413 29.1481 144.099 29.4717C143.78 29.7998 143.524 30.2008 143.333 30.6748C143.142 31.1442 143.046 31.6774 143.046 32.2744V32.5615C143.046 33.0765 143.132 33.5527 143.306 33.9902C143.479 34.4277 143.72 34.806 144.03 35.125C144.34 35.444 144.712 35.6924 145.145 35.8701C145.582 36.0479 146.061 36.1367 146.58 36.1367ZM146.416 29.5059C146.74 29.5059 147.018 29.5651 147.25 29.6836C147.487 29.8021 147.683 29.957 147.838 30.1484C147.993 30.3398 148.114 30.5677 148.2 30.832C148.287 31.0918 148.33 31.3356 148.33 31.5635V31.625H144.352C144.402 31.2832 144.488 30.9824 144.611 30.7227C144.739 30.4583 144.894 30.235 145.076 30.0527C145.258 29.875 145.464 29.7406 145.691 29.6494C145.919 29.5537 146.161 29.5059 146.416 29.5059ZM156.636 34.0381C156.636 34.1566 156.613 34.2682 156.567 34.373C156.522 34.4779 156.456 34.5736 156.369 34.6602C156.228 34.8014 156.032 34.9131 155.781 34.9951C155.531 35.0726 155.237 35.1113 154.899 35.1113C154.685 35.1113 154.469 35.0885 154.25 35.043C154.031 34.9974 153.833 34.9199 153.655 34.8105C153.473 34.7012 153.32 34.5576 153.197 34.3799C153.079 34.2021 153.01 33.9834 152.992 33.7236H151.728C151.728 34.0381 151.798 34.3411 151.939 34.6328C152.085 34.9245 152.295 35.1797 152.568 35.3984C152.837 35.6217 153.168 35.8018 153.56 35.9385C153.951 36.0706 154.398 36.1367 154.899 36.1367C155.337 36.1367 155.74 36.0843 156.109 35.9795C156.479 35.8747 156.795 35.7266 157.06 35.5352C157.324 35.3438 157.529 35.1136 157.675 34.8447C157.825 34.5758 157.9 34.2773 157.9 33.9492C157.9 33.6439 157.834 33.375 157.702 33.1426C157.575 32.9102 157.388 32.7051 157.142 32.5273C156.896 32.3542 156.592 32.2061 156.232 32.083C155.872 31.9554 155.465 31.8438 155.009 31.748C154.662 31.6797 154.375 31.609 154.147 31.5361C153.924 31.4632 153.746 31.3812 153.614 31.29C153.478 31.1989 153.382 31.0964 153.327 30.9824C153.272 30.8685 153.245 30.7386 153.245 30.5928C153.245 30.4515 153.279 30.3148 153.348 30.1826C153.416 30.0505 153.519 29.9342 153.655 29.834C153.787 29.7337 153.954 29.654 154.154 29.5947C154.359 29.5355 154.596 29.5059 154.865 29.5059C155.125 29.5059 155.357 29.5423 155.562 29.6152C155.772 29.6882 155.95 29.7839 156.096 29.9023C156.242 30.0208 156.355 30.1576 156.438 30.3125C156.52 30.4629 156.561 30.6178 156.561 30.7773H157.825C157.825 30.4538 157.755 30.153 157.613 29.875C157.477 29.5924 157.281 29.3464 157.025 29.1367C156.77 28.9271 156.46 28.763 156.096 28.6445C155.731 28.526 155.321 28.4668 154.865 28.4668C154.441 28.4668 154.052 28.5238 153.696 28.6377C153.345 28.7516 153.042 28.9066 152.787 29.1025C152.532 29.2985 152.334 29.5286 152.192 29.793C152.051 30.0527 151.98 30.333 151.98 30.6338C151.98 30.9391 152.049 31.208 152.186 31.4404C152.322 31.6683 152.516 31.8665 152.767 32.0352C153.013 32.2083 153.309 32.3564 153.655 32.4795C154.006 32.6025 154.394 32.7074 154.817 32.7939C155.164 32.8623 155.453 32.9398 155.686 33.0264C155.918 33.1084 156.105 33.1995 156.246 33.2998C156.387 33.4001 156.488 33.5117 156.547 33.6348C156.606 33.7533 156.636 33.8877 156.636 34.0381Z" fill="#EB4E4E"/>
</svg>
