<svg width="150" height="67" viewBox="0 0 150 67" fill="none" xmlns="http://www.w3.org/2000/svg">
<g filter="url(#filter0_d)">
<rect width="150" height="63.8925" rx="5" fill="#FF5722"/>
<path d="M15.0879 32.5635C13.9622 32.2399 13.1419 31.8434 12.627 31.374C12.1165 30.9001 11.8613 30.3167 11.8613 29.624C11.8613 28.8402 12.1735 28.193 12.7979 27.6826C13.4268 27.1676 14.2425 26.9102 15.2451 26.9102C15.9287 26.9102 16.5371 27.0423 17.0703 27.3066C17.6081 27.571 18.0228 27.9355 18.3145 28.4004C18.6107 28.8652 18.7588 29.3734 18.7588 29.9248H17.4395C17.4395 29.3232 17.248 28.8516 16.8652 28.5098C16.4824 28.1634 15.9424 27.9902 15.2451 27.9902C14.598 27.9902 14.0921 28.1338 13.7275 28.4209C13.3675 28.7035 13.1875 29.0977 13.1875 29.6035C13.1875 30.0091 13.3584 30.3532 13.7002 30.6357C14.0465 30.9137 14.6322 31.1689 15.457 31.4014C16.2865 31.6338 16.9336 31.8913 17.3984 32.1738C17.8678 32.4518 18.2142 32.7777 18.4375 33.1514C18.6654 33.5251 18.7793 33.9648 18.7793 34.4707C18.7793 35.2773 18.4648 35.9245 17.8359 36.4121C17.207 36.8952 16.3662 37.1367 15.3135 37.1367C14.6299 37.1367 13.9919 37.0068 13.3994 36.7471C12.807 36.4827 12.349 36.1227 12.0254 35.667C11.7064 35.2113 11.5469 34.694 11.5469 34.1152H12.8662C12.8662 34.7168 13.0872 35.193 13.5293 35.5439C13.9759 35.8903 14.5706 36.0635 15.3135 36.0635C16.0062 36.0635 16.5371 35.9222 16.9062 35.6396C17.2754 35.3571 17.46 34.972 17.46 34.4844C17.46 33.9967 17.2891 33.6208 16.9473 33.3564C16.6055 33.0876 15.9857 32.8232 15.0879 32.5635ZM24.8359 36.2686C24.3438 36.8473 23.6214 37.1367 22.6689 37.1367C21.8805 37.1367 21.279 36.9089 20.8643 36.4531C20.4541 35.9928 20.2467 35.3138 20.2422 34.416V29.6035H21.5068V34.3818C21.5068 35.5029 21.9626 36.0635 22.874 36.0635C23.8402 36.0635 24.4827 35.7035 24.8018 34.9834V29.6035H26.0664V37H24.8633L24.8359 36.2686ZM34.2422 33.3838C34.2422 34.5094 33.9847 35.4163 33.4697 36.1045C32.9548 36.7926 32.2575 37.1367 31.3779 37.1367C30.4801 37.1367 29.7738 36.8519 29.2588 36.2822V39.8438H27.9941V29.6035H29.1494L29.2109 30.4238C29.7259 29.7858 30.4414 29.4668 31.3574 29.4668C32.2461 29.4668 32.9479 29.8018 33.4629 30.4717C33.9824 31.1416 34.2422 32.0736 34.2422 33.2676V33.3838ZM32.9775 33.2402C32.9775 32.4062 32.7998 31.7477 32.4443 31.2646C32.0889 30.7816 31.6012 30.54 30.9814 30.54C30.2158 30.54 29.6416 30.8796 29.2588 31.5586V35.0928C29.637 35.7673 30.2158 36.1045 30.9951 36.1045C31.6012 36.1045 32.082 35.8652 32.4375 35.3867C32.7975 34.9036 32.9775 34.1882 32.9775 33.2402ZM42.1035 33.3838C42.1035 34.5094 41.846 35.4163 41.3311 36.1045C40.8161 36.7926 40.1188 37.1367 39.2393 37.1367C38.3415 37.1367 37.6351 36.8519 37.1201 36.2822V39.8438H35.8555V29.6035H37.0107L37.0723 30.4238C37.5872 29.7858 38.3027 29.4668 39.2188 29.4668C40.1074 29.4668 40.8092 29.8018 41.3242 30.4717C41.8438 31.1416 42.1035 32.0736 42.1035 33.2676V33.3838ZM40.8389 33.2402C40.8389 32.4062 40.6611 31.7477 40.3057 31.2646C39.9502 30.7816 39.4626 30.54 38.8428 30.54C38.0771 30.54 37.5029 30.8796 37.1201 31.5586V35.0928C37.4984 35.7673 38.0771 36.1045 38.8564 36.1045C39.4626 36.1045 39.9434 35.8652 40.2988 35.3867C40.6589 34.9036 40.8389 34.1882 40.8389 33.2402ZM43.3818 33.2334C43.3818 32.5088 43.5231 31.8571 43.8057 31.2783C44.0928 30.6995 44.4893 30.2529 44.9951 29.9385C45.5055 29.624 46.0866 29.4668 46.7383 29.4668C47.7454 29.4668 48.5589 29.8154 49.1787 30.5127C49.8031 31.21 50.1152 32.1374 50.1152 33.2949V33.3838C50.1152 34.1038 49.9762 34.751 49.6982 35.3252C49.4248 35.8949 49.0306 36.3392 48.5156 36.6582C48.0052 36.9772 47.4173 37.1367 46.752 37.1367C45.7493 37.1367 44.9359 36.7881 44.3115 36.0908C43.6917 35.3936 43.3818 34.4707 43.3818 33.3223V33.2334ZM44.6533 33.3838C44.6533 34.2041 44.8424 34.8626 45.2207 35.3594C45.6035 35.8561 46.1139 36.1045 46.752 36.1045C47.3945 36.1045 47.9049 35.8538 48.2832 35.3525C48.6615 34.8467 48.8506 34.1403 48.8506 33.2334C48.8506 32.4222 48.6569 31.766 48.2695 31.2646C47.8867 30.7588 47.3763 30.5059 46.7383 30.5059C46.1139 30.5059 45.6104 30.7542 45.2275 31.251C44.8447 31.7477 44.6533 32.4587 44.6533 33.3838ZM55.2764 30.7383C55.085 30.7064 54.8776 30.6904 54.6543 30.6904C53.8249 30.6904 53.262 31.0436 52.9658 31.75V37H51.7012V29.6035H52.9316L52.9521 30.458C53.3669 29.7972 53.9548 29.4668 54.7158 29.4668C54.9619 29.4668 55.1488 29.4987 55.2764 29.5625V30.7383ZM58.5029 27.8125V29.6035H59.8838V30.5811H58.5029V35.168C58.5029 35.4642 58.5645 35.6875 58.6875 35.8379C58.8105 35.9837 59.0202 36.0566 59.3164 36.0566C59.4622 36.0566 59.6628 36.0293 59.918 35.9746V37C59.5853 37.0911 59.2617 37.1367 58.9473 37.1367C58.3822 37.1367 57.9561 36.9658 57.6689 36.624C57.3818 36.2822 57.2383 35.7969 57.2383 35.168V30.5811H55.8916V29.6035H57.2383V27.8125H58.5029ZM64.4365 37.1367C63.4339 37.1367 62.6182 36.8086 61.9893 36.1523C61.3604 35.4915 61.0459 34.6097 61.0459 33.5068V33.2744C61.0459 32.5407 61.1849 31.8867 61.4629 31.3125C61.7454 30.7337 62.1374 30.2826 62.6387 29.959C63.1445 29.6309 63.6914 29.4668 64.2793 29.4668C65.2409 29.4668 65.9883 29.7835 66.5215 30.417C67.0547 31.0505 67.3213 31.9574 67.3213 33.1377V33.6641H62.3105C62.3288 34.3932 62.5407 34.9834 62.9463 35.4346C63.3564 35.8812 63.876 36.1045 64.5049 36.1045C64.9515 36.1045 65.3298 36.0133 65.6396 35.8311C65.9495 35.6488 66.2207 35.4072 66.4531 35.1064L67.2256 35.708C66.6058 36.6605 65.6761 37.1367 64.4365 37.1367ZM64.2793 30.5059C63.7689 30.5059 63.3405 30.6927 62.9941 31.0664C62.6478 31.4355 62.4336 31.9551 62.3516 32.625H66.0566V32.5293C66.0202 31.8867 65.847 31.39 65.5371 31.0391C65.2272 30.6836 64.8079 30.5059 64.2793 30.5059ZM68.4834 33.2402C68.4834 32.1055 68.7523 31.194 69.29 30.5059C69.8278 29.8132 70.5319 29.4668 71.4023 29.4668C72.2682 29.4668 72.9541 29.763 73.46 30.3555V26.5H74.7246V37H73.5625L73.501 36.207C72.9951 36.8268 72.291 37.1367 71.3887 37.1367C70.5319 37.1367 69.8324 36.7858 69.29 36.084C68.7523 35.3822 68.4834 34.4661 68.4834 33.3359V33.2402ZM69.748 33.3838C69.748 34.2223 69.9212 34.8786 70.2676 35.3525C70.6139 35.8265 71.0924 36.0635 71.7031 36.0635C72.5052 36.0635 73.0908 35.7035 73.46 34.9834V31.5859C73.0817 30.8887 72.5007 30.54 71.7168 30.54C71.097 30.54 70.6139 30.7793 70.2676 31.2578C69.9212 31.7363 69.748 32.445 69.748 33.3838ZM88.0137 37H86.6943V32.3994H81.6768V37H80.3643V27.0469H81.6768V31.3262H86.6943V27.0469H88.0137V37ZM94.7129 37C94.64 36.8542 94.5807 36.5944 94.5352 36.2207C93.9473 36.8314 93.2454 37.1367 92.4297 37.1367C91.7005 37.1367 91.1012 36.9316 90.6318 36.5215C90.167 36.1068 89.9346 35.5827 89.9346 34.9492C89.9346 34.179 90.2262 33.582 90.8096 33.1582C91.3975 32.7298 92.2223 32.5156 93.2842 32.5156H94.5146V31.9346C94.5146 31.4925 94.3825 31.1416 94.1182 30.8818C93.8538 30.6175 93.4642 30.4854 92.9492 30.4854C92.498 30.4854 92.1198 30.5993 91.8145 30.8271C91.5091 31.055 91.3564 31.3307 91.3564 31.6543H90.085C90.085 31.2852 90.2148 30.9297 90.4746 30.5879C90.7389 30.2415 91.0944 29.9681 91.541 29.7676C91.9922 29.5671 92.4867 29.4668 93.0244 29.4668C93.8766 29.4668 94.5443 29.681 95.0273 30.1094C95.5104 30.5332 95.7611 31.1188 95.7793 31.8662V35.2705C95.7793 35.9495 95.8659 36.4896 96.0391 36.8906V37H94.7129ZM92.6143 36.0361C93.0107 36.0361 93.3867 35.9336 93.7422 35.7285C94.0977 35.5234 94.3551 35.2568 94.5146 34.9287V33.4111H93.5234C91.974 33.4111 91.1992 33.8646 91.1992 34.7715C91.1992 35.168 91.3314 35.4779 91.5957 35.7012C91.86 35.9245 92.1995 36.0361 92.6143 36.0361ZM101.337 30.7383C101.146 30.7064 100.938 30.6904 100.715 30.6904C99.8854 30.6904 99.3226 31.0436 99.0264 31.75V37H97.7617V29.6035H98.9922L99.0127 30.458C99.4274 29.7972 100.015 29.4668 100.776 29.4668C101.022 29.4668 101.209 29.4987 101.337 29.5625V30.7383ZM102.062 33.2402C102.062 32.1055 102.33 31.194 102.868 30.5059C103.406 29.8132 104.11 29.4668 104.98 29.4668C105.846 29.4668 106.532 29.763 107.038 30.3555V26.5H108.303V37H107.141L107.079 36.207C106.573 36.8268 105.869 37.1367 104.967 37.1367C104.11 37.1367 103.41 36.7858 102.868 36.084C102.33 35.3822 102.062 34.4661 102.062 33.3359V33.2402ZM103.326 33.3838C103.326 34.2223 103.499 34.8786 103.846 35.3525C104.192 35.8265 104.671 36.0635 105.281 36.0635C106.083 36.0635 106.669 35.7035 107.038 34.9834V31.5859C106.66 30.8887 106.079 30.54 105.295 30.54C104.675 30.54 104.192 30.7793 103.846 31.2578C103.499 31.7363 103.326 32.445 103.326 33.3838ZM116.82 35.2568L118.242 29.6035H119.507L117.354 37H116.328L114.53 31.3945L112.78 37H111.755L109.608 29.6035H110.866L112.322 35.1406L114.045 29.6035H115.063L116.82 35.2568ZM125.365 37C125.292 36.8542 125.233 36.5944 125.188 36.2207C124.6 36.8314 123.898 37.1367 123.082 37.1367C122.353 37.1367 121.754 36.9316 121.284 36.5215C120.819 36.1068 120.587 35.5827 120.587 34.9492C120.587 34.179 120.879 33.582 121.462 33.1582C122.05 32.7298 122.875 32.5156 123.937 32.5156H125.167V31.9346C125.167 31.4925 125.035 31.1416 124.771 30.8818C124.506 30.6175 124.117 30.4854 123.602 30.4854C123.15 30.4854 122.772 30.5993 122.467 30.8271C122.161 31.055 122.009 31.3307 122.009 31.6543H120.737C120.737 31.2852 120.867 30.9297 121.127 30.5879C121.391 30.2415 121.747 29.9681 122.193 29.7676C122.645 29.5671 123.139 29.4668 123.677 29.4668C124.529 29.4668 125.197 29.681 125.68 30.1094C126.163 30.5332 126.413 31.1188 126.432 31.8662V35.2705C126.432 35.9495 126.518 36.4896 126.691 36.8906V37H125.365ZM123.267 36.0361C123.663 36.0361 124.039 35.9336 124.395 35.7285C124.75 35.5234 125.007 35.2568 125.167 34.9287V33.4111H124.176C122.626 33.4111 121.852 33.8646 121.852 34.7715C121.852 35.168 121.984 35.4779 122.248 35.7012C122.512 35.9245 122.852 36.0361 123.267 36.0361ZM131.989 30.7383C131.798 30.7064 131.59 30.6904 131.367 30.6904C130.538 30.6904 129.975 31.0436 129.679 31.75V37H128.414V29.6035H129.645L129.665 30.458C130.08 29.7972 130.668 29.4668 131.429 29.4668C131.675 29.4668 131.862 29.4987 131.989 29.5625V30.7383ZM136.091 37.1367C135.088 37.1367 134.272 36.8086 133.644 36.1523C133.015 35.4915 132.7 34.6097 132.7 33.5068V33.2744C132.7 32.5407 132.839 31.8867 133.117 31.3125C133.4 30.7337 133.792 30.2826 134.293 29.959C134.799 29.6309 135.346 29.4668 135.934 29.4668C136.895 29.4668 137.643 29.7835 138.176 30.417C138.709 31.0505 138.976 31.9574 138.976 33.1377V33.6641H133.965C133.983 34.3932 134.195 34.9834 134.601 35.4346C135.011 35.8812 135.53 36.1045 136.159 36.1045C136.606 36.1045 136.984 36.0133 137.294 35.8311C137.604 35.6488 137.875 35.4072 138.107 35.1064L138.88 35.708C138.26 36.6605 137.33 37.1367 136.091 37.1367ZM135.934 30.5059C135.423 30.5059 134.995 30.6927 134.648 31.0664C134.302 31.4355 134.088 31.9551 134.006 32.625H137.711V32.5293C137.674 31.8867 137.501 31.39 137.191 31.0391C136.882 30.6836 136.462 30.5059 135.934 30.5059Z" fill="white"/>
<rect x="0.5" y="0.5" width="149" height="62.8925" rx="4.5" stroke="#FF5722"/>
</g>
<defs>
<filter id="filter0_d" x="0" y="0" width="150" height="66.8925" filterUnits="userSpaceOnUse" color-interpolation-filters="sRGB">
<feFlood flood-opacity="0" result="BackgroundImageFix"/>
<feColorMatrix in="SourceAlpha" type="matrix" values="0 0 0 0 0 0 0 0 0 0 0 0 0 0 0 0 0 0 127 0"/>
<feOffset dy="3"/>
<feColorMatrix type="matrix" values="0 0 0 0 0.752941 0 0 0 0 0 0 0 0 0 0 0 0 0 1 0"/>
<feBlend mode="normal" in2="BackgroundImageFix" result="effect1_dropShadow"/>
<feBlend mode="normal" in="SourceGraphic" in2="effect1_dropShadow" result="shape"/>
</filter>
</defs>
</svg>
