<svg width="150" height="96" viewBox="0 0 150 96" fill="none" xmlns="http://www.w3.org/2000/svg">
<rect x="0.5" y="0.5" width="149" height="95" rx="4.5" stroke="#DDD4D4"/>
<path d="M14.0879 32.5635C12.9622 32.2399 12.1419 31.8434 11.627 31.374C11.1165 30.9001 10.8613 30.3167 10.8613 29.624C10.8613 28.8402 11.1735 28.193 11.7979 27.6826C12.4268 27.1676 13.2425 26.9102 14.2451 26.9102C14.9287 26.9102 15.5371 27.0423 16.0703 27.3066C16.6081 27.571 17.0228 27.9355 17.3145 28.4004C17.6107 28.8652 17.7588 29.3734 17.7588 29.9248H16.4395C16.4395 29.3232 16.248 28.8516 15.8652 28.5098C15.4824 28.1634 14.9424 27.9902 14.2451 27.9902C13.598 27.9902 13.0921 28.1338 12.7275 28.4209C12.3675 28.7035 12.1875 29.0977 12.1875 29.6035C12.1875 30.0091 12.3584 30.3532 12.7002 30.6357C13.0465 30.9137 13.6322 31.1689 14.457 31.4014C15.2865 31.6338 15.9336 31.8913 16.3984 32.1738C16.8678 32.4518 17.2142 32.7777 17.4375 33.1514C17.6654 33.5251 17.7793 33.9648 17.7793 34.4707C17.7793 35.2773 17.4648 35.9245 16.8359 36.4121C16.207 36.8952 15.3662 37.1367 14.3135 37.1367C13.6299 37.1367 12.9919 37.0068 12.3994 36.7471C11.807 36.4827 11.349 36.1227 11.0254 35.667C10.7064 35.2113 10.5469 34.694 10.5469 34.1152H11.8662C11.8662 34.7168 12.0872 35.193 12.5293 35.5439C12.9759 35.8903 13.5706 36.0635 14.3135 36.0635C15.0062 36.0635 15.5371 35.9222 15.9062 35.6396C16.2754 35.3571 16.46 34.972 16.46 34.4844C16.46 33.9967 16.2891 33.6208 15.9473 33.3564C15.6055 33.0876 14.9857 32.8232 14.0879 32.5635ZM23.8359 36.2686C23.3438 36.8473 22.6214 37.1367 21.6689 37.1367C20.8805 37.1367 20.279 36.9089 19.8643 36.4531C19.4541 35.9928 19.2467 35.3138 19.2422 34.416V29.6035H20.5068V34.3818C20.5068 35.5029 20.9626 36.0635 21.874 36.0635C22.8402 36.0635 23.4827 35.7035 23.8018 34.9834V29.6035H25.0664V37H23.8633L23.8359 36.2686ZM33.2422 33.3838C33.2422 34.5094 32.9847 35.4163 32.4697 36.1045C31.9548 36.7926 31.2575 37.1367 30.3779 37.1367C29.4801 37.1367 28.7738 36.8519 28.2588 36.2822V39.8438H26.9941V29.6035H28.1494L28.2109 30.4238C28.7259 29.7858 29.4414 29.4668 30.3574 29.4668C31.2461 29.4668 31.9479 29.8018 32.4629 30.4717C32.9824 31.1416 33.2422 32.0736 33.2422 33.2676V33.3838ZM31.9775 33.2402C31.9775 32.4062 31.7998 31.7477 31.4443 31.2646C31.0889 30.7816 30.6012 30.54 29.9814 30.54C29.2158 30.54 28.6416 30.8796 28.2588 31.5586V35.0928C28.637 35.7673 29.2158 36.1045 29.9951 36.1045C30.6012 36.1045 31.082 35.8652 31.4375 35.3867C31.7975 34.9036 31.9775 34.1882 31.9775 33.2402ZM41.1035 33.3838C41.1035 34.5094 40.846 35.4163 40.3311 36.1045C39.8161 36.7926 39.1188 37.1367 38.2393 37.1367C37.3415 37.1367 36.6351 36.8519 36.1201 36.2822V39.8438H34.8555V29.6035H36.0107L36.0723 30.4238C36.5872 29.7858 37.3027 29.4668 38.2188 29.4668C39.1074 29.4668 39.8092 29.8018 40.3242 30.4717C40.8438 31.1416 41.1035 32.0736 41.1035 33.2676V33.3838ZM39.8389 33.2402C39.8389 32.4062 39.6611 31.7477 39.3057 31.2646C38.9502 30.7816 38.4626 30.54 37.8428 30.54C37.0771 30.54 36.5029 30.8796 36.1201 31.5586V35.0928C36.4984 35.7673 37.0771 36.1045 37.8564 36.1045C38.4626 36.1045 38.9434 35.8652 39.2988 35.3867C39.6589 34.9036 39.8389 34.1882 39.8389 33.2402ZM42.3818 33.2334C42.3818 32.5088 42.5231 31.8571 42.8057 31.2783C43.0928 30.6995 43.4893 30.2529 43.9951 29.9385C44.5055 29.624 45.0866 29.4668 45.7383 29.4668C46.7454 29.4668 47.5589 29.8154 48.1787 30.5127C48.8031 31.21 49.1152 32.1374 49.1152 33.2949V33.3838C49.1152 34.1038 48.9762 34.751 48.6982 35.3252C48.4248 35.8949 48.0306 36.3392 47.5156 36.6582C47.0052 36.9772 46.4173 37.1367 45.752 37.1367C44.7493 37.1367 43.9359 36.7881 43.3115 36.0908C42.6917 35.3936 42.3818 34.4707 42.3818 33.3223V33.2334ZM43.6533 33.3838C43.6533 34.2041 43.8424 34.8626 44.2207 35.3594C44.6035 35.8561 45.1139 36.1045 45.752 36.1045C46.3945 36.1045 46.9049 35.8538 47.2832 35.3525C47.6615 34.8467 47.8506 34.1403 47.8506 33.2334C47.8506 32.4222 47.6569 31.766 47.2695 31.2646C46.8867 30.7588 46.3763 30.5059 45.7383 30.5059C45.1139 30.5059 44.6104 30.7542 44.2275 31.251C43.8447 31.7477 43.6533 32.4587 43.6533 33.3838ZM54.2764 30.7383C54.085 30.7064 53.8776 30.6904 53.6543 30.6904C52.8249 30.6904 52.262 31.0436 51.9658 31.75V37H50.7012V29.6035H51.9316L51.9521 30.458C52.3669 29.7972 52.9548 29.4668 53.7158 29.4668C53.9619 29.4668 54.1488 29.4987 54.2764 29.5625V30.7383ZM57.5029 27.8125V29.6035H58.8838V30.5811H57.5029V35.168C57.5029 35.4642 57.5645 35.6875 57.6875 35.8379C57.8105 35.9837 58.0202 36.0566 58.3164 36.0566C58.4622 36.0566 58.6628 36.0293 58.918 35.9746V37C58.5853 37.0911 58.2617 37.1367 57.9473 37.1367C57.3822 37.1367 56.9561 36.9658 56.6689 36.624C56.3818 36.2822 56.2383 35.7969 56.2383 35.168V30.5811H54.8916V29.6035H56.2383V27.8125H57.5029ZM63.4365 37.1367C62.4339 37.1367 61.6182 36.8086 60.9893 36.1523C60.3604 35.4915 60.0459 34.6097 60.0459 33.5068V33.2744C60.0459 32.5407 60.1849 31.8867 60.4629 31.3125C60.7454 30.7337 61.1374 30.2826 61.6387 29.959C62.1445 29.6309 62.6914 29.4668 63.2793 29.4668C64.2409 29.4668 64.9883 29.7835 65.5215 30.417C66.0547 31.0505 66.3213 31.9574 66.3213 33.1377V33.6641H61.3105C61.3288 34.3932 61.5407 34.9834 61.9463 35.4346C62.3564 35.8812 62.876 36.1045 63.5049 36.1045C63.9515 36.1045 64.3298 36.0133 64.6396 35.8311C64.9495 35.6488 65.2207 35.4072 65.4531 35.1064L66.2256 35.708C65.6058 36.6605 64.6761 37.1367 63.4365 37.1367ZM63.2793 30.5059C62.7689 30.5059 62.3405 30.6927 61.9941 31.0664C61.6478 31.4355 61.4336 31.9551 61.3516 32.625H65.0566V32.5293C65.0202 31.8867 64.847 31.39 64.5371 31.0391C64.2272 30.6836 63.8079 30.5059 63.2793 30.5059ZM67.4834 33.2402C67.4834 32.1055 67.7523 31.194 68.29 30.5059C68.8278 29.8132 69.5319 29.4668 70.4023 29.4668C71.2682 29.4668 71.9541 29.763 72.46 30.3555V26.5H73.7246V37H72.5625L72.501 36.207C71.9951 36.8268 71.291 37.1367 70.3887 37.1367C69.5319 37.1367 68.8324 36.7858 68.29 36.084C67.7523 35.3822 67.4834 34.4661 67.4834 33.3359V33.2402ZM68.748 33.3838C68.748 34.2223 68.9212 34.8786 69.2676 35.3525C69.6139 35.8265 70.0924 36.0635 70.7031 36.0635C71.5052 36.0635 72.0908 35.7035 72.46 34.9834V31.5859C72.0817 30.8887 71.5007 30.54 70.7168 30.54C70.097 30.54 69.6139 30.7793 69.2676 31.2578C68.9212 31.7363 68.748 32.445 68.748 33.3838ZM87.0137 37H85.6943V32.3994H80.6768V37H79.3643V27.0469H80.6768V31.3262H85.6943V27.0469H87.0137V37ZM93.7129 37C93.64 36.8542 93.5807 36.5944 93.5352 36.2207C92.9473 36.8314 92.2454 37.1367 91.4297 37.1367C90.7005 37.1367 90.1012 36.9316 89.6318 36.5215C89.167 36.1068 88.9346 35.5827 88.9346 34.9492C88.9346 34.179 89.2262 33.582 89.8096 33.1582C90.3975 32.7298 91.2223 32.5156 92.2842 32.5156H93.5146V31.9346C93.5146 31.4925 93.3825 31.1416 93.1182 30.8818C92.8538 30.6175 92.4642 30.4854 91.9492 30.4854C91.498 30.4854 91.1198 30.5993 90.8145 30.8271C90.5091 31.055 90.3564 31.3307 90.3564 31.6543H89.085C89.085 31.2852 89.2148 30.9297 89.4746 30.5879C89.7389 30.2415 90.0944 29.9681 90.541 29.7676C90.9922 29.5671 91.4867 29.4668 92.0244 29.4668C92.8766 29.4668 93.5443 29.681 94.0273 30.1094C94.5104 30.5332 94.7611 31.1188 94.7793 31.8662V35.2705C94.7793 35.9495 94.8659 36.4896 95.0391 36.8906V37H93.7129ZM91.6143 36.0361C92.0107 36.0361 92.3867 35.9336 92.7422 35.7285C93.0977 35.5234 93.3551 35.2568 93.5146 34.9287V33.4111H92.5234C90.974 33.4111 90.1992 33.8646 90.1992 34.7715C90.1992 35.168 90.3314 35.4779 90.5957 35.7012C90.86 35.9245 91.1995 36.0361 91.6143 36.0361ZM100.337 30.7383C100.146 30.7064 99.9382 30.6904 99.7148 30.6904C98.8854 30.6904 98.3226 31.0436 98.0264 31.75V37H96.7617V29.6035H97.9922L98.0127 30.458C98.4274 29.7972 99.0153 29.4668 99.7764 29.4668C100.022 29.4668 100.209 29.4987 100.337 29.5625V30.7383ZM101.062 33.2402C101.062 32.1055 101.33 31.194 101.868 30.5059C102.406 29.8132 103.11 29.4668 103.98 29.4668C104.846 29.4668 105.532 29.763 106.038 30.3555V26.5H107.303V37H106.141L106.079 36.207C105.573 36.8268 104.869 37.1367 103.967 37.1367C103.11 37.1367 102.41 36.7858 101.868 36.084C101.33 35.3822 101.062 34.4661 101.062 33.3359V33.2402ZM102.326 33.3838C102.326 34.2223 102.499 34.8786 102.846 35.3525C103.192 35.8265 103.671 36.0635 104.281 36.0635C105.083 36.0635 105.669 35.7035 106.038 34.9834V31.5859C105.66 30.8887 105.079 30.54 104.295 30.54C103.675 30.54 103.192 30.7793 102.846 31.2578C102.499 31.7363 102.326 32.445 102.326 33.3838ZM115.82 35.2568L117.242 29.6035H118.507L116.354 37H115.328L113.53 31.3945L111.78 37H110.755L108.608 29.6035H109.866L111.322 35.1406L113.045 29.6035H114.063L115.82 35.2568ZM124.365 37C124.292 36.8542 124.233 36.5944 124.188 36.2207C123.6 36.8314 122.898 37.1367 122.082 37.1367C121.353 37.1367 120.754 36.9316 120.284 36.5215C119.819 36.1068 119.587 35.5827 119.587 34.9492C119.587 34.179 119.879 33.582 120.462 33.1582C121.05 32.7298 121.875 32.5156 122.937 32.5156H124.167V31.9346C124.167 31.4925 124.035 31.1416 123.771 30.8818C123.506 30.6175 123.117 30.4854 122.602 30.4854C122.15 30.4854 121.772 30.5993 121.467 30.8271C121.161 31.055 121.009 31.3307 121.009 31.6543H119.737C119.737 31.2852 119.867 30.9297 120.127 30.5879C120.391 30.2415 120.747 29.9681 121.193 29.7676C121.645 29.5671 122.139 29.4668 122.677 29.4668C123.529 29.4668 124.197 29.681 124.68 30.1094C125.163 30.5332 125.413 31.1188 125.432 31.8662V35.2705C125.432 35.9495 125.518 36.4896 125.691 36.8906V37H124.365ZM122.267 36.0361C122.663 36.0361 123.039 35.9336 123.395 35.7285C123.75 35.5234 124.007 35.2568 124.167 34.9287V33.4111H123.176C121.626 33.4111 120.852 33.8646 120.852 34.7715C120.852 35.168 120.984 35.4779 121.248 35.7012C121.512 35.9245 121.852 36.0361 122.267 36.0361ZM130.989 30.7383C130.798 30.7064 130.59 30.6904 130.367 30.6904C129.538 30.6904 128.975 31.0436 128.679 31.75V37H127.414V29.6035H128.645L128.665 30.458C129.08 29.7972 129.668 29.4668 130.429 29.4668C130.675 29.4668 130.862 29.4987 130.989 29.5625V30.7383ZM135.091 37.1367C134.088 37.1367 133.272 36.8086 132.644 36.1523C132.015 35.4915 131.7 34.6097 131.7 33.5068V33.2744C131.7 32.5407 131.839 31.8867 132.117 31.3125C132.4 30.7337 132.792 30.2826 133.293 29.959C133.799 29.6309 134.346 29.4668 134.934 29.4668C135.895 29.4668 136.643 29.7835 137.176 30.417C137.709 31.0505 137.976 31.9574 137.976 33.1377V33.6641H132.965C132.983 34.3932 133.195 34.9834 133.601 35.4346C134.011 35.8812 134.53 36.1045 135.159 36.1045C135.606 36.1045 135.984 36.0133 136.294 35.8311C136.604 35.6488 136.875 35.4072 137.107 35.1064L137.88 35.708C137.26 36.6605 136.33 37.1367 135.091 37.1367ZM134.934 30.5059C134.423 30.5059 133.995 30.6927 133.648 31.0664C133.302 31.4355 133.088 31.9551 133.006 32.625H136.711V32.5293C136.674 31.8867 136.501 31.39 136.191 31.0391C135.882 30.6836 135.462 30.5059 134.934 30.5059Z" fill="#FF5722"/>
<path d="M16.7676 56.2334H20.1367V57H15.8252V49.8906H16.7676V56.2334ZM22.0459 57H21.1426V51.7168H22.0459V57ZM21.0693 50.3154C21.0693 50.1689 21.1133 50.0452 21.2012 49.9443C21.2923 49.8434 21.4258 49.793 21.6016 49.793C21.7773 49.793 21.9108 49.8434 22.002 49.9443C22.0931 50.0452 22.1387 50.1689 22.1387 50.3154C22.1387 50.4619 22.0931 50.584 22.002 50.6816C21.9108 50.7793 21.7773 50.8281 21.6016 50.8281C21.4258 50.8281 21.2923 50.7793 21.2012 50.6816C21.1133 50.584 21.0693 50.4619 21.0693 50.3154ZM26.5723 55.5986C26.5723 55.3545 26.4795 55.1657 26.2939 55.0322C26.1117 54.8955 25.791 54.7783 25.332 54.6807C24.8763 54.583 24.5133 54.4658 24.2432 54.3291C23.9762 54.1924 23.7777 54.0296 23.6475 53.8408C23.5205 53.652 23.457 53.4274 23.457 53.167C23.457 52.734 23.6393 52.3678 24.0039 52.0684C24.3717 51.7689 24.8405 51.6191 25.4102 51.6191C26.0091 51.6191 26.4941 51.7738 26.8652 52.083C27.2396 52.3923 27.4268 52.7878 27.4268 53.2695H26.5186C26.5186 53.0221 26.4128 52.8089 26.2012 52.6299C25.9928 52.4508 25.7292 52.3613 25.4102 52.3613C25.0814 52.3613 24.8242 52.4329 24.6387 52.5762C24.4531 52.7194 24.3604 52.9066 24.3604 53.1377C24.3604 53.3558 24.4466 53.5202 24.6191 53.6309C24.7917 53.7415 25.1025 53.8473 25.5518 53.9482C26.0042 54.0492 26.3704 54.1696 26.6504 54.3096C26.9303 54.4495 27.137 54.6188 27.2705 54.8174C27.4072 55.0127 27.4756 55.252 27.4756 55.5352C27.4756 56.0072 27.2868 56.3864 26.9092 56.6729C26.5316 56.9561 26.0417 57.0977 25.4395 57.0977C25.0163 57.0977 24.6419 57.0228 24.3164 56.873C23.9909 56.7233 23.7354 56.515 23.5498 56.248C23.3675 55.9779 23.2764 55.6865 23.2764 55.374H24.1797C24.196 55.6768 24.3164 55.9176 24.541 56.0967C24.7689 56.2725 25.0684 56.3604 25.4395 56.3604C25.7812 56.3604 26.0547 56.292 26.2598 56.1553C26.4681 56.0153 26.5723 55.8298 26.5723 55.5986ZM29.8779 50.4375V51.7168H30.8643V52.415H29.8779V55.6914C29.8779 55.903 29.9219 56.0625 30.0098 56.1699C30.0977 56.2741 30.2474 56.3262 30.459 56.3262C30.5632 56.3262 30.7064 56.3066 30.8887 56.2676V57C30.651 57.0651 30.4199 57.0977 30.1953 57.0977C29.7917 57.0977 29.4873 56.9756 29.2822 56.7314C29.0771 56.4873 28.9746 56.1406 28.9746 55.6914V52.415H28.0127V51.7168H28.9746V50.4375H29.8779ZM34.165 54.3096C34.165 53.792 34.266 53.3265 34.4678 52.9131C34.6729 52.4997 34.9561 52.1807 35.3174 51.9561C35.682 51.7314 36.097 51.6191 36.5625 51.6191C37.2819 51.6191 37.863 51.8682 38.3057 52.3662C38.7516 52.8643 38.9746 53.5267 38.9746 54.3535V54.417C38.9746 54.9313 38.8753 55.3936 38.6768 55.8037C38.4814 56.2106 38.1999 56.528 37.832 56.7559C37.4674 56.9837 37.0475 57.0977 36.5723 57.0977C35.8561 57.0977 35.2751 56.8486 34.8291 56.3506C34.3864 55.8525 34.165 55.1934 34.165 54.373V54.3096ZM35.0732 54.417C35.0732 55.0029 35.2083 55.4733 35.4785 55.8281C35.752 56.1829 36.1165 56.3604 36.5723 56.3604C37.0312 56.3604 37.3958 56.1813 37.666 55.8232C37.9362 55.4619 38.0713 54.9574 38.0713 54.3096C38.0713 53.7301 37.9329 53.2614 37.6562 52.9033C37.3828 52.542 37.0182 52.3613 36.5625 52.3613C36.1165 52.3613 35.7568 52.5387 35.4834 52.8936C35.21 53.2484 35.0732 53.7562 35.0732 54.417ZM40.5518 57V52.415H39.7168V51.7168H40.5518V51.1748C40.5518 50.6084 40.7031 50.1706 41.0059 49.8613C41.3086 49.5521 41.7367 49.3975 42.29 49.3975C42.4984 49.3975 42.7051 49.4251 42.9102 49.4805L42.8613 50.2129C42.7083 50.1836 42.5456 50.1689 42.373 50.1689C42.0801 50.1689 41.8538 50.2552 41.6943 50.4277C41.5348 50.597 41.4551 50.8411 41.4551 51.1602V51.7168H42.583V52.415H41.4551V57H40.5518ZM45.8447 54.3145C45.8447 53.5039 46.0368 52.8529 46.4209 52.3613C46.805 51.8665 47.3079 51.6191 47.9297 51.6191C48.5482 51.6191 49.0381 51.8307 49.3994 52.2539V49.5H50.3027V57H49.4727L49.4287 56.4336C49.0674 56.8763 48.5645 57.0977 47.9199 57.0977C47.3079 57.0977 46.8083 56.847 46.4209 56.3457C46.0368 55.8444 45.8447 55.1901 45.8447 54.3828V54.3145ZM46.748 54.417C46.748 55.016 46.8717 55.4847 47.1191 55.8232C47.3665 56.1618 47.7083 56.3311 48.1445 56.3311C48.7174 56.3311 49.1357 56.0739 49.3994 55.5596V53.1328C49.1292 52.6348 48.7142 52.3857 48.1543 52.3857C47.7116 52.3857 47.3665 52.5566 47.1191 52.8984C46.8717 53.2402 46.748 53.7464 46.748 54.417ZM53.9014 57.0977C53.1852 57.0977 52.6025 56.8633 52.1533 56.3945C51.7041 55.9225 51.4795 55.2926 51.4795 54.5049V54.3389C51.4795 53.8148 51.5788 53.3477 51.7773 52.9375C51.9792 52.5241 52.2591 52.2018 52.6172 51.9707C52.9785 51.7363 53.3691 51.6191 53.7891 51.6191C54.4759 51.6191 55.0098 51.8454 55.3906 52.2979C55.7715 52.7503 55.9619 53.3981 55.9619 54.2412V54.6172H52.3828C52.3958 55.138 52.5472 55.5596 52.8369 55.8818C53.1299 56.2008 53.501 56.3604 53.9502 56.3604C54.2692 56.3604 54.5394 56.2952 54.7607 56.165C54.9821 56.0348 55.1758 55.8623 55.3418 55.6475L55.8936 56.0771C55.4508 56.7575 54.7868 57.0977 53.9014 57.0977ZM53.7891 52.3613C53.4245 52.3613 53.1185 52.4948 52.8711 52.7617C52.6237 53.0254 52.4707 53.3965 52.4121 53.875H55.0586V53.8066C55.0326 53.3477 54.9089 52.9928 54.6875 52.7422C54.4661 52.4883 54.1667 52.3613 53.7891 52.3613ZM58.6865 55.7744L59.9951 51.7168H60.918L59.0234 57H58.335L56.4209 51.7168H57.3438L58.6865 55.7744ZM62.7686 57H61.8652V51.7168H62.7686V57ZM61.792 50.3154C61.792 50.1689 61.8359 50.0452 61.9238 49.9443C62.015 49.8434 62.1484 49.793 62.3242 49.793C62.5 49.793 62.6335 49.8434 62.7246 49.9443C62.8158 50.0452 62.8613 50.1689 62.8613 50.3154C62.8613 50.4619 62.8158 50.584 62.7246 50.6816C62.6335 50.7793 62.5 50.8281 62.3242 50.8281C62.1484 50.8281 62.015 50.7793 61.9238 50.6816C61.8359 50.584 61.792 50.4619 61.792 50.3154ZM66.3379 56.3604C66.6602 56.3604 66.9417 56.2627 67.1826 56.0674C67.4235 55.8721 67.557 55.6279 67.583 55.335H68.4375C68.4212 55.6377 68.3171 55.9258 68.125 56.1992C67.9329 56.4727 67.6758 56.6908 67.3535 56.8535C67.0345 57.0163 66.696 57.0977 66.3379 57.0977C65.6185 57.0977 65.0456 56.8584 64.6191 56.3799C64.196 55.8981 63.9844 55.2406 63.9844 54.4072V54.2559C63.9844 53.7415 64.0788 53.2842 64.2676 52.8838C64.4564 52.4834 64.7266 52.1725 65.0781 51.9512C65.4329 51.7298 65.8512 51.6191 66.333 51.6191C66.9255 51.6191 67.417 51.7965 67.8076 52.1514C68.2015 52.5062 68.4115 52.9668 68.4375 53.5332H67.583C67.557 53.1914 67.4268 52.9115 67.1924 52.6934C66.9613 52.472 66.6748 52.3613 66.333 52.3613C65.874 52.3613 65.5176 52.5273 65.2637 52.8594C65.013 53.1882 64.8877 53.665 64.8877 54.29V54.4609C64.8877 55.0697 65.013 55.5384 65.2637 55.8672C65.5143 56.196 65.8724 56.3604 66.3379 56.3604ZM71.6455 57.0977C70.9294 57.0977 70.3467 56.8633 69.8975 56.3945C69.4482 55.9225 69.2236 55.2926 69.2236 54.5049V54.3389C69.2236 53.8148 69.3229 53.3477 69.5215 52.9375C69.7233 52.5241 70.0033 52.2018 70.3613 51.9707C70.7227 51.7363 71.1133 51.6191 71.5332 51.6191C72.2201 51.6191 72.7539 51.8454 73.1348 52.2979C73.5156 52.7503 73.7061 53.3981 73.7061 54.2412V54.6172H70.127C70.14 55.138 70.2913 55.5596 70.5811 55.8818C70.874 56.2008 71.2451 56.3604 71.6943 56.3604C72.0133 56.3604 72.2835 56.2952 72.5049 56.165C72.7262 56.0348 72.9199 55.8623 73.0859 55.6475L73.6377 56.0771C73.195 56.7575 72.5309 57.0977 71.6455 57.0977ZM71.5332 52.3613C71.1686 52.3613 70.8626 52.4948 70.6152 52.7617C70.3678 53.0254 70.2148 53.3965 70.1562 53.875H72.8027V53.8066C72.7767 53.3477 72.653 52.9928 72.4316 52.7422C72.2103 52.4883 71.9108 52.3613 71.5332 52.3613ZM77.832 55.5986C77.832 55.3545 77.7393 55.1657 77.5537 55.0322C77.3714 54.8955 77.0508 54.7783 76.5918 54.6807C76.1361 54.583 75.7731 54.4658 75.5029 54.3291C75.236 54.1924 75.0374 54.0296 74.9072 53.8408C74.7803 53.652 74.7168 53.4274 74.7168 53.167C74.7168 52.734 74.8991 52.3678 75.2637 52.0684C75.6315 51.7689 76.1003 51.6191 76.6699 51.6191C77.2689 51.6191 77.7539 51.7738 78.125 52.083C78.4993 52.3923 78.6865 52.7878 78.6865 53.2695H77.7783C77.7783 53.0221 77.6725 52.8089 77.4609 52.6299C77.2526 52.4508 76.9889 52.3613 76.6699 52.3613C76.3411 52.3613 76.084 52.4329 75.8984 52.5762C75.7129 52.7194 75.6201 52.9066 75.6201 53.1377C75.6201 53.3558 75.7064 53.5202 75.8789 53.6309C76.0514 53.7415 76.3623 53.8473 76.8115 53.9482C77.264 54.0492 77.6302 54.1696 77.9102 54.3096C78.1901 54.4495 78.3968 54.6188 78.5303 54.8174C78.667 55.0127 78.7354 55.252 78.7354 55.5352C78.7354 56.0072 78.5465 56.3864 78.1689 56.6729C77.7913 56.9561 77.3014 57.0977 76.6992 57.0977C76.276 57.0977 75.9017 57.0228 75.5762 56.873C75.2507 56.7233 74.9951 56.515 74.8096 56.248C74.6273 55.9779 74.5361 55.6865 74.5361 55.374H75.4395C75.4557 55.6768 75.5762 55.9176 75.8008 56.0967C76.0286 56.2725 76.3281 56.3604 76.6992 56.3604C77.041 56.3604 77.3145 56.292 77.5195 56.1553C77.7279 56.0153 77.832 55.8298 77.832 55.5986ZM83.6182 50.4375V51.7168H84.6045V52.415H83.6182V55.6914C83.6182 55.903 83.6621 56.0625 83.75 56.1699C83.8379 56.2741 83.9876 56.3262 84.1992 56.3262C84.3034 56.3262 84.4466 56.3066 84.6289 56.2676V57C84.3913 57.0651 84.1602 57.0977 83.9355 57.0977C83.5319 57.0977 83.2275 56.9756 83.0225 56.7314C82.8174 56.4873 82.7148 56.1406 82.7148 55.6914V52.415H81.7529V51.7168H82.7148V50.4375H83.6182ZM86.5674 52.3564C86.9678 51.8649 87.4886 51.6191 88.1299 51.6191C89.2464 51.6191 89.8096 52.249 89.8193 53.5088V57H88.916V53.5039C88.9128 53.123 88.8249 52.8415 88.6523 52.6592C88.4831 52.4769 88.2178 52.3857 87.8564 52.3857C87.5635 52.3857 87.3063 52.4639 87.085 52.6201C86.8636 52.7764 86.6911 52.9814 86.5674 53.2354V57H85.6641V49.5H86.5674V52.3564ZM94.4336 57C94.3815 56.8958 94.3392 56.7103 94.3066 56.4434C93.8867 56.8796 93.3854 57.0977 92.8027 57.0977C92.2819 57.0977 91.8538 56.9512 91.5186 56.6582C91.1865 56.362 91.0205 55.9876 91.0205 55.5352C91.0205 54.985 91.2288 54.5586 91.6455 54.2559C92.0654 53.9499 92.6546 53.7969 93.4131 53.7969H94.292V53.3818C94.292 53.0661 94.1976 52.8154 94.0088 52.6299C93.82 52.4411 93.5417 52.3467 93.1738 52.3467C92.8516 52.3467 92.5814 52.4281 92.3633 52.5908C92.1452 52.7536 92.0361 52.9505 92.0361 53.1816H91.1279C91.1279 52.918 91.2207 52.6641 91.4062 52.4199C91.5951 52.1725 91.849 51.9772 92.168 51.834C92.4902 51.6908 92.8434 51.6191 93.2275 51.6191C93.8363 51.6191 94.3132 51.7721 94.6582 52.0781C95.0033 52.3809 95.1823 52.7992 95.1953 53.333V55.7646C95.1953 56.2497 95.2572 56.6354 95.3809 56.9219V57H94.4336ZM92.9346 56.3115C93.2178 56.3115 93.4863 56.2383 93.7402 56.0918C93.9941 55.9453 94.1781 55.7549 94.292 55.5205V54.4365H93.584C92.4772 54.4365 91.9238 54.7604 91.9238 55.4082C91.9238 55.6914 92.0182 55.9128 92.207 56.0723C92.3958 56.2318 92.6383 56.3115 92.9346 56.3115ZM97.8369 50.4375V51.7168H98.8232V52.415H97.8369V55.6914C97.8369 55.903 97.8809 56.0625 97.9688 56.1699C98.0566 56.2741 98.2064 56.3262 98.418 56.3262C98.5221 56.3262 98.6654 56.3066 98.8477 56.2676V57C98.61 57.0651 98.3789 57.0977 98.1543 57.0977C97.7507 57.0977 97.4463 56.9756 97.2412 56.7314C97.0361 56.4873 96.9336 56.1406 96.9336 55.6914V52.415H95.9717V51.7168H96.9336V50.4375H97.8369ZM104.482 56.3604C104.805 56.3604 105.086 56.2627 105.327 56.0674C105.568 55.8721 105.701 55.6279 105.728 55.335H106.582C106.566 55.6377 106.462 55.9258 106.27 56.1992C106.077 56.4727 105.82 56.6908 105.498 56.8535C105.179 57.0163 104.84 57.0977 104.482 57.0977C103.763 57.0977 103.19 56.8584 102.764 56.3799C102.34 55.8981 102.129 55.2406 102.129 54.4072V54.2559C102.129 53.7415 102.223 53.2842 102.412 52.8838C102.601 52.4834 102.871 52.1725 103.223 51.9512C103.577 51.7298 103.996 51.6191 104.478 51.6191C105.07 51.6191 105.562 51.7965 105.952 52.1514C106.346 52.5062 106.556 52.9668 106.582 53.5332H105.728C105.701 53.1914 105.571 52.9115 105.337 52.6934C105.106 52.472 104.819 52.3613 104.478 52.3613C104.019 52.3613 103.662 52.5273 103.408 52.8594C103.158 53.1882 103.032 53.665 103.032 54.29V54.4609C103.032 55.0697 103.158 55.5384 103.408 55.8672C103.659 56.196 104.017 56.3604 104.482 56.3604ZM110.859 57C110.807 56.8958 110.765 56.7103 110.732 56.4434C110.312 56.8796 109.811 57.0977 109.229 57.0977C108.708 57.0977 108.28 56.9512 107.944 56.6582C107.612 56.362 107.446 55.9876 107.446 55.5352C107.446 54.985 107.655 54.5586 108.071 54.2559C108.491 53.9499 109.08 53.7969 109.839 53.7969H110.718V53.3818C110.718 53.0661 110.623 52.8154 110.435 52.6299C110.246 52.4411 109.967 52.3467 109.6 52.3467C109.277 52.3467 109.007 52.4281 108.789 52.5908C108.571 52.7536 108.462 52.9505 108.462 53.1816H107.554C107.554 52.918 107.646 52.6641 107.832 52.4199C108.021 52.1725 108.275 51.9772 108.594 51.834C108.916 51.6908 109.269 51.6191 109.653 51.6191C110.262 51.6191 110.739 51.7721 111.084 52.0781C111.429 52.3809 111.608 52.7992 111.621 53.333V55.7646C111.621 56.2497 111.683 56.6354 111.807 56.9219V57H110.859ZM109.36 56.3115C109.644 56.3115 109.912 56.2383 110.166 56.0918C110.42 55.9453 110.604 55.7549 110.718 55.5205V54.4365H110.01C108.903 54.4365 108.35 54.7604 108.35 55.4082C108.35 55.6914 108.444 55.9128 108.633 56.0723C108.822 56.2318 109.064 56.3115 109.36 56.3115ZM113.892 51.7168L113.921 52.3809C114.325 51.873 114.852 51.6191 115.503 51.6191C116.619 51.6191 117.183 52.249 117.192 53.5088V57H116.289V53.5039C116.286 53.123 116.198 52.8415 116.025 52.6592C115.856 52.4769 115.591 52.3857 115.229 52.3857C114.937 52.3857 114.679 52.4639 114.458 52.6201C114.237 52.7764 114.064 52.9814 113.94 53.2354V57H113.037V51.7168H113.892ZM123.589 52.5273C123.452 52.5046 123.304 52.4932 123.145 52.4932C122.552 52.4932 122.15 52.7454 121.938 53.25V57H121.035V51.7168H121.914L121.929 52.3271C122.225 51.8551 122.645 51.6191 123.188 51.6191C123.364 51.6191 123.498 51.6419 123.589 51.6875V52.5273ZM127.686 56.4775C127.334 56.891 126.818 57.0977 126.138 57.0977C125.575 57.0977 125.145 56.9349 124.849 56.6094C124.556 56.2806 124.408 55.7956 124.404 55.1543V51.7168H125.308V55.1299C125.308 55.9307 125.633 56.3311 126.284 56.3311C126.974 56.3311 127.433 56.0739 127.661 55.5596V51.7168H128.564V57H127.705L127.686 56.4775ZM130.796 51.7168L130.825 52.3809C131.229 51.873 131.756 51.6191 132.407 51.6191C133.524 51.6191 134.087 52.249 134.097 53.5088V57H133.193V53.5039C133.19 53.123 133.102 52.8415 132.93 52.6592C132.76 52.4769 132.495 52.3857 132.134 52.3857C131.841 52.3857 131.584 52.4639 131.362 52.6201C131.141 52.7764 130.968 52.9814 130.845 53.2354V57H129.941V51.7168H130.796ZM15.4639 66.3145C15.4639 65.5039 15.6559 64.8529 16.04 64.3613C16.4242 63.8665 16.9271 63.6191 17.5488 63.6191C18.1673 63.6191 18.6572 63.8307 19.0186 64.2539V61.5H19.9219V69H19.0918L19.0479 68.4336C18.6865 68.8763 18.1836 69.0977 17.5391 69.0977C16.9271 69.0977 16.4274 68.847 16.04 68.3457C15.6559 67.8444 15.4639 67.1901 15.4639 66.3828V66.3145ZM16.3672 66.417C16.3672 67.016 16.4909 67.4847 16.7383 67.8232C16.9857 68.1618 17.3275 68.3311 17.7637 68.3311C18.3366 68.3311 18.7549 68.0739 19.0186 67.5596V65.1328C18.7484 64.6348 18.3333 64.3857 17.7734 64.3857C17.3307 64.3857 16.9857 64.5566 16.7383 64.8984C16.4909 65.2402 16.3672 65.7464 16.3672 66.417ZM24.5898 69C24.5378 68.8958 24.4954 68.7103 24.4629 68.4434C24.043 68.8796 23.5417 69.0977 22.959 69.0977C22.4382 69.0977 22.0101 68.9512 21.6748 68.6582C21.3428 68.362 21.1768 67.9876 21.1768 67.5352C21.1768 66.985 21.3851 66.5586 21.8018 66.2559C22.2217 65.9499 22.8109 65.7969 23.5693 65.7969H24.4482V65.3818C24.4482 65.0661 24.3538 64.8154 24.165 64.6299C23.9762 64.4411 23.6979 64.3467 23.3301 64.3467C23.0078 64.3467 22.7376 64.4281 22.5195 64.5908C22.3014 64.7536 22.1924 64.9505 22.1924 65.1816H21.2842C21.2842 64.918 21.377 64.6641 21.5625 64.4199C21.7513 64.1725 22.0052 63.9772 22.3242 63.834C22.6465 63.6908 22.9997 63.6191 23.3838 63.6191C23.9925 63.6191 24.4694 63.7721 24.8145 64.0781C25.1595 64.3809 25.3385 64.7992 25.3516 65.333V67.7646C25.3516 68.2497 25.4134 68.6354 25.5371 68.9219V69H24.5898ZM23.0908 68.3115C23.374 68.3115 23.6426 68.2383 23.8965 68.0918C24.1504 67.9453 24.3343 67.7549 24.4482 67.5205V66.4365H23.7402C22.6335 66.4365 22.0801 66.7604 22.0801 67.4082C22.0801 67.6914 22.1745 67.9128 22.3633 68.0723C22.5521 68.2318 22.7946 68.3115 23.0908 68.3115ZM27.6709 64.3564C28.0713 63.8649 28.5921 63.6191 29.2334 63.6191C30.3499 63.6191 30.9131 64.249 30.9229 65.5088V69H30.0195V65.5039C30.0163 65.123 29.9284 64.8415 29.7559 64.6592C29.5866 64.4769 29.3213 64.3857 28.96 64.3857C28.667 64.3857 28.4098 64.4639 28.1885 64.6201C27.9671 64.7764 27.7946 64.9814 27.6709 65.2354V69H26.7676V61.5H27.6709V64.3564ZM33.2568 69H32.3535V61.5H33.2568V69ZM35.6885 69H34.7852V63.7168H35.6885V69ZM34.7119 62.3154C34.7119 62.1689 34.7559 62.0452 34.8438 61.9443C34.9349 61.8434 35.0684 61.793 35.2441 61.793C35.4199 61.793 35.5534 61.8434 35.6445 61.9443C35.7357 62.0452 35.7812 62.1689 35.7812 62.3154C35.7812 62.4619 35.7357 62.584 35.6445 62.6816C35.5534 62.7793 35.4199 62.8281 35.2441 62.8281C35.0684 62.8281 34.9349 62.7793 34.8438 62.6816C34.7559 62.584 34.7119 62.4619 34.7119 62.3154ZM40.4004 69C40.3483 68.8958 40.306 68.7103 40.2734 68.4434C39.8535 68.8796 39.3522 69.0977 38.7695 69.0977C38.2487 69.0977 37.8206 68.9512 37.4854 68.6582C37.1533 68.362 36.9873 67.9876 36.9873 67.5352C36.9873 66.985 37.1956 66.5586 37.6123 66.2559C38.0322 65.9499 38.6214 65.7969 39.3799 65.7969H40.2588V65.3818C40.2588 65.0661 40.1644 64.8154 39.9756 64.6299C39.7868 64.4411 39.5085 64.3467 39.1406 64.3467C38.8184 64.3467 38.5482 64.4281 38.3301 64.5908C38.112 64.7536 38.0029 64.9505 38.0029 65.1816H37.0947C37.0947 64.918 37.1875 64.6641 37.373 64.4199C37.5618 64.1725 37.8158 63.9772 38.1348 63.834C38.457 63.6908 38.8102 63.6191 39.1943 63.6191C39.8031 63.6191 40.2799 63.7721 40.625 64.0781C40.9701 64.3809 41.1491 64.7992 41.1621 65.333V67.7646C41.1621 68.2497 41.224 68.6354 41.3477 68.9219V69H40.4004ZM38.9014 68.3115C39.1846 68.3115 39.4531 68.2383 39.707 68.0918C39.9609 67.9453 40.1449 67.7549 40.2588 67.5205V66.4365H39.5508C38.444 66.4365 37.8906 66.7604 37.8906 67.4082C37.8906 67.6914 37.985 67.9128 38.1738 68.0723C38.3626 68.2318 38.6051 68.3115 38.9014 68.3115ZM44.8193 66.3096C44.8193 65.792 44.9202 65.3265 45.1221 64.9131C45.3271 64.4997 45.6104 64.1807 45.9717 63.9561C46.3363 63.7314 46.7513 63.6191 47.2168 63.6191C47.9362 63.6191 48.5173 63.8682 48.96 64.3662C49.4059 64.8643 49.6289 65.5267 49.6289 66.3535V66.417C49.6289 66.9313 49.5296 67.3936 49.3311 67.8037C49.1357 68.2106 48.8542 68.528 48.4863 68.7559C48.1217 68.9837 47.7018 69.0977 47.2266 69.0977C46.5104 69.0977 45.9294 68.8486 45.4834 68.3506C45.0407 67.8525 44.8193 67.1934 44.8193 66.373V66.3096ZM45.7275 66.417C45.7275 67.0029 45.8626 67.4733 46.1328 67.8281C46.4062 68.1829 46.7708 68.3604 47.2266 68.3604C47.6855 68.3604 48.0501 68.1813 48.3203 67.8232C48.5905 67.4619 48.7256 66.9574 48.7256 66.3096C48.7256 65.7301 48.5872 65.2614 48.3105 64.9033C48.0371 64.542 47.6725 64.3613 47.2168 64.3613C46.7708 64.3613 46.4111 64.5387 46.1377 64.8936C45.8643 65.2484 45.7275 65.7562 45.7275 66.417ZM53.8379 67.5986C53.8379 67.3545 53.7451 67.1657 53.5596 67.0322C53.3773 66.8955 53.0566 66.7783 52.5977 66.6807C52.1419 66.583 51.779 66.4658 51.5088 66.3291C51.2419 66.1924 51.0433 66.0296 50.9131 65.8408C50.7861 65.652 50.7227 65.4274 50.7227 65.167C50.7227 64.734 50.9049 64.3678 51.2695 64.0684C51.6374 63.7689 52.1061 63.6191 52.6758 63.6191C53.2747 63.6191 53.7598 63.7738 54.1309 64.083C54.5052 64.3923 54.6924 64.7878 54.6924 65.2695H53.7842C53.7842 65.0221 53.6784 64.8089 53.4668 64.6299C53.2585 64.4508 52.9948 64.3613 52.6758 64.3613C52.347 64.3613 52.0898 64.4329 51.9043 64.5762C51.7188 64.7194 51.626 64.9066 51.626 65.1377C51.626 65.3558 51.7122 65.5202 51.8848 65.6309C52.0573 65.7415 52.3682 65.8473 52.8174 65.9482C53.2699 66.0492 53.6361 66.1696 53.916 66.3096C54.196 66.4495 54.4027 66.6188 54.5361 66.8174C54.6729 67.0127 54.7412 67.252 54.7412 67.5352C54.7412 68.0072 54.5524 68.3864 54.1748 68.6729C53.7972 68.9561 53.3073 69.0977 52.7051 69.0977C52.2819 69.0977 51.9076 69.0228 51.582 68.873C51.2565 68.7233 51.001 68.515 50.8154 68.248C50.6331 67.9779 50.542 67.6865 50.542 67.374H51.4453C51.4616 67.6768 51.582 67.9176 51.8066 68.0967C52.0345 68.2725 52.334 68.3604 52.7051 68.3604C53.0469 68.3604 53.3203 68.292 53.5254 68.1553C53.7337 68.0153 53.8379 67.8298 53.8379 67.5986ZM55.9375 68.5264C55.9375 68.3701 55.9831 68.2399 56.0742 68.1357C56.1686 68.0316 56.3086 67.9795 56.4941 67.9795C56.6797 67.9795 56.8197 68.0316 56.9141 68.1357C57.0117 68.2399 57.0605 68.3701 57.0605 68.5264C57.0605 68.6761 57.0117 68.8014 56.9141 68.9023C56.8197 69.0033 56.6797 69.0537 56.4941 69.0537C56.3086 69.0537 56.1686 69.0033 56.0742 68.9023C55.9831 68.8014 55.9375 68.6761 55.9375 68.5264Z" fill="#D83B01"/>
</svg>
