<svg width="160" height="73" viewBox="0 0 160 73" fill="none" xmlns="http://www.w3.org/2000/svg">
<g filter="url(#filter0_d)">
<rect width="160" height="69.2994" rx="5" fill="#C00000"/>
<path d="M15.3984 38.4844C15.3984 38.7578 15.3392 38.9948 15.2207 39.1953C15.1022 39.3913 14.9495 39.5531 14.7627 39.6807C14.5758 39.8128 14.3617 39.9108 14.1201 39.9746C13.8831 40.0339 13.6416 40.0635 13.3955 40.0635C13.0856 40.0635 12.7985 40.0225 12.5342 39.9404C12.2744 39.8538 12.0443 39.7262 11.8438 39.5576C11.6432 39.3936 11.4792 39.193 11.3516 38.9561C11.224 38.7145 11.1396 38.4388 11.0986 38.1289H9.80664C9.82031 38.5573 9.91374 38.9469 10.0869 39.2979C10.2646 39.6442 10.5039 39.9473 10.8047 40.207C11.1419 40.5078 11.5384 40.738 11.9941 40.8975C12.4544 41.057 12.9215 41.1367 13.3955 41.1367C13.792 41.1367 14.1885 41.082 14.585 40.9727C14.9814 40.8587 15.3369 40.6901 15.6514 40.4668C15.9658 40.248 16.221 39.9723 16.417 39.6396C16.6175 39.307 16.7178 38.9173 16.7178 38.4707C16.7178 38.0286 16.6243 37.639 16.4375 37.3018C16.2552 36.9645 16.0137 36.6797 15.7129 36.4473C15.4076 36.1966 15.0703 35.9915 14.7012 35.832C14.332 35.668 13.9629 35.529 13.5938 35.415C13.3704 35.3467 13.1312 35.2669 12.876 35.1758C12.6253 35.0846 12.3929 34.9707 12.1787 34.834C11.96 34.6973 11.7799 34.5309 11.6387 34.335C11.4974 34.1344 11.4245 33.8906 11.4199 33.6035C11.4199 33.3392 11.4723 33.1068 11.5771 32.9062C11.6865 32.7057 11.8324 32.5371 12.0146 32.4004C12.1924 32.2637 12.3952 32.1611 12.623 32.0928C12.8555 32.0244 13.0924 31.9902 13.334 31.9902C13.6348 31.9902 13.9036 32.0381 14.1406 32.1338C14.3822 32.2249 14.5895 32.3548 14.7627 32.5234C14.9359 32.6921 15.0749 32.8949 15.1797 33.1318C15.2845 33.3643 15.3551 33.624 15.3916 33.9111H16.6904C16.6813 33.4554 16.5833 33.043 16.3965 32.6738C16.2096 32.3047 15.9613 31.9902 15.6514 31.7305C15.3415 31.4707 14.986 31.2702 14.585 31.1289C14.1839 30.9831 13.7669 30.9102 13.334 30.9102C12.9421 30.9102 12.5524 30.9717 12.165 31.0947C11.7777 31.2132 11.4313 31.3887 11.126 31.6211C10.8206 31.8535 10.5723 32.1383 10.3809 32.4756C10.194 32.8128 10.1006 33.1956 10.1006 33.624C10.1006 34.0524 10.194 34.4261 10.3809 34.7451C10.5723 35.0596 10.8184 35.333 11.1191 35.5654C11.4154 35.7933 11.7435 35.9893 12.1035 36.1533C12.4681 36.3128 12.8258 36.4495 13.1768 36.5635C13.4183 36.641 13.6689 36.7275 13.9287 36.8232C14.193 36.9189 14.4346 37.0374 14.6533 37.1787C14.8721 37.3245 15.0498 37.5023 15.1865 37.7119C15.3278 37.9215 15.3984 38.179 15.3984 38.4844ZM23.4717 41H24.6201V33.6035H23.3486V38.9082C23.2803 39.0677 23.1937 39.2158 23.0889 39.3525C22.9886 39.4847 22.8701 39.5986 22.7334 39.6943C22.5693 39.8128 22.3757 39.9062 22.1523 39.9746C21.929 40.0384 21.6761 40.0703 21.3936 40.0703C21.152 40.0703 20.9378 40.0384 20.751 39.9746C20.5687 39.9108 20.4137 39.7992 20.2861 39.6396C20.1585 39.4847 20.0628 39.2751 19.999 39.0107C19.9352 38.7464 19.9033 38.4137 19.9033 38.0127V33.6035H18.6387V37.999C18.6387 38.5505 18.6979 39.0244 18.8164 39.4209C18.9395 39.8128 19.1126 40.1364 19.3359 40.3916C19.5592 40.6468 19.8281 40.8359 20.1426 40.959C20.457 41.0775 20.8079 41.1367 21.1953 41.1367C21.6784 41.1367 22.1045 41.0365 22.4736 40.8359C22.8428 40.6309 23.1504 40.346 23.3965 39.9814L23.4717 41ZM26.999 43.8438H28.2637V40.2891C28.3548 40.3893 28.4528 40.4827 28.5576 40.5693C28.6624 40.6514 28.7741 40.7266 28.8926 40.7949C29.0885 40.9043 29.3073 40.9886 29.5488 41.0479C29.7949 41.1071 30.0592 41.1367 30.3418 41.1367C30.8066 41.1367 31.2191 41.041 31.5791 40.8496C31.9437 40.6582 32.249 40.3939 32.4951 40.0566C32.7412 39.7194 32.9281 39.3229 33.0557 38.8672C33.1833 38.4069 33.2471 37.9124 33.2471 37.3838V37.2402C33.2471 36.6888 33.1833 36.1829 33.0557 35.7227C32.9281 35.2578 32.7412 34.859 32.4951 34.5264C32.249 34.1937 31.9437 33.9339 31.5791 33.7471C31.2145 33.5602 30.7952 33.4668 30.3213 33.4668C30.0524 33.4668 29.7995 33.4964 29.5625 33.5557C29.3301 33.6104 29.1182 33.6924 28.9268 33.8018C28.79 33.8747 28.6624 33.9635 28.5439 34.0684C28.4255 34.1686 28.3161 34.2826 28.2158 34.4102L28.1543 33.6035H26.999V43.8438ZM31.9824 37.2402V37.3838C31.9824 37.7438 31.9414 38.0879 31.8594 38.416C31.7819 38.7441 31.6611 39.0335 31.4971 39.2842C31.333 39.5348 31.1234 39.7354 30.8682 39.8857C30.613 40.0316 30.3099 40.1045 29.959 40.1045C29.7402 40.1045 29.5397 40.0771 29.3574 40.0225C29.1797 39.9678 29.0179 39.8926 28.8721 39.7969C28.7445 39.7148 28.6305 39.6146 28.5303 39.4961C28.43 39.3776 28.3411 39.25 28.2637 39.1133V35.5518C28.3503 35.3968 28.4505 35.2555 28.5645 35.1279C28.6784 35.0003 28.8083 34.8932 28.9541 34.8066C29.0863 34.7201 29.2344 34.654 29.3984 34.6084C29.5671 34.5628 29.7493 34.54 29.9453 34.54C30.3008 34.54 30.6061 34.613 30.8613 34.7588C31.1165 34.9046 31.3285 35.1006 31.4971 35.3467C31.6611 35.5973 31.7819 35.8867 31.8594 36.2148C31.9414 36.5384 31.9824 36.8802 31.9824 37.2402ZM35.4072 43.8438H36.6719V40.2891C36.763 40.3893 36.861 40.4827 36.9658 40.5693C37.0706 40.6514 37.1823 40.7266 37.3008 40.7949C37.4967 40.9043 37.7155 40.9886 37.957 41.0479C38.2031 41.1071 38.4674 41.1367 38.75 41.1367C39.2148 41.1367 39.6273 41.041 39.9873 40.8496C40.3519 40.6582 40.6572 40.3939 40.9033 40.0566C41.1494 39.7194 41.3363 39.3229 41.4639 38.8672C41.5915 38.4069 41.6553 37.9124 41.6553 37.3838V37.2402C41.6553 36.6888 41.5915 36.1829 41.4639 35.7227C41.3363 35.2578 41.1494 34.859 40.9033 34.5264C40.6572 34.1937 40.3519 33.9339 39.9873 33.7471C39.6227 33.5602 39.2035 33.4668 38.7295 33.4668C38.4606 33.4668 38.2077 33.4964 37.9707 33.5557C37.7383 33.6104 37.5264 33.6924 37.335 33.8018C37.1982 33.8747 37.0706 33.9635 36.9521 34.0684C36.8337 34.1686 36.7243 34.2826 36.624 34.4102L36.5625 33.6035H35.4072V43.8438ZM40.3906 37.2402V37.3838C40.3906 37.7438 40.3496 38.0879 40.2676 38.416C40.1901 38.7441 40.0693 39.0335 39.9053 39.2842C39.7412 39.5348 39.5316 39.7354 39.2764 39.8857C39.0212 40.0316 38.7181 40.1045 38.3672 40.1045C38.1484 40.1045 37.9479 40.0771 37.7656 40.0225C37.5879 39.9678 37.4261 39.8926 37.2803 39.7969C37.1527 39.7148 37.0387 39.6146 36.9385 39.4961C36.8382 39.3776 36.7493 39.25 36.6719 39.1133V35.5518C36.7585 35.3968 36.8587 35.2555 36.9727 35.1279C37.0866 35.0003 37.2165 34.8932 37.3623 34.8066C37.4945 34.7201 37.6426 34.654 37.8066 34.6084C37.9753 34.5628 38.1576 34.54 38.3535 34.54C38.709 34.54 39.0143 34.613 39.2695 34.7588C39.5247 34.9046 39.7367 35.1006 39.9053 35.3467C40.0693 35.5973 40.1901 35.8867 40.2676 36.2148C40.3496 36.5384 40.3906 36.8802 40.3906 37.2402ZM43.4668 37.2334V37.3838C43.4668 37.917 43.5443 38.4115 43.6992 38.8672C43.8542 39.3229 44.0775 39.7194 44.3691 40.0566C44.6562 40.3939 45.0072 40.6582 45.4219 40.8496C45.8411 41.041 46.3128 41.1367 46.8369 41.1367C47.3564 41.1367 47.8236 41.041 48.2383 40.8496C48.653 40.6582 49.0062 40.3939 49.2979 40.0566C49.585 39.7194 49.806 39.3229 49.9609 38.8672C50.1159 38.4115 50.1934 37.917 50.1934 37.3838V37.2334C50.1934 36.7002 50.1159 36.2057 49.9609 35.75C49.806 35.2897 49.585 34.891 49.2979 34.5537C49.0062 34.2165 48.6507 33.9521 48.2314 33.7607C47.8167 33.5648 47.3473 33.4668 46.8232 33.4668C46.3037 33.4668 45.8366 33.5648 45.4219 33.7607C45.0072 33.9521 44.6562 34.2165 44.3691 34.5537C44.0775 34.891 43.8542 35.2897 43.6992 35.75C43.5443 36.2057 43.4668 36.7002 43.4668 37.2334ZM44.7314 37.3838V37.2334C44.7314 36.8734 44.7747 36.5293 44.8613 36.2012C44.9479 35.8685 45.0801 35.5768 45.2578 35.3262C45.431 35.0755 45.6475 34.8773 45.9072 34.7314C46.167 34.5811 46.4723 34.5059 46.8232 34.5059C47.1742 34.5059 47.4795 34.5811 47.7393 34.7314C48.0036 34.8773 48.2246 35.0755 48.4023 35.3262C48.5755 35.5768 48.7054 35.8685 48.792 36.2012C48.8831 36.5293 48.9287 36.8734 48.9287 37.2334V37.3838C48.9287 37.7484 48.8854 38.097 48.7988 38.4297C48.7122 38.7578 48.5824 39.0472 48.4092 39.2979C48.2314 39.5485 48.0104 39.7467 47.7461 39.8926C47.4863 40.0384 47.1833 40.1113 46.8369 40.1113C46.486 40.1113 46.1784 40.0384 45.9141 39.8926C45.6497 39.7467 45.431 39.5485 45.2578 39.2979C45.0801 39.0472 44.9479 38.7578 44.8613 38.4297C44.7747 38.097 44.7314 37.7484 44.7314 37.3838ZM57.0771 33.4668C56.5394 33.4668 56.0586 33.5853 55.6348 33.8223C55.2155 34.0547 54.8555 34.3737 54.5547 34.7793L54.5479 34.5947L54.4932 33.6035H53.29V41H54.5615V36.2559C54.6436 36.028 54.7461 35.8229 54.8691 35.6406C54.9967 35.4538 55.1449 35.2965 55.3135 35.1689C55.5003 35.0231 55.7191 34.9137 55.9697 34.8408C56.2204 34.7633 56.5007 34.7246 56.8105 34.7246C57.0521 34.7246 57.2822 34.7383 57.501 34.7656C57.7243 34.7884 57.959 34.8271 58.2051 34.8818L58.376 33.6445C58.2484 33.5898 58.057 33.5465 57.8018 33.5146C57.5511 33.4827 57.3096 33.4668 57.0771 33.4668ZM63.6328 31.8125H62.3613V33.6035H60.4199V34.5811H62.3613V38.6006C62.3613 39.0563 62.4206 39.446 62.5391 39.7695C62.6621 40.0885 62.8285 40.3483 63.0381 40.5488C63.2477 40.7539 63.4938 40.9043 63.7764 41C64.0635 41.0911 64.3711 41.1367 64.6992 41.1367C64.8952 41.1367 65.0911 41.1276 65.2871 41.1094C65.4876 41.0911 65.6768 41.0638 65.8545 41.0273C66.0322 40.9954 66.1963 40.9567 66.3467 40.9111C66.4971 40.861 66.6247 40.804 66.7295 40.7402L66.5518 39.8447C66.4743 39.863 66.374 39.8857 66.251 39.9131C66.1325 39.9359 66.0049 39.9587 65.8682 39.9814C65.7269 40.0042 65.5833 40.0247 65.4375 40.043C65.2917 40.0566 65.1504 40.0635 65.0137 40.0635C64.8268 40.0635 64.6491 40.0407 64.4805 39.9951C64.3164 39.9495 64.1706 39.8698 64.043 39.7559C63.9154 39.6465 63.8151 39.4984 63.7422 39.3115C63.6693 39.1247 63.6328 38.8877 63.6328 38.6006V34.5811H66.4492V33.6035H63.6328V31.8125ZM72.3145 41.1367C73.0345 41.1367 73.6383 40.9932 74.126 40.7061C74.6182 40.4144 74.9873 40.0817 75.2334 39.708L74.4609 39.1064C74.2285 39.4072 73.9368 39.6488 73.5859 39.8311C73.235 40.0133 72.834 40.1045 72.3828 40.1045C72.041 40.1045 71.7288 40.0407 71.4463 39.9131C71.1637 39.7855 70.9222 39.61 70.7217 39.3867C70.5257 39.1771 70.3708 38.9355 70.2568 38.6621C70.1475 38.3887 70.0768 38.0719 70.0449 37.7119V37.6641H75.3291V37.0967C75.3291 36.5817 75.263 36.1032 75.1309 35.6611C75.0033 35.2191 74.8073 34.834 74.543 34.5059C74.2786 34.1823 73.946 33.9294 73.5449 33.7471C73.1484 33.5602 72.6836 33.4668 72.1504 33.4668C71.7266 33.4668 71.3118 33.5534 70.9062 33.7266C70.5052 33.8997 70.1475 34.1481 69.833 34.4717C69.514 34.7998 69.2588 35.2008 69.0674 35.6748C68.876 36.1442 68.7803 36.6774 68.7803 37.2744V37.5615C68.7803 38.0765 68.8669 38.5527 69.04 38.9902C69.2132 39.4277 69.4548 39.806 69.7646 40.125C70.0745 40.444 70.446 40.6924 70.8789 40.8701C71.3164 41.0479 71.7949 41.1367 72.3145 41.1367ZM72.1504 34.5059C72.474 34.5059 72.752 34.5651 72.9844 34.6836C73.2214 34.8021 73.4173 34.957 73.5723 35.1484C73.7272 35.3398 73.848 35.5677 73.9346 35.832C74.0212 36.0918 74.0645 36.3356 74.0645 36.5635V36.625H70.0859C70.1361 36.2832 70.2227 35.9824 70.3457 35.7227C70.4733 35.4583 70.6283 35.235 70.8105 35.0527C70.9928 34.875 71.1979 34.7406 71.4258 34.6494C71.6536 34.5537 71.8952 34.5059 72.1504 34.5059ZM77.2158 37.2402V37.3838C77.2158 37.9124 77.2865 38.4069 77.4277 38.8672C77.569 39.3229 77.7673 39.7194 78.0225 40.0566C78.2777 40.3939 78.5853 40.6582 78.9453 40.8496C79.3099 41.041 79.7155 41.1367 80.1621 41.1367C80.6178 41.1367 81.0166 41.0592 81.3584 40.9043C81.7002 40.7493 81.9941 40.5215 82.2402 40.2207L82.2949 41H83.457V30.5H82.1924V34.335C81.9508 34.0524 81.6637 33.8382 81.3311 33.6924C81.0029 33.542 80.6178 33.4668 80.1758 33.4668C79.7246 33.4668 79.3167 33.5602 78.9521 33.7471C78.5876 33.9339 78.2777 34.1937 78.0225 34.5264C77.7627 34.859 77.5622 35.2578 77.4209 35.7227C77.2842 36.1829 77.2158 36.6888 77.2158 37.2402ZM78.4805 37.3838V37.2402C78.4805 36.8802 78.5192 36.5384 78.5967 36.2148C78.6742 35.8867 78.7949 35.5973 78.959 35.3467C79.1185 35.1006 79.3236 34.9046 79.5742 34.7588C79.8294 34.613 80.1348 34.54 80.4902 34.54C80.9049 34.54 81.2513 34.638 81.5293 34.834C81.8073 35.0254 82.0283 35.2715 82.1924 35.5723V39.0039C82.0283 39.3275 81.8073 39.585 81.5293 39.7764C81.2513 39.9678 80.9004 40.0635 80.4766 40.0635C80.1257 40.0635 79.8249 39.9928 79.5742 39.8516C79.3236 39.7057 79.1185 39.5098 78.959 39.2637C78.7949 39.0176 78.6742 38.7327 78.5967 38.4092C78.5192 38.0856 78.4805 37.7438 78.4805 37.3838ZM94.1416 41H96.4453C96.9238 40.9954 97.3682 40.9385 97.7783 40.8291C98.193 40.7197 98.5645 40.5625 98.8926 40.3574C99.2025 40.1615 99.4827 39.9245 99.7334 39.6465C99.984 39.3685 100.191 39.0586 100.355 38.7168C100.515 38.3887 100.636 38.0286 100.718 37.6367C100.804 37.2448 100.848 36.8301 100.848 36.3926V35.6611C100.843 35.2054 100.795 34.777 100.704 34.376C100.618 33.9749 100.49 33.6058 100.321 33.2686C100.134 32.8721 99.8838 32.5234 99.5693 32.2227C99.2594 31.9173 98.9017 31.6712 98.4961 31.4844C98.2044 31.3477 97.8854 31.2428 97.5391 31.1699C97.1973 31.0924 96.8327 31.0514 96.4453 31.0469H94.1416V41ZM95.4268 32.0859H96.4453C96.7598 32.0905 97.0492 32.127 97.3135 32.1953C97.5778 32.2591 97.8171 32.3503 98.0312 32.4688C98.332 32.6283 98.585 32.8379 98.79 33.0977C98.9997 33.3529 99.166 33.64 99.2891 33.959C99.3848 34.2051 99.4554 34.4717 99.501 34.7588C99.5511 35.0413 99.5785 35.3376 99.583 35.6475V36.3926C99.5785 36.6979 99.5534 36.9919 99.5078 37.2744C99.4622 37.5524 99.3939 37.8122 99.3027 38.0537C99.1979 38.3499 99.0544 38.6188 98.8721 38.8604C98.6943 39.0973 98.4824 39.2979 98.2363 39.4619C98.0039 39.6214 97.7373 39.7445 97.4365 39.8311C97.1403 39.9176 96.8099 39.9632 96.4453 39.9678H95.4268V32.0859ZM105.947 41.1367C106.667 41.1367 107.271 40.9932 107.759 40.7061C108.251 40.4144 108.62 40.0817 108.866 39.708L108.094 39.1064C107.861 39.4072 107.57 39.6488 107.219 39.8311C106.868 40.0133 106.467 40.1045 106.016 40.1045C105.674 40.1045 105.362 40.0407 105.079 39.9131C104.797 39.7855 104.555 39.61 104.354 39.3867C104.159 39.1771 104.004 38.9355 103.89 38.6621C103.78 38.3887 103.71 38.0719 103.678 37.7119V37.6641H108.962V37.0967C108.962 36.5817 108.896 36.1032 108.764 35.6611C108.636 35.2191 108.44 34.834 108.176 34.5059C107.911 34.1823 107.579 33.9294 107.178 33.7471C106.781 33.5602 106.316 33.4668 105.783 33.4668C105.359 33.4668 104.945 33.5534 104.539 33.7266C104.138 33.8997 103.78 34.1481 103.466 34.4717C103.147 34.7998 102.892 35.2008 102.7 35.6748C102.509 36.1442 102.413 36.6774 102.413 37.2744V37.5615C102.413 38.0765 102.5 38.5527 102.673 38.9902C102.846 39.4277 103.088 39.806 103.397 40.125C103.707 40.444 104.079 40.6924 104.512 40.8701C104.949 41.0479 105.428 41.1367 105.947 41.1367ZM105.783 34.5059C106.107 34.5059 106.385 34.5651 106.617 34.6836C106.854 34.8021 107.05 34.957 107.205 35.1484C107.36 35.3398 107.481 35.5677 107.567 35.832C107.654 36.0918 107.697 36.3356 107.697 36.5635V36.625H103.719C103.769 36.2832 103.855 35.9824 103.979 35.7227C104.106 35.4583 104.261 35.235 104.443 35.0527C104.626 34.875 104.831 34.7406 105.059 34.6494C105.286 34.5537 105.528 34.5059 105.783 34.5059ZM113.61 41H114.574L117.589 33.6035H116.297L114.226 39.1816L114.103 39.6396L113.986 39.1816L111.867 33.6035H110.568L113.61 41ZM119.694 33.6035V34.7041H122.21V39.9062H119.694V41H125.888V39.9062H123.475V33.6035H119.694ZM122.046 31.6621C122.046 31.8672 122.107 32.0381 122.23 32.1748C122.358 32.3115 122.549 32.3799 122.805 32.3799C123.055 32.3799 123.244 32.3115 123.372 32.1748C123.5 32.0381 123.563 31.8672 123.563 31.6621C123.563 31.5482 123.545 31.4434 123.509 31.3477C123.472 31.252 123.418 31.1722 123.345 31.1084C123.285 31.0492 123.21 31.0036 123.119 30.9717C123.028 30.9352 122.923 30.917 122.805 30.917C122.686 30.917 122.579 30.9352 122.483 30.9717C122.392 31.0036 122.317 31.0492 122.258 31.1084C122.185 31.1768 122.13 31.2588 122.094 31.3545C122.062 31.4502 122.046 31.5527 122.046 31.6621ZM131.056 40.1113C130.659 40.1113 130.326 40.0339 130.058 39.8789C129.793 39.7194 129.581 39.512 129.422 39.2568C129.258 39.0062 129.139 38.7236 129.066 38.4092C128.998 38.0902 128.964 37.7689 128.964 37.4453V37.1582C128.964 36.8392 128.998 36.5225 129.066 36.208C129.139 35.8936 129.258 35.6087 129.422 35.3535C129.586 35.1029 129.8 34.9001 130.064 34.7451C130.333 34.5856 130.664 34.5059 131.056 34.5059C131.311 34.5059 131.548 34.5492 131.767 34.6357C131.99 34.7223 132.181 34.8408 132.341 34.9912C132.5 35.1416 132.626 35.3171 132.717 35.5176C132.812 35.7135 132.863 35.9232 132.867 36.1465H134.063C134.063 35.7728 133.988 35.4219 133.838 35.0938C133.688 34.7656 133.48 34.4808 133.216 34.2393C132.947 34.0023 132.628 33.8154 132.259 33.6787C131.894 33.5374 131.493 33.4668 131.056 33.4668C130.495 33.4668 130.005 33.5671 129.586 33.7676C129.167 33.9681 128.818 34.237 128.54 34.5742C128.257 34.916 128.046 35.3102 127.904 35.7568C127.763 36.2035 127.692 36.6706 127.692 37.1582V37.4453C127.692 37.9375 127.763 38.4069 127.904 38.8535C128.046 39.2956 128.257 39.6852 128.54 40.0225C128.818 40.3643 129.167 40.6354 129.586 40.8359C130.005 41.0365 130.495 41.1367 131.056 41.1367C131.448 41.1367 131.824 41.0706 132.184 40.9385C132.544 40.8018 132.863 40.6195 133.141 40.3916C133.419 40.1683 133.64 39.9085 133.804 39.6123C133.972 39.3115 134.059 38.9971 134.063 38.6689H132.867C132.863 38.874 132.808 39.0654 132.703 39.2432C132.603 39.4163 132.468 39.5667 132.3 39.6943C132.131 39.8265 131.938 39.929 131.719 40.002C131.505 40.0749 131.284 40.1113 131.056 40.1113ZM139.58 41.1367C140.3 41.1367 140.904 40.9932 141.392 40.7061C141.884 40.4144 142.253 40.0817 142.499 39.708L141.727 39.1064C141.494 39.4072 141.202 39.6488 140.852 39.8311C140.501 40.0133 140.1 40.1045 139.648 40.1045C139.307 40.1045 138.994 40.0407 138.712 39.9131C138.429 39.7855 138.188 39.61 137.987 39.3867C137.791 39.1771 137.636 38.9355 137.522 38.6621C137.413 38.3887 137.342 38.0719 137.311 37.7119V37.6641H142.595V37.0967C142.595 36.5817 142.529 36.1032 142.396 35.6611C142.269 35.2191 142.073 34.834 141.809 34.5059C141.544 34.1823 141.212 33.9294 140.811 33.7471C140.414 33.5602 139.949 33.4668 139.416 33.4668C138.992 33.4668 138.577 33.5534 138.172 33.7266C137.771 33.8997 137.413 34.1481 137.099 34.4717C136.78 34.7998 136.524 35.2008 136.333 35.6748C136.142 36.1442 136.046 36.6774 136.046 37.2744V37.5615C136.046 38.0765 136.132 38.5527 136.306 38.9902C136.479 39.4277 136.72 39.806 137.03 40.125C137.34 40.444 137.712 40.6924 138.145 40.8701C138.582 41.0479 139.061 41.1367 139.58 41.1367ZM139.416 34.5059C139.74 34.5059 140.018 34.5651 140.25 34.6836C140.487 34.8021 140.683 34.957 140.838 35.1484C140.993 35.3398 141.114 35.5677 141.2 35.832C141.287 36.0918 141.33 36.3356 141.33 36.5635V36.625H137.352C137.402 36.2832 137.488 35.9824 137.611 35.7227C137.739 35.4583 137.894 35.235 138.076 35.0527C138.258 34.875 138.464 34.7406 138.691 34.6494C138.919 34.5537 139.161 34.5059 139.416 34.5059ZM149.636 39.0381C149.636 39.1566 149.613 39.2682 149.567 39.373C149.522 39.4779 149.456 39.5736 149.369 39.6602C149.228 39.8014 149.032 39.9131 148.781 39.9951C148.531 40.0726 148.237 40.1113 147.899 40.1113C147.685 40.1113 147.469 40.0885 147.25 40.043C147.031 39.9974 146.833 39.9199 146.655 39.8105C146.473 39.7012 146.32 39.5576 146.197 39.3799C146.079 39.2021 146.01 38.9834 145.992 38.7236H144.728C144.728 39.0381 144.798 39.3411 144.939 39.6328C145.085 39.9245 145.295 40.1797 145.568 40.3984C145.837 40.6217 146.168 40.8018 146.56 40.9385C146.951 41.0706 147.398 41.1367 147.899 41.1367C148.337 41.1367 148.74 41.0843 149.109 40.9795C149.479 40.8747 149.795 40.7266 150.06 40.5352C150.324 40.3438 150.529 40.1136 150.675 39.8447C150.825 39.5758 150.9 39.2773 150.9 38.9492C150.9 38.6439 150.834 38.375 150.702 38.1426C150.575 37.9102 150.388 37.7051 150.142 37.5273C149.896 37.3542 149.592 37.2061 149.232 37.083C148.872 36.9554 148.465 36.8438 148.009 36.748C147.662 36.6797 147.375 36.609 147.147 36.5361C146.924 36.4632 146.746 36.3812 146.614 36.29C146.478 36.1989 146.382 36.0964 146.327 35.9824C146.272 35.8685 146.245 35.7386 146.245 35.5928C146.245 35.4515 146.279 35.3148 146.348 35.1826C146.416 35.0505 146.519 34.9342 146.655 34.834C146.787 34.7337 146.954 34.654 147.154 34.5947C147.359 34.5355 147.596 34.5059 147.865 34.5059C148.125 34.5059 148.357 34.5423 148.562 34.6152C148.772 34.6882 148.95 34.7839 149.096 34.9023C149.242 35.0208 149.355 35.1576 149.438 35.3125C149.52 35.4629 149.561 35.6178 149.561 35.7773H150.825C150.825 35.4538 150.755 35.153 150.613 34.875C150.477 34.5924 150.281 34.3464 150.025 34.1367C149.77 33.9271 149.46 33.763 149.096 33.6445C148.731 33.526 148.321 33.4668 147.865 33.4668C147.441 33.4668 147.052 33.5238 146.696 33.6377C146.345 33.7516 146.042 33.9066 145.787 34.1025C145.532 34.2985 145.334 34.5286 145.192 34.793C145.051 35.0527 144.98 35.333 144.98 35.6338C144.98 35.9391 145.049 36.208 145.186 36.4404C145.322 36.6683 145.516 36.8665 145.767 37.0352C146.013 37.2083 146.309 37.3564 146.655 37.4795C147.006 37.6025 147.394 37.7074 147.817 37.7939C148.164 37.8623 148.453 37.9398 148.686 38.0264C148.918 38.1084 149.105 38.1995 149.246 38.2998C149.387 38.4001 149.488 38.5117 149.547 38.6348C149.606 38.7533 149.636 38.8877 149.636 39.0381Z" fill="#F2B8B8"/>
</g>
<defs>
<filter id="filter0_d" x="0" y="0" width="160" height="72.2994" filterUnits="userSpaceOnUse" color-interpolation-filters="sRGB">
<feFlood flood-opacity="0" result="BackgroundImageFix"/>
<feColorMatrix in="SourceAlpha" type="matrix" values="0 0 0 0 0 0 0 0 0 0 0 0 0 0 0 0 0 0 127 0"/>
<feOffset dy="3"/>
<feColorMatrix type="matrix" values="0 0 0 0 0.920833 0 0 0 0 0.306944 0 0 0 0 0.306944 0 0 0 1 0"/>
<feBlend mode="normal" in2="BackgroundImageFix" result="effect1_dropShadow"/>
<feBlend mode="normal" in="SourceGraphic" in2="effect1_dropShadow" result="shape"/>
</filter>
</defs>
</svg>
