<svg width="164" height="73" viewBox="0 0 164 73" fill="none" xmlns="http://www.w3.org/2000/svg">
<g filter="url(#filter0_d)">
<rect width="164" height="70" rx="5" fill="#C00000"/>
<path d="M12.3984 37.4844C12.3984 37.7578 12.3392 37.9948 12.2207 38.1953C12.1022 38.3913 11.9495 38.5531 11.7627 38.6807C11.5758 38.8128 11.3617 38.9108 11.1201 38.9746C10.8831 39.0339 10.6416 39.0635 10.3955 39.0635C10.0856 39.0635 9.7985 39.0225 9.53418 38.9404C9.27441 38.8538 9.04427 38.7262 8.84375 38.5576C8.64323 38.3936 8.47917 38.193 8.35156 37.9561C8.22396 37.7145 8.13965 37.4388 8.09863 37.1289H6.80664C6.82031 37.5573 6.91374 37.9469 7.08691 38.2979C7.26465 38.6442 7.50391 38.9473 7.80469 39.207C8.14193 39.5078 8.53841 39.738 8.99414 39.8975C9.45443 40.057 9.92155 40.1367 10.3955 40.1367C10.792 40.1367 11.1885 40.082 11.585 39.9727C11.9814 39.8587 12.3369 39.6901 12.6514 39.4668C12.9658 39.248 13.221 38.9723 13.417 38.6396C13.6175 38.307 13.7178 37.9173 13.7178 37.4707C13.7178 37.0286 13.6243 36.639 13.4375 36.3018C13.2552 35.9645 13.0137 35.6797 12.7129 35.4473C12.4076 35.1966 12.0703 34.9915 11.7012 34.832C11.332 34.668 10.9629 34.529 10.5938 34.415C10.3704 34.3467 10.1312 34.2669 9.87598 34.1758C9.62533 34.0846 9.3929 33.9707 9.17871 33.834C8.95996 33.6973 8.77995 33.5309 8.63867 33.335C8.4974 33.1344 8.42448 32.8906 8.41992 32.6035C8.41992 32.3392 8.47233 32.1068 8.57715 31.9062C8.68652 31.7057 8.83236 31.5371 9.01465 31.4004C9.19238 31.2637 9.39518 31.1611 9.62305 31.0928C9.85547 31.0244 10.0924 30.9902 10.334 30.9902C10.6348 30.9902 10.9036 31.0381 11.1406 31.1338C11.3822 31.2249 11.5895 31.3548 11.7627 31.5234C11.9359 31.6921 12.0749 31.8949 12.1797 32.1318C12.2845 32.3643 12.3551 32.624 12.3916 32.9111H13.6904C13.6813 32.4554 13.5833 32.043 13.3965 31.6738C13.2096 31.3047 12.9613 30.9902 12.6514 30.7305C12.3415 30.4707 11.986 30.2702 11.585 30.1289C11.1839 29.9831 10.7669 29.9102 10.334 29.9102C9.94206 29.9102 9.55241 29.9717 9.16504 30.0947C8.77767 30.2132 8.43132 30.3887 8.12598 30.6211C7.82064 30.8535 7.57227 31.1383 7.38086 31.4756C7.19401 31.8128 7.10059 32.1956 7.10059 32.624C7.10059 33.0524 7.19401 33.4261 7.38086 33.7451C7.57227 34.0596 7.81836 34.333 8.11914 34.5654C8.41536 34.7933 8.74349 34.9893 9.10352 35.1533C9.4681 35.3128 9.82585 35.4495 10.1768 35.5635C10.4183 35.641 10.6689 35.7275 10.9287 35.8232C11.193 35.9189 11.4346 36.0374 11.6533 36.1787C11.8721 36.3245 12.0498 36.5023 12.1865 36.7119C12.3278 36.9215 12.3984 37.179 12.3984 37.4844ZM20.4717 40H21.6201V32.6035H20.3486V37.9082C20.2803 38.0677 20.1937 38.2158 20.0889 38.3525C19.9886 38.4847 19.8701 38.5986 19.7334 38.6943C19.5693 38.8128 19.3757 38.9062 19.1523 38.9746C18.929 39.0384 18.6761 39.0703 18.3936 39.0703C18.152 39.0703 17.9378 39.0384 17.751 38.9746C17.5687 38.9108 17.4137 38.7992 17.2861 38.6396C17.1585 38.4847 17.0628 38.2751 16.999 38.0107C16.9352 37.7464 16.9033 37.4137 16.9033 37.0127V32.6035H15.6387V36.999C15.6387 37.5505 15.6979 38.0244 15.8164 38.4209C15.9395 38.8128 16.1126 39.1364 16.3359 39.3916C16.5592 39.6468 16.8281 39.8359 17.1426 39.959C17.457 40.0775 17.8079 40.1367 18.1953 40.1367C18.6784 40.1367 19.1045 40.0365 19.4736 39.8359C19.8428 39.6309 20.1504 39.346 20.3965 38.9814L20.4717 40ZM23.999 42.8438H25.2637V39.2891C25.3548 39.3893 25.4528 39.4827 25.5576 39.5693C25.6624 39.6514 25.7741 39.7266 25.8926 39.7949C26.0885 39.9043 26.3073 39.9886 26.5488 40.0479C26.7949 40.1071 27.0592 40.1367 27.3418 40.1367C27.8066 40.1367 28.2191 40.041 28.5791 39.8496C28.9437 39.6582 29.249 39.3939 29.4951 39.0566C29.7412 38.7194 29.9281 38.3229 30.0557 37.8672C30.1833 37.4069 30.2471 36.9124 30.2471 36.3838V36.2402C30.2471 35.6888 30.1833 35.1829 30.0557 34.7227C29.9281 34.2578 29.7412 33.859 29.4951 33.5264C29.249 33.1937 28.9437 32.9339 28.5791 32.7471C28.2145 32.5602 27.7952 32.4668 27.3213 32.4668C27.0524 32.4668 26.7995 32.4964 26.5625 32.5557C26.3301 32.6104 26.1182 32.6924 25.9268 32.8018C25.79 32.8747 25.6624 32.9635 25.5439 33.0684C25.4255 33.1686 25.3161 33.2826 25.2158 33.4102L25.1543 32.6035H23.999V42.8438ZM28.9824 36.2402V36.3838C28.9824 36.7438 28.9414 37.0879 28.8594 37.416C28.7819 37.7441 28.6611 38.0335 28.4971 38.2842C28.333 38.5348 28.1234 38.7354 27.8682 38.8857C27.613 39.0316 27.3099 39.1045 26.959 39.1045C26.7402 39.1045 26.5397 39.0771 26.3574 39.0225C26.1797 38.9678 26.0179 38.8926 25.8721 38.7969C25.7445 38.7148 25.6305 38.6146 25.5303 38.4961C25.43 38.3776 25.3411 38.25 25.2637 38.1133V34.5518C25.3503 34.3968 25.4505 34.2555 25.5645 34.1279C25.6784 34.0003 25.8083 33.8932 25.9541 33.8066C26.0863 33.7201 26.2344 33.654 26.3984 33.6084C26.5671 33.5628 26.7493 33.54 26.9453 33.54C27.3008 33.54 27.6061 33.613 27.8613 33.7588C28.1165 33.9046 28.3285 34.1006 28.4971 34.3467C28.6611 34.5973 28.7819 34.8867 28.8594 35.2148C28.9414 35.5384 28.9824 35.8802 28.9824 36.2402ZM32.4072 42.8438H33.6719V39.2891C33.763 39.3893 33.861 39.4827 33.9658 39.5693C34.0706 39.6514 34.1823 39.7266 34.3008 39.7949C34.4967 39.9043 34.7155 39.9886 34.957 40.0479C35.2031 40.1071 35.4674 40.1367 35.75 40.1367C36.2148 40.1367 36.6273 40.041 36.9873 39.8496C37.3519 39.6582 37.6572 39.3939 37.9033 39.0566C38.1494 38.7194 38.3363 38.3229 38.4639 37.8672C38.5915 37.4069 38.6553 36.9124 38.6553 36.3838V36.2402C38.6553 35.6888 38.5915 35.1829 38.4639 34.7227C38.3363 34.2578 38.1494 33.859 37.9033 33.5264C37.6572 33.1937 37.3519 32.9339 36.9873 32.7471C36.6227 32.5602 36.2035 32.4668 35.7295 32.4668C35.4606 32.4668 35.2077 32.4964 34.9707 32.5557C34.7383 32.6104 34.5264 32.6924 34.335 32.8018C34.1982 32.8747 34.0706 32.9635 33.9521 33.0684C33.8337 33.1686 33.7243 33.2826 33.624 33.4102L33.5625 32.6035H32.4072V42.8438ZM37.3906 36.2402V36.3838C37.3906 36.7438 37.3496 37.0879 37.2676 37.416C37.1901 37.7441 37.0693 38.0335 36.9053 38.2842C36.7412 38.5348 36.5316 38.7354 36.2764 38.8857C36.0212 39.0316 35.7181 39.1045 35.3672 39.1045C35.1484 39.1045 34.9479 39.0771 34.7656 39.0225C34.5879 38.9678 34.4261 38.8926 34.2803 38.7969C34.1527 38.7148 34.0387 38.6146 33.9385 38.4961C33.8382 38.3776 33.7493 38.25 33.6719 38.1133V34.5518C33.7585 34.3968 33.8587 34.2555 33.9727 34.1279C34.0866 34.0003 34.2165 33.8932 34.3623 33.8066C34.4945 33.7201 34.6426 33.654 34.8066 33.6084C34.9753 33.5628 35.1576 33.54 35.3535 33.54C35.709 33.54 36.0143 33.613 36.2695 33.7588C36.5247 33.9046 36.7367 34.1006 36.9053 34.3467C37.0693 34.5973 37.1901 34.8867 37.2676 35.2148C37.3496 35.5384 37.3906 35.8802 37.3906 36.2402ZM40.4668 36.2334V36.3838C40.4668 36.917 40.5443 37.4115 40.6992 37.8672C40.8542 38.3229 41.0775 38.7194 41.3691 39.0566C41.6562 39.3939 42.0072 39.6582 42.4219 39.8496C42.8411 40.041 43.3128 40.1367 43.8369 40.1367C44.3564 40.1367 44.8236 40.041 45.2383 39.8496C45.653 39.6582 46.0062 39.3939 46.2979 39.0566C46.585 38.7194 46.806 38.3229 46.9609 37.8672C47.1159 37.4115 47.1934 36.917 47.1934 36.3838V36.2334C47.1934 35.7002 47.1159 35.2057 46.9609 34.75C46.806 34.2897 46.585 33.891 46.2979 33.5537C46.0062 33.2165 45.6507 32.9521 45.2314 32.7607C44.8167 32.5648 44.3473 32.4668 43.8232 32.4668C43.3037 32.4668 42.8366 32.5648 42.4219 32.7607C42.0072 32.9521 41.6562 33.2165 41.3691 33.5537C41.0775 33.891 40.8542 34.2897 40.6992 34.75C40.5443 35.2057 40.4668 35.7002 40.4668 36.2334ZM41.7314 36.3838V36.2334C41.7314 35.8734 41.7747 35.5293 41.8613 35.2012C41.9479 34.8685 42.0801 34.5768 42.2578 34.3262C42.431 34.0755 42.6475 33.8773 42.9072 33.7314C43.167 33.5811 43.4723 33.5059 43.8232 33.5059C44.1742 33.5059 44.4795 33.5811 44.7393 33.7314C45.0036 33.8773 45.2246 34.0755 45.4023 34.3262C45.5755 34.5768 45.7054 34.8685 45.792 35.2012C45.8831 35.5293 45.9287 35.8734 45.9287 36.2334V36.3838C45.9287 36.7484 45.8854 37.097 45.7988 37.4297C45.7122 37.7578 45.5824 38.0472 45.4092 38.2979C45.2314 38.5485 45.0104 38.7467 44.7461 38.8926C44.4863 39.0384 44.1833 39.1113 43.8369 39.1113C43.486 39.1113 43.1784 39.0384 42.9141 38.8926C42.6497 38.7467 42.431 38.5485 42.2578 38.2979C42.0801 38.0472 41.9479 37.7578 41.8613 37.4297C41.7747 37.097 41.7314 36.7484 41.7314 36.3838ZM54.0771 32.4668C53.5394 32.4668 53.0586 32.5853 52.6348 32.8223C52.2155 33.0547 51.8555 33.3737 51.5547 33.7793L51.5479 33.5947L51.4932 32.6035H50.29V40H51.5615V35.2559C51.6436 35.028 51.7461 34.8229 51.8691 34.6406C51.9967 34.4538 52.1449 34.2965 52.3135 34.1689C52.5003 34.0231 52.7191 33.9137 52.9697 33.8408C53.2204 33.7633 53.5007 33.7246 53.8105 33.7246C54.0521 33.7246 54.2822 33.7383 54.501 33.7656C54.7243 33.7884 54.959 33.8271 55.2051 33.8818L55.376 32.6445C55.2484 32.5898 55.057 32.5465 54.8018 32.5146C54.5511 32.4827 54.3096 32.4668 54.0771 32.4668ZM60.6328 30.8125H59.3613V32.6035H57.4199V33.5811H59.3613V37.6006C59.3613 38.0563 59.4206 38.446 59.5391 38.7695C59.6621 39.0885 59.8285 39.3483 60.0381 39.5488C60.2477 39.7539 60.4938 39.9043 60.7764 40C61.0635 40.0911 61.3711 40.1367 61.6992 40.1367C61.8952 40.1367 62.0911 40.1276 62.2871 40.1094C62.4876 40.0911 62.6768 40.0638 62.8545 40.0273C63.0322 39.9954 63.1963 39.9567 63.3467 39.9111C63.4971 39.861 63.6247 39.804 63.7295 39.7402L63.5518 38.8447C63.4743 38.863 63.374 38.8857 63.251 38.9131C63.1325 38.9359 63.0049 38.9587 62.8682 38.9814C62.7269 39.0042 62.5833 39.0247 62.4375 39.043C62.2917 39.0566 62.1504 39.0635 62.0137 39.0635C61.8268 39.0635 61.6491 39.0407 61.4805 38.9951C61.3164 38.9495 61.1706 38.8698 61.043 38.7559C60.9154 38.6465 60.8151 38.4984 60.7422 38.3115C60.6693 38.1247 60.6328 37.8877 60.6328 37.6006V33.5811H63.4492V32.6035H60.6328V30.8125ZM69.3145 40.1367C70.0345 40.1367 70.6383 39.9932 71.126 39.7061C71.6182 39.4144 71.9873 39.0817 72.2334 38.708L71.4609 38.1064C71.2285 38.4072 70.9368 38.6488 70.5859 38.8311C70.235 39.0133 69.834 39.1045 69.3828 39.1045C69.041 39.1045 68.7288 39.0407 68.4463 38.9131C68.1637 38.7855 67.9222 38.61 67.7217 38.3867C67.5257 38.1771 67.3708 37.9355 67.2568 37.6621C67.1475 37.3887 67.0768 37.0719 67.0449 36.7119V36.6641H72.3291V36.0967C72.3291 35.5817 72.263 35.1032 72.1309 34.6611C72.0033 34.2191 71.8073 33.834 71.543 33.5059C71.2786 33.1823 70.946 32.9294 70.5449 32.7471C70.1484 32.5602 69.6836 32.4668 69.1504 32.4668C68.7266 32.4668 68.3118 32.5534 67.9062 32.7266C67.5052 32.8997 67.1475 33.1481 66.833 33.4717C66.514 33.7998 66.2588 34.2008 66.0674 34.6748C65.876 35.1442 65.7803 35.6774 65.7803 36.2744V36.5615C65.7803 37.0765 65.8669 37.5527 66.04 37.9902C66.2132 38.4277 66.4548 38.806 66.7646 39.125C67.0745 39.444 67.446 39.6924 67.8789 39.8701C68.3164 40.0479 68.7949 40.1367 69.3145 40.1367ZM69.1504 33.5059C69.474 33.5059 69.752 33.5651 69.9844 33.6836C70.2214 33.8021 70.4173 33.957 70.5723 34.1484C70.7272 34.3398 70.848 34.5677 70.9346 34.832C71.0212 35.0918 71.0645 35.3356 71.0645 35.5635V35.625H67.0859C67.1361 35.2832 67.2227 34.9824 67.3457 34.7227C67.4733 34.4583 67.6283 34.235 67.8105 34.0527C67.9928 33.875 68.1979 33.7406 68.4258 33.6494C68.6536 33.5537 68.8952 33.5059 69.1504 33.5059ZM74.2158 36.2402V36.3838C74.2158 36.9124 74.2865 37.4069 74.4277 37.8672C74.569 38.3229 74.7673 38.7194 75.0225 39.0566C75.2777 39.3939 75.5853 39.6582 75.9453 39.8496C76.3099 40.041 76.7155 40.1367 77.1621 40.1367C77.6178 40.1367 78.0166 40.0592 78.3584 39.9043C78.7002 39.7493 78.9941 39.5215 79.2402 39.2207L79.2949 40H80.457V29.5H79.1924V33.335C78.9508 33.0524 78.6637 32.8382 78.3311 32.6924C78.0029 32.542 77.6178 32.4668 77.1758 32.4668C76.7246 32.4668 76.3167 32.5602 75.9521 32.7471C75.5876 32.9339 75.2777 33.1937 75.0225 33.5264C74.7627 33.859 74.5622 34.2578 74.4209 34.7227C74.2842 35.1829 74.2158 35.6888 74.2158 36.2402ZM75.4805 36.3838V36.2402C75.4805 35.8802 75.5192 35.5384 75.5967 35.2148C75.6742 34.8867 75.7949 34.5973 75.959 34.3467C76.1185 34.1006 76.3236 33.9046 76.5742 33.7588C76.8294 33.613 77.1348 33.54 77.4902 33.54C77.9049 33.54 78.2513 33.638 78.5293 33.834C78.8073 34.0254 79.0283 34.2715 79.1924 34.5723V38.0039C79.0283 38.3275 78.8073 38.585 78.5293 38.7764C78.2513 38.9678 77.9004 39.0635 77.4766 39.0635C77.1257 39.0635 76.8249 38.9928 76.5742 38.8516C76.3236 38.7057 76.1185 38.5098 75.959 38.2637C75.7949 38.0176 75.6742 37.7327 75.5967 37.4092C75.5192 37.0856 75.4805 36.7438 75.4805 36.3838ZM97.5127 40V30.0469H96.3164V34.3262H92.2354V30.0469H91.0459V40H92.2354V35.3994H96.3164V40H97.5127ZM104.54 40H105.859V39.8906C105.777 39.6855 105.714 39.4463 105.668 39.1729C105.622 38.8949 105.6 38.6328 105.6 38.3867V34.9482C105.6 34.5335 105.524 34.1712 105.374 33.8613C105.224 33.5514 105.019 33.2917 104.759 33.082C104.494 32.877 104.182 32.7243 103.822 32.624C103.462 32.5192 103.073 32.4668 102.653 32.4668C102.193 32.4668 101.781 32.5306 101.416 32.6582C101.056 32.7858 100.751 32.9521 100.5 33.1572C100.245 33.3669 100.049 33.6016 99.9121 33.8613C99.7799 34.1211 99.7116 34.3854 99.707 34.6543H100.979C100.979 34.4993 101.015 34.3512 101.088 34.21C101.165 34.0641 101.272 33.9388 101.409 33.834C101.546 33.7292 101.712 33.6449 101.908 33.5811C102.109 33.5173 102.334 33.4854 102.585 33.4854C102.854 33.4854 103.095 33.5195 103.31 33.5879C103.528 33.6562 103.713 33.752 103.863 33.875C104.014 34.0026 104.13 34.1553 104.212 34.333C104.294 34.5107 104.335 34.7113 104.335 34.9346V35.5156H102.954C102.439 35.5156 101.972 35.5658 101.553 35.666C101.138 35.7663 100.783 35.9167 100.486 36.1172C100.19 36.3223 99.96 36.5775 99.7959 36.8828C99.6364 37.1882 99.5566 37.5436 99.5566 37.9492C99.5566 38.2591 99.6159 38.5485 99.7344 38.8174C99.8574 39.0817 100.031 39.3096 100.254 39.501C100.473 39.6969 100.739 39.8519 101.054 39.9658C101.373 40.0798 101.728 40.1367 102.12 40.1367C102.362 40.1367 102.59 40.1117 102.804 40.0615C103.018 40.0114 103.221 39.943 103.412 39.8564C103.599 39.7699 103.77 39.6696 103.925 39.5557C104.084 39.4417 104.228 39.321 104.355 39.1934C104.369 39.3483 104.39 39.4987 104.417 39.6445C104.449 39.7858 104.49 39.9043 104.54 40ZM102.305 39.0361C102.059 39.0361 101.842 39.0042 101.655 38.9404C101.468 38.8766 101.313 38.7878 101.19 38.6738C101.067 38.5645 100.974 38.4323 100.91 38.2773C100.851 38.1224 100.821 37.9538 100.821 37.7715C100.821 37.5801 100.855 37.4092 100.924 37.2588C100.997 37.1084 101.102 36.9785 101.238 36.8691C101.43 36.7142 101.687 36.6003 102.011 36.5273C102.339 36.4499 102.722 36.4111 103.159 36.4111H104.335V37.9082C104.262 38.054 104.162 38.1953 104.034 38.332C103.907 38.4642 103.756 38.5827 103.583 38.6875C103.405 38.7923 103.209 38.8766 102.995 38.9404C102.781 39.0042 102.551 39.0361 102.305 39.0361ZM112.935 32.4668C112.397 32.4668 111.916 32.5853 111.492 32.8223C111.073 33.0547 110.713 33.3737 110.412 33.7793L110.405 33.5947L110.351 32.6035H109.147V40H110.419V35.2559C110.501 35.028 110.604 34.8229 110.727 34.6406C110.854 34.4538 111.002 34.2965 111.171 34.1689C111.358 34.0231 111.576 33.9137 111.827 33.8408C112.078 33.7633 112.358 33.7246 112.668 33.7246C112.91 33.7246 113.14 33.7383 113.358 33.7656C113.582 33.7884 113.816 33.8271 114.062 33.8818L114.233 32.6445C114.106 32.5898 113.914 32.5465 113.659 32.5146C113.409 32.4827 113.167 32.4668 112.935 32.4668ZM116.257 36.2402V36.3838C116.257 36.9124 116.327 37.4069 116.469 37.8672C116.61 38.3229 116.808 38.7194 117.063 39.0566C117.319 39.3939 117.626 39.6582 117.986 39.8496C118.351 40.041 118.757 40.1367 119.203 40.1367C119.659 40.1367 120.058 40.0592 120.399 39.9043C120.741 39.7493 121.035 39.5215 121.281 39.2207L121.336 40H122.498V29.5H121.233V33.335C120.992 33.0524 120.705 32.8382 120.372 32.6924C120.044 32.542 119.659 32.4668 119.217 32.4668C118.766 32.4668 118.358 32.5602 117.993 32.7471C117.629 32.9339 117.319 33.1937 117.063 33.5264C116.804 33.859 116.603 34.2578 116.462 34.7227C116.325 35.1829 116.257 35.6888 116.257 36.2402ZM117.521 36.3838V36.2402C117.521 35.8802 117.56 35.5384 117.638 35.2148C117.715 34.8867 117.836 34.5973 118 34.3467C118.16 34.1006 118.365 33.9046 118.615 33.7588C118.87 33.613 119.176 33.54 119.531 33.54C119.946 33.54 120.292 33.638 120.57 33.834C120.848 34.0254 121.069 34.2715 121.233 34.5723V38.0039C121.069 38.3275 120.848 38.585 120.57 38.7764C120.292 38.9678 119.941 39.0635 119.518 39.0635C119.167 39.0635 118.866 38.9928 118.615 38.8516C118.365 38.7057 118.16 38.5098 118 38.2637C117.836 38.0176 117.715 37.7327 117.638 37.4092C117.56 37.0856 117.521 36.7438 117.521 36.3838ZM125.615 40H126.613L127.755 35.4678L127.939 34.3193L128.131 35.4678L129.286 40H130.284L131.856 32.6035H130.735L129.915 37.3203L129.73 38.4824L129.532 37.3203L128.356 32.6035H127.543L126.36 37.3203L126.176 38.3799L126.025 37.3203L125.164 32.6035H124.043L125.615 40ZM138.173 40H139.492V39.8906C139.41 39.6855 139.346 39.4463 139.301 39.1729C139.255 38.8949 139.232 38.6328 139.232 38.3867V34.9482C139.232 34.5335 139.157 34.1712 139.007 33.8613C138.856 33.5514 138.651 33.2917 138.392 33.082C138.127 32.877 137.815 32.7243 137.455 32.624C137.095 32.5192 136.705 32.4668 136.286 32.4668C135.826 32.4668 135.413 32.5306 135.049 32.6582C134.689 32.7858 134.383 32.9521 134.133 33.1572C133.878 33.3669 133.682 33.6016 133.545 33.8613C133.413 34.1211 133.344 34.3854 133.34 34.6543H134.611C134.611 34.4993 134.648 34.3512 134.721 34.21C134.798 34.0641 134.905 33.9388 135.042 33.834C135.179 33.7292 135.345 33.6449 135.541 33.5811C135.742 33.5173 135.967 33.4854 136.218 33.4854C136.487 33.4854 136.728 33.5195 136.942 33.5879C137.161 33.6562 137.346 33.752 137.496 33.875C137.646 34.0026 137.763 34.1553 137.845 34.333C137.927 34.5107 137.968 34.7113 137.968 34.9346V35.5156H136.587C136.072 35.5156 135.605 35.5658 135.186 35.666C134.771 35.7663 134.415 35.9167 134.119 36.1172C133.823 36.3223 133.593 36.5775 133.429 36.8828C133.269 37.1882 133.189 37.5436 133.189 37.9492C133.189 38.2591 133.249 38.5485 133.367 38.8174C133.49 39.0817 133.663 39.3096 133.887 39.501C134.105 39.6969 134.372 39.8519 134.687 39.9658C135.006 40.0798 135.361 40.1367 135.753 40.1367C135.994 40.1367 136.222 40.1117 136.437 40.0615C136.651 40.0114 136.854 39.943 137.045 39.8564C137.232 39.7699 137.403 39.6696 137.558 39.5557C137.717 39.4417 137.861 39.321 137.988 39.1934C138.002 39.3483 138.022 39.4987 138.05 39.6445C138.082 39.7858 138.123 39.9043 138.173 40ZM135.938 39.0361C135.691 39.0361 135.475 39.0042 135.288 38.9404C135.101 38.8766 134.946 38.7878 134.823 38.6738C134.7 38.5645 134.607 38.4323 134.543 38.2773C134.484 38.1224 134.454 37.9538 134.454 37.7715C134.454 37.5801 134.488 37.4092 134.557 37.2588C134.63 37.1084 134.734 36.9785 134.871 36.8691C135.062 36.7142 135.32 36.6003 135.644 36.5273C135.972 36.4499 136.354 36.4111 136.792 36.4111H137.968V37.9082C137.895 38.054 137.795 38.1953 137.667 38.332C137.539 38.4642 137.389 38.5827 137.216 38.6875C137.038 38.7923 136.842 38.8766 136.628 38.9404C136.414 39.0042 136.184 39.0361 135.938 39.0361ZM146.567 32.4668C146.03 32.4668 145.549 32.5853 145.125 32.8223C144.706 33.0547 144.346 33.3737 144.045 33.7793L144.038 33.5947L143.983 32.6035H142.78V40H144.052V35.2559C144.134 35.028 144.236 34.8229 144.359 34.6406C144.487 34.4538 144.635 34.2965 144.804 34.1689C144.991 34.0231 145.209 33.9137 145.46 33.8408C145.711 33.7633 145.991 33.7246 146.301 33.7246C146.542 33.7246 146.772 33.7383 146.991 33.7656C147.215 33.7884 147.449 33.8271 147.695 33.8818L147.866 32.6445C147.739 32.5898 147.547 32.5465 147.292 32.5146C147.041 32.4827 146.8 32.4668 146.567 32.4668ZM153.396 40.1367C154.117 40.1367 154.72 39.9932 155.208 39.7061C155.7 39.4144 156.069 39.0817 156.315 38.708L155.543 38.1064C155.311 38.4072 155.019 38.6488 154.668 38.8311C154.317 39.0133 153.916 39.1045 153.465 39.1045C153.123 39.1045 152.811 39.0407 152.528 38.9131C152.246 38.7855 152.004 38.61 151.804 38.3867C151.608 38.1771 151.453 37.9355 151.339 37.6621C151.229 37.3887 151.159 37.0719 151.127 36.7119V36.6641H156.411V36.0967C156.411 35.5817 156.345 35.1032 156.213 34.6611C156.085 34.2191 155.889 33.834 155.625 33.5059C155.361 33.1823 155.028 32.9294 154.627 32.7471C154.23 32.5602 153.766 32.4668 153.232 32.4668C152.809 32.4668 152.394 32.5534 151.988 32.7266C151.587 32.8997 151.229 33.1481 150.915 33.4717C150.596 33.7998 150.341 34.2008 150.149 34.6748C149.958 35.1442 149.862 35.6774 149.862 36.2744V36.5615C149.862 37.0765 149.949 37.5527 150.122 37.9902C150.295 38.4277 150.537 38.806 150.847 39.125C151.157 39.444 151.528 39.6924 151.961 39.8701C152.398 40.0479 152.877 40.1367 153.396 40.1367ZM153.232 33.5059C153.556 33.5059 153.834 33.5651 154.066 33.6836C154.303 33.8021 154.499 33.957 154.654 34.1484C154.809 34.3398 154.93 34.5677 155.017 34.832C155.103 35.0918 155.146 35.3356 155.146 35.5635V35.625H151.168C151.218 35.2832 151.305 34.9824 151.428 34.7227C151.555 34.4583 151.71 34.235 151.893 34.0527C152.075 33.875 152.28 33.7406 152.508 33.6494C152.736 33.5537 152.977 33.5059 153.232 33.5059Z" fill="#F2B8B8"/>
</g>
<defs>
<filter id="filter0_d" x="0" y="0" width="164" height="73" filterUnits="userSpaceOnUse" color-interpolation-filters="sRGB">
<feFlood flood-opacity="0" result="BackgroundImageFix"/>
<feColorMatrix in="SourceAlpha" type="matrix" values="0 0 0 0 0 0 0 0 0 0 0 0 0 0 0 0 0 0 127 0"/>
<feOffset dy="3"/>
<feColorMatrix type="matrix" values="0 0 0 0 0.920833 0 0 0 0 0.306944 0 0 0 0 0.306944 0 0 0 1 0"/>
<feBlend mode="normal" in2="BackgroundImageFix" result="effect1_dropShadow"/>
<feBlend mode="normal" in="SourceGraphic" in2="effect1_dropShadow" result="shape"/>
</filter>
</defs>
</svg>
