<svg width="150" height="67" viewBox="0 0 150 67" fill="none" xmlns="http://www.w3.org/2000/svg">
<g filter="url(#filter0_d)">
<rect width="150" height="63.8925" rx="5" fill="#C00000"/>
<path d="M15.4844 34.8438C15.4844 35.0781 15.4336 35.2812 15.332 35.4531C15.2305 35.6211 15.0996 35.7598 14.9395 35.8691C14.7793 35.9824 14.5957 36.0664 14.3887 36.1211C14.1855 36.1719 13.9785 36.1973 13.7676 36.1973C13.502 36.1973 13.2559 36.1621 13.0293 36.0918C12.8066 36.0176 12.6094 35.9082 12.4375 35.7637C12.2656 35.623 12.125 35.4512 12.0156 35.248C11.9062 35.041 11.834 34.8047 11.7988 34.5391H10.6914C10.7031 34.9062 10.7832 35.2402 10.9316 35.541C11.084 35.8379 11.2891 36.0977 11.5469 36.3203C11.8359 36.5781 12.1758 36.7754 12.5664 36.9121C12.9609 37.0488 13.3613 37.1172 13.7676 37.1172C14.1074 37.1172 14.4473 37.0703 14.7871 36.9766C15.127 36.8789 15.4316 36.7344 15.7012 36.543C15.9707 36.3555 16.1895 36.1191 16.3574 35.834C16.5293 35.5488 16.6152 35.2148 16.6152 34.832C16.6152 34.4531 16.5352 34.1191 16.375 33.8301C16.2188 33.541 16.0117 33.2969 15.7539 33.0977C15.4922 32.8828 15.2031 32.707 14.8867 32.5703C14.5703 32.4297 14.2539 32.3105 13.9375 32.2129C13.7461 32.1543 13.541 32.0859 13.3223 32.0078C13.1074 31.9297 12.9082 31.832 12.7246 31.7148C12.5371 31.5977 12.3828 31.4551 12.2617 31.2871C12.1406 31.1152 12.0781 30.9062 12.0742 30.6602C12.0742 30.4336 12.1191 30.2344 12.209 30.0625C12.3027 29.8906 12.4277 29.7461 12.584 29.6289C12.7363 29.5117 12.9102 29.4238 13.1055 29.3652C13.3047 29.3066 13.5078 29.2773 13.7148 29.2773C13.9727 29.2773 14.2031 29.3184 14.4062 29.4004C14.6133 29.4785 14.791 29.5898 14.9395 29.7344C15.0879 29.8789 15.207 30.0527 15.2969 30.2559C15.3867 30.4551 15.4473 30.6777 15.4785 30.9238H16.5918C16.584 30.5332 16.5 30.1797 16.3398 29.8633C16.1797 29.5469 15.9668 29.2773 15.7012 29.0547C15.4355 28.832 15.1309 28.6602 14.7871 28.5391C14.4434 28.4141 14.0859 28.3516 13.7148 28.3516C13.3789 28.3516 13.0449 28.4043 12.7129 28.5098C12.3809 28.6113 12.084 28.7617 11.8223 28.9609C11.5605 29.1602 11.3477 29.4043 11.1836 29.6934C11.0234 29.9824 10.9434 30.3105 10.9434 30.6777C10.9434 31.0449 11.0234 31.3652 11.1836 31.6387C11.3477 31.9082 11.5586 32.1426 11.8164 32.3418C12.0703 32.5371 12.3516 32.7051 12.6602 32.8457C12.9727 32.9824 13.2793 33.0996 13.5801 33.1973C13.7871 33.2637 14.002 33.3379 14.2246 33.4199C14.4512 33.502 14.6582 33.6035 14.8457 33.7246C15.0332 33.8496 15.1855 34.002 15.3027 34.1816C15.4238 34.3613 15.4844 34.582 15.4844 34.8438ZM22.4043 37H23.3887V30.6602H22.2988V35.207C22.2402 35.3438 22.166 35.4707 22.0762 35.5879C21.9902 35.7012 21.8887 35.7988 21.7715 35.8809C21.6309 35.9824 21.4648 36.0625 21.2734 36.1211C21.082 36.1758 20.8652 36.2031 20.623 36.2031C20.416 36.2031 20.2324 36.1758 20.0723 36.1211C19.916 36.0664 19.7832 35.9707 19.6738 35.834C19.5645 35.7012 19.4824 35.5215 19.4277 35.2949C19.373 35.0684 19.3457 34.7832 19.3457 34.4395V30.6602H18.2617V34.4277C18.2617 34.9004 18.3125 35.3066 18.4141 35.6465C18.5195 35.9824 18.668 36.2598 18.8594 36.4785C19.0508 36.6973 19.2812 36.8594 19.5508 36.9648C19.8203 37.0664 20.1211 37.1172 20.4531 37.1172C20.8672 37.1172 21.2324 37.0312 21.5488 36.8594C21.8652 36.6836 22.1289 36.4395 22.3398 36.127L22.4043 37ZM25.4277 39.4375H26.5117V36.3906C26.5898 36.4766 26.6738 36.5566 26.7637 36.6309C26.8535 36.7012 26.9492 36.7656 27.0508 36.8242C27.2188 36.918 27.4062 36.9902 27.6133 37.041C27.8242 37.0918 28.0508 37.1172 28.293 37.1172C28.6914 37.1172 29.0449 37.0352 29.3535 36.8711C29.666 36.707 29.9277 36.4805 30.1387 36.1914C30.3496 35.9023 30.5098 35.5625 30.6191 35.1719C30.7285 34.7773 30.7832 34.3535 30.7832 33.9004V33.7773C30.7832 33.3047 30.7285 32.8711 30.6191 32.4766C30.5098 32.0781 30.3496 31.7363 30.1387 31.4512C29.9277 31.166 29.666 30.9434 29.3535 30.7832C29.041 30.623 28.6816 30.543 28.2754 30.543C28.0449 30.543 27.8281 30.5684 27.625 30.6191C27.4258 30.666 27.2441 30.7363 27.0801 30.8301C26.9629 30.8926 26.8535 30.9688 26.752 31.0586C26.6504 31.1445 26.5566 31.2422 26.4707 31.3516L26.418 30.6602H25.4277V39.4375ZM29.6992 33.7773V33.9004C29.6992 34.209 29.6641 34.5039 29.5938 34.7852C29.5273 35.0664 29.4238 35.3145 29.2832 35.5293C29.1426 35.7441 28.9629 35.916 28.7441 36.0449C28.5254 36.1699 28.2656 36.2324 27.9648 36.2324C27.7773 36.2324 27.6055 36.209 27.4492 36.1621C27.2969 36.1152 27.1582 36.0508 27.0332 35.9688C26.9238 35.8984 26.8262 35.8125 26.7402 35.7109C26.6543 35.6094 26.5781 35.5 26.5117 35.3828V32.3301C26.5859 32.1973 26.6719 32.0762 26.7695 31.9668C26.8672 31.8574 26.9785 31.7656 27.1035 31.6914C27.2168 31.6172 27.3438 31.5605 27.4844 31.5215C27.6289 31.4824 27.7852 31.4629 27.9531 31.4629C28.2578 31.4629 28.5195 31.5254 28.7383 31.6504C28.957 31.7754 29.1387 31.9434 29.2832 32.1543C29.4238 32.3691 29.5273 32.6172 29.5938 32.8984C29.6641 33.1758 29.6992 33.4688 29.6992 33.7773ZM32.6348 39.4375H33.7188V36.3906C33.7969 36.4766 33.8809 36.5566 33.9707 36.6309C34.0605 36.7012 34.1562 36.7656 34.2578 36.8242C34.4258 36.918 34.6133 36.9902 34.8203 37.041C35.0312 37.0918 35.2578 37.1172 35.5 37.1172C35.8984 37.1172 36.252 37.0352 36.5605 36.8711C36.873 36.707 37.1348 36.4805 37.3457 36.1914C37.5566 35.9023 37.7168 35.5625 37.8262 35.1719C37.9355 34.7773 37.9902 34.3535 37.9902 33.9004V33.7773C37.9902 33.3047 37.9355 32.8711 37.8262 32.4766C37.7168 32.0781 37.5566 31.7363 37.3457 31.4512C37.1348 31.166 36.873 30.9434 36.5605 30.7832C36.248 30.623 35.8887 30.543 35.4824 30.543C35.252 30.543 35.0352 30.5684 34.832 30.6191C34.6328 30.666 34.4512 30.7363 34.2871 30.8301C34.1699 30.8926 34.0605 30.9688 33.959 31.0586C33.8574 31.1445 33.7637 31.2422 33.6777 31.3516L33.625 30.6602H32.6348V39.4375ZM36.9062 33.7773V33.9004C36.9062 34.209 36.8711 34.5039 36.8008 34.7852C36.7344 35.0664 36.6309 35.3145 36.4902 35.5293C36.3496 35.7441 36.1699 35.916 35.9512 36.0449C35.7324 36.1699 35.4727 36.2324 35.1719 36.2324C34.9844 36.2324 34.8125 36.209 34.6562 36.1621C34.5039 36.1152 34.3652 36.0508 34.2402 35.9688C34.1309 35.8984 34.0332 35.8125 33.9473 35.7109C33.8613 35.6094 33.7852 35.5 33.7188 35.3828V32.3301C33.793 32.1973 33.8789 32.0762 33.9766 31.9668C34.0742 31.8574 34.1855 31.7656 34.3105 31.6914C34.4238 31.6172 34.5508 31.5605 34.6914 31.5215C34.8359 31.4824 34.9922 31.4629 35.1602 31.4629C35.4648 31.4629 35.7266 31.5254 35.9453 31.6504C36.1641 31.7754 36.3457 31.9434 36.4902 32.1543C36.6309 32.3691 36.7344 32.6172 36.8008 32.8984C36.8711 33.1758 36.9062 33.4688 36.9062 33.7773ZM39.543 33.7715V33.9004C39.543 34.3574 39.6094 34.7812 39.7422 35.1719C39.875 35.5625 40.0664 35.9023 40.3164 36.1914C40.5625 36.4805 40.8633 36.707 41.2188 36.8711C41.5781 37.0352 41.9824 37.1172 42.4316 37.1172C42.877 37.1172 43.2773 37.0352 43.6328 36.8711C43.9883 36.707 44.291 36.4805 44.541 36.1914C44.7871 35.9023 44.9766 35.5625 45.1094 35.1719C45.2422 34.7812 45.3086 34.3574 45.3086 33.9004V33.7715C45.3086 33.3145 45.2422 32.8906 45.1094 32.5C44.9766 32.1055 44.7871 31.7637 44.541 31.4746C44.291 31.1855 43.9863 30.959 43.627 30.7949C43.2715 30.627 42.8691 30.543 42.4199 30.543C41.9746 30.543 41.5742 30.627 41.2188 30.7949C40.8633 30.959 40.5625 31.1855 40.3164 31.4746C40.0664 31.7637 39.875 32.1055 39.7422 32.5C39.6094 32.8906 39.543 33.3145 39.543 33.7715ZM40.627 33.9004V33.7715C40.627 33.4629 40.6641 33.168 40.7383 32.8867C40.8125 32.6016 40.9258 32.3516 41.0781 32.1367C41.2266 31.9219 41.4121 31.752 41.6348 31.627C41.8574 31.498 42.1191 31.4336 42.4199 31.4336C42.7207 31.4336 42.9824 31.498 43.2051 31.627C43.4316 31.752 43.6211 31.9219 43.7734 32.1367C43.9219 32.3516 44.0332 32.6016 44.1074 32.8867C44.1855 33.168 44.2246 33.4629 44.2246 33.7715V33.9004C44.2246 34.2129 44.1875 34.5117 44.1133 34.7969C44.0391 35.0781 43.9277 35.3262 43.7793 35.541C43.627 35.7559 43.4375 35.9258 43.2109 36.0508C42.9883 36.1758 42.7285 36.2383 42.4316 36.2383C42.1309 36.2383 41.8672 36.1758 41.6406 36.0508C41.4141 35.9258 41.2266 35.7559 41.0781 35.541C40.9258 35.3262 40.8125 35.0781 40.7383 34.7969C40.6641 34.5117 40.627 34.2129 40.627 33.9004ZM51.209 30.543C50.748 30.543 50.3359 30.6445 49.9727 30.8477C49.6133 31.0469 49.3047 31.3203 49.0469 31.668L49.041 31.5098L48.9941 30.6602H47.9629V37H49.0527V32.9336C49.123 32.7383 49.2109 32.5625 49.3164 32.4062C49.4258 32.2461 49.5527 32.1113 49.6973 32.002C49.8574 31.877 50.0449 31.7832 50.2598 31.7207C50.4746 31.6543 50.7148 31.6211 50.9805 31.6211C51.1875 31.6211 51.3848 31.6328 51.5723 31.6562C51.7637 31.6758 51.9648 31.709 52.1758 31.7559L52.3223 30.6953C52.2129 30.6484 52.0488 30.6113 51.8301 30.584C51.6152 30.5566 51.4082 30.543 51.209 30.543ZM56.8281 29.125H55.7383V30.6602H54.0742V31.498H55.7383V34.9434C55.7383 35.334 55.7891 35.668 55.8906 35.9453C55.9961 36.2188 56.1387 36.4414 56.3184 36.6133C56.498 36.7891 56.709 36.918 56.9512 37C57.1973 37.0781 57.4609 37.1172 57.7422 37.1172C57.9102 37.1172 58.0781 37.1094 58.2461 37.0938C58.418 37.0781 58.5801 37.0547 58.7324 37.0234C58.8848 36.9961 59.0254 36.9629 59.1543 36.9238C59.2832 36.8809 59.3926 36.832 59.4824 36.7773L59.3301 36.0098C59.2637 36.0254 59.1777 36.0449 59.0723 36.0684C58.9707 36.0879 58.8613 36.1074 58.7441 36.127C58.623 36.1465 58.5 36.1641 58.375 36.1797C58.25 36.1914 58.1289 36.1973 58.0117 36.1973C57.8516 36.1973 57.6992 36.1777 57.5547 36.1387C57.4141 36.0996 57.2891 36.0312 57.1797 35.9336C57.0703 35.8398 56.9844 35.7129 56.9219 35.5527C56.8594 35.3926 56.8281 35.1895 56.8281 34.9434V31.498H59.2422V30.6602H56.8281V29.125ZM64.2695 37.1172C64.8867 37.1172 65.4043 36.9941 65.8223 36.748C66.2441 36.498 66.5605 36.2129 66.7715 35.8926L66.1094 35.377C65.9102 35.6348 65.6602 35.8418 65.3594 35.998C65.0586 36.1543 64.7148 36.2324 64.3281 36.2324C64.0352 36.2324 63.7676 36.1777 63.5254 36.0684C63.2832 35.959 63.0762 35.8086 62.9043 35.6172C62.7363 35.4375 62.6035 35.2305 62.5059 34.9961C62.4121 34.7617 62.3516 34.4902 62.3242 34.1816V34.1406H66.8535V33.6543C66.8535 33.2129 66.7969 32.8027 66.6836 32.4238C66.5742 32.0449 66.4062 31.7148 66.1797 31.4336C65.9531 31.1562 65.668 30.9395 65.3242 30.7832C64.9844 30.623 64.5859 30.543 64.1289 30.543C63.7656 30.543 63.4102 30.6172 63.0625 30.7656C62.7188 30.9141 62.4121 31.127 62.1426 31.4043C61.8691 31.6855 61.6504 32.0293 61.4863 32.4355C61.3223 32.8379 61.2402 33.2949 61.2402 33.8066V34.0527C61.2402 34.4941 61.3145 34.9023 61.4629 35.2773C61.6113 35.6523 61.8184 35.9766 62.084 36.25C62.3496 36.5234 62.668 36.7363 63.0391 36.8887C63.4141 37.041 63.8242 37.1172 64.2695 37.1172ZM64.1289 31.4336C64.4062 31.4336 64.6445 31.4844 64.8438 31.5859C65.0469 31.6875 65.2148 31.8203 65.3477 31.9844C65.4805 32.1484 65.584 32.3438 65.6582 32.5703C65.7324 32.793 65.7695 33.002 65.7695 33.1973V33.25H62.3594C62.4023 32.957 62.4766 32.6992 62.582 32.4766C62.6914 32.25 62.8242 32.0586 62.9805 31.9023C63.1367 31.75 63.3125 31.6348 63.5078 31.5566C63.7031 31.4746 63.9102 31.4336 64.1289 31.4336ZM68.4707 33.7773V33.9004C68.4707 34.3535 68.5312 34.7773 68.6523 35.1719C68.7734 35.5625 68.9434 35.9023 69.1621 36.1914C69.3809 36.4805 69.6445 36.707 69.9531 36.8711C70.2656 37.0352 70.6133 37.1172 70.9961 37.1172C71.3867 37.1172 71.7285 37.0508 72.0215 36.918C72.3145 36.7852 72.5664 36.5898 72.7773 36.332L72.8242 37H73.8203V28H72.7363V31.2871C72.5293 31.0449 72.2832 30.8613 71.998 30.7363C71.7168 30.6074 71.3867 30.543 71.0078 30.543C70.6211 30.543 70.2715 30.623 69.959 30.7832C69.6465 30.9434 69.3809 31.166 69.1621 31.4512C68.9395 31.7363 68.7676 32.0781 68.6465 32.4766C68.5293 32.8711 68.4707 33.3047 68.4707 33.7773ZM69.5547 33.9004V33.7773C69.5547 33.4688 69.5879 33.1758 69.6543 32.8984C69.7207 32.6172 69.8242 32.3691 69.9648 32.1543C70.1016 31.9434 70.2773 31.7754 70.4922 31.6504C70.7109 31.5254 70.9727 31.4629 71.2773 31.4629C71.6328 31.4629 71.9297 31.5469 72.168 31.7148C72.4062 31.8789 72.5957 32.0898 72.7363 32.3477V35.2891C72.5957 35.5664 72.4062 35.7871 72.168 35.9512C71.9297 36.1152 71.6289 36.1973 71.2656 36.1973C70.9648 36.1973 70.707 36.1367 70.4922 36.0156C70.2773 35.8906 70.1016 35.7227 69.9648 35.5117C69.8242 35.3008 69.7207 35.0566 69.6543 34.7793C69.5879 34.502 69.5547 34.209 69.5547 33.9004ZM88.4395 37V28.4688H87.4141V32.1367H83.916V28.4688H82.8965V37H83.916V33.0566H87.4141V37H88.4395ZM94.4629 37H95.5938V36.9062C95.5234 36.7305 95.4688 36.5254 95.4297 36.291C95.3906 36.0527 95.3711 35.8281 95.3711 35.6172V32.6699C95.3711 32.3145 95.3066 32.0039 95.1777 31.7383C95.0488 31.4727 94.873 31.25 94.6504 31.0703C94.4238 30.8945 94.1562 30.7637 93.8477 30.6777C93.5391 30.5879 93.2051 30.543 92.8457 30.543C92.4512 30.543 92.0977 30.5977 91.7852 30.707C91.4766 30.8164 91.2148 30.959 91 31.1348C90.7812 31.3145 90.6133 31.5156 90.4961 31.7383C90.3828 31.9609 90.3242 32.1875 90.3203 32.418H91.4102C91.4102 32.2852 91.4414 32.1582 91.5039 32.0371C91.5703 31.9121 91.6621 31.8047 91.7793 31.7148C91.8965 31.625 92.0391 31.5527 92.207 31.498C92.3789 31.4434 92.5723 31.416 92.7871 31.416C93.0176 31.416 93.2246 31.4453 93.4082 31.5039C93.5957 31.5625 93.7539 31.6445 93.8828 31.75C94.0117 31.8594 94.1113 31.9902 94.1816 32.1426C94.252 32.2949 94.2871 32.4668 94.2871 32.6582V33.1562H93.1035C92.6621 33.1562 92.2617 33.1992 91.9023 33.2852C91.5469 33.3711 91.2422 33.5 90.9883 33.6719C90.7344 33.8477 90.5371 34.0664 90.3965 34.3281C90.2598 34.5898 90.1914 34.8945 90.1914 35.2422C90.1914 35.5078 90.2422 35.7559 90.3438 35.9863C90.4492 36.2129 90.5977 36.4082 90.7891 36.5723C90.9766 36.7402 91.2051 36.873 91.4746 36.9707C91.748 37.0684 92.0527 37.1172 92.3887 37.1172C92.5957 37.1172 92.791 37.0957 92.9746 37.0527C93.1582 37.0098 93.332 36.9512 93.4961 36.877C93.6562 36.8027 93.8027 36.7168 93.9355 36.6191C94.0723 36.5215 94.1953 36.418 94.3047 36.3086C94.3164 36.4414 94.334 36.5703 94.3574 36.6953C94.3848 36.8164 94.4199 36.918 94.4629 37ZM92.5469 36.1738C92.3359 36.1738 92.1504 36.1465 91.9902 36.0918C91.8301 36.0371 91.6973 35.9609 91.5918 35.8633C91.4863 35.7695 91.4062 35.6562 91.3516 35.5234C91.3008 35.3906 91.2754 35.2461 91.2754 35.0898C91.2754 34.9258 91.3047 34.7793 91.3633 34.6504C91.4258 34.5215 91.5156 34.4102 91.6328 34.3164C91.7969 34.1836 92.0176 34.0859 92.2949 34.0234C92.5762 33.957 92.9043 33.9238 93.2793 33.9238H94.2871V35.207C94.2246 35.332 94.1387 35.4531 94.0293 35.5703C93.9199 35.6836 93.791 35.7852 93.6426 35.875C93.4902 35.9648 93.3223 36.0371 93.1387 36.0918C92.9551 36.1465 92.7578 36.1738 92.5469 36.1738ZM101.658 30.543C101.197 30.543 100.785 30.6445 100.422 30.8477C100.062 31.0469 99.7539 31.3203 99.4961 31.668L99.4902 31.5098L99.4434 30.6602H98.4121V37H99.502V32.9336C99.5723 32.7383 99.6602 32.5625 99.7656 32.4062C99.875 32.2461 100.002 32.1113 100.146 32.002C100.307 31.877 100.494 31.7832 100.709 31.7207C100.924 31.6543 101.164 31.6211 101.43 31.6211C101.637 31.6211 101.834 31.6328 102.021 31.6562C102.213 31.6758 102.414 31.709 102.625 31.7559L102.771 30.6953C102.662 30.6484 102.498 30.6113 102.279 30.584C102.064 30.5566 101.857 30.543 101.658 30.543ZM104.506 33.7773V33.9004C104.506 34.3535 104.566 34.7773 104.688 35.1719C104.809 35.5625 104.979 35.9023 105.197 36.1914C105.416 36.4805 105.68 36.707 105.988 36.8711C106.301 37.0352 106.648 37.1172 107.031 37.1172C107.422 37.1172 107.764 37.0508 108.057 36.918C108.35 36.7852 108.602 36.5898 108.812 36.332L108.859 37H109.855V28H108.771V31.2871C108.564 31.0449 108.318 30.8613 108.033 30.7363C107.752 30.6074 107.422 30.543 107.043 30.543C106.656 30.543 106.307 30.623 105.994 30.7832C105.682 30.9434 105.416 31.166 105.197 31.4512C104.975 31.7363 104.803 32.0781 104.682 32.4766C104.564 32.8711 104.506 33.3047 104.506 33.7773ZM105.59 33.9004V33.7773C105.59 33.4688 105.623 33.1758 105.689 32.8984C105.756 32.6172 105.859 32.3691 106 32.1543C106.137 31.9434 106.312 31.7754 106.527 31.6504C106.746 31.5254 107.008 31.4629 107.312 31.4629C107.668 31.4629 107.965 31.5469 108.203 31.7148C108.441 31.8789 108.631 32.0898 108.771 32.3477V35.2891C108.631 35.5664 108.441 35.7871 108.203 35.9512C107.965 36.1152 107.664 36.1973 107.301 36.1973C107 36.1973 106.742 36.1367 106.527 36.0156C106.312 35.8906 106.137 35.7227 106 35.5117C105.859 35.3008 105.756 35.0566 105.689 34.7793C105.623 34.502 105.59 34.209 105.59 33.9004ZM112.527 37H113.383L114.361 33.1152L114.52 32.1309L114.684 33.1152L115.674 37H116.529L117.877 30.6602H116.916L116.213 34.7031L116.055 35.6992L115.885 34.7031L114.877 30.6602H114.18L113.166 34.7031L113.008 35.6113L112.879 34.7031L112.141 30.6602H111.18L112.527 37ZM123.291 37H124.422V36.9062C124.352 36.7305 124.297 36.5254 124.258 36.291C124.219 36.0527 124.199 35.8281 124.199 35.6172V32.6699C124.199 32.3145 124.135 32.0039 124.006 31.7383C123.877 31.4727 123.701 31.25 123.479 31.0703C123.252 30.8945 122.984 30.7637 122.676 30.6777C122.367 30.5879 122.033 30.543 121.674 30.543C121.279 30.543 120.926 30.5977 120.613 30.707C120.305 30.8164 120.043 30.959 119.828 31.1348C119.609 31.3145 119.441 31.5156 119.324 31.7383C119.211 31.9609 119.152 32.1875 119.148 32.418H120.238C120.238 32.2852 120.27 32.1582 120.332 32.0371C120.398 31.9121 120.49 31.8047 120.607 31.7148C120.725 31.625 120.867 31.5527 121.035 31.498C121.207 31.4434 121.4 31.416 121.615 31.416C121.846 31.416 122.053 31.4453 122.236 31.5039C122.424 31.5625 122.582 31.6445 122.711 31.75C122.84 31.8594 122.939 31.9902 123.01 32.1426C123.08 32.2949 123.115 32.4668 123.115 32.6582V33.1562H121.932C121.49 33.1562 121.09 33.1992 120.73 33.2852C120.375 33.3711 120.07 33.5 119.816 33.6719C119.562 33.8477 119.365 34.0664 119.225 34.3281C119.088 34.5898 119.02 34.8945 119.02 35.2422C119.02 35.5078 119.07 35.7559 119.172 35.9863C119.277 36.2129 119.426 36.4082 119.617 36.5723C119.805 36.7402 120.033 36.873 120.303 36.9707C120.576 37.0684 120.881 37.1172 121.217 37.1172C121.424 37.1172 121.619 37.0957 121.803 37.0527C121.986 37.0098 122.16 36.9512 122.324 36.877C122.484 36.8027 122.631 36.7168 122.764 36.6191C122.9 36.5215 123.023 36.418 123.133 36.3086C123.145 36.4414 123.162 36.5703 123.186 36.6953C123.213 36.8164 123.248 36.918 123.291 37ZM121.375 36.1738C121.164 36.1738 120.979 36.1465 120.818 36.0918C120.658 36.0371 120.525 35.9609 120.42 35.8633C120.314 35.7695 120.234 35.6562 120.18 35.5234C120.129 35.3906 120.104 35.2461 120.104 35.0898C120.104 34.9258 120.133 34.7793 120.191 34.6504C120.254 34.5215 120.344 34.4102 120.461 34.3164C120.625 34.1836 120.846 34.0859 121.123 34.0234C121.404 33.957 121.732 33.9238 122.107 33.9238H123.115V35.207C123.053 35.332 122.967 35.4531 122.857 35.5703C122.748 35.6836 122.619 35.7852 122.471 35.875C122.318 35.9648 122.15 36.0371 121.967 36.0918C121.783 36.1465 121.586 36.1738 121.375 36.1738ZM130.486 30.543C130.025 30.543 129.613 30.6445 129.25 30.8477C128.891 31.0469 128.582 31.3203 128.324 31.668L128.318 31.5098L128.271 30.6602H127.24V37H128.33V32.9336C128.4 32.7383 128.488 32.5625 128.594 32.4062C128.703 32.2461 128.83 32.1113 128.975 32.002C129.135 31.877 129.322 31.7832 129.537 31.7207C129.752 31.6543 129.992 31.6211 130.258 31.6211C130.465 31.6211 130.662 31.6328 130.85 31.6562C131.041 31.6758 131.242 31.709 131.453 31.7559L131.6 30.6953C131.49 30.6484 131.326 30.6113 131.107 30.584C130.893 30.5566 130.686 30.543 130.486 30.543ZM136.34 37.1172C136.957 37.1172 137.475 36.9941 137.893 36.748C138.314 36.498 138.631 36.2129 138.842 35.8926L138.18 35.377C137.98 35.6348 137.73 35.8418 137.43 35.998C137.129 36.1543 136.785 36.2324 136.398 36.2324C136.105 36.2324 135.838 36.1777 135.596 36.0684C135.354 35.959 135.146 35.8086 134.975 35.6172C134.807 35.4375 134.674 35.2305 134.576 34.9961C134.482 34.7617 134.422 34.4902 134.395 34.1816V34.1406H138.924V33.6543C138.924 33.2129 138.867 32.8027 138.754 32.4238C138.645 32.0449 138.477 31.7148 138.25 31.4336C138.023 31.1562 137.738 30.9395 137.395 30.7832C137.055 30.623 136.656 30.543 136.199 30.543C135.836 30.543 135.48 30.6172 135.133 30.7656C134.789 30.9141 134.482 31.127 134.213 31.4043C133.939 31.6855 133.721 32.0293 133.557 32.4355C133.393 32.8379 133.311 33.2949 133.311 33.8066V34.0527C133.311 34.4941 133.385 34.9023 133.533 35.2773C133.682 35.6523 133.889 35.9766 134.154 36.25C134.42 36.5234 134.738 36.7363 135.109 36.8887C135.484 37.041 135.895 37.1172 136.34 37.1172ZM136.199 31.4336C136.477 31.4336 136.715 31.4844 136.914 31.5859C137.117 31.6875 137.285 31.8203 137.418 31.9844C137.551 32.1484 137.654 32.3438 137.729 32.5703C137.803 32.793 137.84 33.002 137.84 33.1973V33.25H134.43C134.473 32.957 134.547 32.6992 134.652 32.4766C134.762 32.25 134.895 32.0586 135.051 31.9023C135.207 31.75 135.383 31.6348 135.578 31.5566C135.773 31.4746 135.98 31.4336 136.199 31.4336Z" fill="#F2B8B8"/>
</g>
<defs>
<filter id="filter0_d" x="0" y="0" width="150" height="66.8925" filterUnits="userSpaceOnUse" color-interpolation-filters="sRGB">
<feFlood flood-opacity="0" result="BackgroundImageFix"/>
<feColorMatrix in="SourceAlpha" type="matrix" values="0 0 0 0 0 0 0 0 0 0 0 0 0 0 0 0 0 0 127 0"/>
<feOffset dy="3"/>
<feColorMatrix type="matrix" values="0 0 0 0 0.825 0 0 0 0 0.144375 0 0 0 0 0.144375 0 0 0 1 0"/>
<feBlend mode="normal" in2="BackgroundImageFix" result="effect1_dropShadow"/>
<feBlend mode="normal" in="SourceGraphic" in2="effect1_dropShadow" result="shape"/>
</filter>
</defs>
</svg>
