<svg xmlns="http://www.w3.org/2000/svg" width="682.667" height="682.667" viewBox="0 0 512 512" preserveAspectRatio="xMidYMid meet" xmlns:v="https://vecta.io/nano"><path d="M236.9.4c-.2.2-3.4.6-7 1-33 3.1-68 14.1-98.4 31-52.3 29-94.1 77.4-115 133.2-3.7 9.7-10.2 31.5-10.9 36.4-.3 1.4-.9 5-1.5 8C1.2 225.6.5 234.4.6 257c0 11.3.4 23.4.8 27l1.1 8c.8 6.6 3.2 18.4 5.7 27.8 14.4 55.5 45.6 103 90.9 138.4 33.3 25.9 75.8 44.5 115.4 50.4 2.2.3 5.1.8 6.5 1 11.5 2 47.2 2.6 61 1.1 11.6-1.3 11.8-1.3 23.5-3.6 66.9-12.8 127.1-53.5 165.1-111.6 6.8-10.3 6.6-10.1 14.4-25.6 10.3-20.4 18.3-43.3 21.5-61.8.3-1.9.8-3.7 1-4 .3-.6.8-3.3 2.1-12.3 3.3-23.7 2.4-63.4-2.1-83.8l-1.5-7.1c-2.3-11.5-9.4-33.5-14.8-46.1-19.9-45.6-50.7-82.7-92.4-111.2-5.3-3.6-10-6.6-10.4-6.6s-1.5-.6-2.3-1.4c-2-1.8-25.7-13.7-33.1-16.6-15.4-6.2-40.8-13.6-49.8-14.5-1.8-.2-3.6-.6-4-.8-.4-.3-3.6-.8-7.2-1.2s-7.4-.9-8.5-1.2c-2.3-.5-46.1-1.4-46.6-.9z"/></svg>