<svg width="289" height="56" viewBox="0 0 289 56" fill="none" xmlns="http://www.w3.org/2000/svg">
<g clip-path="url(#clip0_501_2)">
<path d="M81.54 47V42.38C80.26 43.9 78.74 45.1 76.98 45.98C75.26 46.86 73.46 47.3 71.58 47.3C69.46 47.3 67.48 46.92 65.64 46.16C63.8 45.36 62.2 44.24 60.84 42.8C59.44 41.36 58.34 39.72 57.54 37.88C56.78 36 56.4 34.02 56.4 31.94C56.4 29.86 56.78 27.9 57.54 26.06C58.34 24.18 59.44 22.52 60.84 21.08C62.2 19.64 63.8 18.54 65.64 17.78C67.48 16.98 69.46 16.58 71.58 16.58C73.66 16.58 75.54 17 77.22 17.84C78.94 18.68 80.38 19.84 81.54 21.32V7.16H86.82V47H81.54ZM71.58 22.04C70.26 22.04 69 22.3 67.8 22.82C66.6 23.3 65.56 24 64.68 24.92C63.8 25.84 63.1 26.92 62.58 28.16C62.06 29.36 61.8 30.62 61.8 31.94C61.8 34.62 62.76 36.96 64.68 38.96C65.56 39.88 66.6 40.6 67.8 41.12C69 41.64 70.26 41.9 71.58 41.9C72.9 41.9 74.16 41.64 75.36 41.12C76.6 40.6 77.66 39.88 78.54 38.96C80.46 36.96 81.42 34.62 81.42 31.94C81.42 30.62 81.16 29.36 80.64 28.16C80.12 26.92 79.42 25.84 78.54 24.92C77.66 24 76.6 23.3 75.36 22.82C74.16 22.3 72.9 22.04 71.58 22.04ZM117.101 47V42.44C115.821 43.92 114.341 45.1 112.661 45.98C110.981 46.86 109.201 47.3 107.321 47.3C105.241 47.3 103.281 46.92 101.441 46.16C99.6408 45.4 98.0408 44.32 96.6408 42.92C95.2408 41.56 94.1408 39.96 93.3408 38.12C92.5808 36.24 92.2008 34.28 92.2008 32.24C92.2008 30.2 92.5808 28.26 93.3408 26.42C94.1408 24.54 95.2408 22.9 96.6408 21.5C98.0408 20.1 99.6408 19.02 101.441 18.26C103.281 17.5 105.241 17.12 107.321 17.12C109.241 17.12 111.041 17.52 112.721 18.32C114.441 19.12 115.901 20.24 117.101 21.68V17.72H122.501V47H117.101ZM107.321 22.46C106.001 22.46 104.721 22.72 103.481 23.24C102.281 23.72 101.241 24.4 100.361 25.28C99.4808 26.16 98.7808 27.22 98.2608 28.46C97.7808 29.66 97.5408 30.92 97.5408 32.24C97.5408 33.56 97.7808 34.82 98.2608 36.02C98.7808 37.22 99.4808 38.26 100.361 39.14C101.241 40.02 102.281 40.72 103.481 41.24C104.721 41.72 106.001 41.96 107.321 41.96C108.641 41.96 109.901 41.72 111.101 41.24C112.301 40.72 113.341 40.02 114.221 39.14C115.101 38.26 115.781 37.22 116.261 36.02C116.781 34.82 117.041 33.56 117.041 32.24C117.041 30.92 116.781 29.66 116.261 28.46C115.781 27.22 115.101 26.16 114.221 25.28C113.341 24.4 112.301 23.72 111.101 23.24C109.901 22.72 108.641 22.46 107.321 22.46ZM147.024 47V28.58C147.024 26.7 146.364 25.1 145.044 23.78C144.444 23.18 143.724 22.7 142.884 22.34C142.084 21.98 141.264 21.8 140.424 21.8C138.624 21.8 137.064 22.46 135.744 23.78C134.424 25.1 133.764 26.7 133.764 28.58V47H128.484V6.98H133.764V19.1C135.684 17.3 137.904 16.4 140.424 16.4C142.024 16.4 143.544 16.72 144.984 17.36C146.424 17.96 147.704 18.82 148.824 19.94C149.904 21.06 150.744 22.38 151.344 23.9C151.984 25.38 152.304 26.94 152.304 28.58V47H147.024ZM158.309 47V7.1H163.109V47H158.309ZM171.85 12.68C171.09 12.68 170.43 12.42 169.87 11.9C169.35 11.34 169.09 10.68 169.09 9.92C169.09 9.16 169.35 8.52 169.87 8C170.43 7.44 171.09 7.16 171.85 7.16C172.61 7.16 173.25 7.44 173.77 8C174.33 8.52 174.61 9.16 174.61 9.92C174.61 10.68 174.33 11.34 173.77 11.9C173.25 12.42 172.61 12.68 171.85 12.68ZM169.39 47V17H174.43V47H169.39ZM203.116 47V42.44C201.836 43.92 200.356 45.1 198.676 45.98C196.996 46.86 195.216 47.3 193.336 47.3C191.256 47.3 189.296 46.92 187.456 46.16C185.656 45.4 184.056 44.32 182.656 42.92C181.256 41.56 180.156 39.96 179.356 38.12C178.596 36.24 178.216 34.28 178.216 32.24C178.216 30.2 178.596 28.26 179.356 26.42C180.156 24.54 181.256 22.9 182.656 21.5C184.056 20.1 185.656 19.02 187.456 18.26C189.296 17.5 191.256 17.12 193.336 17.12C195.256 17.12 197.056 17.52 198.736 18.32C200.456 19.12 201.916 20.24 203.116 21.68V17.72H208.516V47H203.116ZM193.336 22.46C192.016 22.46 190.736 22.72 189.496 23.24C188.296 23.72 187.256 24.4 186.376 25.28C185.496 26.16 184.796 27.22 184.276 28.46C183.796 29.66 183.556 30.92 183.556 32.24C183.556 33.56 183.796 34.82 184.276 36.02C184.796 37.22 185.496 38.26 186.376 39.14C187.256 40.02 188.296 40.72 189.496 41.24C190.736 41.72 192.016 41.96 193.336 41.96C194.656 41.96 195.916 41.72 197.116 41.24C198.316 40.72 199.356 40.02 200.236 39.14C201.116 38.26 201.796 37.22 202.276 36.02C202.796 34.82 203.056 33.56 203.056 32.24C203.056 30.92 202.796 29.66 202.276 28.46C201.796 27.22 201.116 26.16 200.236 25.28C199.356 24.4 198.316 23.72 197.116 23.24C195.916 22.72 194.656 22.46 193.336 22.46ZM233.88 47.3C231.16 47.3 228.58 46.8 226.14 45.8C223.74 44.76 221.62 43.3 219.78 41.42C217.94 39.58 216.5 37.44 215.46 35C214.42 32.52 213.9 29.92 213.9 27.2C213.9 24.48 214.4 21.92 215.4 19.52C216.44 17.08 217.9 14.92 219.78 13.04C221.62 11.2 223.74 9.76 226.14 8.72C228.58 7.68 231.16 7.16 233.88 7.16C236.6 7.16 239.18 7.68 241.62 8.72C244.06 9.76 246.2 11.2 248.04 13.04C249.88 14.88 251.32 17.02 252.36 19.46C253.4 21.9 253.92 24.48 253.92 27.2C253.92 29.92 253.4 32.52 252.36 35C251.32 37.44 249.88 39.58 248.04 41.42C246.2 43.26 244.06 44.7 241.62 45.74C239.18 46.78 236.6 47.3 233.88 47.3ZM233.88 12.62C231.92 12.62 230.04 13 228.24 13.76C226.48 14.48 224.92 15.52 223.56 16.88C222.2 18.24 221.14 19.82 220.38 21.62C219.66 23.38 219.3 25.24 219.3 27.2C219.3 29.2 219.68 31.12 220.44 32.96C221.2 34.76 222.24 36.32 223.56 37.64C224.92 39 226.48 40.06 228.24 40.82C230.04 41.54 231.92 41.9 233.88 41.9C235.84 41.9 237.7 41.54 239.46 40.82C241.26 40.06 242.84 39 244.2 37.64C245.52 36.32 246.56 34.76 247.32 32.96C248.08 31.12 248.46 29.2 248.46 27.2C248.46 25.24 248.08 23.38 247.32 21.62C246.6 19.82 245.56 18.24 244.2 16.88C242.84 15.52 241.26 14.48 239.46 13.76C237.7 13 235.84 12.62 233.88 12.62ZM279.452 19.4C279.252 17.84 278.832 16.56 278.192 15.56C277.472 14.48 276.572 13.7 275.492 13.22C274.452 12.7 273.112 12.44 271.472 12.44C268.752 12.44 266.852 13.02 265.772 14.18C264.732 15.22 264.212 16.72 264.212 18.68C264.212 19.8 264.372 20.72 264.692 21.44C265.012 22.12 265.492 22.68 266.132 23.12C267.092 23.8 268.672 24.24 270.872 24.44C273.112 24.64 274.992 24.96 276.512 25.4C278.072 25.8 279.432 26.36 280.592 27.08C283.512 28.92 284.972 31.8 284.972 35.72C284.972 37.24 284.672 38.68 284.072 40.04C283.472 41.4 282.632 42.62 281.552 43.7C280.272 44.94 278.752 45.86 276.992 46.46C275.272 47.06 273.472 47.36 271.592 47.36C267.352 47.36 263.972 46.16 261.452 43.76C259.292 41.6 257.992 38.72 257.552 35.12L257.672 35.06H262.952C263.272 37.18 263.992 38.76 265.112 39.8C266.672 41.24 268.772 41.96 271.412 41.96C273.932 41.96 275.932 41.38 277.412 40.22C278.892 39.06 279.632 37.56 279.632 35.72C279.632 34.88 279.512 34.16 279.272 33.56C279.072 32.92 278.672 32.36 278.072 31.88C276.712 30.84 274.172 30.18 270.452 29.9C266.652 29.58 263.772 28.48 261.812 26.6C259.852 24.72 258.872 22.08 258.872 18.68C258.872 15.24 259.932 12.46 262.052 10.34C264.292 8.1 267.412 6.98 271.412 6.98C275.572 6.98 278.812 8.24 281.132 10.76C283.172 12.96 284.412 15.84 284.852 19.4H279.452Z" fill="black"/>
<path fill-rule="evenodd" clip-rule="evenodd" d="M24 4L31.0294 11.0294H40.9706V20.9705L48 28L40.9706 35.0295V44.9706H31.0294L24 52L16.9706 44.9706H7.02942V35.0294L0 28L7.02942 20.9706V11.0294H16.9706L24 4ZM24.0265 39.0574C30.1187 39.0574 35.0574 34.1187 35.0574 28.0265C35.0574 21.9343 30.1187 16.9957 24.0265 16.9957C17.9343 16.9957 12.9956 21.9343 12.9956 28.0265C12.9956 34.1187 17.9343 39.0574 24.0265 39.0574Z" fill="url(#paint0_linear_501_2)"/>
</g>
<defs>
<linearGradient id="paint0_linear_501_2" x1="1.99129" y1="6.52163" x2="70.669" y2="74.0061" gradientUnits="userSpaceOnUse">
<stop stop-color="#FF3D00"/>
<stop offset="1" stop-color="#FF3D00"/>
</linearGradient>
<clipPath id="clip0_501_2">
<rect width="289" height="56" fill="white"/>
</clipPath>
</defs>
</svg>
