<svg width="289" height="81" viewBox="0 0 289 81" fill="none" xmlns="http://www.w3.org/2000/svg">
<g clip-path="url(#clip0)">
<path d="M40.0943 80.1887C62.2378 80.1887 80.1887 62.2378 80.1887 40.0943C80.1887 17.9508 62.2378 0 40.0943 0C17.9508 0 0 17.9508 0 40.0943C0 62.2378 17.9508 80.1887 40.0943 80.1887Z" fill="white"/>
<path d="M19.0336 19.0336H61.155V61.1551H19.0336V19.0336Z" fill="url(#paint0_linear)"/>
<path d="M10.31 40.0944L40.0944 10.31L69.8786 40.0944L40.0944 69.8786L10.31 40.0944Z" fill="url(#paint1_linear)"/>
<path d="M40.0943 56.1321C48.9517 56.1321 56.132 48.9517 56.132 40.0943C56.132 31.2369 48.9517 24.0566 40.0943 24.0566C31.2369 24.0566 24.0566 31.2369 24.0566 40.0943C24.0566 48.9517 31.2369 56.1321 40.0943 56.1321Z" fill="white"/>
<path d="M121.154 54.0472H117.931V49.5727C115.589 52.7161 112.59 54.2878 108.934 54.2878C106.72 54.2878 104.684 53.7425 102.823 52.652C100.963 51.5614 99.4874 50.0859 98.3969 48.2255C97.3063 46.3331 96.761 44.2963 96.761 42.1152C96.761 39.934 97.3063 37.9133 98.3969 36.0529C99.4874 34.1605 100.963 32.6689 102.823 31.5784C104.684 30.4878 106.72 29.9425 108.934 29.9425C112.719 29.9425 115.718 31.434 117.931 34.4171V22.1001H121.154V54.0472ZM117.835 42.1152C117.835 40.5114 117.434 39.0359 116.632 37.6888C115.83 36.3416 114.739 35.2671 113.36 34.4652C112.013 33.6633 110.537 33.2623 108.934 33.2623C107.33 33.2623 105.854 33.6633 104.507 34.4652C103.16 35.2671 102.086 36.3416 101.284 37.6888C100.482 39.0359 100.081 40.5114 100.081 42.1152C100.081 43.7189 100.482 45.2104 101.284 46.5897C102.086 47.9369 103.16 49.0114 104.507 49.8133C105.854 50.6152 107.33 51.0161 108.934 51.0161C110.537 51.0161 112.013 50.6152 113.36 49.8133C114.739 49.0114 115.83 47.9369 116.632 46.5897C117.434 45.2104 117.835 43.7189 117.835 42.1152ZM150.873 30.6161V54.0472H147.553V49.6208C145.34 52.7321 142.389 54.2878 138.7 54.2878C136.487 54.2878 134.45 53.7586 132.59 52.7001C130.729 51.6095 129.254 50.134 128.163 48.2737C127.105 46.4133 126.576 44.3925 126.576 42.2114C126.576 39.9982 127.105 37.9614 128.163 36.101C129.254 34.2406 130.729 32.7812 132.59 31.7227C134.45 30.6322 136.487 30.0869 138.7 30.0869C140.978 30.0869 142.838 30.568 144.281 31.5303C145.757 32.4605 146.847 33.4708 147.553 34.5614V30.6161H150.873ZM138.7 51.0161C140.304 51.0161 141.779 50.6312 143.127 49.8614C144.474 49.0595 145.532 47.985 146.302 46.6378C147.104 45.2906 147.505 43.8152 147.505 42.2114C147.505 40.6076 147.104 39.1321 146.302 37.785C145.532 36.4057 144.474 35.3312 143.127 34.5614C141.779 33.7595 140.304 33.3586 138.7 33.3586C137.096 33.3586 135.605 33.7595 134.226 34.5614C132.879 35.3312 131.804 36.4057 131.002 37.785C130.232 39.1321 129.847 40.6076 129.847 42.2114C129.847 43.8152 130.232 45.2906 131.002 46.6378C131.804 47.985 132.879 49.0595 134.226 49.8614C135.605 50.6312 137.096 51.0161 138.7 51.0161ZM166.352 29.7982C168.085 29.7982 169.672 30.2312 171.116 31.0973C172.591 31.9312 173.746 33.0859 174.58 34.5614C175.446 36.0048 175.879 37.5925 175.879 39.3246V54.0472H172.559V39.3246C172.559 38.202 172.27 37.1595 171.693 36.1972C171.148 35.235 170.394 34.4812 169.432 33.9359C168.502 33.3586 167.475 33.0699 166.352 33.0699C165.23 33.0699 164.187 33.3586 163.225 33.9359C162.263 34.4812 161.493 35.235 160.916 36.1972C160.37 37.1595 160.098 38.202 160.098 39.3246V54.0472H156.778V21.9557H160.098V32.4925C160.868 31.5944 161.782 30.9208 162.84 30.4718C163.931 30.0227 165.102 29.7982 166.352 29.7982ZM185.072 22.052V54.0472H181.8V22.052H185.072ZM193.153 23.3029C193.731 23.3029 194.228 23.5114 194.645 23.9284C195.062 24.3454 195.27 24.8425 195.27 25.4199C195.27 26.0293 195.062 26.5425 194.645 26.9595C194.228 27.3765 193.731 27.585 193.153 27.585C192.544 27.585 192.031 27.3765 191.614 26.9595C191.197 26.5425 190.988 26.0293 190.988 25.4199C190.988 24.8425 191.197 24.3454 191.614 23.9284C192.031 23.5114 192.544 23.3029 193.153 23.3029ZM194.789 29.9906V54.0472H191.469V29.9906H194.789ZM223.569 30.6161V54.0472H220.249V49.6208C218.036 52.7321 215.085 54.2878 211.397 54.2878C209.183 54.2878 207.147 53.7586 205.286 52.7001C203.426 51.6095 201.95 50.134 200.86 48.2737C199.801 46.4133 199.272 44.3925 199.272 42.2114C199.272 39.9982 199.801 37.9614 200.86 36.101C201.95 34.2406 203.426 32.7812 205.286 31.7227C207.147 30.6322 209.183 30.0869 211.397 30.0869C213.674 30.0869 215.534 30.568 216.978 31.5303C218.453 32.4605 219.544 33.4708 220.249 34.5614V30.6161H223.569ZM211.397 51.0161C213 51.0161 214.476 50.6312 215.823 49.8614C217.17 49.0595 218.229 47.985 218.999 46.6378C219.8 45.2906 220.201 43.8152 220.201 42.2114C220.201 40.6076 219.8 39.1321 218.999 37.785C218.229 36.4057 217.17 35.3312 215.823 34.5614C214.476 33.7595 213 33.3586 211.397 33.3586C209.793 33.3586 208.301 33.7595 206.922 34.5614C205.575 35.3312 204.5 36.4057 203.699 37.785C202.929 39.1321 202.544 40.6076 202.544 42.2114C202.544 43.8152 202.929 45.2906 203.699 46.6378C204.5 47.985 205.575 49.0595 206.922 49.8614C208.301 50.6312 209.793 51.0161 211.397 51.0161ZM245.015 54.2878C242.096 54.2878 239.418 53.5661 236.98 52.1227C234.542 50.6793 232.602 48.7387 231.158 46.301C229.715 43.8633 228.993 41.185 228.993 38.2661C228.993 35.3472 229.715 32.6689 231.158 30.2312C232.602 27.7614 234.542 25.8048 236.98 24.3614C239.45 22.918 242.128 22.1963 245.015 22.1963C247.902 22.1963 250.58 22.918 253.05 24.3614C255.52 25.8048 257.476 27.7614 258.92 30.2312C260.363 32.701 261.085 35.3793 261.085 38.2661C261.085 41.1529 260.363 43.8312 258.92 46.301C257.476 48.7387 255.52 50.6793 253.05 52.1227C250.612 53.5661 247.934 54.2878 245.015 54.2878ZM245.015 51.0161C247.324 51.0161 249.457 50.4548 251.414 49.3321C253.371 48.1774 254.91 46.6218 256.033 44.6652C257.188 42.7086 257.765 40.5755 257.765 38.2661C257.765 35.9567 257.188 33.8237 256.033 31.8671C254.91 29.9105 253.371 28.3708 251.414 27.2482C249.457 26.0935 247.324 25.5161 245.015 25.5161C242.705 25.5161 240.572 26.0935 238.616 27.2482C236.659 28.3708 235.104 29.9105 233.949 31.8671C232.826 33.8237 232.265 35.9567 232.265 38.2661C232.265 40.5755 232.826 42.7086 233.949 44.6652C235.104 46.6218 236.659 48.1774 238.616 49.3321C240.572 50.4548 242.705 51.0161 245.015 51.0161ZM283.579 31.3378C283.419 30.1189 283.034 29.0605 282.425 28.1623C281.174 26.2378 279.105 25.2756 276.218 25.2756C273.812 25.2756 272.064 25.8208 270.974 26.9114C269.979 27.9378 269.482 29.3331 269.482 31.0973C269.482 33.0539 270.027 34.401 271.118 35.1388C272.208 35.8765 273.732 36.3255 275.689 36.4859C277.549 36.6463 279.121 36.9029 280.404 37.2557C281.687 37.5765 282.761 38.0255 283.627 38.6029C285.905 40.0142 287.043 42.2274 287.043 45.2425C287.043 46.4293 286.803 47.552 286.322 48.6104C285.873 49.6689 285.215 50.6152 284.349 51.4491C282.392 53.3736 279.714 54.3359 276.314 54.3359C272.882 54.3359 270.172 53.3897 268.183 51.4972C266.483 49.9255 265.457 47.8086 265.104 45.1463H268.424C268.712 46.7501 269.386 48.0652 270.444 49.0916C271.824 50.3746 273.796 51.0161 276.362 51.0161C278.543 51.0161 280.308 50.4869 281.655 49.4284C283.034 48.3378 283.724 46.9425 283.724 45.2425C283.724 44.152 283.499 43.2538 283.05 42.5482C282.633 41.8104 281.815 41.2171 280.596 40.768C279.377 40.3189 277.645 39.9982 275.4 39.8057C269.242 39.2605 266.162 36.3576 266.162 31.0973C266.162 29.7822 266.371 28.5793 266.788 27.4888C267.237 26.3661 267.862 25.4039 268.664 24.602C270.428 22.8378 272.93 21.9557 276.17 21.9557H276.218C279.522 21.9878 282.04 22.902 283.772 24.6982C285.536 26.4623 286.578 28.6916 286.899 31.3859H283.579V31.3378Z" fill="black"/>
<path d="M121.154 54.0473V54.5284H121.636V54.0473H121.154ZM117.931 54.0473H117.45V54.5284H117.931V54.0473ZM117.931 49.5728H118.412V48.1215L117.545 49.2854L117.931 49.5728ZM102.823 52.652L103.067 52.237L102.823 52.652ZM98.3969 48.2256L97.9799 48.4658L97.9809 48.4674L97.982 48.4689L98.3969 48.2256ZM98.3969 36.0529L98.8117 36.2962L98.8128 36.2947L98.8138 36.2932L98.3969 36.0529ZM102.823 31.5784L103.067 31.9935L102.823 31.5784ZM117.931 34.4171L117.544 34.7038L118.412 35.873V34.4171H117.931ZM117.931 22.1001V21.6189H117.45V22.1001H117.931ZM121.154 22.1001H121.636V21.6189H121.154V22.1001ZM116.632 37.6888L116.219 37.9349L116.632 37.6888ZM113.36 34.4652L113.114 34.8787L113.116 34.8799L113.118 34.8812L113.36 34.4652ZM104.507 34.4652L104.753 34.8787L104.507 34.4652ZM101.284 37.6888L101.697 37.9349L101.284 37.6888ZM101.284 46.5897L100.868 46.8316L100.869 46.8337L100.87 46.8358L101.284 46.5897ZM104.507 49.8133L104.261 50.2268L104.507 49.8133ZM113.36 49.8133L113.118 49.3974L113.116 49.3987L113.114 49.3999L113.36 49.8133ZM116.632 46.5897L117.045 46.8358L117.047 46.8337L117.048 46.8316L116.632 46.5897ZM121.154 53.5662H117.931V54.5284H121.154V53.5662ZM118.412 54.0473V49.5728H117.45V54.0473H118.412ZM117.545 49.2854C115.287 52.317 112.426 53.8067 108.934 53.8067V54.769C112.754 54.769 115.892 53.1153 118.317 49.8602L117.545 49.2854ZM108.934 53.8067C106.804 53.8067 104.851 53.2831 103.067 52.237L102.58 53.0671C104.516 54.2023 106.637 54.769 108.934 54.769V53.8067ZM103.067 52.237C101.277 51.188 99.8611 49.7716 98.8117 47.9823L97.982 48.4689C99.1137 50.4003 100.649 51.9349 102.58 53.0671L103.067 52.237ZM98.8138 47.9854C97.765 46.1659 97.2421 44.2119 97.2421 42.1152H96.2799C96.2799 44.3808 96.8476 46.5004 97.9799 48.4658L98.8138 47.9854ZM97.2421 42.1152C97.2421 40.0186 97.765 38.082 98.8117 36.2962L97.982 35.8096C96.8476 37.7447 96.2799 39.8496 96.2799 42.1152H97.2421ZM98.8138 36.2932C99.8632 34.4721 101.279 33.0413 103.067 31.9935L102.58 31.1633C100.646 32.2967 99.1116 33.8489 97.9799 35.8127L98.8138 36.2932ZM103.067 31.9935C104.851 30.9473 106.804 30.4237 108.934 30.4237V29.4614C106.637 29.4614 104.516 30.0283 102.58 31.1633L103.067 31.9935ZM108.934 30.4237C112.569 30.4237 115.424 31.8458 117.544 34.7038L118.317 34.1304C116.011 31.0223 112.868 29.4614 108.934 29.4614V30.4237ZM118.412 34.4171V22.1001H117.45V34.4171H118.412ZM117.931 22.5812H121.154V21.6189H117.931V22.5812ZM120.673 22.1001V54.0473H121.636V22.1001H120.673ZM118.316 42.1152C118.316 40.4269 117.892 38.8661 117.045 37.4427L116.219 37.9349C116.975 39.2059 117.353 40.596 117.353 42.1152H118.316ZM117.045 37.4427C116.201 36.024 115.05 34.8915 113.602 34.0492L113.118 34.8812C114.428 35.6427 115.459 36.6593 116.219 37.9349L117.045 37.4427ZM113.606 34.0517C112.183 33.2045 110.622 32.7812 108.934 32.7812V33.7435C110.453 33.7435 111.843 34.1221 113.114 34.8787L113.606 34.0517ZM108.934 32.7812C107.245 32.7812 105.684 33.2045 104.261 34.0517L104.753 34.8787C106.024 34.1221 107.414 33.7435 108.934 33.7435V32.7812ZM104.261 34.0517C102.845 34.8946 101.713 36.0267 100.87 37.4427L101.697 37.9349C102.458 36.6565 103.475 35.6395 104.753 34.8787L104.261 34.0517ZM100.87 37.4427C100.023 38.8661 99.5997 40.4269 99.5997 42.1152H100.562C100.562 40.596 100.94 39.2059 101.697 37.9349L100.87 37.4427ZM99.5997 42.1152C99.5997 43.8035 100.023 45.3785 100.868 46.8316L101.7 46.3479C100.94 45.0425 100.562 43.6345 100.562 42.1152H99.5997ZM100.87 46.8358C101.713 48.2519 102.845 49.3839 104.261 50.2268L104.753 49.3999C103.475 48.639 102.458 47.622 101.697 46.3437L100.87 46.8358ZM104.261 50.2268C105.684 51.074 107.245 51.4973 108.934 51.4973V50.535C107.414 50.535 106.024 50.1564 104.753 49.3999L104.261 50.2268ZM108.934 51.4973C110.622 51.4973 112.183 51.074 113.606 50.2268L113.114 49.3999C111.843 50.1564 110.453 50.535 108.934 50.535V51.4973ZM113.602 50.2293C115.05 49.3871 116.201 48.2546 117.045 46.8358L116.219 46.3437C115.459 47.6193 114.428 48.6358 113.118 49.3974L113.602 50.2293ZM117.048 46.8316C117.892 45.3785 118.316 43.8035 118.316 42.1152H117.353C117.353 43.6345 116.975 45.0425 116.216 46.3479L117.048 46.8316ZM150.873 30.6161H151.354V30.135H150.873V30.6161ZM150.873 54.0473V54.5284H151.354V54.0473H150.873ZM147.553 54.0473H147.072V54.5284H147.553V54.0473ZM147.553 49.6209H148.034V48.1145L147.161 49.342L147.553 49.6209ZM132.59 52.7001L132.347 53.1152L132.349 53.1168L132.352 53.1183L132.59 52.7001ZM128.163 48.2737L127.745 48.5117L127.747 48.5143L127.749 48.517L128.163 48.2737ZM128.163 36.101L127.749 35.8578L127.747 35.8604L127.745 35.8631L128.163 36.101ZM132.59 31.7227L132.828 32.1409L132.83 32.1394L132.833 32.1378L132.59 31.7227ZM144.281 31.5303L144.015 31.9306L144.019 31.934L144.025 31.9373L144.281 31.5303ZM147.553 34.5614L147.149 34.8228L148.034 36.1906V34.5614H147.553ZM147.553 30.6161V30.135H147.072V30.6161H147.553ZM143.127 49.8615L143.366 50.2792L143.369 50.2771L143.373 50.2749L143.127 49.8615ZM146.302 46.6379L145.889 46.3918L145.887 46.3954L145.885 46.3992L146.302 46.6379ZM146.302 37.785L145.882 38.0195L145.885 38.0254L145.889 38.0311L146.302 37.785ZM143.127 34.5614L142.881 34.9749L142.884 34.977L142.888 34.9792L143.127 34.5614ZM134.226 34.5614L134.465 34.9792L134.466 34.9782L134.468 34.9774L134.226 34.5614ZM131.002 37.785L130.586 37.5432L130.585 37.5447L130.585 37.5463L131.002 37.785ZM131.002 46.6379L130.585 46.8766L130.587 46.8803L130.589 46.8839L131.002 46.6379ZM134.226 49.8615L133.98 50.2749L133.986 50.2783L133.992 50.2816L134.226 49.8615ZM150.392 30.6161V54.0473H151.354V30.6161H150.392ZM150.873 53.5662H147.553V54.5284H150.873V53.5662ZM148.034 54.0473V49.6209H147.072V54.0473H148.034ZM147.161 49.342C145.035 52.3317 142.227 53.8067 138.7 53.8067V54.769C142.551 54.769 145.646 53.1327 147.945 49.8998L147.161 49.342ZM138.7 53.8067C136.568 53.8067 134.613 53.2978 132.828 52.282L132.352 53.1183C134.287 54.2194 136.407 54.769 138.7 54.769V53.8067ZM132.833 52.2851C131.044 51.2361 129.628 49.8198 128.579 48.0304L127.749 48.517C128.881 50.4484 130.415 51.983 132.347 53.1152L132.833 52.2851ZM128.581 48.0358C127.565 46.2493 127.057 44.3108 127.057 42.2114H126.095C126.095 44.4743 126.645 46.5773 127.745 48.5117L128.581 48.0358ZM127.057 42.2114C127.057 40.0787 127.566 38.1243 128.581 36.339L127.745 35.8631C126.644 37.7985 126.095 39.9178 126.095 42.2114H127.057ZM128.579 36.3443C129.627 34.5562 131.042 33.1574 132.828 32.1409L132.352 31.3046C130.418 32.4051 128.881 33.9251 127.749 35.8578L128.579 36.3443ZM132.833 32.1378C134.618 31.0917 136.57 30.568 138.7 30.568V29.6058C136.404 29.6058 134.283 30.1727 132.347 31.3077L132.833 32.1378ZM138.7 30.568C140.912 30.568 142.672 31.0352 144.015 31.9306L144.548 31.13C143.005 30.1008 141.043 29.6058 138.7 29.6058V30.568ZM144.025 31.9373C145.461 32.8423 146.492 33.8074 147.149 34.8228L147.957 34.3001C147.203 33.1343 146.054 32.0786 144.538 31.1233L144.025 31.9373ZM148.034 34.5614V30.6161H147.072V34.5614H148.034ZM147.553 31.0973H150.873V30.135H147.553V31.0973ZM138.7 51.4973C140.385 51.4973 141.943 51.092 143.366 50.2792L142.888 49.4437C141.616 50.1706 140.223 50.535 138.7 50.535V51.4973ZM143.373 50.2749C144.79 49.431 145.909 48.2966 146.72 46.8766L145.885 46.3992C145.156 47.6735 144.157 48.6881 142.881 49.448L143.373 50.2749ZM146.716 46.8839C147.563 45.4606 147.986 43.8997 147.986 42.2114H147.024C147.024 43.7307 146.645 45.1208 145.889 46.3918L146.716 46.8839ZM147.986 42.2114C147.986 40.5231 147.563 38.9623 146.716 37.5389L145.889 38.0311C146.645 39.3021 147.024 40.6922 147.024 42.2114H147.986ZM146.722 37.5505C145.911 36.0963 144.79 34.9578 143.366 34.1437L142.888 34.9792C144.158 35.7047 145.154 36.7152 145.882 38.0195L146.722 37.5505ZM143.373 34.148C141.949 33.3007 140.388 32.8775 138.7 32.8775V33.8397C140.22 33.8397 141.609 34.2183 142.881 34.9749L143.373 34.148ZM138.7 32.8775C137.012 32.8775 135.437 33.3006 133.984 34.1455L134.468 34.9774C135.773 34.2184 137.181 33.8397 138.7 33.8397V32.8775ZM133.987 34.1437C132.564 34.9568 131.429 36.0929 130.586 37.5432L131.418 38.0269C132.179 36.7187 133.193 35.7057 134.465 34.9792L133.987 34.1437ZM130.585 37.5463C129.771 38.9687 129.366 40.5269 129.366 42.2114H130.329C130.329 40.6884 130.693 39.2957 131.42 38.0237L130.585 37.5463ZM129.366 42.2114C129.366 43.896 129.771 45.4542 130.585 46.8766L131.42 46.3992C130.693 45.1272 130.329 43.7344 130.329 42.2114H129.366ZM130.589 46.8839C131.431 48.3 132.564 49.432 133.98 50.2749L134.472 49.448C133.193 48.6871 132.177 47.6701 131.416 46.3918L130.589 46.8839ZM133.992 50.2816C135.443 51.092 137.016 51.4973 138.7 51.4973V50.535C137.177 50.535 135.767 50.1705 134.46 49.4413L133.992 50.2816ZM171.116 31.0973L170.868 31.5098L170.874 31.5131L170.879 31.5161L171.116 31.0973ZM174.58 34.5614L174.161 34.7981L174.164 34.8036L174.167 34.8089L174.58 34.5614ZM175.879 54.0473V54.5284H176.36V54.0473H175.879ZM172.559 54.0473H172.078V54.5284H172.559V54.0473ZM171.693 36.1973L171.274 36.4345L171.277 36.4397L171.28 36.4448L171.693 36.1973ZM169.432 33.936L169.178 34.3448L169.186 34.3498L169.194 34.3545L169.432 33.936ZM163.225 33.936L163.462 34.3545L163.467 34.3516L163.473 34.3485L163.225 33.936ZM160.916 36.1973L160.503 35.9498L160.5 35.9548L160.497 35.9601L160.916 36.1973ZM160.098 54.0473V54.5284H160.579V54.0473H160.098ZM156.778 54.0473H156.297V54.5284H156.778V54.0473ZM156.778 21.9557V21.4746H156.297V21.9557H156.778ZM160.098 21.9557H160.579V21.4746H160.098V21.9557ZM160.098 32.4926H159.617V33.7932L160.463 32.8057L160.098 32.4926ZM162.84 30.4718L162.657 30.0269L162.654 30.0279L162.652 30.0289L162.84 30.4718ZM166.352 30.2793C168 30.2793 169.502 30.69 170.868 31.5098L171.363 30.6847C169.843 29.7724 168.169 29.3171 166.352 29.3171V30.2793ZM170.879 31.5161C172.278 32.307 173.37 33.3988 174.161 34.7981L174.998 34.3247C174.122 32.7731 172.904 31.5554 171.352 30.6784L170.879 31.5161ZM174.167 34.8089C174.987 36.1754 175.398 37.6771 175.398 39.3246H176.36C176.36 37.508 175.905 35.8343 174.992 34.3139L174.167 34.8089ZM175.398 39.3246V54.0473H176.36V39.3246H175.398ZM175.879 53.5662H172.559V54.5284H175.879V53.5662ZM173.04 54.0473V39.3246H172.078V54.0473H173.04ZM173.04 39.3246C173.04 38.1148 172.727 36.9868 172.105 35.9498L171.28 36.4448C171.813 37.3323 172.078 38.2891 172.078 39.3246H173.04ZM172.112 35.9601C171.523 34.9221 170.707 34.1056 169.669 33.5174L169.194 34.3545C170.081 34.8569 170.772 35.548 171.274 36.4345L172.112 35.9601ZM169.685 33.5272C168.677 32.9012 167.562 32.5888 166.352 32.5888V33.551C167.387 33.551 168.326 33.8159 169.178 34.3448L169.685 33.5272ZM166.352 32.5888C165.143 32.5888 164.014 32.9011 162.978 33.5234L163.473 34.3485C164.36 33.816 165.317 33.551 166.352 33.551V32.5888ZM162.988 33.5174C161.952 34.1042 161.123 34.9174 160.503 35.9498L161.328 36.4448C161.864 35.5527 162.573 34.8583 163.462 34.3545L162.988 33.5174ZM160.497 35.9601C159.91 36.9958 159.617 38.1201 159.617 39.3246H160.579C160.579 38.2838 160.83 37.3233 161.334 36.4345L160.497 35.9601ZM159.617 39.3246V54.0473H160.579V39.3246H159.617ZM160.098 53.5662H156.778V54.5284H160.098V53.5662ZM157.259 54.0473V21.9557H156.297V54.0473H157.259ZM156.778 22.4369H160.098V21.4746H156.778V22.4369ZM159.617 21.9557V32.4926H160.579V21.9557H159.617ZM160.463 32.8057C161.186 31.9622 162.04 31.3339 163.028 30.9147L162.652 30.0289C161.523 30.5078 160.549 31.2266 159.732 32.1794L160.463 32.8057ZM163.023 30.9167C164.052 30.493 165.16 30.2793 166.352 30.2793V29.3171C165.042 29.3171 163.809 29.5525 162.657 30.0269L163.023 30.9167ZM185.072 22.052H185.553V21.5708H185.072V22.052ZM185.072 54.0473V54.5284H185.553V54.0473H185.072ZM181.8 54.0473H181.319V54.5284H181.8V54.0473ZM181.8 22.052V21.5708H181.319V22.052H181.8ZM184.591 22.052V54.0473H185.553V22.052H184.591ZM185.072 53.5662H181.8V54.5284H185.072V53.5662ZM182.281 54.0473V22.052H181.319V54.0473H182.281ZM181.8 22.5331H185.072V21.5708H181.8V22.5331ZM194.645 23.9284L194.305 24.2686L194.645 23.9284ZM194.645 26.9595L194.305 26.6193L194.645 26.9595ZM191.614 26.9595L191.274 27.2997L191.614 26.9595ZM191.614 23.9284L191.274 23.5882L191.614 23.9284ZM194.789 29.9907H195.27V29.5095H194.789V29.9907ZM194.789 54.0473V54.5284H195.27V54.0473H194.789ZM191.469 54.0473H190.988V54.5284H191.469V54.0473ZM191.469 29.9907V29.5095H190.988V29.9907H191.469ZM193.153 23.784C193.6 23.784 193.975 23.9397 194.305 24.2686L194.985 23.5882C194.48 23.0831 193.861 22.8218 193.153 22.8218V23.784ZM194.305 24.2686C194.633 24.5975 194.789 24.9732 194.789 25.4199H195.751C195.751 24.7119 195.49 24.0932 194.985 23.5882L194.305 24.2686ZM194.789 25.4199C194.789 25.9065 194.628 26.2959 194.305 26.6193L194.985 27.2997C195.495 26.7892 195.751 26.1522 195.751 25.4199H194.789ZM194.305 26.6193C193.975 26.9482 193.6 27.1039 193.153 27.1039V28.0661C193.861 28.0661 194.48 27.8048 194.985 27.2997L194.305 26.6193ZM193.153 27.1039C192.667 27.1039 192.277 26.9427 191.954 26.6193L191.274 27.2997C191.784 27.8103 192.421 28.0661 193.153 28.0661V27.1039ZM191.954 26.6193C191.63 26.2959 191.469 25.9065 191.469 25.4199H190.507C190.507 26.1522 190.763 26.7892 191.274 27.2997L191.954 26.6193ZM191.469 25.4199C191.469 24.9732 191.625 24.5975 191.954 24.2686L191.274 23.5882C190.768 24.0932 190.507 24.7119 190.507 25.4199H191.469ZM191.954 24.2686C192.277 23.9452 192.667 23.784 193.153 23.784V22.8218C192.421 22.8218 191.784 23.0776 191.274 23.5882L191.954 24.2686ZM194.308 29.9907V54.0473H195.27V29.9907H194.308ZM194.789 53.5662H191.469V54.5284H194.789V53.5662ZM191.95 54.0473V29.9907H190.988V54.0473H191.95ZM191.469 30.4718H194.789V29.5095H191.469V30.4718ZM223.569 30.6161H224.05V30.135H223.569V30.6161ZM223.569 54.0473V54.5284H224.05V54.0473H223.569ZM220.249 54.0473H219.768V54.5284H220.249V54.0473ZM220.249 49.6209H220.731V48.1145L219.858 49.342L220.249 49.6209ZM205.286 52.7001L205.043 53.1152L205.046 53.1168L205.048 53.1183L205.286 52.7001ZM200.86 48.2737L200.442 48.5117L200.443 48.5143L200.445 48.517L200.86 48.2737ZM200.86 36.101L200.445 35.8578L200.443 35.8604L200.442 35.8631L200.86 36.101ZM205.286 31.7227L205.524 32.1409L205.527 32.1394L205.529 32.1378L205.286 31.7227ZM216.978 31.5303L216.711 31.9306L216.716 31.934L216.721 31.9373L216.978 31.5303ZM220.249 34.5614L219.846 34.8228L220.731 36.1906V34.5614H220.249ZM220.249 30.6161V30.135H219.768V30.6161H220.249ZM215.823 49.8615L216.062 50.2792L216.066 50.2771L216.069 50.2749L215.823 49.8615ZM218.999 46.6379L218.585 46.3918L218.583 46.3954L218.581 46.3992L218.999 46.6379ZM218.999 37.785L218.578 38.0195L218.582 38.0254L218.585 38.0311L218.999 37.785ZM215.823 34.5614L215.577 34.9749L215.581 34.977L215.585 34.9792L215.823 34.5614ZM206.922 34.5614L207.161 34.9792L207.163 34.9782L207.164 34.9774L206.922 34.5614ZM203.699 37.785L203.283 37.5432L203.282 37.5447L203.281 37.5463L203.699 37.785ZM203.699 46.6379L203.281 46.8766L203.283 46.8803L203.285 46.8839L203.699 46.6379ZM206.922 49.8615L206.676 50.2749L206.682 50.2783L206.688 50.2816L206.922 49.8615ZM223.088 30.6161V54.0473H224.05V30.6161H223.088ZM223.569 53.5662H220.249V54.5284H223.569V53.5662ZM220.731 54.0473V49.6209H219.768V54.0473H220.731ZM219.858 49.342C217.731 52.3317 214.923 53.8067 211.397 53.8067V54.769C215.247 54.769 218.342 53.1327 220.642 49.8998L219.858 49.342ZM211.397 53.8067C209.264 53.8067 207.31 53.2978 205.524 52.282L205.048 53.1183C206.984 54.2194 209.103 54.769 211.397 54.769V53.8067ZM205.529 52.2851C203.74 51.2361 202.324 49.8198 201.275 48.0304L200.445 48.517C201.577 50.4484 203.112 51.983 205.043 53.1152L205.529 52.2851ZM201.278 48.0358C200.262 46.2493 199.753 44.3108 199.753 42.2114H198.791C198.791 44.4743 199.341 46.5773 200.442 48.5117L201.278 48.0358ZM199.753 42.2114C199.753 40.0787 200.262 38.1243 201.278 36.339L200.442 35.8631C199.341 37.7985 198.791 39.9178 198.791 42.2114H199.753ZM201.275 36.3443C202.323 34.5562 203.738 33.1574 205.524 32.1409L205.048 31.3046C203.114 32.4051 201.578 33.9251 200.445 35.8578L201.275 36.3443ZM205.529 32.1378C207.314 31.0917 209.267 30.568 211.397 30.568V29.6058C209.101 29.6058 206.979 30.1727 205.043 31.3077L205.529 32.1378ZM211.397 30.568C213.608 30.568 215.368 31.0352 216.711 31.9306L217.245 31.13C215.701 30.1008 213.74 29.6058 211.397 29.6058V30.568ZM216.721 31.9373C218.157 32.8423 219.189 33.8074 219.846 34.8228L220.654 34.3001C219.899 33.1343 218.75 32.0786 217.234 31.1233L216.721 31.9373ZM220.731 34.5614V30.6161H219.768V34.5614H220.731ZM220.249 31.0973H223.569V30.135H220.249V31.0973ZM211.397 51.4973C213.081 51.4973 214.639 51.092 216.062 50.2792L215.585 49.4437C214.312 50.1706 212.92 50.535 211.397 50.535V51.4973ZM216.069 50.2749C217.487 49.431 218.605 48.2966 219.417 46.8766L218.581 46.3992C217.853 47.6735 216.854 48.6881 215.577 49.448L216.069 50.2749ZM219.412 46.8839C220.259 45.4606 220.682 43.8997 220.682 42.2114H219.72C219.72 43.7307 219.342 45.1208 218.585 46.3918L219.412 46.8839ZM220.682 42.2114C220.682 40.5231 220.259 38.9623 219.412 37.5389L218.585 38.0311C219.342 39.3021 219.72 40.6922 219.72 42.2114H220.682ZM219.419 37.5505C218.607 36.0963 217.487 34.9578 216.062 34.1437L215.585 34.9792C216.854 35.7047 217.851 36.7152 218.578 38.0195L219.419 37.5505ZM216.069 34.148C214.646 33.3007 213.085 32.8775 211.397 32.8775V33.8397C212.916 33.8397 214.306 34.2183 215.577 34.9749L216.069 34.148ZM211.397 32.8775C209.708 32.8775 208.133 33.3006 206.68 34.1455L207.164 34.9774C208.469 34.2184 209.877 33.8397 211.397 33.8397V32.8775ZM206.684 34.1437C205.261 34.9568 204.126 36.0929 203.283 37.5432L204.114 38.0269C204.875 36.7187 205.889 35.7057 207.161 34.9792L206.684 34.1437ZM203.281 37.5463C202.468 38.9687 202.063 40.5269 202.063 42.2114H203.025C203.025 40.6884 203.39 39.2957 204.117 38.0237L203.281 37.5463ZM202.063 42.2114C202.063 43.896 202.468 45.4542 203.281 46.8766L204.117 46.3992C203.39 45.1272 203.025 43.7344 203.025 42.2114H202.063ZM203.285 46.8839C204.128 48.3 205.26 49.432 206.676 50.2749L207.169 49.448C205.89 48.6871 204.873 47.6701 204.112 46.3918L203.285 46.8839ZM206.688 50.2816C208.14 51.092 209.712 51.4973 211.397 51.4973V50.535C209.874 50.535 208.463 50.1705 207.157 49.4413L206.688 50.2816ZM236.98 52.1228L237.225 51.7088L236.98 52.1228ZM231.158 46.3011L230.744 46.5462L231.158 46.3011ZM231.158 30.2312L231.572 30.4763L231.573 30.4752L231.574 30.474L231.158 30.2312ZM236.98 24.3614L236.737 23.946L236.736 23.9467L236.735 23.9474L236.98 24.3614ZM253.05 24.3614L252.807 24.7768L253.05 24.3614ZM258.92 30.2312L259.335 29.9885L258.92 30.2312ZM258.92 46.3011L259.333 46.5462L259.334 46.545L259.335 46.5438L258.92 46.3011ZM253.05 52.1228L252.807 51.7074L252.806 51.7081L252.804 51.7088L253.05 52.1228ZM251.414 49.3322L251.653 49.7495L251.656 49.7481L251.658 49.7466L251.414 49.3322ZM256.033 44.6652L255.619 44.4207L255.617 44.4232L255.615 44.4258L256.033 44.6652ZM256.033 31.8671L255.615 32.1065L255.617 32.1091L255.619 32.1116L256.033 31.8671ZM251.414 27.2482L251.169 27.6626L251.172 27.6641L251.174 27.6655L251.414 27.2482ZM238.616 27.2482L238.855 27.6655L238.857 27.6641L238.86 27.6626L238.616 27.2482ZM233.949 31.8671L233.535 31.6226L233.533 31.6251L233.531 31.6276L233.949 31.8671ZM233.949 44.6652L233.531 44.9047L233.533 44.9072L233.535 44.9097L233.949 44.6652ZM238.616 49.3322L238.371 49.7466L238.374 49.7481L238.376 49.7495L238.616 49.3322ZM245.015 53.8067C242.179 53.8067 239.586 53.1069 237.225 51.7088L236.735 52.5368C239.249 54.0254 242.012 54.769 245.015 54.769V53.8067ZM237.225 51.7088C234.857 50.3066 232.974 48.4241 231.572 46.056L230.744 46.5462C232.229 49.0535 234.227 51.0522 236.735 52.5368L237.225 51.7088ZM231.572 46.056C230.174 43.6947 229.474 41.1015 229.474 38.2661H228.512C228.512 41.2685 229.255 44.0319 230.744 46.5462L231.572 46.056ZM229.474 38.2661C229.474 35.4308 230.174 32.8376 231.572 30.4763L230.744 29.9861C229.255 32.5004 228.512 35.2638 228.512 38.2661H229.474ZM231.574 30.474C232.976 28.0741 234.858 26.1767 237.225 24.7754L236.735 23.9474C234.226 25.4329 232.227 27.4487 230.743 29.9885L231.574 30.474ZM237.223 24.7768C239.618 23.3768 242.213 22.6774 245.015 22.6774V21.7152C242.044 21.7152 239.281 22.4592 236.737 23.946L237.223 24.7768ZM245.015 22.6774C247.817 22.6774 250.412 23.3768 252.807 24.7768L253.293 23.946C250.748 22.4592 247.986 21.7152 245.015 21.7152V22.6774ZM252.807 24.7768C255.205 26.1784 257.103 28.0756 258.504 30.474L259.335 29.9885C257.85 27.4472 255.833 25.4311 253.293 23.946L252.807 24.7768ZM258.504 30.474C259.904 32.8694 260.604 35.4639 260.604 38.2661H261.566C261.566 35.2948 260.822 32.5326 259.335 29.9885L258.504 30.474ZM260.604 38.2661C260.604 41.0684 259.904 43.6629 258.504 46.0583L259.335 46.5438C260.822 43.9996 261.566 41.2375 261.566 38.2661H260.604ZM258.505 46.056C257.104 48.4225 255.207 50.3048 252.807 51.7074L253.293 52.5382C255.832 51.0539 257.848 49.055 259.333 46.5462L258.505 46.056ZM252.804 51.7088C250.443 53.1069 247.85 53.8067 245.015 53.8067V54.769C248.017 54.769 250.78 54.0254 253.295 52.5368L252.804 51.7088ZM245.015 51.4973C247.406 51.4973 249.622 50.915 251.653 49.7495L251.174 48.9149C249.292 49.9947 247.242 50.535 245.015 50.535V51.4973ZM251.658 49.7466C253.686 48.5498 255.285 46.9341 256.45 44.9047L255.615 44.4258C254.534 46.3096 253.055 47.8051 251.169 48.9178L251.658 49.7466ZM256.447 44.9097C257.646 42.8778 258.246 40.6601 258.246 38.2661H257.284C257.284 40.4911 256.728 42.5394 255.619 44.4207L256.447 44.9097ZM258.246 38.2661C258.246 35.8722 257.646 33.6545 256.447 31.6226L255.619 32.1116C256.728 33.9929 257.284 36.0412 257.284 38.2661H258.246ZM256.45 31.6276C255.285 29.597 253.684 27.996 251.653 26.8309L251.174 27.6655C253.057 28.7457 254.535 30.224 255.615 32.1065L256.45 31.6276ZM251.658 26.8338C249.626 25.6346 247.409 25.035 245.015 25.035V25.9973C247.24 25.9973 249.288 26.5523 251.169 27.6626L251.658 26.8338ZM245.015 25.035C242.621 25.035 240.403 25.6346 238.371 26.8338L238.86 27.6626C240.741 26.5523 242.79 25.9973 245.015 25.9973V25.035ZM238.376 26.8309C236.347 27.9953 234.731 29.5947 233.535 31.6226L234.363 32.1116C235.476 30.2263 236.971 28.7464 238.855 27.6655L238.376 26.8309ZM233.531 31.6276C232.366 33.6589 231.784 35.8748 231.784 38.2661H232.746C232.746 36.0387 233.286 33.9884 234.366 32.1065L233.531 31.6276ZM231.784 38.2661C231.784 40.6575 232.366 42.8734 233.531 44.9047L234.366 44.4258C233.286 42.5438 232.746 40.4936 232.746 38.2661H231.784ZM233.535 44.9097C234.73 46.9364 236.344 48.5505 238.371 49.7466L238.86 48.9178C236.974 47.8044 235.476 46.3072 234.363 44.4207L233.535 44.9097ZM238.376 49.7495C240.407 50.915 242.623 51.4973 245.015 51.4973V50.535C242.787 50.535 240.737 49.9947 238.855 48.9149L238.376 49.7495ZM283.579 31.3378H284.06V31.3063L284.056 31.2751L283.579 31.3378ZM282.425 28.1624L282.021 28.4246L282.024 28.4286L282.026 28.4325L282.425 28.1624ZM270.974 26.9114L270.634 26.5712L270.631 26.5739L270.628 26.5766L270.974 26.9114ZM271.118 35.1388L270.848 35.5373L271.118 35.1388ZM275.689 36.486L275.73 36.0066L275.729 36.0065L275.728 36.0064L275.689 36.486ZM280.404 37.2558L280.277 37.7197L280.282 37.7212L280.287 37.7225L280.404 37.2558ZM283.627 38.6029L283.361 39.0032L283.367 39.0077L283.374 39.0119L283.627 38.6029ZM286.322 48.6105L285.884 48.4114L285.881 48.417L285.879 48.4226L286.322 48.6105ZM284.349 51.4492L284.015 51.1026L284.013 51.1044L284.012 51.1062L284.349 51.4492ZM268.183 51.4973L268.515 51.1488L268.512 51.1464L268.51 51.144L268.183 51.4973ZM265.104 45.1463V44.6652H264.555L264.627 45.2095L265.104 45.1463ZM268.424 45.1463L268.897 45.0611L268.826 44.6652H268.424V45.1463ZM270.444 49.0916L270.11 49.437L270.113 49.4405L270.117 49.4439L270.444 49.0916ZM281.655 49.4284L281.952 49.8068L281.952 49.8063L281.953 49.8059L281.655 49.4284ZM283.05 42.5482L282.631 42.785L282.637 42.7959L282.644 42.8065L283.05 42.5482ZM280.596 40.768L280.763 40.3166L280.596 40.768ZM275.4 39.8058L275.358 40.285L275.358 40.2851L275.359 40.2851L275.4 39.8058ZM266.788 27.4888L266.341 27.3101L266.34 27.3135L266.338 27.317L266.788 27.4888ZM268.664 24.602L268.324 24.2618L268.664 24.602ZM276.218 21.9557L276.223 21.4746H276.221H276.218V21.9557ZM283.772 24.6982L283.425 25.0322L283.428 25.0353L283.432 25.0384L283.772 24.6982ZM286.899 31.3859V31.8671H287.441L287.377 31.3291L286.899 31.3859ZM283.579 31.3859H283.098V31.8671H283.579V31.3859ZM284.056 31.2751C283.888 29.9918 283.48 28.8602 282.823 27.8922L282.026 28.4325C282.589 29.2608 282.951 30.2461 283.102 31.4006L284.056 31.2751ZM282.828 27.9001C281.465 25.8034 279.22 24.7944 276.218 24.7944V25.7567C278.99 25.7567 280.882 26.6722 282.021 28.4246L282.828 27.9001ZM276.218 24.7944C273.754 24.7944 271.854 25.3509 270.634 26.5712L271.314 27.2516C272.275 26.2908 273.871 25.7567 276.218 25.7567V24.7944ZM270.628 26.5766C269.528 27.7128 269.001 29.2391 269.001 31.0973H269.963C269.963 29.4271 270.431 28.1628 271.319 27.2462L270.628 26.5766ZM269.001 31.0973C269.001 33.1313 269.57 34.6721 270.848 35.5373L271.387 34.7402C270.486 34.13 269.963 32.9765 269.963 31.0973H269.001ZM270.848 35.5373C272.033 36.3387 273.648 36.8014 275.65 36.9655L275.728 36.0064C273.817 35.8497 272.384 35.4144 271.387 34.7402L270.848 35.5373ZM275.648 36.9653C277.489 37.1241 279.03 37.377 280.277 37.7197L280.532 36.7918C279.212 36.4289 277.609 36.1686 275.73 36.0066L275.648 36.9653ZM280.287 37.7225C281.531 38.0334 282.551 38.4635 283.361 39.0032L283.894 38.2026C282.972 37.5876 281.843 37.1197 280.52 36.789L280.287 37.7225ZM283.374 39.0119C285.49 40.3232 286.562 42.3692 286.562 45.2426H287.525C287.525 42.0858 286.32 39.7053 283.881 38.194L283.374 39.0119ZM286.562 45.2426C286.562 46.3622 286.336 47.4168 285.884 48.4114L286.76 48.8096C287.27 47.6873 287.525 46.4966 287.525 45.2426H286.562ZM285.879 48.4226C285.456 49.4186 284.837 50.3115 284.015 51.1026L284.683 51.7958C285.594 50.9189 286.289 49.9193 286.765 48.7984L285.879 48.4226ZM284.012 51.1062C282.166 52.9221 279.62 53.8549 276.314 53.8549V54.8171C279.809 54.8171 282.62 53.8255 284.686 51.7922L284.012 51.1062ZM276.314 53.8549C272.974 53.8549 270.393 52.9361 268.515 51.1488L267.852 51.8459C269.95 53.8436 272.791 54.8171 276.314 54.8171V53.8549ZM268.51 51.144C266.905 49.6604 265.921 47.6529 265.581 45.0832L264.627 45.2095C264.992 47.9643 266.061 50.1908 267.856 51.8506L268.51 51.144ZM265.104 45.6275H268.424V44.6652H265.104V45.6275ZM267.95 45.2316C268.255 46.9235 268.971 48.3332 270.11 49.437L270.78 48.7462C269.801 47.7973 269.17 46.5768 268.897 45.0611L267.95 45.2316ZM270.117 49.4439C271.613 50.8359 273.719 51.4973 276.362 51.4973V50.535C273.873 50.535 272.034 49.9135 270.772 48.7393L270.117 49.4439ZM276.362 51.4973C278.621 51.4973 280.499 50.9482 281.952 49.8068L281.357 49.0501C280.116 50.0256 278.465 50.535 276.362 50.535V51.4973ZM281.953 49.8059C283.443 48.6277 284.205 47.0955 284.205 45.2426H283.242C283.242 46.7897 282.625 48.0481 281.356 49.051L281.953 49.8059ZM284.205 45.2426C284.205 44.0879 283.967 43.093 283.456 42.2899L282.644 42.8065C283.031 43.4148 283.242 44.2162 283.242 45.2426H284.205ZM283.469 42.3115C282.973 41.4336 282.034 40.7849 280.763 40.3166L280.43 41.2195C281.596 41.6493 282.294 42.1874 282.631 42.785L283.469 42.3115ZM280.763 40.3166C279.484 39.8457 277.703 39.5202 275.441 39.3264L275.359 40.2851C277.588 40.4762 279.27 40.7923 280.43 41.2195L280.763 40.3166ZM275.443 39.3265C272.423 39.0592 270.234 38.2195 268.802 36.8696C267.381 35.5303 266.643 33.6294 266.643 31.0973H265.681C265.681 33.8256 266.483 36.0063 268.142 37.5698C269.789 39.1227 272.219 40.0071 275.358 40.285L275.443 39.3265ZM266.643 31.0973C266.643 29.8335 266.844 28.6898 267.237 27.6606L266.338 27.317C265.898 28.4688 265.681 29.7308 265.681 31.0973H266.643ZM267.235 27.6674C267.661 26.6012 268.251 25.695 269.005 24.9422L268.324 24.2618C267.473 25.1127 266.813 26.131 266.341 27.3101L267.235 27.6674ZM269.005 24.9422C270.654 23.2929 273.018 22.4369 276.17 22.4369V21.4746C272.843 21.4746 270.203 22.3827 268.324 24.2618L269.005 24.9422ZM276.17 22.4369H276.218V21.4746H276.17V22.4369ZM276.213 22.4369C279.431 22.4681 281.809 23.356 283.425 25.0322L284.118 24.3642C282.27 22.4479 279.612 21.5075 276.223 21.4746L276.213 22.4369ZM283.432 25.0384C285.112 26.7194 286.112 28.8457 286.421 31.4428L287.377 31.3291C287.044 28.5375 285.959 26.2053 284.112 24.358L283.432 25.0384ZM286.899 30.9048H283.579V31.8671H286.899V30.9048ZM284.06 31.3859V31.3378H283.098V31.3859H284.06Z" fill="black"/>
</g>
<defs>
<linearGradient id="paint0_linear" x1="16.2" y1="16.2765" x2="63.7591" y2="63.9119" gradientUnits="userSpaceOnUse">
<stop stop-color="#C00000"/>
<stop offset="1" stop-color="#FF4300"/>
</linearGradient>
<linearGradient id="paint1_linear" x1="16.2" y1="16.2766" x2="63.7591" y2="63.912" gradientUnits="userSpaceOnUse">
<stop stop-color="#C00000"/>
<stop offset="1" stop-color="#FF4300"/>
</linearGradient>
<clipPath id="clip0">
<rect width="289" height="80.1887" fill="white"/>
</clipPath>
</defs>
</svg>
