<svg width="129" height="36" viewBox="0 0 129 36" fill="none" xmlns="http://www.w3.org/2000/svg">
<g clip-path="url(#clip0)">
<path d="M17.8968 35.7936C27.7809 35.7936 35.7936 27.7809 35.7936 17.8968C35.7936 8.01266 27.7809 0 17.8968 0C8.01266 0 0 8.01266 0 17.8968C0 27.7809 8.01266 35.7936 17.8968 35.7936Z" fill="white"/>
<path d="M8.49596 8.49597H27.2976V27.2976H8.49596V8.49597Z" fill="url(#paint0_linear)"/>
<path d="M4.60205 17.8968L17.8968 4.60205L31.1915 17.8968L17.8968 31.1915L4.60205 17.8968Z" fill="url(#paint1_linear)"/>
<path d="M17.8968 25.0555C21.8504 25.0555 25.0555 21.8504 25.0555 17.8968C25.0555 13.9431 21.8504 10.738 17.8968 10.738C13.9431 10.738 10.7381 13.9431 10.7381 17.8968C10.7381 21.8504 13.9431 25.0555 17.8968 25.0555Z" fill="white"/>
<path d="M54.0793 24.1249H52.6404V22.1276C51.5952 23.5307 50.2565 24.2322 48.6244 24.2322C47.6365 24.2322 46.7273 23.9888 45.8969 23.5021C45.0665 23.0153 44.4079 22.3567 43.9211 21.5263C43.4343 20.6815 43.1909 19.7724 43.1909 18.7988C43.1909 17.8252 43.4343 16.9232 43.9211 16.0928C44.4079 15.2481 45.0665 14.5823 45.8969 14.0955C46.7273 13.6087 47.6365 13.3653 48.6244 13.3653C50.3138 13.3653 51.6525 14.0311 52.6404 15.3626V9.86472H54.0793V24.1249ZM52.5974 18.7988C52.5974 18.0829 52.4185 17.4243 52.0605 16.823C51.7026 16.2217 51.2158 15.742 50.6002 15.3841C49.9988 15.0261 49.3402 14.8472 48.6244 14.8472C47.9085 14.8472 47.2499 15.0261 46.6486 15.3841C46.0472 15.742 45.5676 16.2217 45.2097 16.823C44.8517 17.4243 44.6728 18.0829 44.6728 18.7988C44.6728 19.5147 44.8517 20.1804 45.2097 20.7961C45.5676 21.3974 46.0472 21.877 46.6486 22.235C47.2499 22.5929 47.9085 22.7719 48.6244 22.7719C49.3402 22.7719 49.9988 22.5929 50.6002 22.235C51.2158 21.877 51.7026 21.3974 52.0605 20.7961C52.4185 20.1804 52.5974 19.5147 52.5974 18.7988ZM67.3446 13.666V24.1249H65.8628V22.1491C64.8749 23.5378 63.5577 24.2322 61.9112 24.2322C60.9233 24.2322 60.0141 23.996 59.1837 23.5235C58.3533 23.0367 57.6947 22.3781 57.2079 21.5477C56.7354 20.7173 56.4992 19.8153 56.4992 18.8417C56.4992 17.8538 56.7354 16.9447 57.2079 16.1143C57.6947 15.2839 58.3533 14.6324 59.1837 14.1599C60.0141 13.6732 60.9233 13.4298 61.9112 13.4298C62.9277 13.4298 63.7581 13.6445 64.4024 14.074C65.061 14.4892 65.5478 14.9402 65.8628 15.427V13.666H67.3446ZM61.9112 22.7719C62.627 22.7719 63.2856 22.6001 63.887 22.2564C64.4883 21.8985 64.9608 21.4189 65.3044 20.8175C65.6623 20.2162 65.8413 19.5576 65.8413 18.8417C65.8413 18.1259 65.6623 17.4673 65.3044 16.8659C64.9608 16.2503 64.4883 15.7707 63.887 15.427C63.2856 15.0691 62.627 14.8901 61.9112 14.8901C61.1953 14.8901 60.5295 15.0691 59.9139 15.427C59.3126 15.7707 58.8329 16.2503 58.475 16.8659C58.1314 17.4673 57.9596 18.1259 57.9596 18.8417C57.9596 19.5576 58.1314 20.2162 58.475 20.8175C58.8329 21.4189 59.3126 21.8985 59.9139 22.2564C60.5295 22.6001 61.1953 22.7719 61.9112 22.7719ZM74.2542 13.3009C75.0274 13.3009 75.7361 13.4942 76.3804 13.8808C77.039 14.253 77.5544 14.7684 77.9266 15.427C78.3132 16.0713 78.5065 16.78 78.5065 17.5532V24.1249H77.0246V17.5532C77.0246 17.0521 76.8958 16.5867 76.6381 16.1572C76.3947 15.7277 76.0582 15.3912 75.6287 15.1478C75.2135 14.8901 74.7553 14.7613 74.2542 14.7613C73.7531 14.7613 73.2878 14.8901 72.8583 15.1478C72.4287 15.3912 72.0851 15.7277 71.8274 16.1572C71.584 16.5867 71.4623 17.0521 71.4623 17.5532V24.1249H69.9805V9.80029H71.4623V14.5036C71.8059 14.1027 72.214 13.802 72.6865 13.6016C73.1733 13.4011 73.6958 13.3009 74.2542 13.3009ZM82.6099 9.84324V24.1249H81.1495V9.84324H82.6099ZM86.2171 10.4016C86.4749 10.4016 86.6968 10.4947 86.8829 10.6808C87.069 10.8669 87.1621 11.0889 87.1621 11.3466C87.1621 11.6186 87.069 11.8477 86.8829 12.0338C86.6968 12.2199 86.4749 12.313 86.2171 12.313C85.9451 12.313 85.716 12.2199 85.5299 12.0338C85.3438 11.8477 85.2507 11.6186 85.2507 11.3466C85.2507 11.0889 85.3438 10.8669 85.5299 10.6808C85.716 10.4947 85.9451 10.4016 86.2171 10.4016ZM86.9473 13.3868V24.1249H85.4655V13.3868H86.9473ZM99.7939 13.666V24.1249H98.312V22.1491C97.3241 23.5378 96.0069 24.2322 94.3604 24.2322C93.3725 24.2322 92.4634 23.996 91.6329 23.5235C90.8025 23.0367 90.1439 22.3781 89.6571 21.5477C89.1847 20.7173 88.9484 19.8153 88.9484 18.8417C88.9484 17.8538 89.1847 16.9447 89.6571 16.1143C90.1439 15.2839 90.8025 14.6324 91.6329 14.1599C92.4634 13.6732 93.3725 13.4298 94.3604 13.4298C95.377 13.4298 96.2074 13.6445 96.8516 14.074C97.5102 14.4892 97.997 14.9402 98.312 15.427V13.666H99.7939ZM94.3604 22.7719C95.0763 22.7719 95.7349 22.6001 96.3362 22.2564C96.9375 21.8985 97.41 21.4189 97.7536 20.8175C98.1116 20.2162 98.2905 19.5576 98.2905 18.8417C98.2905 18.1259 98.1116 17.4673 97.7536 16.8659C97.41 16.2503 96.9375 15.7707 96.3362 15.427C95.7349 15.0691 95.0763 14.8901 94.3604 14.8901C93.6445 14.8901 92.9788 15.0691 92.3631 15.427C91.7618 15.7707 91.2822 16.2503 90.9242 16.8659C90.5806 17.4673 90.4088 18.1259 90.4088 18.8417C90.4088 19.5576 90.5806 20.2162 90.9242 20.8175C91.2822 21.4189 91.7618 21.8985 92.3631 22.2564C92.9788 22.6001 93.6445 22.7719 94.3604 22.7719ZM109.367 24.2322C108.064 24.2322 106.868 23.9101 105.78 23.2658C104.692 22.6215 103.826 21.7553 103.181 20.6672C102.537 19.5791 102.215 18.3836 102.215 17.0807C102.215 15.7778 102.537 14.5823 103.181 13.4942C103.826 12.3917 104.692 11.5184 105.78 10.8741C106.882 10.2298 108.078 9.90767 109.367 9.90767C110.655 9.90767 111.851 10.2298 112.953 10.8741C114.055 11.5184 114.929 12.3917 115.573 13.4942C116.217 14.5966 116.54 15.7921 116.54 17.0807C116.54 18.3693 116.217 19.5648 115.573 20.6672C114.929 21.7553 114.055 22.6215 112.953 23.2658C111.865 23.9101 110.669 24.2322 109.367 24.2322ZM109.367 22.7719C110.397 22.7719 111.349 22.5213 112.223 22.0202C113.096 21.5048 113.783 20.8104 114.285 19.937C114.8 19.0637 115.058 18.1115 115.058 17.0807C115.058 16.0498 114.8 15.0977 114.285 14.2244C113.783 13.351 113.096 12.6638 112.223 12.1627C111.349 11.6472 110.397 11.3895 109.367 11.3895C108.336 11.3895 107.384 11.6472 106.51 12.1627C105.637 12.6638 104.942 13.351 104.427 14.2244C103.926 15.0977 103.675 16.0498 103.675 17.0807C103.675 18.1115 103.926 19.0637 104.427 19.937C104.942 20.8104 105.637 21.5048 106.51 22.0202C107.384 22.5213 108.336 22.7719 109.367 22.7719ZM126.58 13.9881C126.509 13.4441 126.337 12.9716 126.065 12.5707C125.507 11.7117 124.583 11.2821 123.294 11.2821C122.221 11.2821 121.44 11.5255 120.954 12.0123C120.51 12.4705 120.288 13.0933 120.288 13.8808C120.288 14.7541 120.531 15.3554 121.018 15.6847C121.505 16.014 122.185 16.2145 123.058 16.2861C123.889 16.3577 124.59 16.4722 125.163 16.6297C125.736 16.7729 126.215 16.9733 126.602 17.231C127.618 17.861 128.127 18.8489 128.127 20.1947C128.127 20.7245 128.019 21.2256 127.804 21.6981C127.604 22.1705 127.311 22.5929 126.924 22.9652C126.051 23.8242 124.855 24.2537 123.337 24.2537C121.805 24.2537 120.596 23.8314 119.708 22.9866C118.949 22.2851 118.491 21.3401 118.334 20.1518H119.815C119.944 20.8677 120.245 21.4547 120.717 21.9128C121.333 22.4855 122.214 22.7719 123.359 22.7719C124.333 22.7719 125.12 22.5356 125.721 22.0632C126.337 21.5764 126.645 20.9536 126.645 20.1947C126.645 19.7079 126.545 19.3071 126.344 18.9921C126.158 18.6628 125.793 18.3979 125.249 18.1975C124.705 17.997 123.932 17.8538 122.929 17.7679C120.18 17.5245 118.806 16.2288 118.806 13.8808C118.806 13.2937 118.899 12.7568 119.085 12.27C119.286 11.7689 119.565 11.3394 119.923 10.9815C120.71 10.194 121.827 9.80029 123.273 9.80029H123.294C124.769 9.81461 125.893 10.2227 126.666 11.0244C127.454 11.8119 127.919 12.8069 128.062 14.0096H126.58V13.9881Z" fill="black"/>
<path d="M54.0793 24.1249V24.3396H54.2941V24.1249H54.0793ZM52.6404 24.1249H52.4256V24.3396H52.6404V24.1249ZM52.6404 22.1276H52.8552V21.4798L52.4681 21.9993L52.6404 22.1276ZM45.8969 23.5021L46.0055 23.3168L45.8969 23.5021ZM43.9211 21.5263L43.735 21.6335L43.7354 21.6342L43.7359 21.6349L43.9211 21.5263ZM43.9211 16.0928L44.1063 16.2014L44.1067 16.2007L44.1072 16.2L43.9211 16.0928ZM45.8969 14.0955L46.0055 14.2808L45.8969 14.0955ZM52.6404 15.3626L52.4679 15.4906L52.8552 16.0125V15.3626H52.6404ZM52.6404 9.8647V9.64994H52.4256V9.8647H52.6404ZM54.0793 9.8647H54.2941V9.64994H54.0793V9.8647ZM52.0605 16.823L51.8761 16.9328L52.0605 16.823ZM50.6002 15.3841L50.4904 15.5686L50.4914 15.5692L50.4923 15.5698L50.6002 15.3841ZM46.6486 15.3841L46.7583 15.5686L46.6486 15.3841ZM45.2097 16.823L45.3941 16.9328L45.2097 16.823ZM45.2097 20.7961L45.024 20.904L45.0245 20.905L45.0252 20.9059L45.2097 20.7961ZM46.6486 22.235L46.5388 22.4195L46.6486 22.235ZM50.6002 22.235L50.4923 22.0493L50.4914 22.0499L50.4904 22.0504L50.6002 22.235ZM52.0605 20.7961L52.245 20.9059L52.2457 20.905L52.2462 20.904L52.0605 20.7961ZM54.0793 23.9101H52.6404V24.3396H54.0793V23.9101ZM52.8552 24.1249V22.1276H52.4256V24.1249H52.8552ZM52.4681 21.9993C51.4602 23.3525 50.1833 24.0175 48.6244 24.0175V24.447C50.3298 24.447 51.7303 23.7089 52.8127 22.2559L52.4681 21.9993ZM48.6244 24.0175C47.6737 24.0175 46.802 23.7838 46.0055 23.3168L45.7883 23.6873C46.6526 24.1941 47.5992 24.447 48.6244 24.447V24.0175ZM46.0055 23.3168C45.2068 22.8486 44.5747 22.2164 44.1063 21.4177L43.7359 21.6349C44.2411 22.497 44.9262 23.182 45.7883 23.6873L46.0055 23.3168ZM44.1072 21.419C43.639 20.6069 43.4057 19.7347 43.4057 18.7988H42.9761C42.9761 19.8101 43.2296 20.7562 43.735 21.6335L44.1072 21.419ZM43.4057 18.7988C43.4057 17.8629 43.639 16.9985 44.1063 16.2014L43.7359 15.9842C43.2296 16.8479 42.9761 17.7875 42.9761 18.7988H43.4057ZM44.1072 16.2C44.5756 15.3872 45.2077 14.7485 46.0055 14.2808L45.7883 13.9102C44.9252 14.4161 44.2401 15.109 43.735 15.9856L44.1072 16.2ZM46.0055 14.2808C46.802 13.8138 47.6737 13.5801 48.6244 13.5801V13.1506C47.5992 13.1506 46.6526 13.4036 45.7883 13.9102L46.0055 14.2808ZM48.6244 13.5801C50.2472 13.5801 51.5215 14.2149 52.4679 15.4906L52.8129 15.2346C51.7835 13.8473 50.3804 13.1506 48.6244 13.1506V13.5801ZM52.8552 15.3626V9.8647H52.4256V15.3626H52.8552ZM52.6404 10.0795H54.0793V9.64994H52.6404V10.0795ZM53.8645 9.8647V24.1249H54.2941V9.8647H53.8645ZM52.8122 18.7988C52.8122 18.0452 52.6232 17.3485 52.245 16.7131L51.8761 16.9328C52.2137 17.5001 52.3827 18.1206 52.3827 18.7988H52.8122ZM52.245 16.7131C51.8682 16.0799 51.3547 15.5744 50.708 15.1984L50.4923 15.5698C51.0769 15.9097 51.537 16.3634 51.8761 16.9328L52.245 16.7131ZM50.7099 15.1995C50.0747 14.8214 49.3779 14.6324 48.6244 14.6324V15.0619C49.3025 15.0619 49.9229 15.2309 50.4904 15.5686L50.7099 15.1995ZM48.6244 14.6324C47.8708 14.6324 47.174 14.8214 46.5388 15.1995L46.7583 15.5686C47.3258 15.2309 47.9462 15.0619 48.6244 15.0619V14.6324ZM46.5388 15.1995C45.9067 15.5758 45.4013 16.0811 45.0252 16.7131L45.3941 16.9328C45.7339 16.3622 46.1878 15.9083 46.7583 15.5686L46.5388 15.1995ZM45.0252 16.7131C44.647 17.3485 44.458 18.0452 44.458 18.7988H44.8875C44.8875 18.1206 45.0565 17.5001 45.3941 16.9328L45.0252 16.7131ZM44.458 18.7988C44.458 19.5524 44.647 20.2554 45.024 20.904L45.3953 20.6881C45.0565 20.1054 44.8875 19.477 44.8875 18.7988H44.458ZM45.0252 20.9059C45.4013 21.538 45.9067 22.0433 46.5388 22.4195L46.7583 22.0504C46.1878 21.7108 45.7339 21.2568 45.3941 20.6862L45.0252 20.9059ZM46.5388 22.4195C47.174 22.7977 47.8708 22.9866 48.6244 22.9866V22.5571C47.9462 22.5571 47.3258 22.3881 46.7583 22.0504L46.5388 22.4195ZM48.6244 22.9866C49.3779 22.9866 50.0747 22.7977 50.7099 22.4195L50.4904 22.0504C49.9229 22.3881 49.3025 22.5571 48.6244 22.5571V22.9866ZM50.708 22.4206C51.3547 22.0447 51.8682 21.5392 52.245 20.9059L51.8761 20.6862C51.537 21.2556 51.0769 21.7094 50.4923 22.0493L50.708 22.4206ZM52.2462 20.904C52.6232 20.2554 52.8122 19.5524 52.8122 18.7988H52.3827C52.3827 19.477 52.2137 20.1054 51.8749 20.6881L52.2462 20.904ZM67.3446 13.666H67.5594V13.4512H67.3446V13.666ZM67.3446 24.1249V24.3396H67.5594V24.1249H67.3446ZM65.8628 24.1249H65.648V24.3396H65.8628V24.1249ZM65.8628 22.1491H66.0775V21.4767L65.6879 22.0246L65.8628 22.1491ZM59.1837 23.5235L59.0751 23.7088L59.0763 23.7095L59.0775 23.7102L59.1837 23.5235ZM57.2079 21.5477L57.0213 21.654L57.022 21.6551L57.0227 21.6563L57.2079 21.5477ZM57.2079 16.1143L57.0227 16.0057L57.022 16.0069L57.0213 16.0081L57.2079 16.1143ZM59.1837 14.1599L59.2899 14.3466L59.2911 14.3459L59.2923 14.3452L59.1837 14.1599ZM64.4024 14.074L64.2833 14.2527L64.2855 14.2542L64.2879 14.2557L64.4024 14.074ZM65.8628 15.427L65.6826 15.5437L66.0775 16.1543V15.427H65.8628ZM65.8628 13.666V13.4512H65.648V13.666H65.8628ZM63.887 22.2565L63.9936 22.4429L63.9953 22.442L63.997 22.441L63.887 22.2565ZM65.3044 20.8175L65.1199 20.7077L65.119 20.7093L65.118 20.711L65.3044 20.8175ZM65.3044 16.8659L65.1168 16.9706L65.1183 16.9732L65.1199 16.9758L65.3044 16.8659ZM63.887 15.427L63.7772 15.6116L63.7789 15.6125L63.7806 15.6135L63.887 15.427ZM59.9139 15.427L60.0206 15.6135L60.0213 15.6131L60.022 15.6127L59.9139 15.427ZM58.475 16.8659L58.2893 16.758L58.2889 16.7587L58.2886 16.7594L58.475 16.8659ZM58.475 20.8175L58.2886 20.9241L58.2896 20.9258L58.2905 20.9274L58.475 20.8175ZM59.9139 22.2565L59.8041 22.441L59.8067 22.4425L59.8094 22.444L59.9139 22.2565ZM67.1299 13.666V24.1249H67.5594V13.666H67.1299ZM67.3446 23.9101H65.8628V24.3396H67.3446V23.9101ZM66.0775 24.1249V22.1491H65.648V24.1249H66.0775ZM65.6879 22.0246C64.7386 23.3591 63.4854 24.0175 61.9112 24.0175V24.447C63.63 24.447 65.0114 23.7166 66.0379 22.2736L65.6879 22.0246ZM61.9112 24.0175C60.9593 24.0175 60.0869 23.7903 59.2899 23.3369L59.0775 23.7102C59.9413 24.2017 60.8875 24.447 61.9112 24.447V24.0175ZM59.2923 23.3383C58.4936 22.8701 57.8615 22.2378 57.3933 21.4391L57.0227 21.6563C57.5281 22.5185 58.213 23.2035 59.0751 23.7088L59.2923 23.3383ZM57.3945 21.4415C56.9409 20.6441 56.7139 19.7788 56.7139 18.8417H56.2844C56.2844 19.8518 56.53 20.7905 57.0213 21.654L57.3945 21.4415ZM56.7139 18.8417C56.7139 17.8897 56.9411 17.0174 57.3945 16.2205L57.0213 16.0081C56.5297 16.872 56.2844 17.8179 56.2844 18.8417H56.7139ZM57.3933 16.2229C57.861 15.4247 58.4926 14.8003 59.2899 14.3466L59.0775 13.9733C58.2142 14.4645 57.5284 15.143 57.0227 16.0057L57.3933 16.2229ZM59.2923 14.3452C60.089 13.8782 60.9605 13.6445 61.9112 13.6445V13.215C60.8863 13.215 59.9394 13.468 59.0751 13.9747L59.2923 14.3452ZM61.9112 13.6445C62.8984 13.6445 63.6839 13.853 64.2833 14.2527L64.5215 13.8953C63.8326 13.436 62.9571 13.215 61.9112 13.215V13.6445ZM64.2879 14.2557C64.9288 14.6597 65.3894 15.0904 65.6826 15.5437L66.0432 15.3104C65.7065 14.79 65.1934 14.3188 64.5169 13.8924L64.2879 14.2557ZM66.0775 15.427V13.666H65.648V15.427H66.0775ZM65.8628 13.8807H67.3446V13.4512H65.8628V13.8807ZM61.9112 22.9866C62.6631 22.9866 63.3587 22.8057 63.9936 22.4429L63.7806 22.07C63.2126 22.3944 62.591 22.5571 61.9112 22.5571V22.9866ZM63.997 22.441C64.6296 22.0643 65.1288 21.558 65.491 20.9241L65.118 20.711C64.793 21.2798 64.347 21.7327 63.7772 22.0719L63.997 22.441ZM65.4891 20.9274C65.8671 20.2921 66.0561 19.5953 66.0561 18.8417H65.6265C65.6265 19.5199 65.4576 20.1404 65.1199 20.7077L65.4891 20.9274ZM66.0561 18.8417C66.0561 18.0881 65.8671 17.3914 65.4891 16.7561L65.1199 16.9758C65.4576 17.5431 65.6265 18.1636 65.6265 18.8417H66.0561ZM65.492 16.7613C65.1297 16.1121 64.6296 15.6039 63.9936 15.2406L63.7806 15.6135C64.3473 15.9374 64.7921 16.3884 65.1168 16.9706L65.492 16.7613ZM63.997 15.2425C63.3615 14.8643 62.6647 14.6754 61.9112 14.6754V15.1049C62.5893 15.1049 63.2098 15.2739 63.7772 15.6116L63.997 15.2425ZM61.9112 14.6754C61.1576 14.6754 60.4546 14.8643 59.806 15.2414L60.022 15.6127C60.6045 15.2739 61.233 15.1049 61.9112 15.1049V14.6754ZM59.8075 15.2406C59.1722 15.6035 58.6656 16.1106 58.2893 16.758L58.6606 16.9739C59.0002 16.3899 59.4529 15.9378 60.0206 15.6135L59.8075 15.2406ZM58.2886 16.7594C57.9257 17.3943 57.7448 18.0898 57.7448 18.8417H58.1743C58.1743 18.1619 58.3371 17.5402 58.6616 16.9725L58.2886 16.7594ZM57.7448 18.8417C57.7448 19.5937 57.9257 20.2892 58.2886 20.9241L58.6616 20.711C58.3371 20.1432 58.1743 19.5216 58.1743 18.8417H57.7448ZM58.2905 20.9274C58.6666 21.5595 59.172 22.0648 59.8041 22.441L60.0239 22.0719C59.4531 21.7323 58.9992 21.2783 58.6597 20.7077L58.2905 20.9274ZM59.8094 22.444C60.4575 22.8057 61.1593 22.9866 61.9112 22.9866V22.5571C61.2313 22.5571 60.6018 22.3944 60.0186 22.0689L59.8094 22.444ZM76.3804 13.8807L76.2699 14.0649L76.2723 14.0663L76.2746 14.0677L76.3804 13.8807ZM77.9266 15.427L77.7396 15.5327L77.741 15.5351L77.7424 15.5375L77.9266 15.427ZM78.5065 24.1249V24.3396H78.7213V24.1249H78.5065ZM77.0246 24.1249H76.8099V24.3396H77.0246V24.1249ZM76.6381 16.1572L76.4512 16.2631L76.4524 16.2654L76.4539 16.2677L76.6381 16.1572ZM75.6287 15.1478L75.5154 15.3303L75.5189 15.3326L75.5227 15.3347L75.6287 15.1478ZM72.8583 15.1478L72.964 15.3347L72.9664 15.3334L72.9688 15.332L72.8583 15.1478ZM71.8274 16.1572L71.6432 16.0467L71.6418 16.049L71.6406 16.0513L71.8274 16.1572ZM71.4623 24.1249V24.3396H71.6771V24.1249H71.4623ZM69.9805 24.1249H69.7657V24.3396H69.9805V24.1249ZM69.9805 9.80027V9.58551H69.7657V9.80027H69.9805ZM71.4623 9.80027H71.6771V9.58551H71.4623V9.80027ZM71.4623 14.5036H71.2476V15.0841L71.6253 14.6433L71.4623 14.5036ZM72.6865 13.6016L72.6046 13.403L72.6034 13.4034L72.6025 13.4039L72.6865 13.6016ZM74.2542 13.5157C74.9894 13.5157 75.66 13.699 76.2699 14.0649L76.4908 13.6966C75.8122 13.2894 75.0651 13.0861 74.2542 13.0861V13.5157ZM76.2746 14.0677C76.8991 14.4208 77.3866 14.9081 77.7396 15.5327L78.1135 15.3213C77.7221 14.6288 77.1786 14.0852 76.4858 13.6938L76.2746 14.0677ZM77.7424 15.5375C78.1082 16.1474 78.2917 16.8178 78.2917 17.5532H78.7213C78.7213 16.7423 78.5179 15.9952 78.1106 15.3165L77.7424 15.5375ZM78.2917 17.5532V24.1249H78.7213V17.5532H78.2917ZM78.5065 23.9101H77.0246V24.3396H78.5065V23.9101ZM77.2394 24.1249V17.5532H76.8099V24.1249H77.2394ZM77.2394 17.5532C77.2394 17.0131 77.0998 16.5096 76.8221 16.0467L76.4539 16.2677C76.6915 16.6638 76.8099 17.091 76.8099 17.5532H77.2394ZM76.8249 16.0513C76.5622 15.588 76.1978 15.2236 75.7344 14.961L75.5227 15.3347C75.9184 15.5589 76.2269 15.8674 76.4512 16.2631L76.8249 16.0513ZM75.7418 14.9654C75.2918 14.686 74.7942 14.5465 74.2542 14.5465V14.976C74.7162 14.976 75.135 15.0943 75.5154 15.3303L75.7418 14.9654ZM74.2542 14.5465C73.7142 14.5465 73.2105 14.6859 72.7478 14.9637L72.9688 15.332C73.3649 15.0943 73.792 14.976 74.2542 14.976V14.5465ZM72.7523 14.961C72.2901 15.2229 71.9198 15.5859 71.6432 16.0467L72.0114 16.2677C72.2505 15.8695 72.5672 15.5595 72.964 15.3347L72.7523 14.961ZM71.6406 16.0513C71.3786 16.5137 71.2476 17.0155 71.2476 17.5532H71.6771C71.6771 17.0886 71.7892 16.6598 72.0143 16.2631L71.6406 16.0513ZM71.2476 17.5532V24.1249H71.6771V17.5532H71.2476ZM71.4623 23.9101H69.9805V24.3396H71.4623V23.9101ZM70.1952 24.1249V9.80027H69.7657V24.1249H70.1952ZM69.9805 10.015H71.4623V9.58551H69.9805V10.015ZM71.2476 9.80027V14.5036H71.6771V9.80027H71.2476ZM71.6253 14.6433C71.9479 14.2668 72.3292 13.9864 72.7702 13.7993L72.6025 13.4039C72.0985 13.6176 71.6637 13.9385 71.2991 14.3638L71.6253 14.6433ZM72.7681 13.8001C73.2274 13.611 73.7221 13.5157 74.2542 13.5157V13.0861C73.6694 13.0861 73.1188 13.1912 72.6046 13.403L72.7681 13.8001ZM82.6099 9.84322H82.8246V9.62846H82.6099V9.84322ZM82.6099 24.1249V24.3396H82.8246V24.1249H82.6099ZM81.1495 24.1249H80.9347V24.3396H81.1495V24.1249ZM81.1495 9.84322V9.62846H80.9347V9.84322H81.1495ZM82.3951 9.84322V24.1249H82.8246V9.84322H82.3951ZM82.6099 23.9101H81.1495V24.3396H82.6099V23.9101ZM81.3643 24.1249V9.84322H80.9347V24.1249H81.3643ZM81.1495 10.058H82.6099V9.62846H81.1495V10.058ZM86.8829 10.6808L86.7311 10.8327L86.8829 10.6808ZM86.8829 12.0338L86.7311 11.8819L86.8829 12.0338ZM85.5299 12.0338L85.3781 12.1857L85.5299 12.0338ZM85.5299 10.6808L85.3781 10.5289L85.5299 10.6808ZM86.9473 13.3868H87.1621V13.172H86.9473V13.3868ZM86.9473 24.1249V24.3396H87.1621V24.1249H86.9473ZM85.4655 24.1249H85.2507V24.3396H85.4655V24.1249ZM85.4655 13.3868V13.172H85.2507V13.3868H85.4655ZM86.2172 10.6164C86.4166 10.6164 86.5841 10.6858 86.7311 10.8327L87.0347 10.5289C86.8094 10.3035 86.5331 10.1868 86.2172 10.1868V10.6164ZM86.7311 10.8327C86.8779 10.9795 86.9473 11.1472 86.9473 11.3466H87.3769C87.3769 11.0305 87.2602 10.7544 87.0347 10.5289L86.7311 10.8327ZM86.9473 11.3466C86.9473 11.5638 86.8755 11.7376 86.7311 11.8819L87.0347 12.1857C87.2626 11.9578 87.3769 11.6734 87.3769 11.3466H86.9473ZM86.7311 11.8819C86.5841 12.0288 86.4166 12.0982 86.2172 12.0982V12.5277C86.5331 12.5277 86.8094 12.4111 87.0347 12.1857L86.7311 11.8819ZM86.2172 12.0982C86 12.0982 85.826 12.0263 85.6817 11.8819L85.3781 12.1857C85.606 12.4135 85.8902 12.5277 86.2172 12.5277V12.0982ZM85.6817 11.8819C85.5373 11.7376 85.4655 11.5638 85.4655 11.3466H85.036C85.036 11.6734 85.1503 11.9578 85.3781 12.1857L85.6817 11.8819ZM85.4655 11.3466C85.4655 11.1472 85.5349 10.9795 85.6817 10.8327L85.3781 10.5289C85.1526 10.7544 85.036 11.0305 85.036 11.3466H85.4655ZM85.6817 10.8327C85.826 10.6883 86 10.6164 86.2172 10.6164V10.1868C85.8902 10.1868 85.606 10.301 85.3781 10.5289L85.6817 10.8327ZM86.7326 13.3868V24.1249H87.1621V13.3868H86.7326ZM86.9473 23.9101H85.4655V24.3396H86.9473V23.9101ZM85.6802 24.1249V13.3868H85.2507V24.1249H85.6802ZM85.4655 13.6016H86.9473V13.172H85.4655V13.6016ZM99.7939 13.666H100.009V13.4512H99.7939V13.666ZM99.7939 24.1249V24.3396H100.009V24.1249H99.7939ZM98.312 24.1249H98.0973V24.3396H98.312V24.1249ZM98.312 22.1491H98.5268V21.4767L98.1371 22.0246L98.312 22.1491ZM91.633 23.5235L91.5244 23.7088L91.5256 23.7095L91.5268 23.7102L91.633 23.5235ZM89.6571 21.5477L89.4705 21.654L89.4713 21.6551L89.472 21.6563L89.6571 21.5477ZM89.6571 16.1143L89.472 16.0057L89.4713 16.0069L89.4705 16.0081L89.6571 16.1143ZM91.633 14.1599L91.7391 14.3466L91.7403 14.3459L91.7415 14.3452L91.633 14.1599ZM96.8517 14.074L96.7326 14.2527L96.735 14.2542L96.7371 14.2557L96.8517 14.074ZM98.312 15.427L98.1319 15.5437L98.5268 16.1543V15.427H98.312ZM98.312 13.666V13.4512H98.0973V13.666H98.312ZM96.3362 22.2565L96.4429 22.4429L96.4446 22.442L96.4462 22.441L96.3362 22.2565ZM97.7537 20.8175L97.5692 20.7077L97.5682 20.7093L97.5673 20.711L97.7537 20.8175ZM97.7537 16.8659L97.5661 16.9706L97.5675 16.9732L97.5692 16.9758L97.7537 16.8659ZM96.3362 15.427L96.2265 15.6116L96.2281 15.6125L96.2298 15.6135L96.3362 15.427ZM92.3631 15.427L92.4698 15.6135L92.4705 15.6131L92.4712 15.6127L92.3631 15.427ZM90.9242 16.8659L90.7386 16.758L90.7384 16.7587L90.7379 16.7594L90.9242 16.8659ZM90.9242 20.8175L90.7379 20.9241L90.7388 20.9258L90.7398 20.9274L90.9242 20.8175ZM92.3631 22.2565L92.2534 22.441L92.256 22.4425L92.2586 22.444L92.3631 22.2565ZM99.5791 13.666V24.1249H100.009V13.666H99.5791ZM99.7939 23.9101H98.312V24.3396H99.7939V23.9101ZM98.5268 24.1249V22.1491H98.0973V24.1249H98.5268ZM98.1371 22.0246C97.1879 23.3591 95.9346 24.0175 94.3604 24.0175V24.447C96.0792 24.447 97.4606 23.7166 98.4872 22.2736L98.1371 22.0246ZM94.3604 24.0175C93.4086 24.0175 92.5361 23.7903 91.7391 23.3369L91.5268 23.7102C92.3908 24.2017 93.3367 24.447 94.3604 24.447V24.0175ZM91.7415 23.3383C90.9429 22.8701 90.3107 22.2378 89.8426 21.4391L89.472 21.6563C89.9774 22.5185 90.6622 23.2035 91.5244 23.7088L91.7415 23.3383ZM89.8438 21.4415C89.3901 20.6441 89.1632 19.7788 89.1632 18.8417H88.7337C88.7337 19.8518 88.9792 20.7905 89.4705 21.654L89.8438 21.4415ZM89.1632 18.8417C89.1632 17.8897 89.3904 17.0174 89.8438 16.2205L89.4705 16.0081C88.979 16.872 88.7337 17.8179 88.7337 18.8417H89.1632ZM89.8426 16.2229C90.3103 15.4247 90.9419 14.8003 91.7391 14.3466L91.5268 13.9733C90.6634 14.4645 89.9776 15.143 89.472 16.0057L89.8426 16.2229ZM91.7415 14.3452C92.5383 13.8782 93.4097 13.6445 94.3604 13.6445V13.215C93.3355 13.215 92.3887 13.468 91.5244 13.9747L91.7415 14.3452ZM94.3604 13.6445C95.3476 13.6445 96.1332 13.853 96.7326 14.2527L96.9707 13.8953C96.2818 13.436 95.4063 13.215 94.3604 13.215V13.6445ZM96.7371 14.2557C97.3781 14.6597 97.8386 15.0904 98.1319 15.5437L98.4924 15.3104C98.1557 14.79 97.6427 14.3188 96.9662 13.8924L96.7371 14.2557ZM98.5268 15.427V13.666H98.0973V15.427H98.5268ZM98.312 13.8807H99.7939V13.4512H98.312V13.8807ZM94.3604 22.9866C95.1123 22.9866 95.8079 22.8057 96.4429 22.4429L96.2298 22.07C95.6619 22.3944 95.0403 22.5571 94.3604 22.5571V22.9866ZM96.4462 22.441C97.0791 22.0643 97.578 21.558 97.9403 20.9241L97.5673 20.711C97.2423 21.2798 96.7963 21.7327 96.2265 22.0719L96.4462 22.441ZM97.9383 20.9274C98.3163 20.2921 98.5053 19.5953 98.5053 18.8417H98.0758C98.0758 19.5199 97.9069 20.1404 97.5692 20.7077L97.9383 20.9274ZM98.5053 18.8417C98.5053 18.0881 98.3163 17.3914 97.9383 16.7561L97.5692 16.9758C97.9069 17.5431 98.0758 18.1636 98.0758 18.8417H98.5053ZM97.9412 16.7613C97.579 16.1121 97.0788 15.6039 96.4429 15.2406L96.2298 15.6135C96.7965 15.9374 97.2413 16.3884 97.5661 16.9706L97.9412 16.7613ZM96.4462 15.2425C95.8108 14.8643 95.114 14.6754 94.3604 14.6754V15.1049C95.0386 15.1049 95.659 15.2739 96.2265 15.6116L96.4462 15.2425ZM94.3604 14.6754C93.6069 14.6754 92.9039 14.8643 92.2553 15.2414L92.4712 15.6127C93.0537 15.2739 93.6823 15.1049 94.3604 15.1049V14.6754ZM92.2567 15.2406C91.6215 15.6035 91.1149 16.1106 90.7386 16.758L91.1099 16.9739C91.4494 16.3899 91.9021 15.9378 92.4698 15.6135L92.2567 15.2406ZM90.7379 16.7594C90.3749 17.3943 90.1941 18.0898 90.1941 18.8417H90.6236C90.6236 18.1619 90.7863 17.5402 91.1108 16.9725L90.7379 16.7594ZM90.1941 18.8417C90.1941 19.5937 90.3749 20.2892 90.7379 20.9241L91.1108 20.711C90.7863 20.1432 90.6236 19.5216 90.6236 18.8417H90.1941ZM90.7398 20.9274C91.1161 21.5595 91.6213 22.0648 92.2534 22.441L92.4731 22.0719C91.9024 21.7323 91.4485 21.2783 91.1089 20.7077L90.7398 20.9274ZM92.2586 22.444C92.9067 22.8057 93.6085 22.9866 94.3604 22.9866V22.5571C93.6806 22.5571 93.0511 22.3944 92.4679 22.0689L92.2586 22.444ZM105.78 23.2658L105.889 23.081L105.78 23.2658ZM103.181 20.6672L102.996 20.7766L103.181 20.6672ZM103.181 13.4942L103.366 13.6036L103.366 13.6031L103.367 13.6025L103.181 13.4942ZM105.78 10.8741L105.672 10.6887L105.671 10.689L105.67 10.6893L105.78 10.8741ZM112.953 10.8741L112.845 11.0595L112.953 10.8741ZM115.573 13.4942L115.759 13.3858L115.573 13.4942ZM115.573 20.6672L115.758 20.7766L115.758 20.7761L115.759 20.7756L115.573 20.6672ZM112.953 23.2658L112.845 23.0804L112.844 23.0807L112.844 23.081L112.953 23.2658ZM112.223 22.0202L112.33 22.2065L112.331 22.2058L112.332 22.2052L112.223 22.0202ZM114.285 19.937L114.1 19.8279L114.099 19.829L114.098 19.8301L114.285 19.937ZM114.285 14.2244L114.098 14.3312L114.099 14.3324L114.1 14.3335L114.285 14.2244ZM112.223 12.1627L112.114 12.3476L112.115 12.3483L112.116 12.3489L112.223 12.1627ZM106.51 12.1627L106.617 12.3489L106.618 12.3483L106.619 12.3476L106.51 12.1627ZM104.427 14.2244L104.242 14.1152L104.241 14.1163L104.241 14.1175L104.427 14.2244ZM104.427 19.937L104.241 20.0439L104.241 20.0451L104.242 20.0462L104.427 19.937ZM106.51 22.0202L106.401 22.2052L106.402 22.2058L106.403 22.2065L106.51 22.0202ZM109.367 24.0175C108.101 24.0175 106.943 23.7051 105.889 23.081L105.67 23.4506C106.793 24.1151 108.026 24.447 109.367 24.447V24.0175ZM105.889 23.081C104.832 22.4551 103.992 21.6149 103.366 20.5578L102.996 20.7766C103.659 21.8958 104.551 22.788 105.67 23.4506L105.889 23.081ZM103.366 20.5578C102.742 19.5038 102.43 18.3463 102.43 17.0807H102C102 18.4209 102.332 19.6544 102.996 20.7766L103.366 20.5578ZM102.43 17.0807C102.43 15.8151 102.742 14.6576 103.366 13.6036L102.996 13.3848C102.332 14.507 102 15.7405 102 17.0807H102.43ZM103.367 13.6025C103.993 12.5313 104.833 11.6844 105.889 11.0589L105.67 10.6893C104.551 11.3524 103.658 12.2522 102.996 13.3858L103.367 13.6025ZM105.888 11.0595C106.958 10.4346 108.116 10.1224 109.367 10.1224V9.69289C108.04 9.69289 106.807 10.025 105.672 10.6887L105.888 11.0595ZM109.367 10.1224C110.617 10.1224 111.775 10.4346 112.845 11.0595L113.061 10.6887C111.926 10.025 110.693 9.69289 109.367 9.69289V10.1224ZM112.845 11.0595C113.915 11.6851 114.762 12.532 115.388 13.6025L115.759 13.3858C115.096 12.2515 114.196 11.3516 113.061 10.6887L112.845 11.0595ZM115.388 13.6025C116.012 14.6718 116.325 15.8299 116.325 17.0807H116.754C116.754 15.7544 116.422 14.5215 115.759 13.3858L115.388 13.6025ZM116.325 17.0807C116.325 18.3315 116.012 19.4896 115.388 20.5589L115.759 20.7756C116.422 19.6399 116.754 18.407 116.754 17.0807H116.325ZM115.388 20.5578C114.763 21.6142 113.916 22.4544 112.845 23.0804L113.061 23.4512C114.195 22.7887 115.095 21.8965 115.758 20.7766L115.388 20.5578ZM112.844 23.081C111.79 23.7051 110.632 24.0175 109.367 24.0175V24.447C110.707 24.447 111.94 24.1151 113.062 23.4506L112.844 23.081ZM109.367 22.9866C110.434 22.9866 111.423 22.7267 112.33 22.2065L112.116 21.8339C111.276 22.3159 110.361 22.5571 109.367 22.5571V22.9866ZM112.332 22.2052C113.237 21.671 113.951 20.9498 114.471 20.0439L114.098 19.8301C113.616 20.671 112.955 21.3386 112.114 21.8353L112.332 22.2052ZM114.469 20.0462C115.005 19.1392 115.272 18.1493 115.272 17.0807H114.843C114.843 18.0738 114.595 18.9881 114.1 19.8279L114.469 20.0462ZM115.272 17.0807C115.272 16.0121 115.005 15.0222 114.469 14.1152L114.1 14.3335C114.595 15.1733 114.843 16.0876 114.843 17.0807H115.272ZM114.471 14.1175C113.951 13.2111 113.236 12.4964 112.33 11.9764L112.116 12.3489C112.956 12.8311 113.616 13.4909 114.098 14.3312L114.471 14.1175ZM112.332 11.9777C111.425 11.4424 110.435 11.1747 109.367 11.1747V11.6043C110.36 11.6043 111.274 11.852 112.114 12.3476L112.332 11.9777ZM109.367 11.1747C108.298 11.1747 107.308 11.4424 106.401 11.9777L106.619 12.3476C107.459 11.852 108.373 11.6043 109.367 11.6043V11.1747ZM106.403 11.9764C105.497 12.4961 104.776 13.21 104.242 14.1152L104.612 14.3335C105.109 13.492 105.776 12.8314 106.617 12.3489L106.403 11.9764ZM104.241 14.1175C103.72 15.0242 103.461 16.0133 103.461 17.0807H103.89C103.89 16.0864 104.131 15.1713 104.613 14.3312L104.241 14.1175ZM103.461 17.0807C103.461 18.1481 103.72 19.1372 104.241 20.0439L104.613 19.8301C104.131 18.9901 103.89 18.075 103.89 17.0807H103.461ZM104.242 20.0462C104.776 20.9508 105.496 21.6713 106.401 22.2052L106.619 21.8353C105.777 21.3383 105.109 20.67 104.612 19.8279L104.242 20.0462ZM106.403 22.2065C107.31 22.7267 108.299 22.9866 109.367 22.9866V22.5571C108.372 22.5571 107.457 22.3159 106.617 21.8339L106.403 22.2065ZM126.58 13.9881H126.795V13.974L126.793 13.9601L126.58 13.9881ZM126.065 12.5707L125.885 12.6877L125.886 12.6895L125.887 12.6913L126.065 12.5707ZM120.954 12.0123L120.802 11.8605L120.801 11.8617L120.799 11.8629L120.954 12.0123ZM121.018 15.6847L120.898 15.8626L121.018 15.6847ZM123.058 16.2861L123.077 16.0721L123.076 16.0721L123.076 16.072L123.058 16.2861ZM125.163 16.6297L125.106 16.8368L125.109 16.8374L125.111 16.838L125.163 16.6297ZM126.602 17.231L126.483 17.4097L126.486 17.4117L126.489 17.4136L126.602 17.231ZM127.804 21.6981L127.609 21.6092L127.608 21.6117L127.607 21.6142L127.804 21.6981ZM126.924 22.9652L126.775 22.8105L126.774 22.8113L126.773 22.8121L126.924 22.9652ZM119.708 22.9866L119.856 22.8311L119.855 22.83L119.854 22.829L119.708 22.9866ZM118.334 20.1518V19.937H118.088L118.121 20.18L118.334 20.1518ZM119.815 20.1518L120.027 20.1138L119.995 19.937H119.815V20.1518ZM120.717 21.9128L120.568 22.067L120.569 22.0686L120.571 22.0701L120.717 21.9128ZM125.721 22.0632L125.854 22.232L125.854 22.2318L125.854 22.2316L125.721 22.0632ZM126.344 18.9921L126.157 19.0978L126.16 19.1026L126.163 19.1074L126.344 18.9921ZM125.249 18.1975L125.323 17.9959L125.249 18.1975ZM122.929 17.7679L122.911 17.9819L122.911 17.9819L122.911 17.9819L122.929 17.7679ZM119.085 12.27L118.886 12.1903L118.885 12.1918L118.884 12.1933L119.085 12.27ZM119.923 10.9815L119.771 10.8296L119.923 10.9815ZM123.295 9.80027L123.297 9.58551H123.296H123.295V9.80027ZM126.666 11.0244L126.512 11.1735L126.513 11.1749L126.514 11.1763L126.666 11.0244ZM128.062 14.0096V14.2244H128.304L128.276 13.9842L128.062 14.0096ZM126.58 14.0096H126.366V14.2244H126.58V14.0096ZM126.793 13.9601C126.718 13.3873 126.536 12.8822 126.243 12.4501L125.887 12.6913C126.138 13.061 126.3 13.5008 126.368 14.0161L126.793 13.9601ZM126.245 12.4537C125.637 11.5177 124.635 11.0674 123.295 11.0674V11.4969C124.532 11.4969 125.377 11.9056 125.885 12.6877L126.245 12.4537ZM123.295 11.0674C122.195 11.0674 121.346 11.3158 120.802 11.8605L121.106 12.1642C121.534 11.7353 122.247 11.4969 123.295 11.4969V11.0674ZM120.799 11.8629C120.308 12.37 120.073 13.0513 120.073 13.8807H120.503C120.503 13.1353 120.711 12.5709 121.108 12.1617L120.799 11.8629ZM120.073 13.8807C120.073 14.7887 120.327 15.4764 120.898 15.8626L121.138 15.5068C120.736 15.2344 120.503 14.7196 120.503 13.8807H120.073ZM120.898 15.8626C121.427 16.2203 122.147 16.4269 123.041 16.5001L123.076 16.072C122.223 16.0021 121.583 15.8078 121.138 15.5068L120.898 15.8626ZM123.04 16.5001C123.862 16.5709 124.55 16.6838 125.106 16.8368L125.22 16.4226C124.631 16.2606 123.915 16.1444 123.077 16.0721L123.04 16.5001ZM125.111 16.838C125.666 16.9768 126.121 17.1688 126.483 17.4097L126.721 17.0523C126.309 16.7778 125.806 16.5689 125.215 16.4214L125.111 16.838ZM126.489 17.4136C127.433 17.9989 127.912 18.9122 127.912 20.1947H128.341C128.341 18.7856 127.804 17.7231 126.715 17.0485L126.489 17.4136ZM127.912 20.1947C127.912 20.6945 127.811 21.1652 127.609 21.6092L128 21.7869C128.228 21.286 128.341 20.7545 128.341 20.1947H127.912ZM127.607 21.6142C127.418 22.0588 127.142 22.4574 126.775 22.8105L127.073 23.1199C127.479 22.7285 127.79 22.2823 128.002 21.7819L127.607 21.6142ZM126.773 22.8121C125.949 23.6226 124.813 24.039 123.337 24.039V24.4685C124.897 24.4685 126.152 24.0259 127.075 23.1183L126.773 22.8121ZM123.337 24.039C121.846 24.039 120.694 23.6289 119.856 22.8311L119.56 23.1422C120.497 24.034 121.765 24.4685 123.337 24.4685V24.039ZM119.854 22.829C119.137 22.1667 118.698 21.2706 118.546 20.1236L118.121 20.18C118.284 21.4096 118.761 22.4034 119.562 23.1443L119.854 22.829ZM118.334 20.3665H119.815V19.937H118.334V20.3665ZM119.604 20.1898C119.74 20.945 120.06 21.5743 120.568 22.067L120.867 21.7587C120.43 21.3351 120.148 20.7903 120.027 20.1138L119.604 20.1898ZM120.571 22.0701C121.239 22.6914 122.179 22.9866 123.359 22.9866V22.5571C122.248 22.5571 121.427 22.2797 120.864 21.7556L120.571 22.0701ZM123.359 22.9866C124.367 22.9866 125.206 22.7416 125.854 22.232L125.589 21.8943C125.035 22.3297 124.298 22.5571 123.359 22.5571V22.9866ZM125.854 22.2316C126.52 21.7057 126.86 21.0218 126.86 20.1947H126.43C126.43 20.8853 126.154 21.447 125.588 21.8947L125.854 22.2316ZM126.86 20.1947C126.86 19.6793 126.753 19.2352 126.525 18.8768L126.163 19.1074C126.336 19.3789 126.43 19.7366 126.43 20.1947H126.86ZM126.531 18.8864C126.31 18.4945 125.891 18.205 125.323 17.9959L125.175 18.399C125.695 18.5908 126.006 18.831 126.157 19.0978L126.531 18.8864ZM125.323 17.9959C124.753 17.7857 123.957 17.6405 122.948 17.554L122.911 17.9819C123.906 18.0672 124.657 18.2083 125.175 18.399L125.323 17.9959ZM122.949 17.554C121.601 17.4347 120.623 17.0599 119.984 16.4573C119.35 15.8595 119.021 15.011 119.021 13.8807H118.591C118.591 15.0986 118.949 16.072 119.69 16.7699C120.425 17.463 121.509 17.8578 122.911 17.9819L122.949 17.554ZM119.021 13.8807C119.021 13.3167 119.11 12.8061 119.286 12.3467L118.884 12.1933C118.688 12.7075 118.591 13.2708 118.591 13.8807H119.021ZM119.285 12.3498C119.475 11.8739 119.739 11.4694 120.075 11.1333L119.771 10.8296C119.391 11.2094 119.096 11.664 118.886 12.1903L119.285 12.3498ZM120.075 11.1333C120.811 10.3971 121.866 10.015 123.273 10.015V9.58551C121.788 9.58551 120.61 9.99086 119.771 10.8296L120.075 11.1333ZM123.273 10.015H123.295V9.58551H123.273V10.015ZM123.292 10.015C124.729 10.029 125.79 10.4253 126.512 11.1735L126.821 10.8753C125.996 10.02 124.81 9.60021 123.297 9.58551L123.292 10.015ZM126.514 11.1763C127.265 11.9266 127.711 12.8757 127.849 14.035L128.276 13.9842C128.127 12.7382 127.643 11.6971 126.818 10.8726L126.514 11.1763ZM128.062 13.7948H126.58V14.2244H128.062V13.7948ZM126.795 14.0096V13.9881H126.366V14.0096H126.795Z" fill="black"/>
</g>
<defs>
<linearGradient id="paint0_linear" x1="7.23113" y1="7.26532" x2="28.4599" y2="28.5282" gradientUnits="userSpaceOnUse">
<stop stop-color="#C00000"/>
<stop offset="1" stop-color="#FF4300"/>
</linearGradient>
<linearGradient id="paint1_linear" x1="7.23116" y1="7.26533" x2="28.46" y2="28.5282" gradientUnits="userSpaceOnUse">
<stop stop-color="#C00000"/>
<stop offset="1" stop-color="#FF4300"/>
</linearGradient>
<clipPath id="clip0">
<rect width="129" height="35.7936" fill="white"/>
</clipPath>
</defs>
</svg>
